M48
; DRILL file KiCad 10.0.1 date 2026-05-06T14:34:02
; FORMAT={-:-/ absolute / metric / decimal}
; #@! TF.CreationDate,2026-05-06T14:34:02-07:00
; #@! TF.GenerationSoftware,Kicad,Pcbnew,10.0.1
; #@! TF.FileFunction,Plated,1,6,PTH
FMAT,2
METRIC
; #@! TA.AperFunction,Plated,PTH,ViaDrill
T1C0.300
; #@! TA.AperFunction,Plated,PTH,ComponentDrill
T2C0.460
; #@! TA.AperFunction,Plated,PTH,ComponentDrill
T3C0.600
; #@! TA.AperFunction,Plated,PTH,ComponentDrill
T4C1.000
%
G90
G05
T1
X81.5Y-81.8
X82.7Y-144.1
X83.7Y-131.3
X85.3Y-108.95
X85.95Y-109.6
X86.65Y-110.3
X86.825Y-121.385
X87.35Y-111.0
X87.64Y-117.812
X87.64Y-115.9
X87.8Y-106.7
X88.14Y-123.7
X88.39Y-121.4
X88.6Y-117.8
X88.7Y-107.5
X89.14Y-121.4
X89.279Y-70.939
X89.279Y-71.939
X89.28Y-72.956
X89.295Y-73.994
X89.295Y-74.994
X89.295Y-75.994
X89.295Y-77.011
X89.3Y-78.0
X89.3Y-79.0
X89.3Y-80.0
X89.3Y-84.0
X89.3Y-85.0
X89.3Y-86.0
X89.3Y-87.0
X89.3Y-88.0
X89.3Y-89.0
X89.301Y-81.017
X89.301Y-82.017
X89.301Y-83.017
X89.322Y-90.02
X89.42Y-124.72
X89.6Y-108.4
X90.04Y-122.4
X91.22Y-122.9
X92.1Y-131.9
X92.8Y-122.1
X94.5Y-145.4
X94.5Y-146.1
X94.5Y-146.8
X94.5Y-147.5
X95.2Y-130.2
X95.2Y-145.4
X95.2Y-146.1
X95.2Y-146.8
X95.2Y-147.5
X95.2Y-150.3
X95.5Y-154.2
X95.9Y-145.4
X95.9Y-146.1
X95.9Y-146.8
X95.9Y-147.5
X95.9Y-150.3
X96.1Y-159.7
X96.2Y-154.2
X96.2Y-155.1
X96.6Y-145.4
X96.6Y-146.1
X96.6Y-146.8
X96.6Y-147.5
X96.6Y-149.6
X96.6Y-150.3
X97.3Y-145.4
X97.3Y-146.1
X97.3Y-146.8
X97.3Y-147.5
X97.4Y-141.3
X97.5Y-131.9
X97.7Y-135.4
X98.0Y-98.0
X98.0Y-145.4
X98.0Y-147.5
X98.1Y-140.0
X100.0Y-98.0
X100.1Y-148.8
X100.1Y-154.8
X100.23Y-144.365
X100.8Y-140.8
X100.875Y-139.075
X100.9Y-129.8
X100.9Y-142.7
X101.1Y-144.1
X101.2Y-150.0
X101.8Y-134.9
X102.0Y-98.0
X102.0Y-137.6
X102.2Y-128.4
X102.2Y-129.4
X102.33Y-135.53
X102.479Y-86.008
X102.479Y-87.008
X102.479Y-88.008
X102.479Y-89.008
X102.501Y-90.028
X102.677Y-76.002
X102.678Y-70.984
X102.678Y-71.984
X102.678Y-72.984
X102.678Y-73.984
X102.699Y-77.022
X102.7Y-75.004
X102.7Y-142.1
X102.7Y-142.8
X102.8Y-126.7
X102.8Y-137.5
X103.1Y-150.2
X103.2Y-128.3
X103.3Y-136.8
X103.4Y-142.1
X103.4Y-142.8
X103.5Y-154.2
X103.8Y-150.2
X104.0Y-76.8
X104.1Y-142.1
X104.1Y-142.8
X104.1Y-155.1
X104.3Y-154.2
X104.3Y-160.7
X104.5Y-132.35
X104.5Y-149.5
X104.5Y-150.2
X104.8Y-142.1
X104.8Y-142.8
X104.85Y-73.45
X105.3Y-133.9
X105.5Y-142.1
X105.5Y-142.8
X106.2Y-142.1
X106.2Y-142.8
X106.5Y-136.7
X106.7Y-121.7
X106.75Y-73.45
X106.9Y-125.6
X106.97Y-135.53
X107.4Y-121.6
X107.6Y-76.8
X108.0Y-125.2
X108.0Y-154.9
X108.2Y-124.2
X108.357Y-135.894
X108.5Y-134.9
X108.6Y-148.8
X108.7Y-122.6
X109.25Y-135.9
X109.25Y-146.0
X109.4Y-125.1
X109.627Y-124.333
X109.9Y-150.6
X110.0Y-98.0
X110.05Y-160.7
X110.1Y-118.1
X110.1Y-119.5
X110.1Y-135.9
X110.2Y-147.9
X112.3Y-135.8
X112.6Y-125.3
X113.8Y-133.9
X114.2Y-103.2
X114.2Y-105.7
X114.5Y-108.7
X114.5Y-109.4
X114.5Y-110.1
X114.8Y-132.5
X115.0Y-126.2
X115.5Y-120.0
X115.6Y-131.5
X116.2Y-132.2
X116.5Y-119.0
X116.5Y-130.9
X116.9Y-94.8
X117.1Y-166.2
X117.2Y-127.0
X118.4Y-128.0
X118.8Y-126.7
X119.7Y-125.0
X120.15Y-128.45
X120.85Y-129.35
X121.1Y-92.0
X121.475Y-126.075
X121.6Y-95.7
X121.6Y-156.9
X122.3Y-160.9
X122.334Y-92.007
X122.4Y-156.9
X123.109Y-95.691
X123.2Y-157.5
X123.8Y-109.0
X125.2Y-110.1
X125.7Y-74.7
X125.7Y-92.5
X125.7Y-103.9
X125.7Y-105.2
X126.4Y-90.0
X126.4Y-93.15
X126.4Y-100.2
X126.4Y-102.7
X127.0Y-80.5
X127.0Y-82.2
X128.7Y-160.9
X130.0Y-75.1
X130.0Y-76.7
X130.173Y-83.236
X131.5Y-162.1
X131.5Y-167.1
X133.0Y-84.9
X133.073Y-83.236
X134.173Y-83.636
X137.5Y-84.9
X139.173Y-80.236
X139.173Y-81.236
X139.173Y-82.236
X139.173Y-83.136
T2
X91.62Y-76.34
X100.38Y-76.34
T4
X91.1Y-166.1
X93.6Y-166.1
X100.22Y-168.5
X102.76Y-168.5
X105.3Y-168.5
X107.84Y-168.5
X110.38Y-168.5
X112.92Y-168.5
X115.46Y-168.5
X118.0Y-168.5
X137.2Y-88.22
X137.2Y-90.76
X137.2Y-93.3
X137.2Y-95.84
T3
G00X121.18Y-162.3
M15
G01X121.18Y-163.4
M16
G05
G00X121.18Y-166.65
M15
G01X121.18Y-167.45
M16
G05
G00X129.82Y-162.3
M15
G01X129.82Y-163.4
M16
G05
G00X129.82Y-166.65
M15
G01X129.82Y-167.45
M16
G05
M30
