%TF.GenerationSoftware,KiCad,Pcbnew,10.0.1*%
%TF.CreationDate,2026-05-06T14:52:27-07:00*%
%TF.ProjectId,senseboard,73656e73-6562-46f6-9172-642e6b696361,rev?*%
%TF.SameCoordinates,Original*%
%TF.FileFunction,Legend,Bot*%
%TF.FilePolarity,Positive*%
%FSLAX46Y46*%
G04 Gerber Fmt 4.6, Leading zero omitted, Abs format (unit mm)*
G04 Created by KiCad (PCBNEW 10.0.1) date 2026-05-06 14:52:27*
%MOMM*%
%LPD*%
G01*
G04 APERTURE LIST*
%ADD10C,0.300000*%
%ADD11C,0.200000*%
%ADD12C,0.100000*%
%ADD13C,0.260000*%
%ADD14C,0.150000*%
%ADD15C,0.120000*%
G04 APERTURE END LIST*
D10*
X81200000Y-99200000D02*
X81200000Y-99200000D01*
G75*
G02*
X82200000Y-98200000I1000000J0D01*
G01*
X137800000Y-98200000D01*
G75*
G02*
X138800000Y-99200000I0J-1000000D01*
G01*
X138800000Y-159800000D01*
G75*
G02*
X137800000Y-160800000I-1000000J0D01*
G01*
X82200000Y-160800000D01*
G75*
G02*
X81200000Y-159800000I0J1000000D01*
G01*
X81200000Y-99200000D01*
G36*
X138938583Y-104142598D02*
G01*
X138938583Y-104257402D01*
X138906066Y-104306066D01*
X82306066Y-160906066D01*
X82257402Y-160938582D01*
X82142598Y-160938582D01*
X82061418Y-160857402D01*
X82061418Y-160742598D01*
X82093934Y-160693934D01*
X138693934Y-104093934D01*
X138742598Y-104061417D01*
X138857402Y-104061417D01*
X138938583Y-104142598D01*
G37*
G36*
X138938582Y-107142598D02*
G01*
X138938582Y-107257402D01*
X138906066Y-107306066D01*
X85306066Y-160906066D01*
X85257402Y-160938582D01*
X85142598Y-160938582D01*
X85061418Y-160857402D01*
X85061418Y-160742598D01*
X85093934Y-160693934D01*
X138693934Y-107093934D01*
X138742598Y-107061418D01*
X138857402Y-107061418D01*
X138938582Y-107142598D01*
G37*
G36*
X138938582Y-110142598D02*
G01*
X138938582Y-110257402D01*
X138906066Y-110306066D01*
X88306066Y-160906066D01*
X88257402Y-160938582D01*
X88142598Y-160938582D01*
X88061418Y-160857402D01*
X88061418Y-160742598D01*
X88093934Y-160693934D01*
X138693934Y-110093934D01*
X138742598Y-110061418D01*
X138857402Y-110061418D01*
X138938582Y-110142598D01*
G37*
G36*
X138938583Y-113142597D02*
G01*
X138938583Y-113257402D01*
X138906066Y-113306066D01*
X91306066Y-160906066D01*
X91257402Y-160938582D01*
X91142598Y-160938582D01*
X91061418Y-160857402D01*
X91061418Y-160742598D01*
X91093934Y-160693934D01*
X138693934Y-113093934D01*
X138742598Y-113061417D01*
X138857403Y-113061417D01*
X138938583Y-113142597D01*
G37*
G36*
X138938582Y-116142598D02*
G01*
X138938582Y-116257402D01*
X138906066Y-116306066D01*
X94306066Y-160906066D01*
X94257402Y-160938582D01*
X94142598Y-160938582D01*
X94061418Y-160857402D01*
X94061418Y-160742598D01*
X94093934Y-160693934D01*
X138693934Y-116093934D01*
X138742598Y-116061418D01*
X138857402Y-116061418D01*
X138938582Y-116142598D01*
G37*
G36*
X138938582Y-119142598D02*
G01*
X138938582Y-119257402D01*
X138906066Y-119306066D01*
X97306066Y-160906066D01*
X97257402Y-160938582D01*
X97142598Y-160938582D01*
X97061418Y-160857402D01*
X97061418Y-160742598D01*
X97093934Y-160693934D01*
X138693934Y-119093934D01*
X138742598Y-119061418D01*
X138857402Y-119061418D01*
X138938582Y-119142598D01*
G37*
G36*
X138938583Y-122142597D02*
G01*
X138938583Y-122257402D01*
X138906066Y-122306066D01*
X100306066Y-160906066D01*
X100257402Y-160938582D01*
X100142598Y-160938582D01*
X100061418Y-160857402D01*
X100061418Y-160742598D01*
X100093934Y-160693934D01*
X138693934Y-122093934D01*
X138742598Y-122061417D01*
X138857403Y-122061417D01*
X138938583Y-122142597D01*
G37*
G36*
X138938582Y-125142598D02*
G01*
X138938582Y-125257402D01*
X138906066Y-125306066D01*
X103306066Y-160906066D01*
X103257402Y-160938582D01*
X103142598Y-160938582D01*
X103061418Y-160857402D01*
X103061418Y-160742598D01*
X103093934Y-160693934D01*
X138693934Y-125093934D01*
X138742598Y-125061418D01*
X138857402Y-125061418D01*
X138938582Y-125142598D01*
G37*
G36*
X138938582Y-128142598D02*
G01*
X138938582Y-128257402D01*
X138906066Y-128306066D01*
X106306066Y-160906066D01*
X106257402Y-160938582D01*
X106142598Y-160938582D01*
X106061418Y-160857402D01*
X106061418Y-160742598D01*
X106093934Y-160693934D01*
X138693934Y-128093934D01*
X138742598Y-128061418D01*
X138857402Y-128061418D01*
X138938582Y-128142598D01*
G37*
G36*
X138938582Y-131142598D02*
G01*
X138938582Y-131257403D01*
X138906066Y-131306066D01*
X109306066Y-160906066D01*
X109257402Y-160938582D01*
X109142598Y-160938582D01*
X109061418Y-160857402D01*
X109061418Y-160742598D01*
X109093934Y-160693934D01*
X138693934Y-131093934D01*
X138742597Y-131061418D01*
X138857402Y-131061418D01*
X138938582Y-131142598D01*
G37*
G36*
X138938582Y-134142598D02*
G01*
X138938582Y-134257402D01*
X138906066Y-134306066D01*
X112306066Y-160906066D01*
X112257402Y-160938582D01*
X112142598Y-160938582D01*
X112061418Y-160857402D01*
X112061418Y-160742598D01*
X112093934Y-160693934D01*
X138693934Y-134093934D01*
X138742598Y-134061418D01*
X138857402Y-134061418D01*
X138938582Y-134142598D01*
G37*
G36*
X138938582Y-137142598D02*
G01*
X138938582Y-137257402D01*
X138906066Y-137306066D01*
X115306066Y-160906066D01*
X115257402Y-160938582D01*
X115142598Y-160938582D01*
X115061418Y-160857402D01*
X115061418Y-160742598D01*
X115093934Y-160693934D01*
X138693934Y-137093934D01*
X138742598Y-137061418D01*
X138857402Y-137061418D01*
X138938582Y-137142598D01*
G37*
G36*
X138938582Y-140142598D02*
G01*
X138938582Y-140257402D01*
X138906066Y-140306066D01*
X118306066Y-160906066D01*
X118257402Y-160938582D01*
X118142598Y-160938582D01*
X118061418Y-160857402D01*
X118061418Y-160742598D01*
X118093934Y-160693934D01*
X138693934Y-140093934D01*
X138742598Y-140061418D01*
X138857402Y-140061418D01*
X138938582Y-140142598D01*
G37*
G36*
X138938583Y-143142598D02*
G01*
X138938583Y-143257402D01*
X138906066Y-143306066D01*
X121306066Y-160906066D01*
X121257402Y-160938582D01*
X121142598Y-160938582D01*
X121061418Y-160857402D01*
X121061418Y-160742598D01*
X121093934Y-160693934D01*
X138693934Y-143093934D01*
X138742598Y-143061417D01*
X138857402Y-143061417D01*
X138938583Y-143142598D01*
G37*
G36*
X138938582Y-146142598D02*
G01*
X138938582Y-146257402D01*
X138906066Y-146306066D01*
X124306066Y-160906066D01*
X124257402Y-160938582D01*
X124142598Y-160938582D01*
X124061418Y-160857402D01*
X124061418Y-160742598D01*
X124093934Y-160693934D01*
X138693934Y-146093934D01*
X138742598Y-146061418D01*
X138857402Y-146061418D01*
X138938582Y-146142598D01*
G37*
G36*
X138938582Y-149142598D02*
G01*
X138938582Y-149257402D01*
X138906066Y-149306066D01*
X127306066Y-160906066D01*
X127257402Y-160938582D01*
X127142598Y-160938582D01*
X127061418Y-160857402D01*
X127061418Y-160742598D01*
X127093934Y-160693934D01*
X138693934Y-149093934D01*
X138742598Y-149061418D01*
X138857402Y-149061418D01*
X138938582Y-149142598D01*
G37*
G36*
X138938583Y-152142598D02*
G01*
X138938583Y-152257402D01*
X138906066Y-152306066D01*
X130306066Y-160906066D01*
X130257402Y-160938582D01*
X130142598Y-160938582D01*
X130061418Y-160857402D01*
X130061418Y-160742598D01*
X130093934Y-160693934D01*
X138693934Y-152093934D01*
X138742598Y-152061417D01*
X138857402Y-152061417D01*
X138938583Y-152142598D01*
G37*
G36*
X138938582Y-155142598D02*
G01*
X138938582Y-155257402D01*
X138906066Y-155306066D01*
X133306066Y-160906066D01*
X133257402Y-160938582D01*
X133142598Y-160938582D01*
X133061418Y-160857402D01*
X133061418Y-160742598D01*
X133093934Y-160693934D01*
X138693934Y-155093934D01*
X138742598Y-155061418D01*
X138857402Y-155061418D01*
X138938582Y-155142598D01*
G37*
G36*
X138938582Y-158142598D02*
G01*
X138938582Y-158257402D01*
X138906066Y-158306066D01*
X136306066Y-160906066D01*
X136257402Y-160938582D01*
X136142598Y-160938582D01*
X136061418Y-160857402D01*
X136061418Y-160742598D01*
X136093934Y-160693934D01*
X138693934Y-158093934D01*
X138742598Y-158061418D01*
X138857402Y-158061418D01*
X138938582Y-158142598D01*
G37*
G36*
X138938582Y-101142598D02*
G01*
X138938582Y-101257402D01*
X138906066Y-101306066D01*
X81306066Y-158906066D01*
X81257402Y-158938582D01*
X81142598Y-158938582D01*
X81061418Y-158857402D01*
X81061418Y-158742598D01*
X81093934Y-158693934D01*
X138693934Y-101093934D01*
X138742598Y-101061418D01*
X138857402Y-101061418D01*
X138938582Y-101142598D01*
G37*
G36*
X138645353Y-98435828D02*
G01*
X138645353Y-98550632D01*
X138612837Y-98599296D01*
X81306066Y-155906066D01*
X81257402Y-155938582D01*
X81142598Y-155938582D01*
X81061418Y-155857402D01*
X81061418Y-155742598D01*
X81093934Y-155693934D01*
X138400705Y-98387164D01*
X138449369Y-98354648D01*
X138564173Y-98354648D01*
X138645353Y-98435828D01*
G37*
G36*
X135938583Y-98142597D02*
G01*
X135938583Y-98257402D01*
X135906066Y-98306066D01*
X81306066Y-152906066D01*
X81257402Y-152938582D01*
X81142598Y-152938582D01*
X81061418Y-152857402D01*
X81061418Y-152742598D01*
X81093934Y-152693934D01*
X135693934Y-98093934D01*
X135742598Y-98061417D01*
X135857403Y-98061417D01*
X135938583Y-98142597D01*
G37*
G36*
X132938582Y-98142598D02*
G01*
X132938582Y-98257402D01*
X132906066Y-98306066D01*
X81306066Y-149906066D01*
X81257402Y-149938582D01*
X81142598Y-149938582D01*
X81061418Y-149857402D01*
X81061418Y-149742598D01*
X81093934Y-149693934D01*
X132693934Y-98093934D01*
X132742598Y-98061418D01*
X132857402Y-98061418D01*
X132938582Y-98142598D01*
G37*
G36*
X129938582Y-98142598D02*
G01*
X129938582Y-98257402D01*
X129906066Y-98306066D01*
X81306066Y-146906066D01*
X81257402Y-146938582D01*
X81142598Y-146938582D01*
X81061418Y-146857402D01*
X81061418Y-146742598D01*
X81093934Y-146693934D01*
X129693934Y-98093934D01*
X129742598Y-98061418D01*
X129857402Y-98061418D01*
X129938582Y-98142598D01*
G37*
G36*
X126938582Y-98142598D02*
G01*
X126938582Y-98257403D01*
X126906066Y-98306066D01*
X81306066Y-143906066D01*
X81257402Y-143938582D01*
X81142598Y-143938582D01*
X81061418Y-143857402D01*
X81061418Y-143742598D01*
X81093934Y-143693934D01*
X126693934Y-98093934D01*
X126742597Y-98061418D01*
X126857402Y-98061418D01*
X126938582Y-98142598D01*
G37*
G36*
X123938582Y-98142598D02*
G01*
X123938582Y-98257402D01*
X123906066Y-98306066D01*
X81306066Y-140906066D01*
X81257402Y-140938582D01*
X81142598Y-140938582D01*
X81061418Y-140857402D01*
X81061418Y-140742598D01*
X81093934Y-140693934D01*
X123693934Y-98093934D01*
X123742598Y-98061418D01*
X123857402Y-98061418D01*
X123938582Y-98142598D01*
G37*
G36*
X120938582Y-98142598D02*
G01*
X120938582Y-98257402D01*
X120906066Y-98306066D01*
X81306066Y-137906066D01*
X81257402Y-137938582D01*
X81142598Y-137938582D01*
X81061418Y-137857402D01*
X81061418Y-137742598D01*
X81093934Y-137693934D01*
X120693934Y-98093934D01*
X120742598Y-98061418D01*
X120857402Y-98061418D01*
X120938582Y-98142598D01*
G37*
G36*
X117938582Y-98142598D02*
G01*
X117938582Y-98257402D01*
X117906066Y-98306066D01*
X81306066Y-134906066D01*
X81257402Y-134938582D01*
X81142598Y-134938582D01*
X81061418Y-134857402D01*
X81061418Y-134742598D01*
X81093934Y-134693934D01*
X117693934Y-98093934D01*
X117742598Y-98061418D01*
X117857402Y-98061418D01*
X117938582Y-98142598D01*
G37*
G36*
X114938583Y-98142598D02*
G01*
X114938583Y-98257402D01*
X114906066Y-98306066D01*
X81306066Y-131906066D01*
X81257402Y-131938582D01*
X81142598Y-131938582D01*
X81061418Y-131857402D01*
X81061418Y-131742598D01*
X81093934Y-131693934D01*
X114693934Y-98093934D01*
X114742598Y-98061417D01*
X114857402Y-98061417D01*
X114938583Y-98142598D01*
G37*
G36*
X111938582Y-98142598D02*
G01*
X111938582Y-98257402D01*
X111906066Y-98306066D01*
X81306066Y-128906066D01*
X81257402Y-128938582D01*
X81142598Y-128938582D01*
X81061418Y-128857402D01*
X81061418Y-128742598D01*
X81093934Y-128693934D01*
X111693934Y-98093934D01*
X111742598Y-98061418D01*
X111857402Y-98061418D01*
X111938582Y-98142598D01*
G37*
G36*
X108938582Y-98142598D02*
G01*
X108938582Y-98257402D01*
X108906066Y-98306066D01*
X81306066Y-125906066D01*
X81257402Y-125938582D01*
X81142598Y-125938582D01*
X81061418Y-125857402D01*
X81061418Y-125742598D01*
X81093934Y-125693934D01*
X108693934Y-98093934D01*
X108742598Y-98061418D01*
X108857402Y-98061418D01*
X108938582Y-98142598D01*
G37*
G36*
X105938583Y-98142598D02*
G01*
X105938583Y-98257402D01*
X105906066Y-98306066D01*
X81306066Y-122906066D01*
X81257402Y-122938582D01*
X81142598Y-122938582D01*
X81061418Y-122857402D01*
X81061418Y-122742598D01*
X81093934Y-122693934D01*
X105693934Y-98093934D01*
X105742598Y-98061417D01*
X105857402Y-98061417D01*
X105938583Y-98142598D01*
G37*
G36*
X102938582Y-98142598D02*
G01*
X102938582Y-98257402D01*
X102906066Y-98306066D01*
X81306066Y-119906066D01*
X81257402Y-119938582D01*
X81142598Y-119938582D01*
X81061418Y-119857402D01*
X81061418Y-119742598D01*
X81093934Y-119693934D01*
X102693934Y-98093934D01*
X102742598Y-98061418D01*
X102857402Y-98061418D01*
X102938582Y-98142598D01*
G37*
G36*
X99938582Y-98142598D02*
G01*
X99938582Y-98257402D01*
X99906066Y-98306066D01*
X81306066Y-116906066D01*
X81257402Y-116938582D01*
X81142598Y-116938582D01*
X81061418Y-116857402D01*
X81061418Y-116742598D01*
X81093934Y-116693934D01*
X99693934Y-98093934D01*
X99742598Y-98061418D01*
X99857402Y-98061418D01*
X99938582Y-98142598D01*
G37*
G36*
X96938583Y-98142597D02*
G01*
X96938583Y-98257402D01*
X96906066Y-98306066D01*
X81306066Y-113906066D01*
X81257402Y-113938582D01*
X81142598Y-113938582D01*
X81061418Y-113857402D01*
X81061418Y-113742598D01*
X81093934Y-113693934D01*
X96693934Y-98093934D01*
X96742598Y-98061417D01*
X96857403Y-98061417D01*
X96938583Y-98142597D01*
G37*
G36*
X93938582Y-98142598D02*
G01*
X93938582Y-98257402D01*
X93906066Y-98306066D01*
X81306066Y-110906066D01*
X81257402Y-110938582D01*
X81142598Y-110938582D01*
X81061418Y-110857402D01*
X81061418Y-110742598D01*
X81093934Y-110693934D01*
X93693934Y-98093934D01*
X93742598Y-98061418D01*
X93857402Y-98061418D01*
X93938582Y-98142598D01*
G37*
G36*
X90938582Y-98142598D02*
G01*
X90938582Y-98257402D01*
X90906066Y-98306066D01*
X81306066Y-107906066D01*
X81257402Y-107938582D01*
X81142598Y-107938582D01*
X81061418Y-107857402D01*
X81061418Y-107742598D01*
X81093934Y-107693934D01*
X90693934Y-98093934D01*
X90742598Y-98061418D01*
X90857402Y-98061418D01*
X90938582Y-98142598D01*
G37*
G36*
X87938583Y-98142597D02*
G01*
X87938583Y-98257402D01*
X87906066Y-98306066D01*
X81306066Y-104906066D01*
X81257402Y-104938582D01*
X81142598Y-104938582D01*
X81061418Y-104857402D01*
X81061418Y-104742598D01*
X81093934Y-104693934D01*
X87693934Y-98093934D01*
X87742598Y-98061417D01*
X87857403Y-98061417D01*
X87938583Y-98142597D01*
G37*
G36*
X84938582Y-98142598D02*
G01*
X84938582Y-98257402D01*
X84906066Y-98306066D01*
X81306066Y-101906066D01*
X81257402Y-101938582D01*
X81142598Y-101938582D01*
X81061418Y-101857402D01*
X81061418Y-101742598D01*
X81093934Y-101693934D01*
X84693934Y-98093934D01*
X84742598Y-98061418D01*
X84857402Y-98061418D01*
X84938582Y-98142598D01*
G37*
G36*
X81738813Y-98342367D02*
G01*
X81738813Y-98457171D01*
X81706297Y-98505835D01*
X81505835Y-98706297D01*
X81457171Y-98738813D01*
X81342367Y-98738813D01*
X81261187Y-98657633D01*
X81261187Y-98542829D01*
X81293703Y-98494165D01*
X81494165Y-98293703D01*
X81542829Y-98261187D01*
X81657633Y-98261187D01*
X81738813Y-98342367D01*
G37*
D11*
G36*
X115036210Y-93943670D02*
G01*
X114855409Y-93943670D01*
X114855409Y-92782527D01*
X115036210Y-92782527D01*
X115036210Y-93943670D01*
G37*
G36*
X119552126Y-93316894D02*
G01*
X119381156Y-93316894D01*
X119381156Y-92778595D01*
X119552126Y-92778595D01*
X119552126Y-93316894D01*
G37*
G36*
X121402593Y-94265409D02*
G01*
X111952792Y-94265409D01*
X111952792Y-93449908D01*
X112108348Y-93449908D01*
X112108348Y-93930847D01*
X112110685Y-93967991D01*
X112128086Y-94027605D01*
X112161178Y-94070652D01*
X112184703Y-94087009D01*
X112212397Y-94099023D01*
X112247492Y-94107131D01*
X112287440Y-94109853D01*
X112467813Y-94109853D01*
X112752136Y-94109853D01*
X112936014Y-94109853D01*
X112933279Y-92940503D01*
X113077834Y-94109853D01*
X113268893Y-94109853D01*
X113413448Y-92940503D01*
X113410712Y-94109853D01*
X113586726Y-94109853D01*
X113709568Y-94109853D01*
X113893446Y-94109853D01*
X113890711Y-92940503D01*
X114035266Y-94109853D01*
X114226325Y-94109853D01*
X114370880Y-92940503D01*
X114368144Y-94109853D01*
X114544158Y-94109853D01*
X114544158Y-92795435D01*
X114661785Y-92795435D01*
X114661785Y-93930761D01*
X114662631Y-93943670D01*
X114664248Y-93968360D01*
X114681992Y-94027672D01*
X114715500Y-94070748D01*
X114739101Y-94087075D01*
X114766845Y-94099096D01*
X114801543Y-94107140D01*
X114840962Y-94109853D01*
X115050657Y-94109853D01*
X115088323Y-94107384D01*
X115147653Y-94089635D01*
X115190734Y-94056137D01*
X115207058Y-94032551D01*
X115219079Y-94004823D01*
X115227121Y-93970152D01*
X115229833Y-93930761D01*
X115229833Y-92795435D01*
X115325491Y-92795435D01*
X115325491Y-93074116D01*
X115519114Y-93074116D01*
X115519114Y-92778595D01*
X115662644Y-92778595D01*
X115662644Y-93943670D01*
X115519114Y-93943670D01*
X115519114Y-93650114D01*
X115325491Y-93650114D01*
X115325491Y-93930761D01*
X115327934Y-93967706D01*
X115345874Y-94027135D01*
X115379809Y-94070556D01*
X115403583Y-94087001D01*
X115431401Y-94099096D01*
X115465817Y-94107140D01*
X115504667Y-94109853D01*
X115677091Y-94109853D01*
X115714393Y-94107502D01*
X115774026Y-94090085D01*
X115817072Y-94056997D01*
X115833426Y-94033481D01*
X115845439Y-94005795D01*
X115853546Y-93970707D01*
X115856267Y-93930761D01*
X115856267Y-93449908D01*
X116269074Y-93449908D01*
X116269074Y-93930847D01*
X116271410Y-93967991D01*
X116288812Y-94027605D01*
X116321904Y-94070652D01*
X116345429Y-94087009D01*
X116373123Y-94099023D01*
X116408218Y-94107131D01*
X116448165Y-94109853D01*
X116628539Y-94109853D01*
X116666103Y-94107398D01*
X116725443Y-94089673D01*
X116768526Y-94056199D01*
X116784852Y-94032622D01*
X116796874Y-94004904D01*
X116804917Y-93970235D01*
X116807630Y-93930847D01*
X116807630Y-93675845D01*
X116614006Y-93675845D01*
X116614006Y-93947602D01*
X116462698Y-93947602D01*
X116462698Y-93449908D01*
X116895508Y-93449908D01*
X116895508Y-93930847D01*
X116897845Y-93967991D01*
X116915246Y-94027605D01*
X116948338Y-94070652D01*
X116971863Y-94087009D01*
X116999557Y-94099023D01*
X117034652Y-94107131D01*
X117074599Y-94109853D01*
X117254973Y-94109853D01*
X117292537Y-94107398D01*
X117351877Y-94089673D01*
X117394960Y-94056199D01*
X117411286Y-94032622D01*
X117423308Y-94004904D01*
X117431351Y-93970235D01*
X117433181Y-93943670D01*
X117497836Y-93943670D01*
X117497836Y-94109853D01*
X117971764Y-94109853D01*
X117971764Y-93943670D01*
X118050325Y-93943670D01*
X118050325Y-94109853D01*
X118492881Y-94109853D01*
X118492881Y-93943670D01*
X118586572Y-93943670D01*
X118586572Y-94109853D01*
X119060501Y-94109853D01*
X119173341Y-94109853D01*
X119361152Y-94109853D01*
X119476813Y-93475212D01*
X119552126Y-93475212D01*
X119552126Y-94109853D01*
X119745749Y-94109853D01*
X119869446Y-94109853D01*
X120063069Y-94109853D01*
X120063069Y-92616259D01*
X120139407Y-92616259D01*
X120330210Y-94109853D01*
X120589913Y-94109853D01*
X120689332Y-92854249D01*
X120788666Y-94109853D01*
X121056234Y-94109853D01*
X121247037Y-92616259D01*
X121045463Y-92616259D01*
X120936213Y-93905287D01*
X120807387Y-92616259D01*
X120567260Y-92616259D01*
X120438434Y-93905287D01*
X120329184Y-92616259D01*
X120139407Y-92616259D01*
X120063069Y-92616259D01*
X119869446Y-92616259D01*
X119869446Y-94109853D01*
X119745749Y-94109853D01*
X119745749Y-92616259D01*
X119366709Y-92616259D01*
X119330030Y-92618591D01*
X119270293Y-92636192D01*
X119246666Y-92650986D01*
X119226920Y-92669692D01*
X119210448Y-92693391D01*
X119198364Y-92721165D01*
X119190254Y-92756012D01*
X119187532Y-92795435D01*
X119187532Y-93296206D01*
X119188908Y-93316894D01*
X119190142Y-93335444D01*
X119208038Y-93395075D01*
X119241151Y-93437605D01*
X119264126Y-93453324D01*
X119290969Y-93464612D01*
X119173341Y-94109853D01*
X119060501Y-94109853D01*
X119060501Y-92616259D01*
X118590505Y-92616259D01*
X118590505Y-92782527D01*
X118866878Y-92782527D01*
X118866878Y-93270732D01*
X118625810Y-93270732D01*
X118625810Y-93436915D01*
X118866878Y-93436915D01*
X118866878Y-93943670D01*
X118586572Y-93943670D01*
X118492881Y-93943670D01*
X118492881Y-92616259D01*
X118299257Y-92616259D01*
X118299257Y-93943670D01*
X118050325Y-93943670D01*
X117971764Y-93943670D01*
X117971764Y-92616259D01*
X117501768Y-92616259D01*
X117501768Y-92782527D01*
X117778141Y-92782527D01*
X117778141Y-93270732D01*
X117537073Y-93270732D01*
X117537073Y-93436915D01*
X117778141Y-93436915D01*
X117778141Y-93943670D01*
X117497836Y-93943670D01*
X117433181Y-93943670D01*
X117434064Y-93930847D01*
X117434064Y-93675845D01*
X117240440Y-93675845D01*
X117240440Y-93947602D01*
X117089132Y-93947602D01*
X117089132Y-93436915D01*
X117251040Y-93436915D01*
X117287642Y-93434595D01*
X117347385Y-93417028D01*
X117371006Y-93402254D01*
X117390747Y-93383569D01*
X117407215Y-93359887D01*
X117419297Y-93332126D01*
X117427409Y-93297269D01*
X117430131Y-93257824D01*
X117430131Y-92795435D01*
X117427803Y-92758761D01*
X117410216Y-92699012D01*
X117395434Y-92675387D01*
X117376740Y-92655642D01*
X117353058Y-92639173D01*
X117325298Y-92627091D01*
X117290460Y-92618980D01*
X117251040Y-92616259D01*
X117080498Y-92616259D01*
X117042899Y-92618721D01*
X116983588Y-92636466D01*
X116940511Y-92669973D01*
X116924184Y-92693574D01*
X116912163Y-92721318D01*
X116904119Y-92756016D01*
X116901407Y-92795435D01*
X116901407Y-93052916D01*
X117095030Y-93052916D01*
X117095030Y-92778595D01*
X117236508Y-92778595D01*
X117236508Y-93270732D01*
X117074599Y-93270732D01*
X117037351Y-93273082D01*
X116977749Y-93290508D01*
X116934704Y-93323624D01*
X116918349Y-93347158D01*
X116906336Y-93374863D01*
X116898229Y-93409960D01*
X116895508Y-93449908D01*
X116462698Y-93449908D01*
X116462698Y-93436915D01*
X116624606Y-93436915D01*
X116661208Y-93434595D01*
X116720951Y-93417028D01*
X116744572Y-93402254D01*
X116764313Y-93383569D01*
X116780781Y-93359887D01*
X116792863Y-93332126D01*
X116800975Y-93297269D01*
X116803697Y-93257824D01*
X116803697Y-92795435D01*
X116801369Y-92758761D01*
X116783782Y-92699012D01*
X116769000Y-92675387D01*
X116750306Y-92655642D01*
X116726624Y-92639173D01*
X116698864Y-92627091D01*
X116664026Y-92618980D01*
X116624606Y-92616259D01*
X116454064Y-92616259D01*
X116416465Y-92618721D01*
X116357154Y-92636466D01*
X116314077Y-92669973D01*
X116297750Y-92693574D01*
X116285729Y-92721318D01*
X116277685Y-92756016D01*
X116274973Y-92795435D01*
X116274973Y-93052916D01*
X116468596Y-93052916D01*
X116468596Y-92778595D01*
X116610074Y-92778595D01*
X116610074Y-93270732D01*
X116448165Y-93270732D01*
X116410917Y-93273082D01*
X116351315Y-93290508D01*
X116308270Y-93323624D01*
X116291915Y-93347158D01*
X116279902Y-93374863D01*
X116271795Y-93409960D01*
X116269074Y-93449908D01*
X115856267Y-93449908D01*
X115856267Y-92795435D01*
X115853815Y-92758419D01*
X115835855Y-92698984D01*
X115801905Y-92655554D01*
X115778130Y-92639109D01*
X115750314Y-92627013D01*
X115715916Y-92618971D01*
X115677091Y-92616259D01*
X115504667Y-92616259D01*
X115467361Y-92618613D01*
X115407740Y-92636043D01*
X115364690Y-92669157D01*
X115348334Y-92692689D01*
X115336319Y-92720389D01*
X115328212Y-92755486D01*
X115325491Y-92795435D01*
X115229833Y-92795435D01*
X115227361Y-92757765D01*
X115209598Y-92698447D01*
X115176075Y-92655362D01*
X115152473Y-92639035D01*
X115124731Y-92627013D01*
X115090051Y-92618971D01*
X115050657Y-92616259D01*
X114840962Y-92616259D01*
X114803292Y-92618731D01*
X114743974Y-92636494D01*
X114700889Y-92670017D01*
X114684562Y-92693619D01*
X114672539Y-92721361D01*
X114664497Y-92756041D01*
X114661785Y-92795435D01*
X114544158Y-92795435D01*
X114544158Y-92616259D01*
X114266503Y-92616259D01*
X114129812Y-93821341D01*
X113993122Y-92616259D01*
X113709568Y-92616259D01*
X113709568Y-94109853D01*
X113586726Y-94109853D01*
X113586726Y-92616259D01*
X113309071Y-92616259D01*
X113172380Y-93821341D01*
X113035690Y-92616259D01*
X112752136Y-92616259D01*
X112752136Y-94109853D01*
X112467813Y-94109853D01*
X112505377Y-94107398D01*
X112564717Y-94089673D01*
X112607800Y-94056199D01*
X112624127Y-94032622D01*
X112636148Y-94004904D01*
X112644192Y-93970235D01*
X112646904Y-93930847D01*
X112646904Y-93675845D01*
X112453280Y-93675845D01*
X112453280Y-93947602D01*
X112301972Y-93947602D01*
X112301972Y-93436915D01*
X112463881Y-93436915D01*
X112500482Y-93434595D01*
X112560225Y-93417028D01*
X112583847Y-93402254D01*
X112603587Y-93383569D01*
X112620056Y-93359887D01*
X112632138Y-93332126D01*
X112640250Y-93297269D01*
X112642972Y-93257824D01*
X112642972Y-92795435D01*
X112640643Y-92758761D01*
X112623056Y-92699012D01*
X112608274Y-92675387D01*
X112589580Y-92655642D01*
X112565898Y-92639173D01*
X112538138Y-92627091D01*
X112503300Y-92618980D01*
X112463881Y-92616259D01*
X112293338Y-92616259D01*
X112255739Y-92618721D01*
X112196428Y-92636466D01*
X112153351Y-92669973D01*
X112137024Y-92693574D01*
X112125003Y-92721318D01*
X112116959Y-92756016D01*
X112114247Y-92795435D01*
X112114247Y-93052916D01*
X112307870Y-93052916D01*
X112307870Y-92778595D01*
X112449348Y-92778595D01*
X112449348Y-93270732D01*
X112287440Y-93270732D01*
X112250191Y-93273082D01*
X112190589Y-93290508D01*
X112147545Y-93323624D01*
X112131190Y-93347158D01*
X112119176Y-93374863D01*
X112111070Y-93409960D01*
X112108348Y-93449908D01*
X111952792Y-93449908D01*
X111952792Y-92460703D01*
X121402593Y-92460703D01*
X121402593Y-94265409D01*
G37*
G36*
X113816709Y-80312844D02*
G01*
X113679591Y-80312844D01*
X113747209Y-79565192D01*
X113816709Y-80312844D01*
G37*
G36*
X115919041Y-80069041D02*
G01*
X115748071Y-80069041D01*
X115748071Y-79530742D01*
X115919041Y-79530742D01*
X115919041Y-80069041D01*
G37*
G36*
X116604716Y-80695817D02*
G01*
X116423916Y-80695817D01*
X116423916Y-79534674D01*
X116604716Y-79534674D01*
X116604716Y-80695817D01*
G37*
G36*
X119504170Y-81017556D02*
G01*
X111953590Y-81017556D01*
X111953590Y-80862000D01*
X112109146Y-80862000D01*
X112310805Y-80862000D01*
X112446384Y-80260100D01*
X112535203Y-80505442D01*
X112535203Y-80862000D01*
X112728827Y-80862000D01*
X112728827Y-79547582D01*
X112830383Y-79547582D01*
X112830383Y-79826263D01*
X113024006Y-79826263D01*
X113024006Y-79530742D01*
X113167536Y-79530742D01*
X113167536Y-80695817D01*
X113024006Y-80695817D01*
X113024006Y-80402261D01*
X112830383Y-80402261D01*
X112830383Y-80682908D01*
X112832826Y-80719853D01*
X112850766Y-80779282D01*
X112884701Y-80822703D01*
X112908475Y-80839148D01*
X112936293Y-80851243D01*
X112970709Y-80859287D01*
X113009559Y-80862000D01*
X113181983Y-80862000D01*
X113424589Y-80862000D01*
X113626163Y-80862000D01*
X113663434Y-80479027D01*
X113830899Y-80479027D01*
X113868171Y-80862000D01*
X114061880Y-80862000D01*
X113902330Y-79530742D01*
X113992637Y-79530742D01*
X114171044Y-79530742D01*
X114171044Y-80862000D01*
X114364667Y-80862000D01*
X114364667Y-80202055D01*
X114593254Y-80202055D01*
X114593254Y-80682994D01*
X114595591Y-80720138D01*
X114612992Y-80779752D01*
X114646084Y-80822799D01*
X114669609Y-80839156D01*
X114697303Y-80851170D01*
X114732398Y-80859278D01*
X114772345Y-80862000D01*
X114952719Y-80862000D01*
X115540257Y-80862000D01*
X115728068Y-80862000D01*
X115843729Y-80227359D01*
X115919041Y-80227359D01*
X115919041Y-80862000D01*
X116112665Y-80862000D01*
X116112665Y-79547582D01*
X116230292Y-79547582D01*
X116230292Y-80682908D01*
X116231138Y-80695817D01*
X116232755Y-80720507D01*
X116250499Y-80779819D01*
X116284006Y-80822895D01*
X116307608Y-80839222D01*
X116335352Y-80851243D01*
X116370050Y-80859287D01*
X116409469Y-80862000D01*
X116619163Y-80862000D01*
X116656830Y-80859531D01*
X116716159Y-80841782D01*
X116759240Y-80808284D01*
X116775565Y-80784698D01*
X116787586Y-80756970D01*
X116795628Y-80722299D01*
X116798340Y-80682908D01*
X116798340Y-80202055D01*
X116897930Y-80202055D01*
X116897930Y-80682994D01*
X116900266Y-80720138D01*
X116917668Y-80779752D01*
X116950760Y-80822799D01*
X116974285Y-80839156D01*
X117001979Y-80851170D01*
X117037074Y-80859278D01*
X117077021Y-80862000D01*
X117257394Y-80862000D01*
X117541546Y-80862000D01*
X117750301Y-80862000D01*
X117963671Y-79843104D01*
X117960936Y-80862000D01*
X118136949Y-80862000D01*
X118136949Y-80695817D01*
X118230641Y-80695817D01*
X118230641Y-80862000D01*
X118704570Y-80862000D01*
X118704570Y-80202055D01*
X118810058Y-80202055D01*
X118810058Y-80682994D01*
X118812395Y-80720138D01*
X118829796Y-80779752D01*
X118862888Y-80822799D01*
X118886413Y-80839156D01*
X118914107Y-80851170D01*
X118949202Y-80859278D01*
X118989149Y-80862000D01*
X119169523Y-80862000D01*
X119207087Y-80859545D01*
X119266427Y-80841820D01*
X119309510Y-80808346D01*
X119325836Y-80784769D01*
X119337858Y-80757051D01*
X119345901Y-80722382D01*
X119348614Y-80682994D01*
X119348614Y-80427992D01*
X119154990Y-80427992D01*
X119154990Y-80699749D01*
X119003682Y-80699749D01*
X119003682Y-80189062D01*
X119165590Y-80189062D01*
X119202192Y-80186742D01*
X119261935Y-80169175D01*
X119285556Y-80154401D01*
X119305297Y-80135716D01*
X119321765Y-80112034D01*
X119333847Y-80084273D01*
X119341959Y-80049416D01*
X119344681Y-80009971D01*
X119344681Y-79547582D01*
X119342353Y-79510908D01*
X119324766Y-79451159D01*
X119309984Y-79427534D01*
X119291290Y-79407789D01*
X119267608Y-79391320D01*
X119239848Y-79379238D01*
X119205010Y-79371127D01*
X119165590Y-79368406D01*
X118995048Y-79368406D01*
X118957449Y-79370868D01*
X118898138Y-79388613D01*
X118855061Y-79422120D01*
X118838734Y-79445721D01*
X118826713Y-79473465D01*
X118818669Y-79508163D01*
X118815957Y-79547582D01*
X118815957Y-79805063D01*
X119009580Y-79805063D01*
X119009580Y-79530742D01*
X119151058Y-79530742D01*
X119151058Y-80022879D01*
X118989149Y-80022879D01*
X118951901Y-80025229D01*
X118892299Y-80042655D01*
X118849254Y-80075771D01*
X118832899Y-80099305D01*
X118820886Y-80127010D01*
X118812779Y-80162107D01*
X118810058Y-80202055D01*
X118704570Y-80202055D01*
X118704570Y-79368406D01*
X118234573Y-79368406D01*
X118234573Y-79534674D01*
X118510946Y-79534674D01*
X118510946Y-80022879D01*
X118269879Y-80022879D01*
X118269879Y-80189062D01*
X118510946Y-80189062D01*
X118510946Y-80695817D01*
X118230641Y-80695817D01*
X118136949Y-80695817D01*
X118136949Y-79368406D01*
X117928110Y-79368406D01*
X117714739Y-80403116D01*
X117717475Y-79368406D01*
X117541546Y-79368406D01*
X117541546Y-80862000D01*
X117257394Y-80862000D01*
X117294959Y-80859545D01*
X117354298Y-80841820D01*
X117397382Y-80808346D01*
X117413708Y-80784769D01*
X117425729Y-80757051D01*
X117433773Y-80722382D01*
X117436485Y-80682994D01*
X117436485Y-80427992D01*
X117242862Y-80427992D01*
X117242862Y-80699749D01*
X117091553Y-80699749D01*
X117091553Y-80189062D01*
X117253462Y-80189062D01*
X117290063Y-80186742D01*
X117349807Y-80169175D01*
X117373428Y-80154401D01*
X117393169Y-80135716D01*
X117409637Y-80112034D01*
X117421719Y-80084273D01*
X117429831Y-80049416D01*
X117432553Y-80009971D01*
X117432553Y-79547582D01*
X117430224Y-79510908D01*
X117412637Y-79451159D01*
X117397855Y-79427534D01*
X117379162Y-79407789D01*
X117355479Y-79391320D01*
X117327720Y-79379238D01*
X117292882Y-79371127D01*
X117253462Y-79368406D01*
X117082919Y-79368406D01*
X117045321Y-79370868D01*
X116986009Y-79388613D01*
X116942933Y-79422120D01*
X116926606Y-79445721D01*
X116914584Y-79473465D01*
X116906541Y-79508163D01*
X116903828Y-79547582D01*
X116903828Y-79805063D01*
X117097452Y-79805063D01*
X117097452Y-79530742D01*
X117238930Y-79530742D01*
X117238930Y-80022879D01*
X117077021Y-80022879D01*
X117039772Y-80025229D01*
X116980170Y-80042655D01*
X116937126Y-80075771D01*
X116920771Y-80099305D01*
X116908757Y-80127010D01*
X116900651Y-80162107D01*
X116897930Y-80202055D01*
X116798340Y-80202055D01*
X116798340Y-79547582D01*
X116795868Y-79509912D01*
X116778104Y-79450594D01*
X116744581Y-79407509D01*
X116720979Y-79391182D01*
X116693237Y-79379160D01*
X116658557Y-79371118D01*
X116619163Y-79368406D01*
X116409469Y-79368406D01*
X116371798Y-79370878D01*
X116312481Y-79388641D01*
X116269396Y-79422164D01*
X116253069Y-79445766D01*
X116241046Y-79473508D01*
X116233004Y-79508188D01*
X116230292Y-79547582D01*
X116112665Y-79547582D01*
X116112665Y-79368406D01*
X115733624Y-79368406D01*
X115696945Y-79370738D01*
X115637209Y-79388339D01*
X115613582Y-79403133D01*
X115593836Y-79421839D01*
X115577364Y-79445538D01*
X115565280Y-79473312D01*
X115557169Y-79508159D01*
X115554448Y-79547582D01*
X115554448Y-80048353D01*
X115555824Y-80069041D01*
X115557057Y-80087591D01*
X115574954Y-80147222D01*
X115608067Y-80189752D01*
X115631041Y-80205471D01*
X115657885Y-80216759D01*
X115540257Y-80862000D01*
X114952719Y-80862000D01*
X114990283Y-80859545D01*
X115049623Y-80841820D01*
X115092706Y-80808346D01*
X115109033Y-80784769D01*
X115121054Y-80757051D01*
X115129098Y-80722382D01*
X115131810Y-80682994D01*
X115131810Y-80427992D01*
X114938186Y-80427992D01*
X114938186Y-80699749D01*
X114786878Y-80699749D01*
X114786878Y-80189062D01*
X114948786Y-80189062D01*
X114985388Y-80186742D01*
X115045131Y-80169175D01*
X115068753Y-80154401D01*
X115088493Y-80135716D01*
X115104961Y-80112034D01*
X115117043Y-80084273D01*
X115125156Y-80049416D01*
X115127878Y-80009971D01*
X115127878Y-79547582D01*
X115125549Y-79510908D01*
X115107962Y-79451159D01*
X115093180Y-79427534D01*
X115074486Y-79407789D01*
X115050804Y-79391320D01*
X115023044Y-79379238D01*
X114988206Y-79371127D01*
X114948786Y-79368406D01*
X114778244Y-79368406D01*
X114740645Y-79370868D01*
X114681334Y-79388613D01*
X114638257Y-79422120D01*
X114621930Y-79445721D01*
X114609909Y-79473465D01*
X114601865Y-79508163D01*
X114599153Y-79547582D01*
X114599153Y-79805063D01*
X114792776Y-79805063D01*
X114792776Y-79530742D01*
X114934254Y-79530742D01*
X114934254Y-80022879D01*
X114772345Y-80022879D01*
X114735097Y-80025229D01*
X114675495Y-80042655D01*
X114632451Y-80075771D01*
X114616095Y-80099305D01*
X114604082Y-80127010D01*
X114595976Y-80162107D01*
X114593254Y-80202055D01*
X114364667Y-80202055D01*
X114364667Y-79530742D01*
X114542989Y-79530742D01*
X114542989Y-79368406D01*
X113992637Y-79368406D01*
X113992637Y-79530742D01*
X113902330Y-79530742D01*
X113882874Y-79368406D01*
X113607612Y-79368406D01*
X113491882Y-80312844D01*
X113424589Y-80862000D01*
X113181983Y-80862000D01*
X113219285Y-80859649D01*
X113278918Y-80842232D01*
X113321964Y-80809144D01*
X113338318Y-80785628D01*
X113350331Y-80757942D01*
X113358438Y-80722854D01*
X113361159Y-80682908D01*
X113361159Y-79547582D01*
X113358707Y-79510566D01*
X113340747Y-79451131D01*
X113306797Y-79407701D01*
X113283022Y-79391256D01*
X113255206Y-79379160D01*
X113220808Y-79371118D01*
X113181983Y-79368406D01*
X113009559Y-79368406D01*
X112972253Y-79370760D01*
X112912632Y-79388190D01*
X112869582Y-79421304D01*
X112853226Y-79444836D01*
X112841211Y-79472536D01*
X112833104Y-79507633D01*
X112830383Y-79547582D01*
X112728827Y-79547582D01*
X112728827Y-79368406D01*
X112535203Y-79368406D01*
X112537939Y-80164185D01*
X112316532Y-79368406D01*
X112120686Y-79368406D01*
X112325423Y-80031171D01*
X112109146Y-80862000D01*
X111953590Y-80862000D01*
X111953590Y-79212850D01*
X119504170Y-79212850D01*
X119504170Y-81017556D01*
G37*
G36*
X135030757Y-91545000D02*
G01*
X134823303Y-91545000D01*
X134823303Y-89944720D01*
X135030757Y-89944720D01*
X135030757Y-91545000D01*
G37*
G36*
X134547324Y-89947626D02*
G01*
X134584481Y-89956243D01*
X134614204Y-89969124D01*
X134639492Y-89986617D01*
X134675410Y-90032780D01*
X134694441Y-90096334D01*
X134697090Y-90136695D01*
X134697090Y-91353116D01*
X134694185Y-91395321D01*
X134685568Y-91432468D01*
X134672689Y-91462176D01*
X134655198Y-91487448D01*
X134609040Y-91523338D01*
X134545473Y-91542354D01*
X134505116Y-91545000D01*
X134280443Y-91545000D01*
X134238208Y-91542093D01*
X134201031Y-91533475D01*
X134171306Y-91520595D01*
X134146019Y-91503102D01*
X134110118Y-91456948D01*
X134091106Y-91393400D01*
X134089374Y-91366946D01*
X134295922Y-91366946D01*
X134489637Y-91366946D01*
X134489637Y-90122865D01*
X134295922Y-90122865D01*
X134295922Y-91366946D01*
X134089374Y-91366946D01*
X134088468Y-91353116D01*
X134088468Y-90136695D01*
X134091373Y-90094487D01*
X134099990Y-90057330D01*
X134112871Y-90027607D01*
X134130365Y-90002319D01*
X134176527Y-89966401D01*
X134240082Y-89947369D01*
X134280443Y-89944720D01*
X134505116Y-89944720D01*
X134547324Y-89947626D01*
G37*
G36*
X134861954Y-92444720D02*
G01*
X134904133Y-92447626D01*
X134941268Y-92456243D01*
X134970980Y-92469125D01*
X134996258Y-92486621D01*
X135032168Y-92532795D01*
X135051193Y-92596367D01*
X135053838Y-92636695D01*
X135053838Y-92891502D01*
X134846384Y-92891502D01*
X134846384Y-92618652D01*
X134671628Y-92618652D01*
X134671628Y-93141820D01*
X134892179Y-93141820D01*
X134892179Y-93323995D01*
X134671628Y-93323995D01*
X134671628Y-93871160D01*
X134844277Y-93871160D01*
X134844277Y-93598859D01*
X135051731Y-93598859D01*
X135051731Y-93853208D01*
X135048825Y-93895383D01*
X135040210Y-93932509D01*
X135027330Y-93962208D01*
X135009838Y-93987473D01*
X134963675Y-94023358D01*
X134900110Y-94042364D01*
X134859848Y-94045000D01*
X134656149Y-94045000D01*
X134613915Y-94042094D01*
X134576738Y-94033476D01*
X134547009Y-94020597D01*
X134521719Y-94003105D01*
X134485816Y-93956958D01*
X134466808Y-93893430D01*
X134464174Y-93853208D01*
X134464174Y-93421631D01*
X134475392Y-93346755D01*
X134488815Y-93313969D01*
X134506945Y-93285482D01*
X134527942Y-93263457D01*
X134552451Y-93246832D01*
X134577775Y-93236988D01*
X134605552Y-93232950D01*
X134614109Y-93232953D01*
X134587068Y-93230990D01*
X134562160Y-93223611D01*
X134518104Y-93193169D01*
X134484048Y-93141854D01*
X134465656Y-93071891D01*
X134464174Y-93043909D01*
X134464174Y-92636695D01*
X134467080Y-92594487D01*
X134475697Y-92557330D01*
X134488578Y-92527607D01*
X134506071Y-92502319D01*
X134552234Y-92466401D01*
X134615788Y-92447369D01*
X134656149Y-92444720D01*
X134861954Y-92444720D01*
G37*
G36*
X133935877Y-94045000D02*
G01*
X133752512Y-92444720D01*
X133947509Y-92444720D01*
X134075004Y-93804848D01*
X134202590Y-92444720D01*
X134405922Y-92444720D01*
X134222557Y-94045000D01*
X133935877Y-94045000D01*
G37*
G36*
X133502010Y-92444720D02*
G01*
X133544189Y-92447626D01*
X133581324Y-92456243D01*
X133611035Y-92469125D01*
X133636314Y-92486621D01*
X133672224Y-92532795D01*
X133691249Y-92596367D01*
X133693893Y-92636695D01*
X133693893Y-92891502D01*
X133486440Y-92891502D01*
X133486440Y-92618652D01*
X133311684Y-92618652D01*
X133311684Y-93141820D01*
X133532235Y-93141820D01*
X133532235Y-93323995D01*
X133311684Y-93323995D01*
X133311684Y-93871160D01*
X133484333Y-93871160D01*
X133484333Y-93598859D01*
X133691787Y-93598859D01*
X133691787Y-93853208D01*
X133688881Y-93895383D01*
X133680266Y-93932509D01*
X133667385Y-93962208D01*
X133649894Y-93987473D01*
X133603731Y-94023358D01*
X133540165Y-94042364D01*
X133499904Y-94045000D01*
X133296205Y-94045000D01*
X133253971Y-94042094D01*
X133216794Y-94033476D01*
X133187064Y-94020597D01*
X133161775Y-94003105D01*
X133125871Y-93956958D01*
X133106864Y-93893430D01*
X133104230Y-93853208D01*
X133104230Y-93421631D01*
X133115448Y-93346755D01*
X133128871Y-93313969D01*
X133147001Y-93285482D01*
X133167998Y-93263457D01*
X133192507Y-93246832D01*
X133217831Y-93236988D01*
X133245607Y-93232950D01*
X133254165Y-93232953D01*
X133227124Y-93230990D01*
X133202215Y-93223611D01*
X133158160Y-93193169D01*
X133124104Y-93141854D01*
X133105712Y-93071891D01*
X133104230Y-93043909D01*
X133104230Y-92636695D01*
X133107136Y-92594487D01*
X133115752Y-92557330D01*
X133128634Y-92527607D01*
X133146127Y-92502319D01*
X133192289Y-92466401D01*
X133255844Y-92447369D01*
X133296205Y-92444720D01*
X133502010Y-92444720D01*
G37*
G36*
X134641403Y-96545000D02*
G01*
X134599782Y-96542093D01*
X134562917Y-96533475D01*
X134533128Y-96520518D01*
X134507671Y-96502901D01*
X134471340Y-96456382D01*
X134452133Y-96392696D01*
X134449520Y-96353116D01*
X134449520Y-95707949D01*
X134757724Y-95707949D01*
X134757724Y-95894337D01*
X134656974Y-95894337D01*
X134656974Y-96366946D01*
X134829623Y-96366946D01*
X134829623Y-95122865D01*
X134656974Y-95122865D01*
X134656974Y-95414125D01*
X134449520Y-95414125D01*
X134449520Y-95136695D01*
X134452426Y-95094461D01*
X134461044Y-95057284D01*
X134473924Y-95027558D01*
X134491417Y-95002271D01*
X134537571Y-94966371D01*
X134601119Y-94947359D01*
X134641403Y-94944720D01*
X134845102Y-94944720D01*
X134886700Y-94947626D01*
X134923555Y-94956243D01*
X134953358Y-94969203D01*
X134978831Y-94986823D01*
X135015207Y-95033355D01*
X135034449Y-95097036D01*
X135037076Y-95136695D01*
X135037076Y-96353116D01*
X135034161Y-96395915D01*
X135025474Y-96433509D01*
X135012604Y-96463172D01*
X134995082Y-96488368D01*
X134948960Y-96523820D01*
X134885068Y-96542481D01*
X134845102Y-96545000D01*
X134641403Y-96545000D01*
G37*
G36*
X134327337Y-96545000D02*
G01*
X134138751Y-96545000D01*
X134141682Y-95453326D01*
X133913071Y-96545000D01*
X133689405Y-96545000D01*
X133689405Y-94944720D01*
X133877900Y-94944720D01*
X133874969Y-96053339D01*
X134103580Y-94944720D01*
X134327337Y-94944720D01*
X134327337Y-96545000D01*
G37*
G36*
X133557972Y-96545000D02*
G01*
X133145538Y-96545000D01*
X133103303Y-96542093D01*
X133066127Y-96533475D01*
X133036401Y-96520595D01*
X133011114Y-96503102D01*
X132975213Y-96456948D01*
X132956202Y-96393400D01*
X132954469Y-96366946D01*
X133161108Y-96366946D01*
X133350519Y-96366946D01*
X133350519Y-95122865D01*
X133161108Y-95122865D01*
X133161108Y-96366946D01*
X132954469Y-96366946D01*
X132953563Y-96353116D01*
X132953563Y-95136695D01*
X132956479Y-95093893D01*
X132965165Y-95056289D01*
X132978037Y-95026610D01*
X132995562Y-95001397D01*
X133041687Y-94965918D01*
X133105566Y-94947243D01*
X133145538Y-94944720D01*
X133557972Y-94944720D01*
X133557972Y-96545000D01*
G37*
G36*
X134760362Y-88945000D02*
G01*
X134718737Y-88942093D01*
X134681863Y-88933475D01*
X134652058Y-88920516D01*
X134626585Y-88902897D01*
X134590227Y-88856373D01*
X134571005Y-88792700D01*
X134568387Y-88753116D01*
X134568387Y-88452423D01*
X134775841Y-88452423D01*
X134775841Y-88766946D01*
X134929623Y-88766946D01*
X134929623Y-87518652D01*
X134775841Y-87518652D01*
X134775841Y-87835282D01*
X134568387Y-87835282D01*
X134568387Y-87536695D01*
X134571303Y-87493893D01*
X134579989Y-87456289D01*
X134592862Y-87426610D01*
X134610387Y-87401397D01*
X134656512Y-87365918D01*
X134720391Y-87347243D01*
X134760362Y-87344720D01*
X134945102Y-87344720D01*
X134986700Y-87347626D01*
X135023555Y-87356243D01*
X135053358Y-87369203D01*
X135078831Y-87386823D01*
X135115207Y-87433355D01*
X135134449Y-87497036D01*
X135137076Y-87536695D01*
X135137076Y-88753116D01*
X135134161Y-88795915D01*
X135125474Y-88833509D01*
X135112604Y-88863172D01*
X135095082Y-88888368D01*
X135048960Y-88923820D01*
X134985068Y-88942481D01*
X134945102Y-88945000D01*
X134760362Y-88945000D01*
G37*
G36*
X133985410Y-88945000D02*
G01*
X133985410Y-88766946D01*
X134252124Y-88766946D01*
X134252124Y-87344720D01*
X134459577Y-87344720D01*
X134459577Y-88945000D01*
X133985410Y-88945000D01*
G37*
G36*
X133598621Y-88300107D02*
G01*
X133453358Y-88945000D01*
X133237295Y-88945000D01*
X133469020Y-88054826D01*
X133249659Y-87344720D01*
X133459494Y-87344720D01*
X133696715Y-88197342D01*
X133693784Y-87344720D01*
X133901238Y-87344720D01*
X133901238Y-88945000D01*
X133693784Y-88945000D01*
X133693784Y-88562973D01*
X133598621Y-88300107D01*
G37*
G36*
X138166374Y-85452568D02*
G01*
X137958920Y-85452568D01*
X137958920Y-85176695D01*
X137961826Y-85134461D01*
X137970445Y-85097284D01*
X137983325Y-85067558D01*
X138000818Y-85042271D01*
X138046972Y-85006371D01*
X138110520Y-84987359D01*
X138150804Y-84984720D01*
X138333528Y-84984720D01*
X138375763Y-84987637D01*
X138413090Y-84996326D01*
X138442832Y-85009272D01*
X138468206Y-85026917D01*
X138488235Y-85048072D01*
X138504073Y-85073385D01*
X138522916Y-85137401D01*
X138525411Y-85176695D01*
X138525411Y-85672111D01*
X138522495Y-85714374D01*
X138513803Y-85751721D01*
X138500858Y-85781465D01*
X138483214Y-85806838D01*
X138462063Y-85826858D01*
X138436754Y-85842687D01*
X138372744Y-85861510D01*
X138333528Y-85863995D01*
X138160054Y-85863995D01*
X138160054Y-86411160D01*
X138322171Y-86411160D01*
X138322171Y-86119992D01*
X138529624Y-86119992D01*
X138529624Y-86393208D01*
X138526718Y-86435410D01*
X138518100Y-86472555D01*
X138505220Y-86502252D01*
X138487728Y-86527514D01*
X138441567Y-86563379D01*
X138377989Y-86582369D01*
X138337741Y-86585000D01*
X138144484Y-86585000D01*
X138101684Y-86582084D01*
X138064081Y-86573396D01*
X138034409Y-86560524D01*
X138009204Y-86542999D01*
X137973748Y-86496877D01*
X137955104Y-86433005D01*
X137952601Y-86393208D01*
X137952601Y-85877916D01*
X137955516Y-85835114D01*
X137964201Y-85797510D01*
X137977073Y-85767827D01*
X137994597Y-85742612D01*
X138040715Y-85707130D01*
X138104575Y-85688459D01*
X138144484Y-85685942D01*
X138317957Y-85685942D01*
X138317957Y-85158652D01*
X138166374Y-85158652D01*
X138166374Y-85452568D01*
G37*
G36*
X136921194Y-86585000D02*
G01*
X136716762Y-84984720D01*
X136920095Y-84984720D01*
X137037148Y-86365822D01*
X137175176Y-84984720D01*
X137432455Y-84984720D01*
X137570483Y-86365822D01*
X137687536Y-84984720D01*
X137903508Y-84984720D01*
X137699077Y-86585000D01*
X137412397Y-86585000D01*
X137305968Y-85239710D01*
X137199447Y-86585000D01*
X136921194Y-86585000D01*
G37*
G36*
X136634972Y-86585000D02*
G01*
X136222537Y-86585000D01*
X136180303Y-86582093D01*
X136143126Y-86573475D01*
X136113400Y-86560595D01*
X136088113Y-86543102D01*
X136052213Y-86496948D01*
X136033201Y-86433400D01*
X136031468Y-86406946D01*
X136238107Y-86406946D01*
X136427518Y-86406946D01*
X136427518Y-85162865D01*
X136238107Y-85162865D01*
X136238107Y-86406946D01*
X136031468Y-86406946D01*
X136030562Y-86393116D01*
X136030562Y-85176695D01*
X136033478Y-85133893D01*
X136042164Y-85096289D01*
X136055037Y-85066610D01*
X136072561Y-85041397D01*
X136118687Y-85005918D01*
X136182566Y-84987243D01*
X136222537Y-84984720D01*
X136634972Y-84984720D01*
X136634972Y-86585000D01*
G37*
D12*
G36*
X127091852Y-167350582D02*
G01*
X127112416Y-167353462D01*
X127128131Y-167361894D01*
X127143240Y-167389875D01*
X127144334Y-167403064D01*
X127144334Y-168730860D01*
X127186374Y-168772808D01*
X127289231Y-168772808D01*
X127331271Y-168730860D01*
X127331271Y-167403064D01*
X127334154Y-167382494D01*
X127342606Y-167366759D01*
X127370641Y-167351662D01*
X127383753Y-167350582D01*
X127480382Y-167350582D01*
X127500908Y-167353462D01*
X127516623Y-167361894D01*
X127531770Y-167389904D01*
X127532863Y-167403064D01*
X127532863Y-168781235D01*
X127529853Y-168806542D01*
X127520503Y-168828004D01*
X127505569Y-168846356D01*
X127434128Y-168917705D01*
X127413290Y-168934194D01*
X127390047Y-168943019D01*
X127369007Y-168945000D01*
X127106507Y-168945000D01*
X127081098Y-168941977D01*
X127059586Y-168932541D01*
X127041477Y-168917705D01*
X126970036Y-168846356D01*
X126953549Y-168825428D01*
X126944705Y-168802078D01*
X126942742Y-168781235D01*
X126942742Y-167403064D01*
X126945624Y-167382494D01*
X126954077Y-167366759D01*
X126982112Y-167351662D01*
X126995224Y-167350582D01*
X127091852Y-167350582D01*
G37*
G36*
X126260846Y-167514439D02*
G01*
X126263869Y-167489005D01*
X126273305Y-167467448D01*
X126288141Y-167449317D01*
X126359490Y-167377968D01*
X126380554Y-167361358D01*
X126404005Y-167352502D01*
X126424611Y-167350582D01*
X126657711Y-167350582D01*
X126682997Y-167353596D01*
X126704440Y-167362971D01*
X126722832Y-167377968D01*
X126794181Y-167449317D01*
X126810616Y-167470085D01*
X126819450Y-167493221D01*
X126821475Y-167514439D01*
X126821475Y-168060230D01*
X126818453Y-168085664D01*
X126809017Y-168107220D01*
X126794181Y-168125351D01*
X126722832Y-168196700D01*
X126701863Y-168213228D01*
X126678539Y-168222047D01*
X126657711Y-168223995D01*
X126498159Y-168223995D01*
X126456119Y-168265943D01*
X126456119Y-168735164D01*
X126498159Y-168777021D01*
X126582148Y-168777021D01*
X126624097Y-168735164D01*
X126624097Y-168538244D01*
X126626976Y-168517729D01*
X126635409Y-168502042D01*
X126663413Y-168486943D01*
X126676578Y-168485853D01*
X126773207Y-168485853D01*
X126793814Y-168488735D01*
X126809549Y-168497180D01*
X126824612Y-168525161D01*
X126825689Y-168538244D01*
X126825689Y-168781235D01*
X126822666Y-168806669D01*
X126813230Y-168828225D01*
X126798394Y-168846356D01*
X126727045Y-168917705D01*
X126706076Y-168934233D01*
X126682752Y-168943052D01*
X126661924Y-168945000D01*
X126418292Y-168945000D01*
X126392879Y-168941977D01*
X126371341Y-168932541D01*
X126353170Y-168917705D01*
X126281821Y-168846356D01*
X126265334Y-168825428D01*
X126256490Y-168802078D01*
X126254527Y-168781235D01*
X126254527Y-168215660D01*
X126257537Y-168190352D01*
X126266887Y-168168890D01*
X126281821Y-168150539D01*
X126353170Y-168079098D01*
X126374304Y-168062515D01*
X126397847Y-168053688D01*
X126418292Y-168051803D01*
X126577935Y-168051803D01*
X126619883Y-168009855D01*
X126619883Y-167560601D01*
X126577935Y-167518652D01*
X126504387Y-167518652D01*
X126462438Y-167560601D01*
X126462438Y-167760086D01*
X126459559Y-167780612D01*
X126451126Y-167796327D01*
X126423117Y-167811474D01*
X126409957Y-167812568D01*
X126313328Y-167812568D01*
X126292765Y-167809688D01*
X126277050Y-167801255D01*
X126261941Y-167773275D01*
X126260846Y-167760086D01*
X126260846Y-167514439D01*
G37*
G36*
X126103723Y-167353463D02*
G01*
X126119438Y-167361903D01*
X126134543Y-167389908D01*
X126135642Y-167403155D01*
X126135642Y-168892518D01*
X126132759Y-168913125D01*
X126124306Y-168928860D01*
X126096301Y-168943919D01*
X126083160Y-168945000D01*
X125707270Y-168945000D01*
X125681836Y-168941977D01*
X125660279Y-168932541D01*
X125642149Y-168917705D01*
X125570708Y-168846356D01*
X125554220Y-168825428D01*
X125545377Y-168802078D01*
X125543414Y-168781235D01*
X125543414Y-168293787D01*
X125546424Y-168268500D01*
X125550055Y-168260173D01*
X125745006Y-168260173D01*
X125745006Y-168730860D01*
X125787046Y-168772808D01*
X125934050Y-168772808D01*
X125934050Y-168218133D01*
X125787046Y-168218133D01*
X125745006Y-168260173D01*
X125550055Y-168260173D01*
X125555774Y-168247058D01*
X125570708Y-168228666D01*
X125669443Y-168130022D01*
X125570708Y-168031379D01*
X125554166Y-168010387D01*
X125545331Y-167986989D01*
X125543414Y-167966441D01*
X125543414Y-167560509D01*
X125745006Y-167560509D01*
X125745006Y-168008298D01*
X125787046Y-168050155D01*
X125934050Y-168050155D01*
X125934050Y-167518652D01*
X125787046Y-167518652D01*
X125745006Y-167560509D01*
X125543414Y-167560509D01*
X125543414Y-167514439D01*
X125546424Y-167489131D01*
X125555774Y-167467669D01*
X125570708Y-167449317D01*
X125642149Y-167377968D01*
X125663009Y-167361452D01*
X125686268Y-167352580D01*
X125707270Y-167350582D01*
X126083160Y-167350582D01*
X126103723Y-167353463D01*
G37*
G36*
X124553406Y-168825382D02*
G01*
X124556288Y-168804762D01*
X124564741Y-168789000D01*
X124592752Y-168773893D01*
X124605887Y-168772808D01*
X124897788Y-168772808D01*
X124897788Y-168283437D01*
X124855840Y-168241580D01*
X124708836Y-168241580D01*
X124683402Y-168238557D01*
X124661845Y-168229121D01*
X124643715Y-168214286D01*
X124572274Y-168142937D01*
X124555786Y-168122008D01*
X124546942Y-168098658D01*
X124544979Y-168077815D01*
X124544979Y-167514439D01*
X124547990Y-167489131D01*
X124557339Y-167467669D01*
X124572274Y-167449317D01*
X124643715Y-167377968D01*
X124664575Y-167361452D01*
X124687834Y-167352580D01*
X124708836Y-167350582D01*
X124931402Y-167350582D01*
X124956689Y-167353596D01*
X124978131Y-167362971D01*
X124996523Y-167377968D01*
X125067873Y-167449317D01*
X125084307Y-167470085D01*
X125093142Y-167493221D01*
X125095167Y-167514439D01*
X125095167Y-167705772D01*
X125092285Y-167726380D01*
X125083832Y-167742115D01*
X125055826Y-167757173D01*
X125042685Y-167758254D01*
X124946148Y-167758254D01*
X124925529Y-167755372D01*
X124909766Y-167746919D01*
X124894660Y-167718908D01*
X124893575Y-167705772D01*
X124893575Y-167564905D01*
X124851626Y-167522865D01*
X124788612Y-167522865D01*
X124746571Y-167564905D01*
X124746571Y-168023227D01*
X124788612Y-168065267D01*
X124935615Y-168065267D01*
X124961028Y-168068290D01*
X124982565Y-168077726D01*
X125000737Y-168092561D01*
X125072086Y-168163911D01*
X125088614Y-168184880D01*
X125097432Y-168208204D01*
X125099380Y-168229032D01*
X125099380Y-168892518D01*
X125096498Y-168913125D01*
X125088045Y-168928860D01*
X125060039Y-168943919D01*
X125046898Y-168945000D01*
X124605887Y-168945000D01*
X124585280Y-168942117D01*
X124569545Y-168933664D01*
X124554487Y-168905659D01*
X124553406Y-168892518D01*
X124553406Y-168825382D01*
G37*
G36*
X124392206Y-168714007D02*
G01*
X124412781Y-168716887D01*
X124428523Y-168725328D01*
X124443676Y-168753339D01*
X124444779Y-168766580D01*
X124444779Y-168892518D01*
X124441898Y-168913081D01*
X124433458Y-168928796D01*
X124405453Y-168943901D01*
X124392206Y-168945000D01*
X124287242Y-168945000D01*
X124266635Y-168942117D01*
X124250900Y-168933664D01*
X124235841Y-168905659D01*
X124234760Y-168892518D01*
X124234760Y-168766580D01*
X124237643Y-168745961D01*
X124246096Y-168730198D01*
X124274107Y-168715091D01*
X124287242Y-168714007D01*
X124392206Y-168714007D01*
G37*
G36*
X123975220Y-167353596D02*
G01*
X123996682Y-167362971D01*
X124015034Y-167377968D01*
X124086475Y-167449317D01*
X124102962Y-167470246D01*
X124111806Y-167493596D01*
X124113769Y-167514439D01*
X124113769Y-168781235D01*
X124110758Y-168806542D01*
X124101409Y-168828004D01*
X124086475Y-168846356D01*
X124015034Y-168917705D01*
X123994266Y-168934140D01*
X123971130Y-168942974D01*
X123949912Y-168945000D01*
X123695839Y-168945000D01*
X123670426Y-168941977D01*
X123648889Y-168932541D01*
X123630717Y-168917705D01*
X123559368Y-168846356D01*
X123542933Y-168825589D01*
X123534099Y-168802452D01*
X123532074Y-168781235D01*
X123532074Y-167564722D01*
X123733666Y-167564722D01*
X123733666Y-168730860D01*
X123775614Y-168772808D01*
X123870136Y-168772808D01*
X123912177Y-168730860D01*
X123912177Y-167564722D01*
X123870136Y-167522865D01*
X123775614Y-167522865D01*
X123733666Y-167564722D01*
X123532074Y-167564722D01*
X123532074Y-167514439D01*
X123535097Y-167489005D01*
X123544533Y-167467448D01*
X123559368Y-167449317D01*
X123630717Y-167377968D01*
X123651781Y-167361358D01*
X123675232Y-167352502D01*
X123695839Y-167350582D01*
X123949912Y-167350582D01*
X123975220Y-167353596D01*
G37*
G36*
X94936658Y-161456367D02*
G01*
X94963626Y-161459582D01*
X94986471Y-161469582D01*
X95006023Y-161485578D01*
X95082226Y-161561684D01*
X95099813Y-161584008D01*
X95109246Y-161608914D01*
X95111340Y-161631147D01*
X95111340Y-161870700D01*
X95108266Y-161892682D01*
X95099249Y-161909465D01*
X95069376Y-161925528D01*
X95055360Y-161926681D01*
X94952289Y-161926681D01*
X94930308Y-161923606D01*
X94913524Y-161914590D01*
X94897462Y-161884717D01*
X94896309Y-161870700D01*
X94896309Y-161680386D01*
X94851466Y-161635641D01*
X94748493Y-161635641D01*
X94703650Y-161680386D01*
X94703650Y-162155097D01*
X94748493Y-162199940D01*
X94882827Y-162199940D01*
X94904821Y-162203014D01*
X94921634Y-162212030D01*
X94937748Y-162241909D01*
X94938905Y-162255920D01*
X94938905Y-162332026D01*
X94935832Y-162353961D01*
X94926829Y-162370723D01*
X94896957Y-162386835D01*
X94882827Y-162388007D01*
X94748493Y-162388007D01*
X94703650Y-162432752D01*
X94703650Y-162933254D01*
X94748493Y-162977902D01*
X94849316Y-162977902D01*
X94894062Y-162933254D01*
X94894062Y-162743331D01*
X94897136Y-162721402D01*
X94906153Y-162704648D01*
X94936050Y-162688596D01*
X94950042Y-162687448D01*
X95053113Y-162687448D01*
X95075094Y-162690522D01*
X95091878Y-162699530D01*
X95107945Y-162729376D01*
X95109093Y-162743331D01*
X95109093Y-162982396D01*
X95105882Y-163009391D01*
X95095909Y-163032284D01*
X95079979Y-163051859D01*
X95003873Y-163127965D01*
X94981507Y-163145594D01*
X94956627Y-163155001D01*
X94934411Y-163157079D01*
X94663399Y-163157079D01*
X94636226Y-163153854D01*
X94613255Y-163143789D01*
X94593936Y-163127965D01*
X94517732Y-163051859D01*
X94500146Y-163029535D01*
X94490712Y-163004629D01*
X94488619Y-162982396D01*
X94488619Y-162470756D01*
X94491830Y-162443814D01*
X94501803Y-162421017D01*
X94517732Y-162401489D01*
X94623050Y-162294022D01*
X94517732Y-162188704D01*
X94500146Y-162166381D01*
X94490712Y-162141474D01*
X94488619Y-162119242D01*
X94488619Y-161631147D01*
X94491830Y-161604152D01*
X94501803Y-161581259D01*
X94517732Y-161561684D01*
X94593936Y-161485578D01*
X94616263Y-161467903D01*
X94641189Y-161458449D01*
X94663399Y-161456367D01*
X94936658Y-161456367D01*
G37*
G36*
X94307195Y-162910686D02*
G01*
X94329142Y-162913759D01*
X94345934Y-162922762D01*
X94362097Y-162952640D01*
X94363273Y-162966764D01*
X94363273Y-163101098D01*
X94360201Y-163123032D01*
X94351198Y-163139795D01*
X94321325Y-163155907D01*
X94307195Y-163157079D01*
X94195234Y-163157079D01*
X94173253Y-163154004D01*
X94156469Y-163144988D01*
X94140406Y-163115115D01*
X94139254Y-163101098D01*
X94139254Y-162966764D01*
X94142328Y-162944770D01*
X94151344Y-162927957D01*
X94181223Y-162911843D01*
X94195234Y-162910686D01*
X94307195Y-162910686D01*
G37*
G36*
X93871376Y-161459582D02*
G01*
X93894248Y-161469582D01*
X93913866Y-161485578D01*
X93989972Y-161561684D01*
X94007503Y-161583836D01*
X94016926Y-161608515D01*
X94019086Y-161631147D01*
X94019086Y-162269598D01*
X94015862Y-162296727D01*
X94005797Y-162319721D01*
X93989972Y-162339060D01*
X93913866Y-162415166D01*
X93891500Y-162432796D01*
X93866620Y-162442203D01*
X93844404Y-162444280D01*
X93732443Y-162444280D01*
X93705313Y-162441056D01*
X93682319Y-162430991D01*
X93662980Y-162415166D01*
X93611494Y-162363680D01*
X93611494Y-162928760D01*
X93656239Y-162973408D01*
X93759309Y-162973408D01*
X93804055Y-162928760D01*
X93804055Y-162743527D01*
X93807127Y-162721645D01*
X93816130Y-162704911D01*
X93846028Y-162688811D01*
X93860133Y-162687644D01*
X93963106Y-162687644D01*
X93985087Y-162690717D01*
X94001871Y-162699725D01*
X94017938Y-162729572D01*
X94019086Y-162743527D01*
X94019086Y-162982396D01*
X94015862Y-163009525D01*
X94005797Y-163032519D01*
X93989972Y-163051859D01*
X93913866Y-163127965D01*
X93891500Y-163145594D01*
X93866620Y-163155001D01*
X93844404Y-163157079D01*
X93571145Y-163157079D01*
X93544015Y-163153854D01*
X93521021Y-163143789D01*
X93501682Y-163127965D01*
X93425576Y-163051859D01*
X93407959Y-163029608D01*
X93398495Y-163004798D01*
X93396365Y-162982396D01*
X93396365Y-161684880D01*
X93611494Y-161684880D01*
X93611494Y-162215864D01*
X93656239Y-162260610D01*
X93759309Y-162260610D01*
X93804055Y-162215864D01*
X93804055Y-161684880D01*
X93759309Y-161640135D01*
X93656239Y-161640135D01*
X93611494Y-161684880D01*
X93396365Y-161684880D01*
X93396365Y-161631147D01*
X93399580Y-161604152D01*
X93409579Y-161581259D01*
X93425576Y-161561684D01*
X93501682Y-161485578D01*
X93523933Y-161467961D01*
X93548743Y-161458498D01*
X93571145Y-161456367D01*
X93844404Y-161456367D01*
X93871376Y-161459582D01*
G37*
G36*
X92780482Y-161456367D02*
G01*
X92803574Y-161459490D01*
X92821059Y-161468850D01*
X92837400Y-161499372D01*
X92838709Y-161510100D01*
X92973043Y-162904043D01*
X93107474Y-161510100D01*
X93111975Y-161487885D01*
X93122206Y-161471549D01*
X93153565Y-161457131D01*
X93165702Y-161456367D01*
X93262031Y-161456367D01*
X93284122Y-161459404D01*
X93300788Y-161468157D01*
X93315843Y-161496641D01*
X93315764Y-161514594D01*
X93134341Y-163105592D01*
X93128277Y-163127312D01*
X93116644Y-163143251D01*
X93082861Y-163156675D01*
X93073866Y-163157079D01*
X92881208Y-163157079D01*
X92858028Y-163153982D01*
X92840298Y-163144815D01*
X92822344Y-163114348D01*
X92820733Y-163105592D01*
X92639309Y-161514594D01*
X92639745Y-161493554D01*
X92646538Y-161476722D01*
X92673824Y-161458606D01*
X92693043Y-161456367D01*
X92780482Y-161456367D01*
G37*
G36*
X92575122Y-162212933D02*
G01*
X92597057Y-162216006D01*
X92613819Y-162225009D01*
X92629931Y-162254881D01*
X92631103Y-162269012D01*
X92631103Y-162340624D01*
X92628028Y-162362618D01*
X92619012Y-162379431D01*
X92589133Y-162395545D01*
X92575122Y-162396702D01*
X92270503Y-162396702D01*
X92248568Y-162393629D01*
X92231806Y-162384626D01*
X92215694Y-162354754D01*
X92214522Y-162340624D01*
X92214522Y-162269012D01*
X92217597Y-162247017D01*
X92226613Y-162230204D01*
X92256492Y-162214090D01*
X92270503Y-162212933D01*
X92575122Y-162212933D01*
G37*
G36*
X91974120Y-161459582D02*
G01*
X91997013Y-161469582D01*
X92016588Y-161485578D01*
X92092792Y-161561684D01*
X92110378Y-161584008D01*
X92119812Y-161608914D01*
X92121905Y-161631147D01*
X92121905Y-162982396D01*
X92118694Y-163009391D01*
X92108721Y-163032284D01*
X92092792Y-163051859D01*
X92016588Y-163127965D01*
X91994436Y-163145495D01*
X91969757Y-163154918D01*
X91947125Y-163157079D01*
X91673866Y-163157079D01*
X91646759Y-163153854D01*
X91623786Y-163143789D01*
X91604404Y-163127965D01*
X91528298Y-163051859D01*
X91510767Y-163029707D01*
X91501344Y-163005028D01*
X91499184Y-162982396D01*
X91499184Y-162397679D01*
X91714215Y-162397679D01*
X91714215Y-162928663D01*
X91758961Y-162973408D01*
X91862031Y-162973408D01*
X91906874Y-162928663D01*
X91906874Y-162397679D01*
X91862031Y-162352933D01*
X91758961Y-162352933D01*
X91714215Y-162397679D01*
X91499184Y-162397679D01*
X91499184Y-162343945D01*
X91502408Y-162316816D01*
X91512473Y-162293822D01*
X91528298Y-162274483D01*
X91604404Y-162198376D01*
X91626872Y-162180659D01*
X91651886Y-162171212D01*
X91673866Y-162169165D01*
X91785925Y-162169165D01*
X91812893Y-162172380D01*
X91835738Y-162182380D01*
X91855290Y-162198376D01*
X91906874Y-162249863D01*
X91906874Y-161684783D01*
X91862031Y-161640135D01*
X91763455Y-161640135D01*
X91718709Y-161684783D01*
X91718709Y-161870016D01*
X91715637Y-161891898D01*
X91706634Y-161908632D01*
X91676736Y-161924732D01*
X91662631Y-161925899D01*
X91559658Y-161925899D01*
X91537677Y-161922826D01*
X91520893Y-161913818D01*
X91504826Y-161883971D01*
X91503678Y-161870016D01*
X91503678Y-161631147D01*
X91506902Y-161604017D01*
X91516967Y-161581023D01*
X91532792Y-161561684D01*
X91608898Y-161485578D01*
X91631366Y-161467861D01*
X91656380Y-161458414D01*
X91678360Y-161456367D01*
X91947125Y-161456367D01*
X91974120Y-161459582D01*
G37*
G36*
X91323134Y-162910686D02*
G01*
X91345081Y-162913759D01*
X91361873Y-162922762D01*
X91378036Y-162952640D01*
X91379212Y-162966764D01*
X91379212Y-163101098D01*
X91376139Y-163123032D01*
X91367136Y-163139795D01*
X91337264Y-163155907D01*
X91323134Y-163157079D01*
X91211173Y-163157079D01*
X91189191Y-163154004D01*
X91172408Y-163144988D01*
X91156345Y-163115115D01*
X91155192Y-163101098D01*
X91155192Y-162966764D01*
X91158267Y-162944770D01*
X91167283Y-162927957D01*
X91197162Y-162911843D01*
X91211173Y-162910686D01*
X91323134Y-162910686D01*
G37*
G36*
X90437021Y-161512445D02*
G01*
X90440095Y-161490451D01*
X90449111Y-161473637D01*
X90478990Y-161457524D01*
X90493001Y-161456367D01*
X90974550Y-161456367D01*
X90996497Y-161459439D01*
X91013289Y-161468442D01*
X91029452Y-161498321D01*
X91030628Y-161512445D01*
X91030628Y-162193687D01*
X91027504Y-162216042D01*
X91018136Y-162232897D01*
X90983538Y-162258656D01*
X90911829Y-162301056D01*
X90863058Y-162315809D01*
X90837746Y-162314701D01*
X90816804Y-162307197D01*
X90808856Y-162301056D01*
X90773001Y-162265397D01*
X90681166Y-162265397D01*
X90636323Y-162310044D01*
X90636323Y-162928760D01*
X90681166Y-162973408D01*
X90770754Y-162973408D01*
X90815499Y-162928760D01*
X90815499Y-162743331D01*
X90818572Y-162721502D01*
X90827575Y-162704798D01*
X90857497Y-162688709D01*
X90871577Y-162687546D01*
X90974550Y-162687546D01*
X90996544Y-162690618D01*
X91013358Y-162699618D01*
X91029481Y-162729444D01*
X91030628Y-162743331D01*
X91030628Y-162982396D01*
X91027413Y-163009391D01*
X91017413Y-163032284D01*
X91001417Y-163051859D01*
X90925311Y-163127965D01*
X90903159Y-163145495D01*
X90878480Y-163154918D01*
X90855848Y-163157079D01*
X90596071Y-163157079D01*
X90568899Y-163153854D01*
X90545928Y-163143789D01*
X90526609Y-163127965D01*
X90450405Y-163051859D01*
X90432819Y-163029535D01*
X90423385Y-163004629D01*
X90421291Y-162982396D01*
X90421291Y-162256409D01*
X90424502Y-162229414D01*
X90434475Y-162206521D01*
X90450405Y-162186946D01*
X90526609Y-162110840D01*
X90548936Y-162093165D01*
X90573862Y-162083711D01*
X90596071Y-162081628D01*
X90694550Y-162081628D01*
X90721545Y-162084843D01*
X90744438Y-162094843D01*
X90764013Y-162110840D01*
X90815499Y-162162326D01*
X90815499Y-161640135D01*
X90493001Y-161640135D01*
X90471067Y-161637062D01*
X90454304Y-161628059D01*
X90438192Y-161598187D01*
X90437021Y-161584057D01*
X90437021Y-161512445D01*
G37*
G36*
X89801110Y-161456367D02*
G01*
X89824202Y-161459490D01*
X89841687Y-161468850D01*
X89858028Y-161499372D01*
X89859337Y-161510100D01*
X89993671Y-162904043D01*
X90128102Y-161510100D01*
X90132603Y-161487885D01*
X90142834Y-161471549D01*
X90174193Y-161457131D01*
X90186330Y-161456367D01*
X90282659Y-161456367D01*
X90304750Y-161459404D01*
X90321416Y-161468157D01*
X90336471Y-161496641D01*
X90336392Y-161514594D01*
X90154969Y-163105592D01*
X90148905Y-163127312D01*
X90137272Y-163143251D01*
X90103489Y-163156675D01*
X90094494Y-163157079D01*
X89901836Y-163157079D01*
X89878656Y-163153982D01*
X89860926Y-163144815D01*
X89842972Y-163114348D01*
X89841361Y-163105592D01*
X89659937Y-161514594D01*
X89660373Y-161493554D01*
X89667166Y-161476722D01*
X89694452Y-161458606D01*
X89713671Y-161456367D01*
X89801110Y-161456367D01*
G37*
D11*
G36*
X119392411Y-163530000D02*
G01*
X119392411Y-162617508D01*
X119186147Y-162617508D01*
X119186147Y-163356770D01*
X118825706Y-163356770D01*
X118825706Y-163530000D01*
X119392411Y-163530000D01*
G37*
G36*
X118449173Y-162821570D02*
G01*
X118500985Y-162829877D01*
X118551362Y-162843393D01*
X118600087Y-162861690D01*
X118692105Y-162909317D01*
X118619199Y-163043590D01*
X118568481Y-163017497D01*
X118523517Y-162999321D01*
X118478636Y-162987652D01*
X118435406Y-162983872D01*
X118399883Y-162987157D01*
X118374040Y-162995901D01*
X118353199Y-163010570D01*
X118338808Y-163029912D01*
X118329757Y-163053156D01*
X118325069Y-163081325D01*
X118432174Y-163096645D01*
X118514910Y-163116289D01*
X118577571Y-163139041D01*
X118623961Y-163164002D01*
X118665134Y-163198252D01*
X118693649Y-163237761D01*
X118710937Y-163283528D01*
X118716957Y-163337353D01*
X118710444Y-163393738D01*
X118691434Y-163443476D01*
X118660693Y-163486016D01*
X118619382Y-163518886D01*
X118587258Y-163534101D01*
X118550895Y-163543512D01*
X118509412Y-163546791D01*
X118452223Y-163540523D01*
X118401151Y-163522184D01*
X118353598Y-163494337D01*
X118307606Y-163459108D01*
X118301988Y-163459108D01*
X118287639Y-163530000D01*
X118119356Y-163530000D01*
X118119356Y-163327950D01*
X118325069Y-163327950D01*
X118352599Y-163352709D01*
X118378558Y-163370265D01*
X118406814Y-163381497D01*
X118440230Y-163385408D01*
X118473510Y-163381173D01*
X118497688Y-163369654D01*
X118513664Y-163350348D01*
X118519364Y-163321477D01*
X118514946Y-163296492D01*
X118501413Y-163273545D01*
X118479179Y-163254554D01*
X118440963Y-163236053D01*
X118394403Y-163222568D01*
X118325069Y-163210591D01*
X118325069Y-163327950D01*
X118119356Y-163327950D01*
X118119356Y-163133410D01*
X118123375Y-163062627D01*
X118134491Y-163004522D01*
X118151596Y-162957006D01*
X118176844Y-162913791D01*
X118207934Y-162879515D01*
X118245263Y-162853080D01*
X118287483Y-162834578D01*
X118336968Y-162822900D01*
X118395167Y-162818764D01*
X118449173Y-162821570D01*
G37*
G36*
X117868946Y-163801598D02*
G01*
X117923473Y-163797384D01*
X117967925Y-163785294D01*
X117930861Y-163633009D01*
X117904972Y-163638382D01*
X117884577Y-163639603D01*
X117851225Y-163636415D01*
X117825068Y-163627631D01*
X117804527Y-163613836D01*
X117780015Y-163584952D01*
X117763066Y-163548440D01*
X117752686Y-163512170D01*
X118020682Y-162835434D01*
X117813869Y-162835434D01*
X117714584Y-163134326D01*
X117686191Y-163230191D01*
X117659752Y-163331125D01*
X117654195Y-163331125D01*
X117630382Y-163232451D01*
X117605896Y-163134326D01*
X117521632Y-162835434D01*
X117324590Y-162835434D01*
X117565657Y-163537510D01*
X117601437Y-163619611D01*
X117637709Y-163682834D01*
X117666209Y-163719638D01*
X117697586Y-163748995D01*
X117732048Y-163771678D01*
X117770022Y-163787733D01*
X117815176Y-163797953D01*
X117868946Y-163801598D01*
G37*
G36*
X116989314Y-162823440D02*
G01*
X117044055Y-162837714D01*
X117096833Y-162861690D01*
X117144626Y-162894294D01*
X117186232Y-162935467D01*
X117222069Y-162986132D01*
X117248101Y-163042267D01*
X117264390Y-163107262D01*
X117270123Y-163182930D01*
X117264392Y-163258474D01*
X117248105Y-163323390D01*
X117222069Y-163379485D01*
X117186246Y-163430037D01*
X117144640Y-163471175D01*
X117096833Y-163503804D01*
X117044058Y-163527745D01*
X116989317Y-163542000D01*
X116931847Y-163546791D01*
X116874379Y-163541998D01*
X116819680Y-163527742D01*
X116766983Y-163503804D01*
X116719210Y-163471181D01*
X116677603Y-163430044D01*
X116641748Y-163379485D01*
X116615608Y-163323379D01*
X116599261Y-163258464D01*
X116593510Y-163182930D01*
X116804413Y-163182930D01*
X116808109Y-163240911D01*
X116818274Y-163287711D01*
X116836409Y-163328158D01*
X116860711Y-163356526D01*
X116892202Y-163374461D01*
X116931847Y-163380706D01*
X116971472Y-163374457D01*
X117002861Y-163356526D01*
X117027058Y-163328180D01*
X117045298Y-163287711D01*
X117055553Y-163240904D01*
X117059281Y-163182930D01*
X117055555Y-163125003D01*
X117045298Y-163078150D01*
X117027050Y-163037513D01*
X117002861Y-163009091D01*
X116971458Y-162991018D01*
X116931847Y-162984727D01*
X116892216Y-162991014D01*
X116860711Y-163009091D01*
X116836417Y-163037534D01*
X116818274Y-163078150D01*
X116808107Y-163124997D01*
X116804413Y-163182930D01*
X116593510Y-163182930D01*
X116599263Y-163107273D01*
X116615612Y-163042279D01*
X116641748Y-162986132D01*
X116677617Y-162935461D01*
X116719224Y-162894288D01*
X116766983Y-162861690D01*
X116819683Y-162837717D01*
X116874382Y-162823442D01*
X116931847Y-162818642D01*
X116989314Y-162823440D01*
G37*
G36*
X116244120Y-163546791D02*
G01*
X116299627Y-163541536D01*
X116344073Y-163526932D01*
X116379792Y-163503839D01*
X116408312Y-163471870D01*
X116435373Y-163419445D01*
X116453017Y-163352327D01*
X116459481Y-163266767D01*
X116459481Y-162835556D01*
X116253768Y-162835556D01*
X116253768Y-163240266D01*
X116250746Y-163290658D01*
X116243209Y-163323353D01*
X116232885Y-163343459D01*
X116217019Y-163358532D01*
X116195882Y-163367939D01*
X116167733Y-163371364D01*
X116131311Y-163366759D01*
X116101605Y-163353656D01*
X116075059Y-163331800D01*
X116044146Y-163294977D01*
X116044146Y-162835556D01*
X115838494Y-162835556D01*
X115838494Y-163530000D01*
X116006106Y-163530000D01*
X116021065Y-163433890D01*
X116026072Y-163433890D01*
X116072142Y-163480848D01*
X116121327Y-163516200D01*
X116157164Y-163532868D01*
X116197769Y-163543191D01*
X116244120Y-163546791D01*
G37*
G36*
X115390919Y-163545570D02*
G01*
X115454873Y-163540137D01*
X115505159Y-163525226D01*
X115544632Y-163502088D01*
X115575322Y-163470771D01*
X115605419Y-163418208D01*
X115624444Y-163354217D01*
X115631254Y-163275987D01*
X115631254Y-162996634D01*
X115726081Y-162996634D01*
X115726081Y-162843311D01*
X115619713Y-162835556D01*
X115595411Y-162623065D01*
X115424930Y-162623065D01*
X115424930Y-162835556D01*
X115258600Y-162835556D01*
X115258600Y-162996634D01*
X115424930Y-162996634D01*
X115424930Y-163273667D01*
X115421663Y-163312074D01*
X115413095Y-163339261D01*
X115400383Y-163358114D01*
X115372363Y-163377229D01*
X115335415Y-163383881D01*
X115300976Y-163381500D01*
X115269469Y-163372951D01*
X115236191Y-163516933D01*
X115302320Y-163536777D01*
X115343113Y-163543260D01*
X115390919Y-163545570D01*
G37*
G36*
X114844059Y-163530000D02*
G01*
X114683042Y-163530000D01*
X114665945Y-163455872D01*
X114660816Y-163455872D01*
X114616718Y-163495930D01*
X114572339Y-163523710D01*
X114525300Y-163541177D01*
X114479527Y-163546791D01*
X114430656Y-163541972D01*
X114383649Y-163527503D01*
X114337683Y-163502827D01*
X114297005Y-163469980D01*
X114260872Y-163427628D01*
X114229178Y-163374356D01*
X114206611Y-163316526D01*
X114192339Y-163249187D01*
X114187514Y-163174077D01*
X114398194Y-163174077D01*
X114402963Y-163242316D01*
X114415413Y-163291069D01*
X114436566Y-163331407D01*
X114462124Y-163357320D01*
X114493207Y-163373130D01*
X114527459Y-163378386D01*
X114553050Y-163376001D01*
X114581742Y-163368372D01*
X114609682Y-163355233D01*
X114638224Y-163334483D01*
X114638224Y-163049269D01*
X114606670Y-163019681D01*
X114578750Y-163001580D01*
X114549235Y-162990645D01*
X114518911Y-162987048D01*
X114480596Y-162992531D01*
X114451195Y-163007930D01*
X114428582Y-163032918D01*
X114411383Y-163070273D01*
X114401812Y-163114496D01*
X114398194Y-163174077D01*
X114187514Y-163174077D01*
X114187290Y-163170596D01*
X114191246Y-163099786D01*
X114202463Y-163038302D01*
X114220202Y-162984849D01*
X114245930Y-162935170D01*
X114277248Y-162894735D01*
X114314296Y-162862362D01*
X114356935Y-162838368D01*
X114404919Y-162823718D01*
X114459560Y-162818642D01*
X114508011Y-162823734D01*
X114556341Y-162839281D01*
X114601790Y-162863583D01*
X114643353Y-162895518D01*
X114638224Y-162788784D01*
X114638224Y-162549181D01*
X114844059Y-162549181D01*
X114844059Y-163530000D01*
G37*
G36*
X113975715Y-163801598D02*
G01*
X114030242Y-163797384D01*
X114074694Y-163785294D01*
X114037630Y-163633009D01*
X114011741Y-163638382D01*
X113991346Y-163639603D01*
X113957994Y-163636415D01*
X113931837Y-163627631D01*
X113911296Y-163613836D01*
X113886784Y-163584952D01*
X113869836Y-163548440D01*
X113859455Y-163512170D01*
X114127451Y-162835434D01*
X113920638Y-162835434D01*
X113821353Y-163134326D01*
X113792960Y-163230191D01*
X113766521Y-163331125D01*
X113760964Y-163331125D01*
X113737151Y-163232451D01*
X113712665Y-163134326D01*
X113628401Y-162835434D01*
X113431359Y-162835434D01*
X113672426Y-163537510D01*
X113708206Y-163619611D01*
X113744478Y-163682834D01*
X113772978Y-163719638D01*
X113804355Y-163748995D01*
X113838817Y-163771678D01*
X113876791Y-163787733D01*
X113921945Y-163797953D01*
X113975715Y-163801598D01*
G37*
G36*
X113028297Y-163530000D02*
G01*
X113028297Y-162617508D01*
X112822034Y-162617508D01*
X112822034Y-162990345D01*
X112816905Y-162990345D01*
X112544879Y-162617508D01*
X112318161Y-162617508D01*
X112594216Y-162981674D01*
X112267480Y-163530000D01*
X112493710Y-163530000D01*
X112715483Y-163144523D01*
X112822034Y-163285451D01*
X112822034Y-163530000D01*
X113028297Y-163530000D01*
G37*
G36*
X111951337Y-162821570D02*
G01*
X112003148Y-162829877D01*
X112053525Y-162843393D01*
X112102250Y-162861690D01*
X112194269Y-162909317D01*
X112121362Y-163043590D01*
X112070645Y-163017497D01*
X112025680Y-162999321D01*
X111980799Y-162987652D01*
X111937569Y-162983872D01*
X111902046Y-162987157D01*
X111876203Y-162995901D01*
X111855362Y-163010570D01*
X111840971Y-163029912D01*
X111831920Y-163053156D01*
X111827233Y-163081325D01*
X111934337Y-163096645D01*
X112017073Y-163116289D01*
X112079735Y-163139041D01*
X112126125Y-163164002D01*
X112167298Y-163198252D01*
X112195813Y-163237761D01*
X112213100Y-163283528D01*
X112219120Y-163337353D01*
X112212607Y-163393738D01*
X112193597Y-163443476D01*
X112162856Y-163486016D01*
X112121545Y-163518886D01*
X112089422Y-163534101D01*
X112053059Y-163543512D01*
X112011575Y-163546791D01*
X111954386Y-163540523D01*
X111903314Y-163522184D01*
X111855762Y-163494337D01*
X111809769Y-163459108D01*
X111804152Y-163459108D01*
X111789802Y-163530000D01*
X111621519Y-163530000D01*
X111621519Y-163327950D01*
X111827233Y-163327950D01*
X111854763Y-163352709D01*
X111880722Y-163370265D01*
X111908978Y-163381497D01*
X111942393Y-163385408D01*
X111975673Y-163381173D01*
X111999851Y-163369654D01*
X112015827Y-163350348D01*
X112021528Y-163321477D01*
X112017110Y-163296492D01*
X112003576Y-163273545D01*
X111981342Y-163254554D01*
X111943126Y-163236053D01*
X111896566Y-163222568D01*
X111827233Y-163210591D01*
X111827233Y-163327950D01*
X111621519Y-163327950D01*
X111621519Y-163133410D01*
X111625539Y-163062627D01*
X111636654Y-163004522D01*
X111653759Y-162957006D01*
X111679008Y-162913791D01*
X111710098Y-162879515D01*
X111747426Y-162853080D01*
X111789646Y-162834578D01*
X111839131Y-162822900D01*
X111897330Y-162818764D01*
X111951337Y-162821570D01*
G37*
G36*
X111449206Y-163530000D02*
G01*
X111449206Y-162835556D01*
X111243492Y-162835556D01*
X111243492Y-163530000D01*
X111449206Y-163530000D01*
G37*
G36*
X111346441Y-162733829D02*
G01*
X111379737Y-162730323D01*
X111407336Y-162720390D01*
X111430460Y-162704275D01*
X111448224Y-162682691D01*
X111458987Y-162656935D01*
X111462761Y-162625751D01*
X111458989Y-162594736D01*
X111448230Y-162569122D01*
X111430460Y-162547655D01*
X111407340Y-162531576D01*
X111379741Y-162521662D01*
X111346441Y-162518162D01*
X111312980Y-162521672D01*
X111285372Y-162531594D01*
X111262360Y-162547655D01*
X111244626Y-162569118D01*
X111233886Y-162594732D01*
X111230120Y-162625751D01*
X111233888Y-162656940D01*
X111244632Y-162682695D01*
X111262360Y-162704275D01*
X111285376Y-162720372D01*
X111312984Y-162730313D01*
X111346441Y-162733829D01*
G37*
G36*
X110362875Y-163546791D02*
G01*
X110445345Y-163540740D01*
X110520620Y-163523105D01*
X110589898Y-163494218D01*
X110652484Y-163453652D01*
X110705790Y-163401715D01*
X110750549Y-163337170D01*
X110775508Y-163284344D01*
X110794026Y-163224446D01*
X110805687Y-163156423D01*
X110809778Y-163079066D01*
X110805639Y-163003808D01*
X110793757Y-162936664D01*
X110774729Y-162876589D01*
X110747975Y-162819593D01*
X110715887Y-162769659D01*
X110678436Y-162726074D01*
X110635317Y-162688097D01*
X110588176Y-162656997D01*
X110536592Y-162632468D01*
X110482118Y-162614926D01*
X110425088Y-162604311D01*
X110365012Y-162600717D01*
X110299566Y-162604934D01*
X110243050Y-162616898D01*
X110194103Y-162635887D01*
X110127669Y-162675247D01*
X110077110Y-162719174D01*
X110185860Y-162844532D01*
X110221458Y-162816569D01*
X110259499Y-162796050D01*
X110302118Y-162783482D01*
X110358112Y-162778831D01*
X110403867Y-162782886D01*
X110445133Y-162794700D01*
X110482798Y-162814185D01*
X110515946Y-162840616D01*
X110544212Y-162873925D01*
X110567794Y-162915057D01*
X110584270Y-162959784D01*
X110594698Y-163011712D01*
X110598386Y-163072105D01*
X110594904Y-163134184D01*
X110585108Y-163187148D01*
X110569748Y-163232329D01*
X110547102Y-163273716D01*
X110518738Y-163307179D01*
X110484324Y-163333689D01*
X110445005Y-163352496D01*
X110397994Y-163364424D01*
X110341625Y-163368677D01*
X110287648Y-163361655D01*
X110263289Y-163352789D01*
X110245027Y-163341505D01*
X110245027Y-163183968D01*
X110396153Y-163183968D01*
X110396153Y-163015563D01*
X110061784Y-163015563D01*
X110061784Y-163436271D01*
X110114480Y-163477635D01*
X110187875Y-163514673D01*
X110241654Y-163532277D01*
X110299764Y-163543082D01*
X110362875Y-163546791D01*
G37*
G36*
X109650305Y-162823440D02*
G01*
X109705046Y-162837714D01*
X109757824Y-162861690D01*
X109805617Y-162894294D01*
X109847223Y-162935467D01*
X109883060Y-162986132D01*
X109909092Y-163042267D01*
X109925381Y-163107262D01*
X109931114Y-163182930D01*
X109925383Y-163258474D01*
X109909096Y-163323390D01*
X109883060Y-163379485D01*
X109847237Y-163430037D01*
X109805631Y-163471175D01*
X109757824Y-163503804D01*
X109705049Y-163527745D01*
X109650308Y-163542000D01*
X109592838Y-163546791D01*
X109535370Y-163541998D01*
X109480671Y-163527742D01*
X109427974Y-163503804D01*
X109380201Y-163471181D01*
X109338594Y-163430044D01*
X109302739Y-163379485D01*
X109276599Y-163323379D01*
X109260252Y-163258464D01*
X109254501Y-163182930D01*
X109465404Y-163182930D01*
X109469100Y-163240911D01*
X109479265Y-163287711D01*
X109497400Y-163328158D01*
X109521702Y-163356526D01*
X109553193Y-163374461D01*
X109592838Y-163380706D01*
X109632463Y-163374457D01*
X109663852Y-163356526D01*
X109688049Y-163328180D01*
X109706289Y-163287711D01*
X109716544Y-163240904D01*
X109720272Y-163182930D01*
X109716546Y-163125003D01*
X109706289Y-163078150D01*
X109688041Y-163037513D01*
X109663852Y-163009091D01*
X109632449Y-162991018D01*
X109592838Y-162984727D01*
X109553207Y-162991014D01*
X109521702Y-163009091D01*
X109497408Y-163037534D01*
X109479265Y-163078150D01*
X109469098Y-163124997D01*
X109465404Y-163182930D01*
X109254501Y-163182930D01*
X109260254Y-163107273D01*
X109276603Y-163042279D01*
X109302739Y-162986132D01*
X109338608Y-162935461D01*
X109380215Y-162894288D01*
X109427974Y-162861690D01*
X109480674Y-162837717D01*
X109535373Y-162823442D01*
X109592838Y-162818642D01*
X109650305Y-162823440D01*
G37*
G36*
X108883312Y-163545570D02*
G01*
X108947266Y-163540137D01*
X108997552Y-163525226D01*
X109037026Y-163502088D01*
X109067716Y-163470771D01*
X109097812Y-163418208D01*
X109116838Y-163354217D01*
X109123647Y-163275987D01*
X109123647Y-162996634D01*
X109218475Y-162996634D01*
X109218475Y-162843311D01*
X109112107Y-162835556D01*
X109087805Y-162623065D01*
X108917323Y-162623065D01*
X108917323Y-162835556D01*
X108750994Y-162835556D01*
X108750994Y-162996634D01*
X108917323Y-162996634D01*
X108917323Y-163273667D01*
X108914056Y-163312074D01*
X108905489Y-163339261D01*
X108892777Y-163358114D01*
X108864757Y-163377229D01*
X108827808Y-163383881D01*
X108793370Y-163381500D01*
X108761863Y-163372951D01*
X108728585Y-163516933D01*
X108794713Y-163536777D01*
X108835506Y-163543260D01*
X108883312Y-163545570D01*
G37*
G36*
X108375287Y-163545570D02*
G01*
X108439241Y-163540137D01*
X108489527Y-163525226D01*
X108529001Y-163502088D01*
X108559691Y-163470771D01*
X108589787Y-163418208D01*
X108608813Y-163354217D01*
X108615622Y-163275987D01*
X108615622Y-162996634D01*
X108710450Y-162996634D01*
X108710450Y-162843311D01*
X108604082Y-162835556D01*
X108579780Y-162623065D01*
X108409298Y-162623065D01*
X108409298Y-162835556D01*
X108242969Y-162835556D01*
X108242969Y-162996634D01*
X108409298Y-162996634D01*
X108409298Y-163273667D01*
X108406031Y-163312074D01*
X108397464Y-163339261D01*
X108384752Y-163358114D01*
X108356732Y-163377229D01*
X108319783Y-163383881D01*
X108285345Y-163381500D01*
X108253838Y-163372951D01*
X108220560Y-163516933D01*
X108286688Y-163536777D01*
X108327481Y-163543260D01*
X108375287Y-163545570D01*
G37*
G36*
X107916233Y-163546791D02*
G01*
X107985484Y-163540236D01*
X108058138Y-163519863D01*
X108126036Y-163486849D01*
X108182946Y-163442866D01*
X108095446Y-163327217D01*
X108046677Y-163359610D01*
X108000863Y-163379546D01*
X107954255Y-163390939D01*
X107911165Y-163394567D01*
X107869081Y-163389869D01*
X107844364Y-163378264D01*
X107828689Y-163359311D01*
X107823421Y-163334788D01*
X107827964Y-163313908D01*
X107841861Y-163296381D01*
X107862272Y-163282238D01*
X107890648Y-163268721D01*
X107959098Y-163242587D01*
X108007017Y-163221909D01*
X108050689Y-163196791D01*
X108088946Y-163165939D01*
X108118527Y-163129624D01*
X108137592Y-163087198D01*
X108144234Y-163036079D01*
X108139499Y-162988745D01*
X108125837Y-162947481D01*
X108103375Y-162911020D01*
X108071327Y-162878543D01*
X108033529Y-162853190D01*
X107989641Y-162834541D01*
X107938548Y-162822793D01*
X107878864Y-162818642D01*
X107805744Y-162824983D01*
X107740928Y-162843311D01*
X107681979Y-162872000D01*
X107634071Y-162906570D01*
X107721571Y-163022280D01*
X107760454Y-162998392D01*
X107797592Y-162982957D01*
X107835508Y-162973838D01*
X107872391Y-162970867D01*
X107909303Y-162975218D01*
X107932170Y-162986254D01*
X107946878Y-163003947D01*
X107951770Y-163026310D01*
X107948319Y-163044684D01*
X107938032Y-163059954D01*
X107921790Y-163072446D01*
X107895472Y-163085478D01*
X107822627Y-163111489D01*
X107771330Y-163131725D01*
X107725724Y-163156491D01*
X107686243Y-163187510D01*
X107656481Y-163224513D01*
X107637641Y-163268196D01*
X107630957Y-163322759D01*
X107634666Y-163363717D01*
X107645560Y-163401331D01*
X107663686Y-163436332D01*
X107688241Y-163467121D01*
X107719920Y-163493929D01*
X107759795Y-163516871D01*
X107803072Y-163532865D01*
X107854697Y-163543122D01*
X107916233Y-163546791D01*
G37*
G36*
X107194373Y-163546791D02*
G01*
X107259365Y-163541828D01*
X107318331Y-163527388D01*
X107372304Y-163503743D01*
X107420949Y-163470893D01*
X107462221Y-163429719D01*
X107496685Y-163379363D01*
X107521357Y-163323422D01*
X107536840Y-163258591D01*
X107542297Y-163183114D01*
X107536311Y-163107455D01*
X107519281Y-163042456D01*
X107491983Y-162986254D01*
X107454570Y-162935970D01*
X107410459Y-162894762D01*
X107359054Y-162861873D01*
X107302616Y-162837965D01*
X107243422Y-162823615D01*
X107180696Y-162818764D01*
X107118670Y-162824098D01*
X107065596Y-162839281D01*
X107017625Y-162863370D01*
X106977547Y-162893381D01*
X107074084Y-163020814D01*
X107116215Y-162994680D01*
X107140233Y-162987427D01*
X107169155Y-162984849D01*
X107215010Y-162991101D01*
X107253968Y-163009274D01*
X107286108Y-163038190D01*
X107311060Y-163078089D01*
X107326210Y-163125118D01*
X107331638Y-163183114D01*
X107326212Y-163240524D01*
X107310999Y-163287527D01*
X107286214Y-163327480D01*
X107254945Y-163356343D01*
X107217188Y-163374516D01*
X107173551Y-163380706D01*
X107139920Y-163377525D01*
X107108217Y-163368066D01*
X107078345Y-163353383D01*
X107050758Y-163334727D01*
X106970036Y-163461550D01*
X107016802Y-163496423D01*
X107072130Y-163523771D01*
X107131968Y-163541025D01*
X107194373Y-163546791D01*
G37*
G36*
X106847548Y-163530000D02*
G01*
X106847548Y-162549181D01*
X106641713Y-162549181D01*
X106641713Y-162788784D01*
X106650994Y-162914630D01*
X106608918Y-162880498D01*
X106559403Y-162848562D01*
X106523644Y-162832280D01*
X106483018Y-162822173D01*
X106436549Y-162818642D01*
X106380473Y-162823928D01*
X106335798Y-162838581D01*
X106300107Y-162861693D01*
X106271807Y-162893625D01*
X106244982Y-162946055D01*
X106227480Y-163013197D01*
X106221065Y-163098789D01*
X106221065Y-163530000D01*
X106426901Y-163530000D01*
X106426901Y-163125167D01*
X106429871Y-163074828D01*
X106437280Y-163042146D01*
X106447418Y-163022035D01*
X106463072Y-163006923D01*
X106484358Y-162997429D01*
X106513180Y-162993948D01*
X106549823Y-162998502D01*
X106579492Y-163011411D01*
X106607314Y-163031388D01*
X106641713Y-163061420D01*
X106641713Y-163530000D01*
X106847548Y-163530000D01*
G37*
G36*
X105813025Y-162821570D02*
G01*
X105864837Y-162829877D01*
X105915214Y-162843393D01*
X105963939Y-162861690D01*
X106055957Y-162909317D01*
X105983051Y-163043590D01*
X105932333Y-163017497D01*
X105887369Y-162999321D01*
X105842488Y-162987652D01*
X105799258Y-162983872D01*
X105763735Y-162987157D01*
X105737892Y-162995901D01*
X105717051Y-163010570D01*
X105702660Y-163029912D01*
X105693609Y-163053156D01*
X105688921Y-163081325D01*
X105796026Y-163096645D01*
X105878762Y-163116289D01*
X105941423Y-163139041D01*
X105987814Y-163164002D01*
X106028986Y-163198252D01*
X106057501Y-163237761D01*
X106074789Y-163283528D01*
X106080809Y-163337353D01*
X106074296Y-163393738D01*
X106055286Y-163443476D01*
X106024545Y-163486016D01*
X105983234Y-163518886D01*
X105951110Y-163534101D01*
X105914747Y-163543512D01*
X105873264Y-163546791D01*
X105816075Y-163540523D01*
X105765003Y-163522184D01*
X105717450Y-163494337D01*
X105671458Y-163459108D01*
X105665840Y-163459108D01*
X105651491Y-163530000D01*
X105483208Y-163530000D01*
X105483208Y-163327950D01*
X105688921Y-163327950D01*
X105716451Y-163352709D01*
X105742411Y-163370265D01*
X105770666Y-163381497D01*
X105804082Y-163385408D01*
X105837362Y-163381173D01*
X105861540Y-163369654D01*
X105877516Y-163350348D01*
X105883217Y-163321477D01*
X105878798Y-163296492D01*
X105865265Y-163273545D01*
X105843031Y-163254554D01*
X105804815Y-163236053D01*
X105758255Y-163222568D01*
X105688921Y-163210591D01*
X105688921Y-163327950D01*
X105483208Y-163327950D01*
X105483208Y-163133410D01*
X105487228Y-163062627D01*
X105498343Y-163004522D01*
X105515448Y-162957006D01*
X105540696Y-162913791D01*
X105571786Y-162879515D01*
X105609115Y-162853080D01*
X105651335Y-162834578D01*
X105700820Y-162822900D01*
X105759019Y-162818764D01*
X105813025Y-162821570D01*
G37*
G36*
X105121179Y-163545570D02*
G01*
X105167590Y-163541985D01*
X105204310Y-163532156D01*
X105233286Y-163516994D01*
X105257981Y-163495607D01*
X105277743Y-163468903D01*
X105292759Y-163436027D01*
X105306079Y-163380965D01*
X105310894Y-163313173D01*
X105310894Y-162549426D01*
X105105181Y-162549426D01*
X105105181Y-163321599D01*
X105101539Y-163351503D01*
X105092847Y-163367151D01*
X105079770Y-163376622D01*
X105067201Y-163379485D01*
X105055966Y-163378813D01*
X105042655Y-163376676D01*
X105017742Y-163528412D01*
X105060118Y-163540563D01*
X105121179Y-163545570D01*
G37*
G36*
X104911191Y-163530000D02*
G01*
X104911191Y-162549181D01*
X104707676Y-162549181D01*
X104707676Y-163108742D01*
X104702608Y-163108742D01*
X104486880Y-162835434D01*
X104261139Y-162835434D01*
X104502145Y-163124007D01*
X104242698Y-163530000D01*
X104465631Y-163530000D01*
X104621885Y-163259073D01*
X104707676Y-163356709D01*
X104707676Y-163530000D01*
X104911191Y-163530000D01*
G37*
G36*
X127132807Y-83096362D02*
G01*
X127228013Y-83090637D01*
X127321846Y-83073461D01*
X127414938Y-83044595D01*
X127503433Y-83004342D01*
X127586090Y-82952190D01*
X127663517Y-82887472D01*
X127492014Y-82676856D01*
X127410110Y-82735769D01*
X127317251Y-82780103D01*
X127219197Y-82807806D01*
X127125617Y-82816723D01*
X127058538Y-82811827D01*
X127009455Y-82798882D01*
X126974149Y-82779719D01*
X126946346Y-82751948D01*
X126929911Y-82718799D01*
X126924204Y-82678486D01*
X126930946Y-82636150D01*
X126949800Y-82605053D01*
X126979086Y-82579915D01*
X127021411Y-82555586D01*
X127130793Y-82507941D01*
X127316964Y-82430290D01*
X127389254Y-82393396D01*
X127457982Y-82346216D01*
X127517720Y-82288406D01*
X127565159Y-82218044D01*
X127595391Y-82136918D01*
X127606094Y-82038009D01*
X127598715Y-81960329D01*
X127576996Y-81888919D01*
X127540714Y-81822312D01*
X127492335Y-81763285D01*
X127432660Y-81712163D01*
X127360295Y-81668640D01*
X127281764Y-81637226D01*
X127194146Y-81617778D01*
X127095803Y-81611025D01*
X126968131Y-81622628D01*
X126845690Y-81657328D01*
X126768447Y-81692815D01*
X126698434Y-81736864D01*
X126634978Y-81789718D01*
X126804947Y-82000334D01*
X126877994Y-81952682D01*
X126949800Y-81918849D01*
X127023734Y-81897573D01*
X127095803Y-81890664D01*
X127173254Y-81899693D01*
X127228672Y-81923930D01*
X127256501Y-81949396D01*
X127272901Y-81980501D01*
X127278618Y-82019124D01*
X127271456Y-82058937D01*
X127250433Y-82091119D01*
X127218243Y-82117103D01*
X127171824Y-82141352D01*
X127059853Y-82188710D01*
X126877326Y-82262622D01*
X126793365Y-82303284D01*
X126725283Y-82350722D01*
X126669308Y-82408649D01*
X126627692Y-82477168D01*
X126602287Y-82555521D01*
X126593181Y-82652314D01*
X126600221Y-82729838D01*
X126621122Y-82802861D01*
X126656260Y-82872613D01*
X126703748Y-82934611D01*
X126764583Y-82988699D01*
X126840609Y-83035200D01*
X126923540Y-83068164D01*
X127020097Y-83088995D01*
X127132807Y-83096362D01*
G37*
G36*
X125887420Y-83096362D02*
G01*
X125990120Y-83088587D01*
X126083705Y-83065929D01*
X126169744Y-83028777D01*
X126247520Y-82977113D01*
X126313382Y-82912451D01*
X126368281Y-82833500D01*
X126407628Y-82745591D01*
X126432330Y-82643483D01*
X126441042Y-82524334D01*
X126432222Y-82408263D01*
X126407055Y-82307572D01*
X126366651Y-82219674D01*
X126311325Y-82140012D01*
X126247375Y-82074850D01*
X126174249Y-82022767D01*
X126093331Y-81983911D01*
X126010684Y-81961003D01*
X125925095Y-81953360D01*
X125823177Y-81961687D01*
X125737854Y-81985132D01*
X125666067Y-82022383D01*
X125603251Y-82073718D01*
X125552170Y-82135777D01*
X125512108Y-82209896D01*
X125484425Y-82290285D01*
X125467312Y-82378728D01*
X125461395Y-82476497D01*
X125465996Y-82558846D01*
X125475775Y-82623171D01*
X126190451Y-82623171D01*
X126192943Y-82400189D01*
X125739788Y-82400189D01*
X125750648Y-82318941D01*
X125780818Y-82257349D01*
X125812333Y-82227518D01*
X125856624Y-82208454D01*
X125918193Y-82201364D01*
X125969971Y-82208355D01*
X126022015Y-82230028D01*
X126066874Y-82267337D01*
X126105897Y-82329248D01*
X126128950Y-82407196D01*
X126136287Y-82524334D01*
X126129349Y-82606189D01*
X126113746Y-82669724D01*
X126091134Y-82718557D01*
X126041706Y-82779481D01*
X125982614Y-82818161D01*
X125915232Y-82840078D01*
X125844377Y-82847400D01*
X125782323Y-82842897D01*
X125722532Y-82829473D01*
X125664521Y-82807795D01*
X125606151Y-82777610D01*
X125500987Y-82974709D01*
X125587553Y-83025496D01*
X125686678Y-83064343D01*
X125790045Y-83088574D01*
X125887420Y-83096362D01*
G37*
G36*
X125238796Y-83070000D02*
G01*
X125238796Y-81979532D01*
X124975166Y-81979532D01*
X124951871Y-82117578D01*
X124943914Y-82117578D01*
X124870979Y-82055129D01*
X124789858Y-82001772D01*
X124731420Y-81975176D01*
X124666424Y-81958828D01*
X124593526Y-81953169D01*
X124505487Y-81961467D01*
X124435348Y-81984472D01*
X124379312Y-82020759D01*
X124334881Y-82070891D01*
X124292767Y-82153207D01*
X124265288Y-82258619D01*
X124255217Y-82392999D01*
X124255217Y-83070000D01*
X124578379Y-83070000D01*
X124578379Y-82434412D01*
X124583043Y-82355381D01*
X124594674Y-82304069D01*
X124610590Y-82272496D01*
X124635168Y-82248769D01*
X124668587Y-82233864D01*
X124713837Y-82228398D01*
X124771366Y-82235549D01*
X124817947Y-82255815D01*
X124861627Y-82287180D01*
X124915634Y-82334329D01*
X124915634Y-83070000D01*
X125238796Y-83070000D01*
G37*
G36*
X123660277Y-83096362D02*
G01*
X123769001Y-83086071D01*
X123883068Y-83054086D01*
X123989668Y-83002253D01*
X124079017Y-82933200D01*
X123941642Y-82751631D01*
X123865075Y-82802487D01*
X123793147Y-82833787D01*
X123719972Y-82851674D01*
X123652320Y-82857370D01*
X123586249Y-82849995D01*
X123547444Y-82831774D01*
X123522834Y-82802018D01*
X123514562Y-82763518D01*
X123521695Y-82730736D01*
X123543513Y-82703219D01*
X123575559Y-82681014D01*
X123620110Y-82659792D01*
X123727575Y-82618761D01*
X123802808Y-82586297D01*
X123871373Y-82546862D01*
X123931437Y-82498425D01*
X123977879Y-82441411D01*
X124007811Y-82374802D01*
X124018238Y-82294545D01*
X124010805Y-82220230D01*
X123989356Y-82155446D01*
X123954090Y-82098202D01*
X123903775Y-82047212D01*
X123844432Y-82007409D01*
X123775528Y-81978130D01*
X123695312Y-81959685D01*
X123601608Y-81953169D01*
X123486809Y-81963123D01*
X123385048Y-81991898D01*
X123292499Y-82036941D01*
X123217284Y-82091215D01*
X123354659Y-82272879D01*
X123415705Y-82235375D01*
X123474011Y-82211142D01*
X123533538Y-82196826D01*
X123591446Y-82192161D01*
X123649397Y-82198992D01*
X123685298Y-82216319D01*
X123708390Y-82244097D01*
X123716071Y-82279206D01*
X123710652Y-82308054D01*
X123694501Y-82332028D01*
X123669002Y-82351640D01*
X123627683Y-82372100D01*
X123513316Y-82412939D01*
X123432779Y-82444709D01*
X123361177Y-82483591D01*
X123299193Y-82532291D01*
X123252466Y-82590385D01*
X123222888Y-82658967D01*
X123212394Y-82744633D01*
X123218217Y-82808937D01*
X123235321Y-82867989D01*
X123263778Y-82922942D01*
X123302329Y-82971280D01*
X123352066Y-83013369D01*
X123414670Y-83049388D01*
X123482614Y-83074498D01*
X123563666Y-83090602D01*
X123660277Y-83096362D01*
G37*
G36*
X123010310Y-83070000D02*
G01*
X123010310Y-81979723D01*
X122687340Y-81979723D01*
X122687340Y-83070000D01*
X123010310Y-83070000D01*
G37*
G36*
X122848969Y-81820012D02*
G01*
X122901244Y-81814507D01*
X122944575Y-81798912D01*
X122980880Y-81773613D01*
X123008769Y-81739725D01*
X123025666Y-81699289D01*
X123031592Y-81650330D01*
X123025670Y-81601636D01*
X123008778Y-81561422D01*
X122980880Y-81527718D01*
X122944582Y-81502475D01*
X122901251Y-81486910D01*
X122848969Y-81481415D01*
X122796435Y-81486925D01*
X122753091Y-81502502D01*
X122716962Y-81527718D01*
X122689121Y-81561415D01*
X122672259Y-81601629D01*
X122666346Y-81650330D01*
X122672262Y-81699296D01*
X122689130Y-81739732D01*
X122716962Y-81773613D01*
X122753098Y-81798885D01*
X122796442Y-81814492D01*
X122848969Y-81820012D01*
G37*
G36*
X122404250Y-83070000D02*
G01*
X122404250Y-81979532D01*
X122140620Y-81979532D01*
X122117325Y-82170112D01*
X122109368Y-82170112D01*
X122065163Y-82100855D01*
X122017700Y-82047208D01*
X121966912Y-82006949D01*
X121909824Y-81976373D01*
X121854365Y-81958870D01*
X121799531Y-81953169D01*
X121722743Y-81958441D01*
X121669442Y-81975122D01*
X121731275Y-82249584D01*
X121781509Y-82239710D01*
X121840945Y-82236451D01*
X121901789Y-82246813D01*
X121969980Y-82280932D01*
X122009567Y-82315192D01*
X122046691Y-82366109D01*
X122081088Y-82438055D01*
X122081088Y-83070000D01*
X122404250Y-83070000D01*
G37*
G36*
X121530150Y-83070000D02*
G01*
X121530150Y-81979723D01*
X121207180Y-81979723D01*
X121207180Y-83070000D01*
X121530150Y-83070000D01*
G37*
G36*
X121368808Y-81820012D02*
G01*
X121421084Y-81814507D01*
X121464414Y-81798912D01*
X121500719Y-81773613D01*
X121528608Y-81739725D01*
X121545506Y-81699289D01*
X121551432Y-81650330D01*
X121545510Y-81601636D01*
X121528618Y-81561422D01*
X121500719Y-81527718D01*
X121464421Y-81502475D01*
X121421090Y-81486910D01*
X121368808Y-81481415D01*
X121316275Y-81486925D01*
X121272930Y-81502502D01*
X121236802Y-81527718D01*
X121208960Y-81561415D01*
X121192098Y-81601629D01*
X121186185Y-81650330D01*
X121192102Y-81699296D01*
X121208970Y-81739732D01*
X121236802Y-81773613D01*
X121272937Y-81798885D01*
X121316282Y-81814492D01*
X121368808Y-81820012D01*
G37*
G36*
X120546490Y-81960700D02*
G01*
X120632433Y-81983111D01*
X120715295Y-82020754D01*
X120790330Y-82071942D01*
X120855652Y-82136584D01*
X120911914Y-82216127D01*
X120952785Y-82304260D01*
X120978359Y-82406302D01*
X120987360Y-82525101D01*
X120978362Y-82643705D01*
X120952791Y-82745623D01*
X120911914Y-82833691D01*
X120855673Y-82913059D01*
X120790352Y-82977645D01*
X120715295Y-83028873D01*
X120632438Y-83066461D01*
X120546494Y-83088841D01*
X120456267Y-83096362D01*
X120366042Y-83088838D01*
X120280164Y-83066455D01*
X120197430Y-83028873D01*
X120122426Y-82977655D01*
X120057104Y-82913069D01*
X120000810Y-82833691D01*
X119959771Y-82745605D01*
X119934107Y-82643688D01*
X119925077Y-82525101D01*
X120256196Y-82525101D01*
X120261998Y-82616130D01*
X120277957Y-82689606D01*
X120306429Y-82753109D01*
X120344583Y-82797646D01*
X120394024Y-82825805D01*
X120456267Y-82835609D01*
X120518478Y-82825798D01*
X120567758Y-82797646D01*
X120605747Y-82753143D01*
X120634384Y-82689606D01*
X120650485Y-82616120D01*
X120656337Y-82525101D01*
X120650488Y-82434155D01*
X120634384Y-82360596D01*
X120605735Y-82296795D01*
X120567758Y-82252172D01*
X120518456Y-82223799D01*
X120456267Y-82213922D01*
X120394046Y-82223793D01*
X120344583Y-82252172D01*
X120306441Y-82296829D01*
X120277957Y-82360596D01*
X120261995Y-82434145D01*
X120256196Y-82525101D01*
X119925077Y-82525101D01*
X119934110Y-82406319D01*
X119959778Y-82304278D01*
X120000810Y-82216127D01*
X120057125Y-82136573D01*
X120122449Y-82071932D01*
X120197430Y-82020754D01*
X120280169Y-81983117D01*
X120366047Y-81960703D01*
X120456267Y-81953169D01*
X120546490Y-81960700D01*
G37*
G36*
X119704682Y-83070000D02*
G01*
X119704682Y-81979532D01*
X119441053Y-81979532D01*
X119417758Y-82117578D01*
X119409801Y-82117578D01*
X119336866Y-82055129D01*
X119255745Y-82001772D01*
X119197307Y-81975176D01*
X119132311Y-81958828D01*
X119059413Y-81953169D01*
X118971373Y-81961467D01*
X118901235Y-81984472D01*
X118845199Y-82020759D01*
X118800768Y-82070891D01*
X118758654Y-82153207D01*
X118731175Y-82258619D01*
X118721104Y-82392999D01*
X118721104Y-83070000D01*
X119044266Y-83070000D01*
X119044266Y-82434412D01*
X119048930Y-82355381D01*
X119060561Y-82304069D01*
X119076477Y-82272496D01*
X119101055Y-82248769D01*
X119134474Y-82233864D01*
X119179724Y-82228398D01*
X119237253Y-82235549D01*
X119283834Y-82255815D01*
X119327514Y-82287180D01*
X119381520Y-82334329D01*
X119381520Y-83070000D01*
X119704682Y-83070000D01*
G37*
G36*
X117544741Y-83096362D02*
G01*
X117639948Y-83090637D01*
X117733780Y-83073461D01*
X117826873Y-83044595D01*
X117915368Y-83004342D01*
X117998025Y-82952190D01*
X118075451Y-82887472D01*
X117903948Y-82676856D01*
X117822044Y-82735769D01*
X117729186Y-82780103D01*
X117631131Y-82807806D01*
X117537551Y-82816723D01*
X117470472Y-82811827D01*
X117421390Y-82798882D01*
X117386084Y-82779719D01*
X117358281Y-82751948D01*
X117341845Y-82718799D01*
X117336138Y-82678486D01*
X117342881Y-82636150D01*
X117361734Y-82605053D01*
X117391020Y-82579915D01*
X117433345Y-82555586D01*
X117542728Y-82507941D01*
X117728898Y-82430290D01*
X117801188Y-82393396D01*
X117869916Y-82346216D01*
X117929655Y-82288406D01*
X117977094Y-82218044D01*
X118007325Y-82136918D01*
X118018028Y-82038009D01*
X118010649Y-81960329D01*
X117988931Y-81888919D01*
X117952648Y-81822312D01*
X117904269Y-81763285D01*
X117844594Y-81712163D01*
X117772229Y-81668640D01*
X117693698Y-81637226D01*
X117606080Y-81617778D01*
X117507737Y-81611025D01*
X117380065Y-81622628D01*
X117257624Y-81657328D01*
X117180381Y-81692815D01*
X117110369Y-81736864D01*
X117046912Y-81789718D01*
X117216882Y-82000334D01*
X117289928Y-81952682D01*
X117361734Y-81918849D01*
X117435668Y-81897573D01*
X117507737Y-81890664D01*
X117585189Y-81899693D01*
X117640606Y-81923930D01*
X117668435Y-81949396D01*
X117684835Y-81980501D01*
X117690552Y-82019124D01*
X117683391Y-82058937D01*
X117662368Y-82091119D01*
X117630177Y-82117103D01*
X117583758Y-82141352D01*
X117471787Y-82188710D01*
X117289260Y-82262622D01*
X117205299Y-82303284D01*
X117137218Y-82350722D01*
X117081242Y-82408649D01*
X117039627Y-82477168D01*
X117014221Y-82555521D01*
X117005115Y-82652314D01*
X117012156Y-82729838D01*
X117033057Y-82802861D01*
X117068194Y-82872613D01*
X117115683Y-82934611D01*
X117176518Y-82988699D01*
X117252543Y-83035200D01*
X117335474Y-83068164D01*
X117432032Y-83088995D01*
X117544741Y-83096362D01*
G37*
G36*
X116128043Y-83096362D02*
G01*
X116257523Y-83086862D01*
X116375703Y-83059176D01*
X116484471Y-83013822D01*
X116582731Y-82950135D01*
X116666420Y-82868593D01*
X116736692Y-82767257D01*
X116775878Y-82684320D01*
X116804951Y-82590281D01*
X116823259Y-82483485D01*
X116829682Y-82362034D01*
X116823183Y-82243879D01*
X116804529Y-82138462D01*
X116774655Y-82044145D01*
X116732651Y-81954661D01*
X116682272Y-81876264D01*
X116623475Y-81807837D01*
X116555777Y-81748212D01*
X116481767Y-81699385D01*
X116400780Y-81660875D01*
X116315255Y-81633333D01*
X116225718Y-81616669D01*
X116131399Y-81611025D01*
X116028649Y-81617647D01*
X115939919Y-81636430D01*
X115863072Y-81666244D01*
X115758770Y-81728038D01*
X115679394Y-81797004D01*
X115850130Y-81993815D01*
X115906019Y-81949913D01*
X115965743Y-81917698D01*
X116032655Y-81897967D01*
X116120566Y-81890664D01*
X116192401Y-81897031D01*
X116257188Y-81915580D01*
X116316323Y-81946170D01*
X116368366Y-81987667D01*
X116412743Y-82039963D01*
X116449767Y-82104540D01*
X116475634Y-82174761D01*
X116492006Y-82256288D01*
X116497796Y-82351105D01*
X116492330Y-82448570D01*
X116476950Y-82531723D01*
X116452835Y-82602656D01*
X116417280Y-82667635D01*
X116372750Y-82720171D01*
X116318719Y-82761793D01*
X116256988Y-82791320D01*
X116183181Y-82810045D01*
X116094682Y-82816723D01*
X116009937Y-82805699D01*
X115971695Y-82791779D01*
X115943023Y-82774063D01*
X115943023Y-82526731D01*
X116180290Y-82526731D01*
X116180290Y-82262334D01*
X115655331Y-82262334D01*
X115655331Y-82922846D01*
X115738064Y-82987787D01*
X115853293Y-83045937D01*
X115937727Y-83073575D01*
X116028959Y-83090540D01*
X116128043Y-83096362D01*
G37*
G36*
X115359970Y-83070000D02*
G01*
X115036137Y-83070000D01*
X115036137Y-82583962D01*
X114859074Y-82583962D01*
X114758866Y-82578034D01*
X114665955Y-82560709D01*
X114579339Y-82532387D01*
X114499033Y-82491257D01*
X114431387Y-82438431D01*
X114374954Y-82373250D01*
X114333663Y-82298011D01*
X114307635Y-82207564D01*
X114298358Y-82098309D01*
X114615768Y-82098309D01*
X114623625Y-82169367D01*
X114645375Y-82224675D01*
X114680094Y-82267894D01*
X114726633Y-82298726D01*
X114790785Y-82319113D01*
X114878151Y-82326756D01*
X115036137Y-82326756D01*
X115036137Y-81894595D01*
X114886971Y-81894595D01*
X114799366Y-81900513D01*
X114733701Y-81916288D01*
X114685174Y-81939747D01*
X114648100Y-81975297D01*
X114624547Y-82026276D01*
X114615768Y-82098309D01*
X114298358Y-82098309D01*
X114307958Y-81984543D01*
X114334343Y-81894713D01*
X114375338Y-81823846D01*
X114431838Y-81763735D01*
X114499893Y-81716088D01*
X114581256Y-81680432D01*
X114714720Y-81648550D01*
X114867798Y-81637388D01*
X115359970Y-81637388D01*
X115359970Y-83070000D01*
G37*
G36*
X113573233Y-83070000D02*
G01*
X113573233Y-82262814D01*
X113568152Y-82106553D01*
X113560866Y-81950101D01*
X113569590Y-81950101D01*
X113624616Y-82066769D01*
X113683957Y-82186025D01*
X113867156Y-82490685D01*
X113110778Y-82490685D01*
X113110778Y-82736963D01*
X114176801Y-82736963D01*
X114176801Y-82513501D01*
X113667181Y-81674105D01*
X113271832Y-81674105D01*
X113271832Y-83070000D01*
X113573233Y-83070000D01*
G37*
G36*
X112906777Y-83070000D02*
G01*
X112906777Y-82809246D01*
X112601638Y-82809246D01*
X112601638Y-82001581D01*
X112863062Y-82001581D01*
X112863062Y-81801126D01*
X112754984Y-81775914D01*
X112670373Y-81748784D01*
X112591872Y-81715069D01*
X112516797Y-81674105D01*
X112278571Y-81674105D01*
X112278571Y-82809246D01*
X112017147Y-82809246D01*
X112017147Y-83070000D01*
X112906777Y-83070000D01*
G37*
G36*
X127122070Y-85733962D02*
G01*
X127217276Y-85728237D01*
X127311109Y-85711061D01*
X127404201Y-85682195D01*
X127492696Y-85641942D01*
X127575353Y-85589790D01*
X127652780Y-85525072D01*
X127481277Y-85314456D01*
X127399373Y-85373369D01*
X127306514Y-85417703D01*
X127208460Y-85445406D01*
X127114880Y-85454323D01*
X127047801Y-85449427D01*
X126998718Y-85436482D01*
X126963412Y-85417319D01*
X126935609Y-85389548D01*
X126919174Y-85356399D01*
X126913467Y-85316086D01*
X126920209Y-85273750D01*
X126939063Y-85242653D01*
X126968349Y-85217515D01*
X127010674Y-85193186D01*
X127120056Y-85145541D01*
X127306227Y-85067890D01*
X127378517Y-85030996D01*
X127447245Y-84983816D01*
X127506983Y-84926006D01*
X127554422Y-84855644D01*
X127584654Y-84774518D01*
X127595357Y-84675609D01*
X127587978Y-84597929D01*
X127566259Y-84526519D01*
X127529977Y-84459912D01*
X127481598Y-84400885D01*
X127421923Y-84349763D01*
X127349558Y-84306240D01*
X127271027Y-84274826D01*
X127183409Y-84255378D01*
X127085066Y-84248625D01*
X126957394Y-84260228D01*
X126834953Y-84294928D01*
X126757710Y-84330415D01*
X126687697Y-84374464D01*
X126624241Y-84427318D01*
X126794210Y-84637934D01*
X126867257Y-84590282D01*
X126939063Y-84556449D01*
X127012997Y-84535173D01*
X127085066Y-84528264D01*
X127162517Y-84537293D01*
X127217935Y-84561530D01*
X127245764Y-84586996D01*
X127262164Y-84618101D01*
X127267881Y-84656724D01*
X127260719Y-84696537D01*
X127239696Y-84728719D01*
X127207506Y-84754703D01*
X127161087Y-84778952D01*
X127049116Y-84826310D01*
X126866589Y-84900222D01*
X126782628Y-84940884D01*
X126714546Y-84988322D01*
X126658571Y-85046249D01*
X126616955Y-85114768D01*
X126591550Y-85193121D01*
X126582444Y-85289914D01*
X126589484Y-85367438D01*
X126610385Y-85440461D01*
X126645523Y-85510213D01*
X126693011Y-85572211D01*
X126753846Y-85626299D01*
X126829872Y-85672800D01*
X126912803Y-85705764D01*
X127009360Y-85726595D01*
X127122070Y-85733962D01*
G37*
G36*
X125876683Y-85733962D02*
G01*
X125979383Y-85726187D01*
X126072968Y-85703529D01*
X126159007Y-85666377D01*
X126236783Y-85614713D01*
X126302645Y-85550051D01*
X126357544Y-85471100D01*
X126396891Y-85383191D01*
X126421593Y-85281083D01*
X126430305Y-85161934D01*
X126421485Y-85045863D01*
X126396318Y-84945172D01*
X126355914Y-84857274D01*
X126300588Y-84777612D01*
X126236638Y-84712450D01*
X126163512Y-84660367D01*
X126082594Y-84621511D01*
X125999947Y-84598603D01*
X125914358Y-84590960D01*
X125812440Y-84599287D01*
X125727117Y-84622732D01*
X125655330Y-84659983D01*
X125592514Y-84711318D01*
X125541433Y-84773377D01*
X125501371Y-84847496D01*
X125473688Y-84927885D01*
X125456575Y-85016328D01*
X125450658Y-85114097D01*
X125455259Y-85196446D01*
X125465038Y-85260771D01*
X126179714Y-85260771D01*
X126182206Y-85037789D01*
X125729051Y-85037789D01*
X125739911Y-84956541D01*
X125770081Y-84894949D01*
X125801596Y-84865118D01*
X125845887Y-84846054D01*
X125907456Y-84838964D01*
X125959234Y-84845955D01*
X126011278Y-84867628D01*
X126056137Y-84904937D01*
X126095160Y-84966848D01*
X126118213Y-85044796D01*
X126125550Y-85161934D01*
X126118612Y-85243789D01*
X126103009Y-85307324D01*
X126080397Y-85356157D01*
X126030969Y-85417081D01*
X125971877Y-85455761D01*
X125904495Y-85477678D01*
X125833640Y-85485000D01*
X125771586Y-85480497D01*
X125711795Y-85467073D01*
X125653784Y-85445395D01*
X125595414Y-85415210D01*
X125490250Y-85612309D01*
X125576816Y-85663096D01*
X125675941Y-85701943D01*
X125779308Y-85726174D01*
X125876683Y-85733962D01*
G37*
G36*
X125228059Y-85707600D02*
G01*
X125228059Y-84617132D01*
X124964429Y-84617132D01*
X124941134Y-84755178D01*
X124933177Y-84755178D01*
X124860242Y-84692729D01*
X124779121Y-84639372D01*
X124720683Y-84612776D01*
X124655687Y-84596428D01*
X124582789Y-84590769D01*
X124494750Y-84599067D01*
X124424611Y-84622072D01*
X124368575Y-84658359D01*
X124324144Y-84708491D01*
X124282030Y-84790807D01*
X124254551Y-84896219D01*
X124244480Y-85030599D01*
X124244480Y-85707600D01*
X124567642Y-85707600D01*
X124567642Y-85072012D01*
X124572306Y-84992981D01*
X124583937Y-84941669D01*
X124599853Y-84910096D01*
X124624431Y-84886369D01*
X124657850Y-84871464D01*
X124703100Y-84865998D01*
X124760629Y-84873149D01*
X124807210Y-84893415D01*
X124850890Y-84924780D01*
X124904897Y-84971929D01*
X124904897Y-85707600D01*
X125228059Y-85707600D01*
G37*
G36*
X123649540Y-85733962D02*
G01*
X123758264Y-85723671D01*
X123872331Y-85691686D01*
X123978931Y-85639853D01*
X124068280Y-85570800D01*
X123930905Y-85389231D01*
X123854338Y-85440087D01*
X123782410Y-85471387D01*
X123709235Y-85489274D01*
X123641583Y-85494970D01*
X123575512Y-85487595D01*
X123536707Y-85469374D01*
X123512097Y-85439618D01*
X123503825Y-85401118D01*
X123510958Y-85368336D01*
X123532776Y-85340819D01*
X123564822Y-85318614D01*
X123609373Y-85297392D01*
X123716838Y-85256361D01*
X123792071Y-85223897D01*
X123860636Y-85184462D01*
X123920700Y-85136025D01*
X123967142Y-85079011D01*
X123997074Y-85012402D01*
X124007501Y-84932145D01*
X124000068Y-84857830D01*
X123978619Y-84793046D01*
X123943353Y-84735802D01*
X123893038Y-84684812D01*
X123833695Y-84645009D01*
X123764791Y-84615730D01*
X123684575Y-84597285D01*
X123590871Y-84590769D01*
X123476072Y-84600723D01*
X123374311Y-84629498D01*
X123281762Y-84674541D01*
X123206547Y-84728815D01*
X123343922Y-84910479D01*
X123404968Y-84872975D01*
X123463274Y-84848742D01*
X123522801Y-84834426D01*
X123580709Y-84829761D01*
X123638660Y-84836592D01*
X123674561Y-84853919D01*
X123697653Y-84881697D01*
X123705334Y-84916806D01*
X123699915Y-84945654D01*
X123683764Y-84969628D01*
X123658265Y-84989240D01*
X123616946Y-85009700D01*
X123502579Y-85050539D01*
X123422042Y-85082309D01*
X123350440Y-85121191D01*
X123288456Y-85169891D01*
X123241729Y-85227985D01*
X123212151Y-85296567D01*
X123201657Y-85382233D01*
X123207480Y-85446537D01*
X123224584Y-85505589D01*
X123253041Y-85560542D01*
X123291592Y-85608880D01*
X123341329Y-85650969D01*
X123403933Y-85686988D01*
X123471877Y-85712098D01*
X123552929Y-85728202D01*
X123649540Y-85733962D01*
G37*
G36*
X122999573Y-85707600D02*
G01*
X122999573Y-84617323D01*
X122676603Y-84617323D01*
X122676603Y-85707600D01*
X122999573Y-85707600D01*
G37*
G36*
X122838232Y-84457612D02*
G01*
X122890507Y-84452107D01*
X122933838Y-84436512D01*
X122970143Y-84411213D01*
X122998032Y-84377325D01*
X123014929Y-84336889D01*
X123020855Y-84287930D01*
X123014933Y-84239236D01*
X122998041Y-84199022D01*
X122970143Y-84165318D01*
X122933845Y-84140075D01*
X122890514Y-84124510D01*
X122838232Y-84119015D01*
X122785698Y-84124525D01*
X122742354Y-84140102D01*
X122706225Y-84165318D01*
X122678384Y-84199015D01*
X122661522Y-84239229D01*
X122655609Y-84287930D01*
X122661525Y-84336896D01*
X122678393Y-84377332D01*
X122706225Y-84411213D01*
X122742361Y-84436485D01*
X122785705Y-84452092D01*
X122838232Y-84457612D01*
G37*
G36*
X122393513Y-85707600D02*
G01*
X122393513Y-84617132D01*
X122129883Y-84617132D01*
X122106588Y-84807712D01*
X122098631Y-84807712D01*
X122054426Y-84738455D01*
X122006963Y-84684808D01*
X121956175Y-84644549D01*
X121899087Y-84613973D01*
X121843628Y-84596470D01*
X121788794Y-84590769D01*
X121712006Y-84596041D01*
X121658705Y-84612722D01*
X121720538Y-84887184D01*
X121770772Y-84877310D01*
X121830208Y-84874051D01*
X121891052Y-84884413D01*
X121959243Y-84918532D01*
X121998830Y-84952792D01*
X122035954Y-85003709D01*
X122070351Y-85075655D01*
X122070351Y-85707600D01*
X122393513Y-85707600D01*
G37*
G36*
X121519413Y-85707600D02*
G01*
X121519413Y-84617323D01*
X121196443Y-84617323D01*
X121196443Y-85707600D01*
X121519413Y-85707600D01*
G37*
G36*
X121358071Y-84457612D02*
G01*
X121410347Y-84452107D01*
X121453677Y-84436512D01*
X121489982Y-84411213D01*
X121517871Y-84377325D01*
X121534769Y-84336889D01*
X121540695Y-84287930D01*
X121534773Y-84239236D01*
X121517881Y-84199022D01*
X121489982Y-84165318D01*
X121453684Y-84140075D01*
X121410353Y-84124510D01*
X121358071Y-84119015D01*
X121305538Y-84124525D01*
X121262193Y-84140102D01*
X121226065Y-84165318D01*
X121198223Y-84199015D01*
X121181361Y-84239229D01*
X121175448Y-84287930D01*
X121181365Y-84336896D01*
X121198233Y-84377332D01*
X121226065Y-84411213D01*
X121262200Y-84436485D01*
X121305545Y-84452092D01*
X121358071Y-84457612D01*
G37*
G36*
X120535753Y-84598300D02*
G01*
X120621696Y-84620711D01*
X120704558Y-84658354D01*
X120779593Y-84709542D01*
X120844915Y-84774184D01*
X120901177Y-84853727D01*
X120942048Y-84941860D01*
X120967622Y-85043902D01*
X120976623Y-85162701D01*
X120967625Y-85281305D01*
X120942054Y-85383223D01*
X120901177Y-85471291D01*
X120844936Y-85550659D01*
X120779615Y-85615245D01*
X120704558Y-85666473D01*
X120621701Y-85704061D01*
X120535757Y-85726441D01*
X120445530Y-85733962D01*
X120355305Y-85726438D01*
X120269427Y-85704055D01*
X120186693Y-85666473D01*
X120111689Y-85615255D01*
X120046367Y-85550669D01*
X119990073Y-85471291D01*
X119949034Y-85383205D01*
X119923370Y-85281288D01*
X119914340Y-85162701D01*
X120245459Y-85162701D01*
X120251261Y-85253730D01*
X120267220Y-85327206D01*
X120295692Y-85390709D01*
X120333846Y-85435246D01*
X120383287Y-85463405D01*
X120445530Y-85473209D01*
X120507741Y-85463398D01*
X120557021Y-85435246D01*
X120595010Y-85390743D01*
X120623647Y-85327206D01*
X120639748Y-85253720D01*
X120645600Y-85162701D01*
X120639751Y-85071755D01*
X120623647Y-84998196D01*
X120594998Y-84934395D01*
X120557021Y-84889772D01*
X120507719Y-84861399D01*
X120445530Y-84851522D01*
X120383309Y-84861393D01*
X120333846Y-84889772D01*
X120295704Y-84934429D01*
X120267220Y-84998196D01*
X120251258Y-85071745D01*
X120245459Y-85162701D01*
X119914340Y-85162701D01*
X119923373Y-85043919D01*
X119949041Y-84941878D01*
X119990073Y-84853727D01*
X120046388Y-84774173D01*
X120111712Y-84709532D01*
X120186693Y-84658354D01*
X120269432Y-84620717D01*
X120355310Y-84598303D01*
X120445530Y-84590769D01*
X120535753Y-84598300D01*
G37*
G36*
X119693945Y-85707600D02*
G01*
X119693945Y-84617132D01*
X119430316Y-84617132D01*
X119407021Y-84755178D01*
X119399064Y-84755178D01*
X119326129Y-84692729D01*
X119245008Y-84639372D01*
X119186570Y-84612776D01*
X119121574Y-84596428D01*
X119048676Y-84590769D01*
X118960636Y-84599067D01*
X118890498Y-84622072D01*
X118834462Y-84658359D01*
X118790031Y-84708491D01*
X118747917Y-84790807D01*
X118720438Y-84896219D01*
X118710367Y-85030599D01*
X118710367Y-85707600D01*
X119033529Y-85707600D01*
X119033529Y-85072012D01*
X119038193Y-84992981D01*
X119049824Y-84941669D01*
X119065740Y-84910096D01*
X119090318Y-84886369D01*
X119123737Y-84871464D01*
X119168987Y-84865998D01*
X119226516Y-84873149D01*
X119273097Y-84893415D01*
X119316777Y-84924780D01*
X119370783Y-84971929D01*
X119370783Y-85707600D01*
X119693945Y-85707600D01*
G37*
G36*
X117534004Y-85733962D02*
G01*
X117629211Y-85728237D01*
X117723043Y-85711061D01*
X117816136Y-85682195D01*
X117904631Y-85641942D01*
X117987288Y-85589790D01*
X118064714Y-85525072D01*
X117893211Y-85314456D01*
X117811307Y-85373369D01*
X117718449Y-85417703D01*
X117620394Y-85445406D01*
X117526814Y-85454323D01*
X117459735Y-85449427D01*
X117410653Y-85436482D01*
X117375347Y-85417319D01*
X117347544Y-85389548D01*
X117331108Y-85356399D01*
X117325401Y-85316086D01*
X117332144Y-85273750D01*
X117350997Y-85242653D01*
X117380283Y-85217515D01*
X117422608Y-85193186D01*
X117531991Y-85145541D01*
X117718161Y-85067890D01*
X117790451Y-85030996D01*
X117859179Y-84983816D01*
X117918918Y-84926006D01*
X117966357Y-84855644D01*
X117996588Y-84774518D01*
X118007291Y-84675609D01*
X117999912Y-84597929D01*
X117978194Y-84526519D01*
X117941911Y-84459912D01*
X117893532Y-84400885D01*
X117833857Y-84349763D01*
X117761492Y-84306240D01*
X117682961Y-84274826D01*
X117595343Y-84255378D01*
X117497000Y-84248625D01*
X117369328Y-84260228D01*
X117246887Y-84294928D01*
X117169644Y-84330415D01*
X117099632Y-84374464D01*
X117036175Y-84427318D01*
X117206145Y-84637934D01*
X117279191Y-84590282D01*
X117350997Y-84556449D01*
X117424931Y-84535173D01*
X117497000Y-84528264D01*
X117574452Y-84537293D01*
X117629869Y-84561530D01*
X117657698Y-84586996D01*
X117674098Y-84618101D01*
X117679815Y-84656724D01*
X117672654Y-84696537D01*
X117651631Y-84728719D01*
X117619440Y-84754703D01*
X117573021Y-84778952D01*
X117461050Y-84826310D01*
X117278523Y-84900222D01*
X117194562Y-84940884D01*
X117126481Y-84988322D01*
X117070505Y-85046249D01*
X117028890Y-85114768D01*
X117003484Y-85193121D01*
X116994378Y-85289914D01*
X117001419Y-85367438D01*
X117022320Y-85440461D01*
X117057457Y-85510213D01*
X117104946Y-85572211D01*
X117165781Y-85626299D01*
X117241806Y-85672800D01*
X117324737Y-85705764D01*
X117421295Y-85726595D01*
X117534004Y-85733962D01*
G37*
G36*
X116751360Y-85707600D02*
G01*
X116751360Y-84274988D01*
X116427526Y-84274988D01*
X116427526Y-84827268D01*
X115932382Y-84827268D01*
X115932382Y-84274988D01*
X115608549Y-84274988D01*
X115608549Y-85707600D01*
X115932382Y-85707600D01*
X115932382Y-85109592D01*
X116427526Y-85109592D01*
X116427526Y-85707600D01*
X116751360Y-85707600D01*
G37*
G36*
X114990889Y-85707600D02*
G01*
X114990889Y-84547054D01*
X115385470Y-84547054D01*
X115385470Y-84274988D01*
X114272570Y-84274988D01*
X114272570Y-84547054D01*
X114667056Y-84547054D01*
X114667056Y-85707600D01*
X114990889Y-85707600D01*
G37*
G36*
X113573233Y-85707600D02*
G01*
X113573233Y-84900414D01*
X113568152Y-84744153D01*
X113560866Y-84587701D01*
X113569590Y-84587701D01*
X113624616Y-84704369D01*
X113683957Y-84823625D01*
X113867156Y-85128285D01*
X113110778Y-85128285D01*
X113110778Y-85374563D01*
X114176801Y-85374563D01*
X114176801Y-85151101D01*
X113667181Y-84311705D01*
X113271832Y-84311705D01*
X113271832Y-85707600D01*
X113573233Y-85707600D01*
G37*
G36*
X112906777Y-85707600D02*
G01*
X112906777Y-85446846D01*
X112601638Y-85446846D01*
X112601638Y-84639181D01*
X112863062Y-84639181D01*
X112863062Y-84438726D01*
X112754984Y-84413514D01*
X112670373Y-84386384D01*
X112591872Y-84352669D01*
X112516797Y-84311705D01*
X112278571Y-84311705D01*
X112278571Y-85446846D01*
X112017147Y-85446846D01*
X112017147Y-85707600D01*
X112906777Y-85707600D01*
G37*
G36*
X127094461Y-88371562D02*
G01*
X127189667Y-88365837D01*
X127283500Y-88348661D01*
X127376592Y-88319795D01*
X127465087Y-88279542D01*
X127547744Y-88227390D01*
X127625171Y-88162672D01*
X127453668Y-87952056D01*
X127371764Y-88010969D01*
X127278905Y-88055303D01*
X127180851Y-88083006D01*
X127087271Y-88091923D01*
X127020192Y-88087027D01*
X126971109Y-88074082D01*
X126935803Y-88054919D01*
X126908000Y-88027148D01*
X126891565Y-87993999D01*
X126885858Y-87953686D01*
X126892600Y-87911350D01*
X126911454Y-87880253D01*
X126940740Y-87855115D01*
X126983065Y-87830786D01*
X127092447Y-87783141D01*
X127278618Y-87705490D01*
X127350908Y-87668596D01*
X127419636Y-87621416D01*
X127479374Y-87563606D01*
X127526813Y-87493244D01*
X127557045Y-87412118D01*
X127567748Y-87313209D01*
X127560369Y-87235529D01*
X127538650Y-87164119D01*
X127502368Y-87097512D01*
X127453989Y-87038485D01*
X127394314Y-86987363D01*
X127321949Y-86943840D01*
X127243418Y-86912426D01*
X127155800Y-86892978D01*
X127057457Y-86886225D01*
X126929785Y-86897828D01*
X126807344Y-86932528D01*
X126730101Y-86968015D01*
X126660088Y-87012064D01*
X126596632Y-87064918D01*
X126766601Y-87275534D01*
X126839648Y-87227882D01*
X126911454Y-87194049D01*
X126985388Y-87172773D01*
X127057457Y-87165864D01*
X127134908Y-87174893D01*
X127190326Y-87199130D01*
X127218155Y-87224596D01*
X127234555Y-87255701D01*
X127240272Y-87294324D01*
X127233110Y-87334137D01*
X127212087Y-87366319D01*
X127179897Y-87392303D01*
X127133478Y-87416552D01*
X127021507Y-87463910D01*
X126838980Y-87537822D01*
X126755019Y-87578484D01*
X126686937Y-87625922D01*
X126630962Y-87683849D01*
X126589346Y-87752368D01*
X126563941Y-87830721D01*
X126554835Y-87927514D01*
X126561875Y-88005038D01*
X126582776Y-88078061D01*
X126617914Y-88147813D01*
X126665402Y-88209811D01*
X126726237Y-88263899D01*
X126802263Y-88310400D01*
X126885194Y-88343364D01*
X126981751Y-88364195D01*
X127094461Y-88371562D01*
G37*
G36*
X125849074Y-88371562D02*
G01*
X125951774Y-88363787D01*
X126045359Y-88341129D01*
X126131398Y-88303977D01*
X126209174Y-88252313D01*
X126275036Y-88187651D01*
X126329935Y-88108700D01*
X126369282Y-88020791D01*
X126393984Y-87918683D01*
X126402696Y-87799534D01*
X126393876Y-87683463D01*
X126368709Y-87582772D01*
X126328305Y-87494874D01*
X126272979Y-87415212D01*
X126209029Y-87350050D01*
X126135903Y-87297967D01*
X126054985Y-87259111D01*
X125972338Y-87236203D01*
X125886749Y-87228560D01*
X125784831Y-87236887D01*
X125699508Y-87260332D01*
X125627721Y-87297583D01*
X125564905Y-87348918D01*
X125513824Y-87410977D01*
X125473762Y-87485096D01*
X125446079Y-87565485D01*
X125428966Y-87653928D01*
X125423049Y-87751697D01*
X125427650Y-87834046D01*
X125437429Y-87898371D01*
X126152105Y-87898371D01*
X126154597Y-87675389D01*
X125701442Y-87675389D01*
X125712302Y-87594141D01*
X125742472Y-87532549D01*
X125773987Y-87502718D01*
X125818278Y-87483654D01*
X125879847Y-87476564D01*
X125931625Y-87483555D01*
X125983669Y-87505228D01*
X126028528Y-87542537D01*
X126067551Y-87604448D01*
X126090604Y-87682396D01*
X126097941Y-87799534D01*
X126091003Y-87881389D01*
X126075400Y-87944924D01*
X126052788Y-87993757D01*
X126003360Y-88054681D01*
X125944268Y-88093361D01*
X125876886Y-88115278D01*
X125806031Y-88122600D01*
X125743977Y-88118097D01*
X125684186Y-88104673D01*
X125626175Y-88082995D01*
X125567805Y-88052810D01*
X125462641Y-88249909D01*
X125549207Y-88300696D01*
X125648332Y-88339543D01*
X125751699Y-88363774D01*
X125849074Y-88371562D01*
G37*
G36*
X125200450Y-88345200D02*
G01*
X125200450Y-87254732D01*
X124936820Y-87254732D01*
X124913525Y-87392778D01*
X124905568Y-87392778D01*
X124832633Y-87330329D01*
X124751512Y-87276972D01*
X124693074Y-87250376D01*
X124628078Y-87234028D01*
X124555180Y-87228369D01*
X124467141Y-87236667D01*
X124397002Y-87259672D01*
X124340966Y-87295959D01*
X124296535Y-87346091D01*
X124254421Y-87428407D01*
X124226942Y-87533819D01*
X124216871Y-87668199D01*
X124216871Y-88345200D01*
X124540033Y-88345200D01*
X124540033Y-87709612D01*
X124544697Y-87630581D01*
X124556328Y-87579269D01*
X124572244Y-87547696D01*
X124596822Y-87523969D01*
X124630241Y-87509064D01*
X124675491Y-87503598D01*
X124733020Y-87510749D01*
X124779601Y-87531015D01*
X124823281Y-87562380D01*
X124877288Y-87609529D01*
X124877288Y-88345200D01*
X125200450Y-88345200D01*
G37*
G36*
X123621931Y-88371562D02*
G01*
X123730655Y-88361271D01*
X123844722Y-88329286D01*
X123951322Y-88277453D01*
X124040671Y-88208400D01*
X123903296Y-88026831D01*
X123826729Y-88077687D01*
X123754801Y-88108987D01*
X123681626Y-88126874D01*
X123613974Y-88132570D01*
X123547903Y-88125195D01*
X123509098Y-88106974D01*
X123484488Y-88077218D01*
X123476216Y-88038718D01*
X123483349Y-88005936D01*
X123505167Y-87978419D01*
X123537213Y-87956214D01*
X123581764Y-87934992D01*
X123689229Y-87893961D01*
X123764462Y-87861497D01*
X123833027Y-87822062D01*
X123893091Y-87773625D01*
X123939533Y-87716611D01*
X123969465Y-87650002D01*
X123979892Y-87569745D01*
X123972459Y-87495430D01*
X123951010Y-87430646D01*
X123915744Y-87373402D01*
X123865429Y-87322412D01*
X123806086Y-87282609D01*
X123737182Y-87253330D01*
X123656966Y-87234885D01*
X123563262Y-87228369D01*
X123448463Y-87238323D01*
X123346702Y-87267098D01*
X123254153Y-87312141D01*
X123178938Y-87366415D01*
X123316313Y-87548079D01*
X123377359Y-87510575D01*
X123435665Y-87486342D01*
X123495192Y-87472026D01*
X123553100Y-87467361D01*
X123611051Y-87474192D01*
X123646952Y-87491519D01*
X123670044Y-87519297D01*
X123677725Y-87554406D01*
X123672306Y-87583254D01*
X123656155Y-87607228D01*
X123630656Y-87626840D01*
X123589337Y-87647300D01*
X123474970Y-87688139D01*
X123394433Y-87719909D01*
X123322831Y-87758791D01*
X123260847Y-87807491D01*
X123214120Y-87865585D01*
X123184542Y-87934167D01*
X123174048Y-88019833D01*
X123179871Y-88084137D01*
X123196975Y-88143189D01*
X123225432Y-88198142D01*
X123263983Y-88246480D01*
X123313720Y-88288569D01*
X123376324Y-88324588D01*
X123444268Y-88349698D01*
X123525320Y-88365802D01*
X123621931Y-88371562D01*
G37*
G36*
X122971964Y-88345200D02*
G01*
X122971964Y-87254923D01*
X122648994Y-87254923D01*
X122648994Y-88345200D01*
X122971964Y-88345200D01*
G37*
G36*
X122810623Y-87095212D02*
G01*
X122862898Y-87089707D01*
X122906229Y-87074112D01*
X122942534Y-87048813D01*
X122970423Y-87014925D01*
X122987320Y-86974489D01*
X122993246Y-86925530D01*
X122987324Y-86876836D01*
X122970432Y-86836622D01*
X122942534Y-86802918D01*
X122906236Y-86777675D01*
X122862905Y-86762110D01*
X122810623Y-86756615D01*
X122758089Y-86762125D01*
X122714745Y-86777702D01*
X122678616Y-86802918D01*
X122650775Y-86836615D01*
X122633913Y-86876829D01*
X122628000Y-86925530D01*
X122633916Y-86974496D01*
X122650784Y-87014932D01*
X122678616Y-87048813D01*
X122714752Y-87074085D01*
X122758096Y-87089692D01*
X122810623Y-87095212D01*
G37*
G36*
X122365904Y-88345200D02*
G01*
X122365904Y-87254732D01*
X122102274Y-87254732D01*
X122078979Y-87445312D01*
X122071022Y-87445312D01*
X122026817Y-87376055D01*
X121979354Y-87322408D01*
X121928566Y-87282149D01*
X121871478Y-87251573D01*
X121816019Y-87234070D01*
X121761185Y-87228369D01*
X121684397Y-87233641D01*
X121631096Y-87250322D01*
X121692929Y-87524784D01*
X121743163Y-87514910D01*
X121802599Y-87511651D01*
X121863443Y-87522013D01*
X121931634Y-87556132D01*
X121971221Y-87590392D01*
X122008345Y-87641309D01*
X122042742Y-87713255D01*
X122042742Y-88345200D01*
X122365904Y-88345200D01*
G37*
G36*
X121491804Y-88345200D02*
G01*
X121491804Y-87254923D01*
X121168834Y-87254923D01*
X121168834Y-88345200D01*
X121491804Y-88345200D01*
G37*
G36*
X121330462Y-87095212D02*
G01*
X121382738Y-87089707D01*
X121426068Y-87074112D01*
X121462373Y-87048813D01*
X121490262Y-87014925D01*
X121507160Y-86974489D01*
X121513086Y-86925530D01*
X121507164Y-86876836D01*
X121490272Y-86836622D01*
X121462373Y-86802918D01*
X121426075Y-86777675D01*
X121382744Y-86762110D01*
X121330462Y-86756615D01*
X121277929Y-86762125D01*
X121234584Y-86777702D01*
X121198456Y-86802918D01*
X121170614Y-86836615D01*
X121153752Y-86876829D01*
X121147839Y-86925530D01*
X121153756Y-86974496D01*
X121170624Y-87014932D01*
X121198456Y-87048813D01*
X121234591Y-87074085D01*
X121277936Y-87089692D01*
X121330462Y-87095212D01*
G37*
G36*
X120508144Y-87235900D02*
G01*
X120594087Y-87258311D01*
X120676949Y-87295954D01*
X120751984Y-87347142D01*
X120817306Y-87411784D01*
X120873568Y-87491327D01*
X120914439Y-87579460D01*
X120940013Y-87681502D01*
X120949014Y-87800301D01*
X120940016Y-87918905D01*
X120914445Y-88020823D01*
X120873568Y-88108891D01*
X120817327Y-88188259D01*
X120752006Y-88252845D01*
X120676949Y-88304073D01*
X120594092Y-88341661D01*
X120508148Y-88364041D01*
X120417921Y-88371562D01*
X120327696Y-88364038D01*
X120241818Y-88341655D01*
X120159084Y-88304073D01*
X120084080Y-88252855D01*
X120018758Y-88188269D01*
X119962464Y-88108891D01*
X119921425Y-88020805D01*
X119895761Y-87918888D01*
X119886731Y-87800301D01*
X120217850Y-87800301D01*
X120223652Y-87891330D01*
X120239611Y-87964806D01*
X120268083Y-88028309D01*
X120306237Y-88072846D01*
X120355678Y-88101005D01*
X120417921Y-88110809D01*
X120480132Y-88100998D01*
X120529412Y-88072846D01*
X120567401Y-88028343D01*
X120596038Y-87964806D01*
X120612139Y-87891320D01*
X120617991Y-87800301D01*
X120612142Y-87709355D01*
X120596038Y-87635796D01*
X120567389Y-87571995D01*
X120529412Y-87527372D01*
X120480110Y-87498999D01*
X120417921Y-87489122D01*
X120355700Y-87498993D01*
X120306237Y-87527372D01*
X120268095Y-87572029D01*
X120239611Y-87635796D01*
X120223649Y-87709345D01*
X120217850Y-87800301D01*
X119886731Y-87800301D01*
X119895764Y-87681519D01*
X119921432Y-87579478D01*
X119962464Y-87491327D01*
X120018779Y-87411773D01*
X120084103Y-87347132D01*
X120159084Y-87295954D01*
X120241823Y-87258317D01*
X120327701Y-87235903D01*
X120417921Y-87228369D01*
X120508144Y-87235900D01*
G37*
G36*
X119666336Y-88345200D02*
G01*
X119666336Y-87254732D01*
X119402707Y-87254732D01*
X119379412Y-87392778D01*
X119371455Y-87392778D01*
X119298520Y-87330329D01*
X119217399Y-87276972D01*
X119158961Y-87250376D01*
X119093965Y-87234028D01*
X119021067Y-87228369D01*
X118933027Y-87236667D01*
X118862889Y-87259672D01*
X118806853Y-87295959D01*
X118762422Y-87346091D01*
X118720308Y-87428407D01*
X118692829Y-87533819D01*
X118682758Y-87668199D01*
X118682758Y-88345200D01*
X119005920Y-88345200D01*
X119005920Y-87709612D01*
X119010584Y-87630581D01*
X119022215Y-87579269D01*
X119038131Y-87547696D01*
X119062709Y-87523969D01*
X119096128Y-87509064D01*
X119141378Y-87503598D01*
X119198907Y-87510749D01*
X119245488Y-87531015D01*
X119289168Y-87562380D01*
X119343174Y-87609529D01*
X119343174Y-88345200D01*
X119666336Y-88345200D01*
G37*
G36*
X117506395Y-88371562D02*
G01*
X117601602Y-88365837D01*
X117695434Y-88348661D01*
X117788527Y-88319795D01*
X117877022Y-88279542D01*
X117959679Y-88227390D01*
X118037105Y-88162672D01*
X117865602Y-87952056D01*
X117783698Y-88010969D01*
X117690840Y-88055303D01*
X117592785Y-88083006D01*
X117499205Y-88091923D01*
X117432126Y-88087027D01*
X117383044Y-88074082D01*
X117347738Y-88054919D01*
X117319935Y-88027148D01*
X117303499Y-87993999D01*
X117297792Y-87953686D01*
X117304535Y-87911350D01*
X117323388Y-87880253D01*
X117352674Y-87855115D01*
X117394999Y-87830786D01*
X117504382Y-87783141D01*
X117690552Y-87705490D01*
X117762842Y-87668596D01*
X117831570Y-87621416D01*
X117891309Y-87563606D01*
X117938748Y-87493244D01*
X117968979Y-87412118D01*
X117979682Y-87313209D01*
X117972303Y-87235529D01*
X117950585Y-87164119D01*
X117914302Y-87097512D01*
X117865923Y-87038485D01*
X117806248Y-86987363D01*
X117733883Y-86943840D01*
X117655352Y-86912426D01*
X117567734Y-86892978D01*
X117469391Y-86886225D01*
X117341719Y-86897828D01*
X117219278Y-86932528D01*
X117142035Y-86968015D01*
X117072023Y-87012064D01*
X117008566Y-87064918D01*
X117178536Y-87275534D01*
X117251582Y-87227882D01*
X117323388Y-87194049D01*
X117397322Y-87172773D01*
X117469391Y-87165864D01*
X117546843Y-87174893D01*
X117602260Y-87199130D01*
X117630089Y-87224596D01*
X117646489Y-87255701D01*
X117652206Y-87294324D01*
X117645045Y-87334137D01*
X117624022Y-87366319D01*
X117591831Y-87392303D01*
X117545412Y-87416552D01*
X117433441Y-87463910D01*
X117250914Y-87537822D01*
X117166953Y-87578484D01*
X117098872Y-87625922D01*
X117042896Y-87683849D01*
X117001281Y-87752368D01*
X116975875Y-87830721D01*
X116966769Y-87927514D01*
X116973810Y-88005038D01*
X116994711Y-88078061D01*
X117029848Y-88147813D01*
X117077337Y-88209811D01*
X117138172Y-88263899D01*
X117214197Y-88310400D01*
X117297128Y-88343364D01*
X117393686Y-88364195D01*
X117506395Y-88371562D01*
G37*
G36*
X116117402Y-88371562D02*
G01*
X116237742Y-88362179D01*
X116349510Y-88334596D01*
X116454369Y-88288927D01*
X116548858Y-88225496D01*
X116630230Y-88143954D01*
X116699401Y-88042169D01*
X116748736Y-87929216D01*
X116780019Y-87795567D01*
X116791144Y-87637042D01*
X116784815Y-87519020D01*
X116766646Y-87413586D01*
X116737555Y-87319153D01*
X116696391Y-87229389D01*
X116646864Y-87151013D01*
X116588964Y-87082845D01*
X116522280Y-87023222D01*
X116450246Y-86974523D01*
X116372308Y-86936171D01*
X116289841Y-86908482D01*
X116204476Y-86891834D01*
X116115485Y-86886225D01*
X116023465Y-86892579D01*
X115940696Y-86910955D01*
X115865756Y-86940773D01*
X115763684Y-87002140D01*
X115683995Y-87072396D01*
X115854731Y-87269015D01*
X115911084Y-87223736D01*
X115969386Y-87192036D01*
X116033041Y-87172806D01*
X116107624Y-87166056D01*
X116169775Y-87172317D01*
X116228056Y-87190933D01*
X116283633Y-87222425D01*
X116332454Y-87264130D01*
X116375073Y-87316718D01*
X116411613Y-87381753D01*
X116437418Y-87451953D01*
X116453705Y-87532973D01*
X116459450Y-87626689D01*
X116453898Y-87724382D01*
X116438287Y-87807582D01*
X116413818Y-87878431D01*
X116378239Y-87943811D01*
X116335586Y-87996126D01*
X116285646Y-88037088D01*
X116228534Y-88067154D01*
X116165429Y-88085436D01*
X116094874Y-88091732D01*
X116014461Y-88082932D01*
X115944845Y-88057508D01*
X115882260Y-88018850D01*
X115828944Y-87972667D01*
X115665973Y-88164973D01*
X115730707Y-88229321D01*
X115798796Y-88280657D01*
X115870645Y-88320083D01*
X115947404Y-88348439D01*
X116029327Y-88365682D01*
X116117402Y-88371562D01*
G37*
G36*
X115444524Y-88345200D02*
G01*
X115020895Y-88345200D01*
X114882968Y-88335967D01*
X114761437Y-88309521D01*
X114653827Y-88267069D01*
X114556773Y-88206066D01*
X114475390Y-88127247D01*
X114408316Y-88028652D01*
X114361336Y-87918288D01*
X114331158Y-87784492D01*
X114320311Y-87622375D01*
X114652005Y-87622375D01*
X114658555Y-87736535D01*
X114676279Y-87825847D01*
X114702910Y-87895016D01*
X114742287Y-87957011D01*
X114789617Y-88004769D01*
X114845557Y-88040060D01*
X114908172Y-88064167D01*
X114978867Y-88079198D01*
X115059049Y-88084446D01*
X115120691Y-88084446D01*
X115120691Y-87173438D01*
X115059049Y-87173438D01*
X114942230Y-87184196D01*
X114845557Y-87214468D01*
X114789542Y-87247682D01*
X114742245Y-87293434D01*
X114702910Y-87353473D01*
X114676348Y-87420861D01*
X114658593Y-87508835D01*
X114652005Y-87622375D01*
X114320311Y-87622375D01*
X114326580Y-87497690D01*
X114344252Y-87390487D01*
X114371956Y-87298402D01*
X114408795Y-87219357D01*
X114476270Y-87123328D01*
X114559048Y-87046613D01*
X114658812Y-86987459D01*
X114768972Y-86946958D01*
X114894815Y-86921521D01*
X115039013Y-86912588D01*
X115444524Y-86912588D01*
X115444524Y-88345200D01*
G37*
G36*
X113573233Y-88345200D02*
G01*
X113573233Y-87538014D01*
X113568152Y-87381753D01*
X113560866Y-87225301D01*
X113569590Y-87225301D01*
X113624617Y-87341969D01*
X113683957Y-87461225D01*
X113867156Y-87765885D01*
X113110778Y-87765885D01*
X113110778Y-88012163D01*
X114176801Y-88012163D01*
X114176801Y-87788701D01*
X113667181Y-86949305D01*
X113271832Y-86949305D01*
X113271832Y-88345200D01*
X113573233Y-88345200D01*
G37*
G36*
X112906777Y-88345200D02*
G01*
X112906777Y-88084446D01*
X112601638Y-88084446D01*
X112601638Y-87276781D01*
X112863062Y-87276781D01*
X112863062Y-87076326D01*
X112754984Y-87051114D01*
X112670373Y-87023984D01*
X112591873Y-86990269D01*
X112516797Y-86949305D01*
X112278572Y-86949305D01*
X112278572Y-88084446D01*
X112017147Y-88084446D01*
X112017147Y-88345200D01*
X112906777Y-88345200D01*
G37*
G36*
X125645935Y-90982800D02*
G01*
X125114745Y-90982800D01*
X125011688Y-90977388D01*
X124918055Y-90961740D01*
X124832710Y-90936497D01*
X124752811Y-90899205D01*
X124686339Y-90851715D01*
X124631584Y-90793753D01*
X124591073Y-90725902D01*
X124565720Y-90644545D01*
X124556713Y-90546325D01*
X124557329Y-90539806D01*
X124873356Y-90539806D01*
X124881460Y-90601513D01*
X124904034Y-90648805D01*
X124940942Y-90685234D01*
X124988533Y-90709985D01*
X125053557Y-90726622D01*
X125141108Y-90732879D01*
X125322102Y-90732879D01*
X125322102Y-90363030D01*
X125141108Y-90363030D01*
X125052227Y-90368555D01*
X124987109Y-90383100D01*
X124940366Y-90404348D01*
X124903818Y-90436833D01*
X124881455Y-90480692D01*
X124873356Y-90539806D01*
X124557329Y-90539806D01*
X124565238Y-90456085D01*
X124588741Y-90385103D01*
X124625641Y-90329190D01*
X124675864Y-90283782D01*
X124738507Y-90248520D01*
X124816029Y-90223642D01*
X124816029Y-90214822D01*
X124760263Y-90187045D01*
X124714123Y-90148217D01*
X124676449Y-90097196D01*
X124649393Y-90039025D01*
X124632924Y-89975541D01*
X124631135Y-89953398D01*
X124943913Y-89953398D01*
X124950233Y-90002841D01*
X124968305Y-90043597D01*
X124998365Y-90077735D01*
X125037473Y-90101693D01*
X125093054Y-90117881D01*
X125170539Y-90124038D01*
X125322102Y-90124038D01*
X125322102Y-89800109D01*
X125168238Y-89800109D01*
X125092988Y-89804837D01*
X125038338Y-89817239D01*
X124999515Y-89835292D01*
X124969426Y-89862962D01*
X124950749Y-89901116D01*
X124943913Y-89953398D01*
X124631135Y-89953398D01*
X124627270Y-89905561D01*
X124635877Y-89816847D01*
X124659661Y-89746890D01*
X124697156Y-89691590D01*
X124747720Y-89646316D01*
X124810270Y-89609846D01*
X124886969Y-89582399D01*
X125011000Y-89558616D01*
X125155584Y-89550188D01*
X125645935Y-89550188D01*
X125645935Y-90982800D01*
G37*
G36*
X123966964Y-89873500D02*
G01*
X124052907Y-89895911D01*
X124135769Y-89933554D01*
X124210804Y-89984742D01*
X124276126Y-90049384D01*
X124332388Y-90128927D01*
X124373259Y-90217060D01*
X124398833Y-90319102D01*
X124407835Y-90437901D01*
X124398836Y-90556505D01*
X124373265Y-90658423D01*
X124332388Y-90746491D01*
X124276147Y-90825859D01*
X124210826Y-90890445D01*
X124135769Y-90941673D01*
X124052912Y-90979261D01*
X123966968Y-91001641D01*
X123876741Y-91009162D01*
X123786516Y-91001638D01*
X123700638Y-90979255D01*
X123617904Y-90941673D01*
X123542901Y-90890455D01*
X123477578Y-90825869D01*
X123421285Y-90746491D01*
X123380245Y-90658405D01*
X123354581Y-90556488D01*
X123345551Y-90437901D01*
X123676670Y-90437901D01*
X123682473Y-90528930D01*
X123698431Y-90602406D01*
X123726903Y-90665909D01*
X123765058Y-90710446D01*
X123814498Y-90738605D01*
X123876741Y-90748409D01*
X123938952Y-90738598D01*
X123988232Y-90710446D01*
X124026221Y-90665943D01*
X124054858Y-90602406D01*
X124070959Y-90528920D01*
X124076812Y-90437901D01*
X124070963Y-90346955D01*
X124054858Y-90273396D01*
X124026210Y-90209595D01*
X123988232Y-90164972D01*
X123938930Y-90136599D01*
X123876741Y-90126722D01*
X123814520Y-90136593D01*
X123765058Y-90164972D01*
X123726915Y-90209629D01*
X123698431Y-90273396D01*
X123682469Y-90346945D01*
X123676670Y-90437901D01*
X123345551Y-90437901D01*
X123354584Y-90319119D01*
X123380252Y-90217078D01*
X123421285Y-90128927D01*
X123477599Y-90049373D01*
X123542923Y-89984732D01*
X123617904Y-89933554D01*
X123700643Y-89895917D01*
X123786521Y-89873503D01*
X123876741Y-89865969D01*
X123966964Y-89873500D01*
G37*
G36*
X122813594Y-91009162D02*
G01*
X122922318Y-90998871D01*
X123036385Y-90966886D01*
X123142985Y-90915053D01*
X123232334Y-90846000D01*
X123094959Y-90664431D01*
X123018392Y-90715287D01*
X122946464Y-90746587D01*
X122873289Y-90764474D01*
X122805637Y-90770170D01*
X122739566Y-90762795D01*
X122700761Y-90744574D01*
X122676151Y-90714818D01*
X122667879Y-90676318D01*
X122675012Y-90643536D01*
X122696830Y-90616019D01*
X122728876Y-90593814D01*
X122773427Y-90572592D01*
X122880892Y-90531561D01*
X122956125Y-90499097D01*
X123024690Y-90459662D01*
X123084754Y-90411225D01*
X123131196Y-90354211D01*
X123161128Y-90287602D01*
X123171555Y-90207345D01*
X123164122Y-90133030D01*
X123142673Y-90068246D01*
X123107407Y-90011002D01*
X123057092Y-89960012D01*
X122997749Y-89920209D01*
X122928845Y-89890930D01*
X122848629Y-89872485D01*
X122754925Y-89865969D01*
X122640126Y-89875923D01*
X122538365Y-89904698D01*
X122445816Y-89949741D01*
X122370601Y-90004015D01*
X122507976Y-90185679D01*
X122569022Y-90148175D01*
X122627328Y-90123942D01*
X122686856Y-90109626D01*
X122744763Y-90104961D01*
X122802715Y-90111792D01*
X122838615Y-90129119D01*
X122861707Y-90156897D01*
X122869388Y-90192006D01*
X122863969Y-90220854D01*
X122847818Y-90244828D01*
X122822319Y-90264440D01*
X122781000Y-90284900D01*
X122666633Y-90325739D01*
X122586096Y-90357509D01*
X122514494Y-90396391D01*
X122452510Y-90445091D01*
X122405783Y-90503185D01*
X122376205Y-90571767D01*
X122365712Y-90657433D01*
X122371534Y-90721737D01*
X122388638Y-90780789D01*
X122417095Y-90835742D01*
X122455646Y-90884080D01*
X122505383Y-90926169D01*
X122567987Y-90962188D01*
X122635931Y-90987298D01*
X122716983Y-91003402D01*
X122813594Y-91009162D01*
G37*
G36*
X121680274Y-91009162D02*
G01*
X121782312Y-91001370D01*
X121874888Y-90978699D01*
X121959626Y-90941577D01*
X122035998Y-90890002D01*
X122100796Y-90825359D01*
X122154904Y-90746300D01*
X122193639Y-90658473D01*
X122217948Y-90556689D01*
X122226515Y-90438189D01*
X122217116Y-90319404D01*
X122190380Y-90217356D01*
X122147522Y-90129119D01*
X122088783Y-90050173D01*
X122019530Y-89985476D01*
X121938823Y-89933841D01*
X121850215Y-89896305D01*
X121757281Y-89873775D01*
X121658801Y-89866160D01*
X121561420Y-89874534D01*
X121478095Y-89898371D01*
X121402780Y-89936191D01*
X121339857Y-89983308D01*
X121491420Y-90183379D01*
X121557567Y-90142348D01*
X121595274Y-90130961D01*
X121640682Y-90126914D01*
X121712674Y-90136729D01*
X121773839Y-90165260D01*
X121824298Y-90210659D01*
X121863473Y-90273300D01*
X121887259Y-90347136D01*
X121895780Y-90438189D01*
X121887262Y-90528322D01*
X121863377Y-90602118D01*
X121824465Y-90664843D01*
X121775373Y-90710159D01*
X121716094Y-90738691D01*
X121647584Y-90748409D01*
X121594782Y-90743414D01*
X121545009Y-90728565D01*
X121498110Y-90705511D01*
X121454799Y-90676222D01*
X121328065Y-90875334D01*
X121401488Y-90930084D01*
X121488352Y-90973021D01*
X121582299Y-91000109D01*
X121680274Y-91009162D01*
G37*
G36*
X121135759Y-90982800D02*
G01*
X121135759Y-89442915D01*
X120812598Y-89442915D01*
X120812598Y-89819090D01*
X120827169Y-90016669D01*
X120761110Y-89963083D01*
X120683371Y-89912943D01*
X120627230Y-89887380D01*
X120563447Y-89871511D01*
X120490490Y-89865969D01*
X120402450Y-89874267D01*
X120332312Y-89897272D01*
X120276276Y-89933559D01*
X120231845Y-89983691D01*
X120189731Y-90066007D01*
X120162252Y-90171419D01*
X120152181Y-90305799D01*
X120152181Y-90982800D01*
X120475343Y-90982800D01*
X120475343Y-90347212D01*
X120480007Y-90268181D01*
X120491638Y-90216869D01*
X120507554Y-90185296D01*
X120532132Y-90161569D01*
X120565551Y-90146664D01*
X120610801Y-90141198D01*
X120668330Y-90148349D01*
X120714911Y-90168615D01*
X120758591Y-90199980D01*
X120812598Y-90247129D01*
X120812598Y-90982800D01*
X121135759Y-90982800D01*
G37*
G36*
X119415456Y-90982800D02*
G01*
X118884267Y-90982800D01*
X118781210Y-90977388D01*
X118687577Y-90961740D01*
X118602231Y-90936497D01*
X118522332Y-90899205D01*
X118455860Y-90851715D01*
X118401105Y-90793753D01*
X118360594Y-90725902D01*
X118335242Y-90644545D01*
X118326235Y-90546325D01*
X118326851Y-90539806D01*
X118642878Y-90539806D01*
X118650982Y-90601513D01*
X118673555Y-90648805D01*
X118710463Y-90685234D01*
X118758054Y-90709985D01*
X118823078Y-90726622D01*
X118910630Y-90732879D01*
X119091623Y-90732879D01*
X119091623Y-90363030D01*
X118910630Y-90363030D01*
X118821748Y-90368555D01*
X118756630Y-90383100D01*
X118709888Y-90404348D01*
X118673339Y-90436833D01*
X118650976Y-90480692D01*
X118642878Y-90539806D01*
X118326851Y-90539806D01*
X118334759Y-90456085D01*
X118358262Y-90385103D01*
X118395162Y-90329190D01*
X118445385Y-90283782D01*
X118508028Y-90248520D01*
X118585550Y-90223642D01*
X118585550Y-90214822D01*
X118529785Y-90187045D01*
X118483645Y-90148217D01*
X118445970Y-90097196D01*
X118418914Y-90039025D01*
X118402445Y-89975541D01*
X118400656Y-89953398D01*
X118713435Y-89953398D01*
X118719754Y-90002841D01*
X118737827Y-90043597D01*
X118767886Y-90077735D01*
X118806994Y-90101693D01*
X118862576Y-90117881D01*
X118940060Y-90124038D01*
X119091623Y-90124038D01*
X119091623Y-89800109D01*
X118937759Y-89800109D01*
X118862509Y-89804837D01*
X118807860Y-89817239D01*
X118769037Y-89835292D01*
X118738947Y-89862962D01*
X118720271Y-89901116D01*
X118713435Y-89953398D01*
X118400656Y-89953398D01*
X118396792Y-89905561D01*
X118405398Y-89816847D01*
X118429183Y-89746890D01*
X118466677Y-89691590D01*
X118517241Y-89646316D01*
X118579791Y-89609846D01*
X118656491Y-89582399D01*
X118780521Y-89558616D01*
X118925105Y-89550188D01*
X119415456Y-89550188D01*
X119415456Y-90982800D01*
G37*
G36*
X118087338Y-90982800D02*
G01*
X118087338Y-89550188D01*
X117726501Y-89550188D01*
X117497479Y-90187117D01*
X117457311Y-90315577D01*
X117418965Y-90451226D01*
X117410146Y-90451226D01*
X117372279Y-90315577D01*
X117333453Y-90187117D01*
X117109416Y-89550188D01*
X116749442Y-89550188D01*
X116749442Y-90982800D01*
X117044995Y-90982800D01*
X117044995Y-90458224D01*
X117037709Y-90291802D01*
X117020357Y-90100455D01*
X117001472Y-89935279D01*
X117010291Y-89935279D01*
X117126960Y-90312509D01*
X117327989Y-90859517D01*
X117516652Y-90859517D01*
X117717682Y-90312509D01*
X117830036Y-89935279D01*
X117838759Y-89935279D01*
X117820545Y-90100455D01*
X117803673Y-90291802D01*
X117796291Y-90458224D01*
X117796291Y-90982800D01*
X118087338Y-90982800D01*
G37*
G36*
X116413722Y-90982800D02*
G01*
X116413722Y-89550188D01*
X115516135Y-89550188D01*
X115516135Y-89821871D01*
X116089888Y-89821871D01*
X116089888Y-90109466D01*
X115601455Y-90109466D01*
X115601455Y-90381149D01*
X116089888Y-90381149D01*
X116089888Y-90711213D01*
X115494086Y-90711213D01*
X115494086Y-90982800D01*
X116413722Y-90982800D01*
G37*
G36*
X114760908Y-91009162D02*
G01*
X114860895Y-90999322D01*
X114957240Y-90969762D01*
X115045722Y-90919969D01*
X115126059Y-90846671D01*
X115170787Y-90787818D01*
X115210463Y-90716742D01*
X115244740Y-90631645D01*
X115268399Y-90543069D01*
X115283608Y-90439043D01*
X115289030Y-90317207D01*
X115283396Y-90187346D01*
X115267526Y-90075362D01*
X115242727Y-89978994D01*
X115206743Y-89886175D01*
X115164654Y-89808365D01*
X115116856Y-89743644D01*
X115060413Y-89686436D01*
X115000314Y-89640871D01*
X114936149Y-89605982D01*
X114832592Y-89571881D01*
X114724766Y-89560542D01*
X114632914Y-89566498D01*
X114553191Y-89583435D01*
X114483761Y-89610392D01*
X114389312Y-89666219D01*
X114316668Y-89728689D01*
X114487404Y-89921954D01*
X114527881Y-89884458D01*
X114582790Y-89851014D01*
X114643531Y-89828570D01*
X114703772Y-89821295D01*
X114780506Y-89832982D01*
X114850446Y-89868173D01*
X114889383Y-89903658D01*
X114924483Y-89954101D01*
X114955418Y-90023092D01*
X114975455Y-90096324D01*
X114989067Y-90192650D01*
X114994148Y-90317207D01*
X114984929Y-90480834D01*
X114961841Y-90588505D01*
X114935933Y-90651759D01*
X114907666Y-90696423D01*
X114877480Y-90726552D01*
X114823077Y-90756844D01*
X114767426Y-90766527D01*
X114721532Y-90760641D01*
X114679710Y-90743136D01*
X114644397Y-90713894D01*
X114615672Y-90669608D01*
X114598236Y-90615236D01*
X114591705Y-90541340D01*
X114598323Y-90471257D01*
X114615576Y-90422850D01*
X114644152Y-90384477D01*
X114680860Y-90358429D01*
X114724251Y-90343214D01*
X114774904Y-90337914D01*
X114828187Y-90345919D01*
X114886875Y-90371850D01*
X114939899Y-90415374D01*
X114992039Y-90488422D01*
X115006515Y-90277327D01*
X114943787Y-90205946D01*
X114866647Y-90153373D01*
X114782586Y-90119777D01*
X114712591Y-90109754D01*
X114634037Y-90115122D01*
X114563268Y-90130655D01*
X114499099Y-90155865D01*
X114441047Y-90191873D01*
X114391900Y-90238734D01*
X114350892Y-90297650D01*
X114321975Y-90363669D01*
X114303406Y-90443891D01*
X114296728Y-90541340D01*
X114304222Y-90636412D01*
X114325654Y-90719137D01*
X114360191Y-90791644D01*
X114407468Y-90856677D01*
X114463487Y-90910130D01*
X114529009Y-90952985D01*
X114601111Y-90984017D01*
X114678033Y-91002777D01*
X114760908Y-91009162D01*
G37*
G36*
X113716167Y-91009162D02*
G01*
X113806738Y-91003141D01*
X113885989Y-90985949D01*
X113955639Y-90958450D01*
X114050695Y-90902292D01*
X114124266Y-90841015D01*
X113953530Y-90647846D01*
X113913242Y-90683983D01*
X113857952Y-90717828D01*
X113797053Y-90740951D01*
X113737162Y-90748409D01*
X113683891Y-90743136D01*
X113635071Y-90727615D01*
X113589625Y-90701627D01*
X113551208Y-90666214D01*
X113516391Y-90615787D01*
X113485515Y-90546708D01*
X113465475Y-90473415D01*
X113451865Y-90377081D01*
X113446786Y-90252593D01*
X113456032Y-90088970D01*
X113479188Y-89981295D01*
X113505025Y-89917936D01*
X113532972Y-89873291D01*
X113562591Y-89843248D01*
X113616437Y-89813063D01*
X113673507Y-89803273D01*
X113719373Y-89809164D01*
X113761032Y-89826664D01*
X113796296Y-89855679D01*
X113825166Y-89899330D01*
X113842678Y-89953081D01*
X113849324Y-90028364D01*
X113842782Y-90096978D01*
X113825454Y-90146087D01*
X113796756Y-90185185D01*
X113760170Y-90211371D01*
X113716701Y-90226516D01*
X113666030Y-90231791D01*
X113611306Y-90223643D01*
X113553196Y-90197663D01*
X113500898Y-90154164D01*
X113448895Y-90081378D01*
X113434419Y-90292377D01*
X113495447Y-90362032D01*
X113573328Y-90415277D01*
X113658347Y-90449733D01*
X113728342Y-90459950D01*
X113806966Y-90454591D01*
X113877766Y-90439088D01*
X113941930Y-90413935D01*
X113999928Y-90377936D01*
X114049078Y-90331076D01*
X114090138Y-90272150D01*
X114119005Y-90206077D01*
X114137541Y-90125819D01*
X114144206Y-90028364D01*
X114136728Y-89933350D01*
X114115331Y-89850586D01*
X114080839Y-89777964D01*
X114033476Y-89712767D01*
X113977423Y-89659324D01*
X113911924Y-89616623D01*
X113839827Y-89585649D01*
X113762873Y-89566918D01*
X113679930Y-89560542D01*
X113580044Y-89570405D01*
X113483790Y-89600038D01*
X113395314Y-89649849D01*
X113314971Y-89723225D01*
X113270199Y-89782029D01*
X113230522Y-89853071D01*
X113196290Y-89938155D01*
X113172578Y-90026736D01*
X113157337Y-90130762D01*
X113151904Y-90252593D01*
X113157536Y-90382387D01*
X113173403Y-90494375D01*
X113198207Y-90590806D01*
X113234186Y-90683560D01*
X113276275Y-90761342D01*
X113324078Y-90826060D01*
X113380521Y-90883269D01*
X113440652Y-90928869D01*
X113504880Y-90963818D01*
X113608351Y-90997844D01*
X113716167Y-91009162D01*
G37*
G36*
X112587535Y-89572107D02*
G01*
X112682155Y-89605618D01*
X112766198Y-89661159D01*
X112841492Y-89741248D01*
X112897213Y-89833418D01*
X112940143Y-89949999D01*
X112968366Y-90096317D01*
X112978675Y-90278669D01*
X112968458Y-90460725D01*
X112940366Y-90608268D01*
X112897435Y-90727144D01*
X112841492Y-90822321D01*
X112781601Y-90891032D01*
X112716412Y-90942731D01*
X112645225Y-90979281D01*
X112566773Y-91001512D01*
X112479313Y-91009162D01*
X112391853Y-91001512D01*
X112313401Y-90979281D01*
X112242214Y-90942731D01*
X112177025Y-90891032D01*
X112117134Y-90822321D01*
X112061149Y-90727138D01*
X112018189Y-90608259D01*
X111990078Y-90460719D01*
X111979855Y-90278669D01*
X112285665Y-90278669D01*
X112293016Y-90458325D01*
X112311165Y-90573455D01*
X112343997Y-90667477D01*
X112380763Y-90718595D01*
X112428068Y-90749405D01*
X112479313Y-90759337D01*
X112530492Y-90749413D01*
X112577863Y-90718595D01*
X112614575Y-90667490D01*
X112647461Y-90573455D01*
X112665542Y-90458326D01*
X112672865Y-90278669D01*
X112665492Y-90099328D01*
X112647461Y-89986951D01*
X112626073Y-89920819D01*
X112602621Y-89876375D01*
X112577863Y-89848138D01*
X112530714Y-89819724D01*
X112479313Y-89810463D01*
X112427846Y-89819731D01*
X112380763Y-89848138D01*
X112355958Y-89876385D01*
X112332503Y-89920832D01*
X112311165Y-89986951D01*
X112293066Y-90099329D01*
X112285665Y-90278669D01*
X111979855Y-90278669D01*
X111990138Y-90097390D01*
X112018329Y-89951485D01*
X112061284Y-89834820D01*
X112117134Y-89742206D01*
X112176754Y-89675652D01*
X112241795Y-89625396D01*
X112312982Y-89589755D01*
X112391583Y-89568028D01*
X112479313Y-89560542D01*
X112587535Y-89572107D01*
G37*
G36*
X127919093Y-96258000D02*
G01*
X127595260Y-96258000D01*
X127595260Y-95742436D01*
X127417131Y-95742436D01*
X127143639Y-96258000D01*
X126781172Y-96258000D01*
X127106438Y-95683035D01*
X127047301Y-95653293D01*
X126980961Y-95602306D01*
X126925545Y-95539297D01*
X126885005Y-95466371D01*
X126859422Y-95378328D01*
X126850291Y-95271545D01*
X127167701Y-95271545D01*
X127175805Y-95338689D01*
X127198326Y-95390684D01*
X127234711Y-95431161D01*
X127282353Y-95459666D01*
X127345763Y-95478384D01*
X127429509Y-95485325D01*
X127595260Y-95485325D01*
X127595260Y-95082595D01*
X127429509Y-95082595D01*
X127344708Y-95088051D01*
X127281333Y-95102554D01*
X127234711Y-95124009D01*
X127198825Y-95156909D01*
X127176145Y-95204313D01*
X127167701Y-95271545D01*
X126850291Y-95271545D01*
X126859686Y-95160219D01*
X126885488Y-95072480D01*
X126925545Y-95003410D01*
X126980824Y-94945011D01*
X127047079Y-94899232D01*
X127125999Y-94865556D01*
X127255388Y-94835796D01*
X127403146Y-94825388D01*
X127919093Y-94825388D01*
X127919093Y-96258000D01*
G37*
G36*
X126572377Y-96258000D02*
G01*
X126572377Y-94825388D01*
X125668271Y-94825388D01*
X125668271Y-95097071D01*
X126248544Y-95097071D01*
X126248544Y-95429148D01*
X125752825Y-95429148D01*
X125752825Y-95700830D01*
X126248544Y-95700830D01*
X126248544Y-96258000D01*
X126572377Y-96258000D01*
G37*
G36*
X125422185Y-96258000D02*
G01*
X125422185Y-94825388D01*
X125061348Y-94825388D01*
X124832326Y-95462317D01*
X124792158Y-95590777D01*
X124753812Y-95726426D01*
X124744992Y-95726426D01*
X124707126Y-95590777D01*
X124668300Y-95462317D01*
X124444263Y-94825388D01*
X124084289Y-94825388D01*
X124084289Y-96258000D01*
X124379841Y-96258000D01*
X124379841Y-95733424D01*
X124372556Y-95567002D01*
X124355204Y-95375655D01*
X124336319Y-95210479D01*
X124345138Y-95210479D01*
X124461806Y-95587709D01*
X124662836Y-96134717D01*
X124851499Y-96134717D01*
X125052528Y-95587709D01*
X125164883Y-95210479D01*
X125173606Y-95210479D01*
X125155392Y-95375655D01*
X125138520Y-95567002D01*
X125131138Y-95733424D01*
X125131138Y-96258000D01*
X125422185Y-96258000D01*
G37*
G36*
X123414669Y-96284362D02*
G01*
X123505240Y-96278341D01*
X123584491Y-96261149D01*
X123654141Y-96233650D01*
X123749197Y-96177492D01*
X123822768Y-96116215D01*
X123652032Y-95923046D01*
X123611744Y-95959183D01*
X123556454Y-95993028D01*
X123495555Y-96016151D01*
X123435664Y-96023609D01*
X123382393Y-96018336D01*
X123333574Y-96002815D01*
X123288127Y-95976827D01*
X123249710Y-95941414D01*
X123214893Y-95890987D01*
X123184017Y-95821908D01*
X123163977Y-95748615D01*
X123150367Y-95652281D01*
X123145288Y-95527793D01*
X123154534Y-95364170D01*
X123177690Y-95256495D01*
X123203527Y-95193136D01*
X123231474Y-95148491D01*
X123261093Y-95118448D01*
X123314939Y-95088263D01*
X123372009Y-95078473D01*
X123417875Y-95084364D01*
X123459534Y-95101864D01*
X123494798Y-95130879D01*
X123523668Y-95174530D01*
X123541180Y-95228281D01*
X123547826Y-95303564D01*
X123541284Y-95372178D01*
X123523956Y-95421287D01*
X123495258Y-95460385D01*
X123458672Y-95486571D01*
X123415203Y-95501716D01*
X123364532Y-95506991D01*
X123309808Y-95498843D01*
X123251698Y-95472863D01*
X123199400Y-95429364D01*
X123147397Y-95356578D01*
X123132921Y-95567577D01*
X123193949Y-95637232D01*
X123271830Y-95690477D01*
X123356850Y-95724933D01*
X123426844Y-95735150D01*
X123505468Y-95729791D01*
X123576268Y-95714288D01*
X123640432Y-95689135D01*
X123698430Y-95653136D01*
X123747581Y-95606276D01*
X123788640Y-95547350D01*
X123817507Y-95481277D01*
X123836043Y-95401019D01*
X123842708Y-95303564D01*
X123835230Y-95208550D01*
X123813833Y-95125786D01*
X123779341Y-95053164D01*
X123731978Y-94987967D01*
X123675925Y-94934524D01*
X123610426Y-94891823D01*
X123538329Y-94860849D01*
X123461375Y-94842118D01*
X123378432Y-94835742D01*
X123278546Y-94845605D01*
X123182292Y-94875238D01*
X123093816Y-94925049D01*
X123013473Y-94998425D01*
X122968701Y-95057229D01*
X122929024Y-95128271D01*
X122894792Y-95213355D01*
X122871080Y-95301936D01*
X122855839Y-95405962D01*
X122850406Y-95527793D01*
X122856038Y-95657587D01*
X122871905Y-95769575D01*
X122896709Y-95866006D01*
X122932688Y-95958760D01*
X122974777Y-96036542D01*
X123022580Y-96101260D01*
X123079023Y-96158469D01*
X123139154Y-96204069D01*
X123203382Y-96239018D01*
X123306853Y-96273044D01*
X123414669Y-96284362D01*
G37*
G36*
X122215011Y-96284362D02*
G01*
X122325642Y-96277588D01*
X122420258Y-96258479D01*
X122507667Y-96227386D01*
X122582463Y-96187826D01*
X122649980Y-96139923D01*
X122708142Y-96088126D01*
X122562810Y-95884029D01*
X122496325Y-95937020D01*
X122424381Y-95982291D01*
X122346556Y-96013196D01*
X122261314Y-96023609D01*
X122193086Y-96016985D01*
X122137264Y-95998396D01*
X122090322Y-95967217D01*
X122055683Y-95924772D01*
X122034485Y-95872303D01*
X122026827Y-95804652D01*
X122034285Y-95736895D01*
X122054863Y-95684541D01*
X122087606Y-95643982D01*
X122130963Y-95613978D01*
X122182998Y-95595425D01*
X122246071Y-95588860D01*
X122303130Y-95593046D01*
X122347305Y-95604390D01*
X122390877Y-95624180D01*
X122452661Y-95660183D01*
X122596747Y-95567098D01*
X122558496Y-94862105D01*
X121766840Y-94862105D01*
X121766840Y-95133787D01*
X122279624Y-95133787D01*
X122302632Y-95395595D01*
X122226323Y-95371054D01*
X122147522Y-95363576D01*
X122068222Y-95368883D01*
X121994612Y-95384429D01*
X121925785Y-95409975D01*
X121862809Y-95446348D01*
X121809102Y-95493446D01*
X121763773Y-95552239D01*
X121731172Y-95618832D01*
X121710423Y-95699286D01*
X121702994Y-95796696D01*
X121711406Y-95897821D01*
X121735395Y-95984918D01*
X121774030Y-96060517D01*
X121826541Y-96127566D01*
X121888722Y-96182754D01*
X121961543Y-96226939D01*
X122040913Y-96258667D01*
X122125043Y-96277846D01*
X122215011Y-96284362D01*
G37*
G36*
X121309084Y-96258000D02*
G01*
X121568783Y-94825388D01*
X121232200Y-94825388D01*
X121136238Y-95494145D01*
X121108246Y-95720866D01*
X121082075Y-95952189D01*
X121073255Y-95952189D01*
X121032800Y-95720195D01*
X120990236Y-95494145D01*
X120838001Y-94825388D01*
X120550501Y-94825388D01*
X120405074Y-95494145D01*
X120361647Y-95718469D01*
X120320137Y-95952189D01*
X120311413Y-95952189D01*
X120284763Y-95718949D01*
X120257249Y-95494145D01*
X120156303Y-94825388D01*
X119840235Y-94825388D01*
X120097538Y-96258000D01*
X120514744Y-96258000D01*
X120647900Y-95607745D01*
X120676948Y-95440939D01*
X120702640Y-95267807D01*
X120711363Y-95267807D01*
X120733988Y-95440939D01*
X120764185Y-95607745D01*
X120896767Y-96258000D01*
X121309084Y-96258000D01*
G37*
G36*
X119739385Y-95816060D02*
G01*
X119739385Y-95587134D01*
X119199471Y-95587134D01*
X119199471Y-95816060D01*
X119739385Y-95816060D01*
G37*
G36*
X118602997Y-96284362D02*
G01*
X118693568Y-96278341D01*
X118772819Y-96261149D01*
X118842469Y-96233650D01*
X118937525Y-96177492D01*
X119011096Y-96116215D01*
X118840360Y-95923046D01*
X118800072Y-95959183D01*
X118744782Y-95993028D01*
X118683883Y-96016151D01*
X118623992Y-96023609D01*
X118570721Y-96018336D01*
X118521902Y-96002815D01*
X118476455Y-95976827D01*
X118438038Y-95941414D01*
X118403221Y-95890987D01*
X118372345Y-95821908D01*
X118352305Y-95748615D01*
X118338695Y-95652281D01*
X118333616Y-95527793D01*
X118342862Y-95364170D01*
X118366018Y-95256495D01*
X118391855Y-95193136D01*
X118419802Y-95148491D01*
X118449421Y-95118448D01*
X118503267Y-95088263D01*
X118560337Y-95078473D01*
X118606203Y-95084364D01*
X118647862Y-95101864D01*
X118683126Y-95130879D01*
X118711996Y-95174530D01*
X118729508Y-95228281D01*
X118736154Y-95303564D01*
X118729612Y-95372178D01*
X118712284Y-95421287D01*
X118683586Y-95460385D01*
X118647000Y-95486571D01*
X118603531Y-95501716D01*
X118552860Y-95506991D01*
X118498136Y-95498843D01*
X118440026Y-95472863D01*
X118387728Y-95429364D01*
X118335725Y-95356578D01*
X118321249Y-95567577D01*
X118382277Y-95637232D01*
X118460158Y-95690477D01*
X118545178Y-95724933D01*
X118615172Y-95735150D01*
X118693796Y-95729791D01*
X118764596Y-95714288D01*
X118828760Y-95689135D01*
X118886758Y-95653136D01*
X118935908Y-95606276D01*
X118976968Y-95547350D01*
X119005835Y-95481277D01*
X119024371Y-95401019D01*
X119031036Y-95303564D01*
X119023558Y-95208550D01*
X119002161Y-95125786D01*
X118967669Y-95053164D01*
X118920306Y-94987967D01*
X118864253Y-94934524D01*
X118798754Y-94891823D01*
X118726657Y-94860849D01*
X118649703Y-94842118D01*
X118566760Y-94835742D01*
X118466874Y-94845605D01*
X118370620Y-94875238D01*
X118282144Y-94925049D01*
X118201801Y-94998425D01*
X118157029Y-95057229D01*
X118117352Y-95128271D01*
X118083120Y-95213355D01*
X118059408Y-95301936D01*
X118044167Y-95405962D01*
X118038734Y-95527793D01*
X118044366Y-95657587D01*
X118060233Y-95769575D01*
X118085037Y-95866006D01*
X118121016Y-95958760D01*
X118163105Y-96036542D01*
X118210908Y-96101260D01*
X118267351Y-96158469D01*
X118327482Y-96204069D01*
X118391710Y-96239018D01*
X118495181Y-96273044D01*
X118602997Y-96284362D01*
G37*
G36*
X117793607Y-96258000D02*
G01*
X117793607Y-95997246D01*
X117488467Y-95997246D01*
X117488467Y-95189581D01*
X117749892Y-95189581D01*
X117749892Y-94989126D01*
X117641814Y-94963914D01*
X117557203Y-94936784D01*
X117478702Y-94903069D01*
X117403626Y-94862105D01*
X117165401Y-94862105D01*
X117165401Y-95997246D01*
X116903976Y-95997246D01*
X116903976Y-96258000D01*
X117793607Y-96258000D01*
G37*
G36*
X116243752Y-96284362D02*
G01*
X116354383Y-96277588D01*
X116449000Y-96258479D01*
X116536408Y-96227386D01*
X116611204Y-96187826D01*
X116678721Y-96139923D01*
X116736883Y-96088126D01*
X116591551Y-95884029D01*
X116525067Y-95937020D01*
X116453122Y-95982291D01*
X116375298Y-96013196D01*
X116290055Y-96023609D01*
X116221827Y-96016985D01*
X116166005Y-95998396D01*
X116119063Y-95967217D01*
X116084424Y-95924772D01*
X116063226Y-95872303D01*
X116055568Y-95804652D01*
X116063026Y-95736895D01*
X116083605Y-95684541D01*
X116116347Y-95643982D01*
X116159704Y-95613978D01*
X116211739Y-95595425D01*
X116274812Y-95588860D01*
X116331871Y-95593046D01*
X116376046Y-95604390D01*
X116419618Y-95624180D01*
X116481402Y-95660183D01*
X116625488Y-95567098D01*
X116587237Y-94862105D01*
X115795582Y-94862105D01*
X115795582Y-95133787D01*
X116308365Y-95133787D01*
X116331373Y-95395595D01*
X116255064Y-95371054D01*
X116176263Y-95363576D01*
X116096963Y-95368883D01*
X116023353Y-95384429D01*
X115954526Y-95409975D01*
X115891550Y-95446348D01*
X115837843Y-95493446D01*
X115792514Y-95552239D01*
X115759913Y-95618832D01*
X115739164Y-95699286D01*
X115731735Y-95796696D01*
X115740147Y-95897821D01*
X115764136Y-95984918D01*
X115802771Y-96060517D01*
X115855282Y-96127566D01*
X115917463Y-96182754D01*
X115990284Y-96226939D01*
X116069654Y-96258667D01*
X116153784Y-96277846D01*
X116243752Y-96284362D01*
G37*
G36*
X115020031Y-96284362D02*
G01*
X115115238Y-96278637D01*
X115209071Y-96261461D01*
X115302163Y-96232595D01*
X115390658Y-96192342D01*
X115473315Y-96140190D01*
X115550742Y-96075472D01*
X115379238Y-95864856D01*
X115297335Y-95923769D01*
X115204476Y-95968103D01*
X115106421Y-95995806D01*
X115012841Y-96004723D01*
X114945763Y-95999827D01*
X114896680Y-95986882D01*
X114861374Y-95967719D01*
X114833571Y-95939948D01*
X114817135Y-95906799D01*
X114811428Y-95866486D01*
X114818171Y-95824150D01*
X114837024Y-95793053D01*
X114866310Y-95767915D01*
X114908636Y-95743586D01*
X115018018Y-95695941D01*
X115204188Y-95618290D01*
X115276478Y-95581396D01*
X115345206Y-95534216D01*
X115404945Y-95476406D01*
X115452384Y-95406044D01*
X115482615Y-95324918D01*
X115493318Y-95226009D01*
X115485939Y-95148329D01*
X115464221Y-95076919D01*
X115427938Y-95010312D01*
X115379559Y-94951285D01*
X115319884Y-94900163D01*
X115247520Y-94856640D01*
X115168988Y-94825226D01*
X115081371Y-94805778D01*
X114983027Y-94799025D01*
X114855355Y-94810628D01*
X114732915Y-94845328D01*
X114655672Y-94880815D01*
X114585659Y-94924864D01*
X114522203Y-94977718D01*
X114692172Y-95188334D01*
X114765219Y-95140682D01*
X114837024Y-95106849D01*
X114910958Y-95085573D01*
X114983027Y-95078664D01*
X115060479Y-95087693D01*
X115115896Y-95111930D01*
X115143725Y-95137396D01*
X115160126Y-95168501D01*
X115165842Y-95207124D01*
X115158681Y-95246937D01*
X115137658Y-95279119D01*
X115105468Y-95305103D01*
X115059048Y-95329352D01*
X114947078Y-95376710D01*
X114764550Y-95450622D01*
X114680590Y-95491284D01*
X114612508Y-95538722D01*
X114556533Y-95596649D01*
X114514917Y-95665168D01*
X114489511Y-95743521D01*
X114480405Y-95840314D01*
X114487446Y-95917838D01*
X114508347Y-95990861D01*
X114543485Y-96060613D01*
X114590973Y-96122611D01*
X114651808Y-96176699D01*
X114727834Y-96223200D01*
X114810764Y-96256164D01*
X114907322Y-96276995D01*
X115020031Y-96284362D01*
G37*
G36*
X114324816Y-96258000D02*
G01*
X114324816Y-96059079D01*
X114012007Y-95765443D01*
X113885210Y-95628565D01*
X113797173Y-95512838D01*
X113751726Y-95432752D01*
X113727009Y-95362097D01*
X113719331Y-95298675D01*
X113725848Y-95232707D01*
X113743681Y-95182010D01*
X113771577Y-95143086D01*
X113809568Y-95113972D01*
X113857114Y-95095817D01*
X113917005Y-95089305D01*
X113987304Y-95099997D01*
X114051216Y-95132157D01*
X114109599Y-95178022D01*
X114165008Y-95231186D01*
X114332869Y-95064093D01*
X114228016Y-94962620D01*
X114126183Y-94893548D01*
X114053202Y-94862219D01*
X113969435Y-94842623D01*
X113872811Y-94835742D01*
X113782442Y-94842173D01*
X113702462Y-94860657D01*
X113631230Y-94890481D01*
X113566593Y-94932209D01*
X113512694Y-94983368D01*
X113468547Y-95044728D01*
X113436494Y-95113190D01*
X113416738Y-95190007D01*
X113409877Y-95276914D01*
X113417256Y-95359636D01*
X113439593Y-95441448D01*
X113477846Y-95523479D01*
X113554320Y-95640648D01*
X113654909Y-95762088D01*
X113887670Y-96002423D01*
X113768126Y-95991302D01*
X113653855Y-95986413D01*
X113343155Y-95986413D01*
X113343155Y-96258000D01*
X114324816Y-96258000D01*
G37*
G36*
X113077608Y-96258000D02*
G01*
X112753775Y-96258000D01*
X112753775Y-95742436D01*
X112575646Y-95742436D01*
X112302154Y-96258000D01*
X111939687Y-96258000D01*
X112264953Y-95683035D01*
X112205816Y-95653293D01*
X112139476Y-95602306D01*
X112084060Y-95539297D01*
X112043520Y-95466371D01*
X112017937Y-95378328D01*
X112008806Y-95271545D01*
X112326216Y-95271545D01*
X112334320Y-95338689D01*
X112356841Y-95390684D01*
X112393226Y-95431161D01*
X112440868Y-95459666D01*
X112504278Y-95478384D01*
X112588024Y-95485325D01*
X112753775Y-95485325D01*
X112753775Y-95082595D01*
X112588024Y-95082595D01*
X112503223Y-95088051D01*
X112439848Y-95102554D01*
X112393226Y-95124009D01*
X112357340Y-95156909D01*
X112334660Y-95204313D01*
X112326216Y-95271545D01*
X112008806Y-95271545D01*
X112018201Y-95160219D01*
X112044003Y-95072480D01*
X112084060Y-95003410D01*
X112139339Y-94945011D01*
X112205594Y-94899232D01*
X112284514Y-94865556D01*
X112413903Y-94835796D01*
X112561661Y-94825388D01*
X113077608Y-94825388D01*
X113077608Y-96258000D01*
G37*
D13*
G36*
X114545107Y-165870920D02*
G01*
X114564016Y-165897469D01*
X114575578Y-165926259D01*
X114579482Y-165957986D01*
X114571778Y-165998356D01*
X114548843Y-166031502D01*
X114507339Y-166059298D01*
X114428660Y-166084023D01*
X114317794Y-166093449D01*
X114241628Y-166088485D01*
X114178490Y-166074661D01*
X114122665Y-166051378D01*
X114082888Y-166022759D01*
X114056116Y-165986892D01*
X114047698Y-165948747D01*
X114053310Y-165914114D01*
X114068667Y-165890323D01*
X114094410Y-165874528D01*
X114146187Y-165862188D01*
X114227693Y-165857193D01*
X114350285Y-165857193D01*
X114448275Y-165853456D01*
X114515747Y-165842141D01*
X114545107Y-165870920D01*
G37*
G36*
X114410384Y-164849077D02*
G01*
X114461769Y-164884972D01*
X114485980Y-164919825D01*
X114501719Y-164966594D01*
X114507547Y-165028947D01*
X114501778Y-165090360D01*
X114486059Y-165137421D01*
X114460406Y-165176407D01*
X114428449Y-165203440D01*
X114390272Y-165219988D01*
X114346340Y-165225654D01*
X114302334Y-165219982D01*
X114264232Y-165203440D01*
X114232275Y-165176407D01*
X114206621Y-165137421D01*
X114190902Y-165090360D01*
X114185134Y-165028947D01*
X114190962Y-164966594D01*
X114206700Y-164919825D01*
X114230911Y-164884972D01*
X114282296Y-164849077D01*
X114346340Y-164836911D01*
X114410384Y-164849077D01*
G37*
G36*
X103542115Y-164541023D02*
G01*
X103602636Y-164560789D01*
X103657101Y-164593493D01*
X103703698Y-164637154D01*
X103743646Y-164692938D01*
X103776890Y-164762899D01*
X103807584Y-164879674D01*
X103818826Y-165028324D01*
X103807684Y-165177309D01*
X103776890Y-165297694D01*
X103743569Y-165370532D01*
X103703594Y-165428704D01*
X103657101Y-165474367D01*
X103602445Y-165508766D01*
X103541941Y-165529447D01*
X103473888Y-165536545D01*
X103405091Y-165529409D01*
X103344443Y-165508694D01*
X103290157Y-165474367D01*
X103243985Y-165428740D01*
X103204213Y-165370573D01*
X103170990Y-165297694D01*
X103140119Y-165177303D01*
X103128950Y-165028324D01*
X103140219Y-164879680D01*
X103170990Y-164762899D01*
X103204137Y-164692897D01*
X103243882Y-164637119D01*
X103290157Y-164593493D01*
X103344250Y-164560858D01*
X103404914Y-164541060D01*
X103473888Y-164534221D01*
X103542115Y-164541023D01*
G37*
G36*
X110475585Y-164896638D02*
G01*
X110526382Y-164923068D01*
X110568582Y-164965770D01*
X110604338Y-165031542D01*
X110625904Y-165110329D01*
X110634026Y-165217142D01*
X110626291Y-165331749D01*
X110606066Y-165413993D01*
X110576623Y-165471668D01*
X110533143Y-165517263D01*
X110481383Y-165544007D01*
X110418531Y-165553257D01*
X110363764Y-165547172D01*
X110315039Y-165529382D01*
X110271152Y-165498546D01*
X110225976Y-165447482D01*
X110225976Y-164962617D01*
X110274192Y-164926041D01*
X110322097Y-164904072D01*
X110372243Y-164891945D01*
X110421333Y-164887982D01*
X110475585Y-164896638D01*
G37*
G36*
X111723557Y-164878010D02*
G01*
X111779910Y-164901477D01*
X111828483Y-164941875D01*
X111870737Y-165008913D01*
X111893454Y-165085727D01*
X111474313Y-165085727D01*
X111486073Y-164997753D01*
X111518741Y-164931061D01*
X111552865Y-164898759D01*
X111600824Y-164878117D01*
X111667491Y-164870440D01*
X111723557Y-164878010D01*
G37*
G36*
X117295713Y-164878010D02*
G01*
X117352066Y-164901477D01*
X117400640Y-164941875D01*
X117442894Y-165008913D01*
X117465611Y-165085727D01*
X117046469Y-165085727D01*
X117058229Y-164997753D01*
X117090897Y-164931061D01*
X117125021Y-164898759D01*
X117172980Y-164878117D01*
X117239647Y-164870440D01*
X117295713Y-164878010D01*
G37*
G36*
X99476634Y-164777951D02*
G01*
X99540473Y-165025418D01*
X99577878Y-165169185D01*
X99245931Y-165169185D01*
X99283145Y-165025418D01*
X99347192Y-164777432D01*
X99408954Y-164524671D01*
X99418504Y-164524671D01*
X99476634Y-164777951D01*
G37*
G36*
X118866451Y-165528656D02*
G01*
X118799706Y-165528656D01*
X118712884Y-165522973D01*
X118636336Y-165506698D01*
X118568536Y-165480595D01*
X118507964Y-165442381D01*
X118456715Y-165390669D01*
X118414077Y-165323541D01*
X118385241Y-165248645D01*
X118366049Y-165151937D01*
X118358957Y-165028324D01*
X118366091Y-164905383D01*
X118385315Y-164810124D01*
X118414077Y-164737156D01*
X118456669Y-164672146D01*
X118507882Y-164622606D01*
X118568536Y-164586642D01*
X118673213Y-164553863D01*
X118799706Y-164542214D01*
X118866451Y-164542214D01*
X118866451Y-165528656D01*
G37*
G36*
X119405987Y-166501882D02*
G01*
X98520639Y-166501882D01*
X98520639Y-165811001D01*
X98709528Y-165811001D01*
X99079795Y-165811001D01*
X99175397Y-165441669D01*
X99648771Y-165441669D01*
X99744862Y-165811001D01*
X100103087Y-165811001D01*
X100041815Y-165615850D01*
X100144504Y-165615850D01*
X100214599Y-165685526D01*
X100288326Y-165741113D01*
X100366124Y-165783804D01*
X100449238Y-165814508D01*
X100537945Y-165833179D01*
X100633313Y-165839546D01*
X100763617Y-165829386D01*
X100884640Y-165799519D01*
X100998182Y-165750068D01*
X101026789Y-165730864D01*
X102051473Y-165730864D01*
X102064012Y-165856484D01*
X102100433Y-165967778D01*
X102160674Y-166067810D01*
X102219423Y-166132474D01*
X102290765Y-166188329D01*
X102376312Y-166235582D01*
X102478208Y-166273859D01*
X102549936Y-166087325D01*
X102464467Y-166050515D01*
X102398507Y-166008501D01*
X102348765Y-165961723D01*
X102310237Y-165906225D01*
X102303652Y-165889061D01*
X113712622Y-165889061D01*
X113719444Y-165948747D01*
X113721636Y-165967925D01*
X113748317Y-166040050D01*
X113793588Y-166107359D01*
X113852519Y-166164615D01*
X113927949Y-166214921D01*
X114022786Y-166257977D01*
X114123016Y-166287519D01*
X114239121Y-166306331D01*
X114373537Y-166312993D01*
X114507220Y-166304754D01*
X114623495Y-166281333D01*
X114695975Y-166255321D01*
X114754685Y-166222804D01*
X114801725Y-166184173D01*
X114837777Y-166136931D01*
X114859731Y-166080960D01*
X114867432Y-166013728D01*
X114856551Y-165943192D01*
X114824043Y-165880445D01*
X114773103Y-165826347D01*
X114750812Y-165811001D01*
X115101509Y-165811001D01*
X115451222Y-165811001D01*
X115451222Y-165458692D01*
X115670039Y-165458692D01*
X115676343Y-165528321D01*
X115694863Y-165592263D01*
X115725677Y-165651766D01*
X115767421Y-165704107D01*
X115821275Y-165749681D01*
X115889064Y-165788683D01*
X115962633Y-165815872D01*
X116050396Y-165833309D01*
X116155007Y-165839546D01*
X116272734Y-165828403D01*
X116396246Y-165793769D01*
X116511673Y-165737645D01*
X116608420Y-165662873D01*
X116459670Y-165466270D01*
X116376763Y-165521338D01*
X116298879Y-165555229D01*
X116219645Y-165574598D01*
X116146392Y-165580765D01*
X116074850Y-165572779D01*
X116032831Y-165553050D01*
X116006183Y-165520830D01*
X115997226Y-165479142D01*
X116004950Y-165443645D01*
X116028575Y-165413849D01*
X116063274Y-165389806D01*
X116111514Y-165366827D01*
X116227877Y-165322399D01*
X116309340Y-165287247D01*
X116383582Y-165244546D01*
X116448620Y-165192098D01*
X116467960Y-165168355D01*
X116745025Y-165168355D01*
X116750007Y-165257522D01*
X116760595Y-165327174D01*
X117463772Y-165327174D01*
X117451392Y-165377582D01*
X117426908Y-165430458D01*
X117373387Y-165496427D01*
X117309403Y-165538309D01*
X117236441Y-165562041D01*
X117159719Y-165569969D01*
X117092527Y-165565093D01*
X117027785Y-165550558D01*
X116964970Y-165527084D01*
X116901768Y-165494401D01*
X116787896Y-165707820D01*
X116881629Y-165762812D01*
X116988962Y-165804876D01*
X117100889Y-165831113D01*
X117206326Y-165839546D01*
X117317529Y-165831127D01*
X117418864Y-165806593D01*
X117512027Y-165766365D01*
X117596244Y-165710423D01*
X117667559Y-165640406D01*
X117727003Y-165554918D01*
X117769609Y-165459730D01*
X117796356Y-165349167D01*
X117805790Y-165220153D01*
X117796239Y-165094471D01*
X117779706Y-165028324D01*
X117999798Y-165028324D01*
X118011543Y-165203865D01*
X118044220Y-165348739D01*
X118095089Y-165468242D01*
X118167718Y-165575001D01*
X118255839Y-165660347D01*
X118360929Y-165726401D01*
X118477451Y-165772367D01*
X118609044Y-165801003D01*
X118758392Y-165811001D01*
X119217098Y-165811001D01*
X119217098Y-164259765D01*
X118778011Y-164259765D01*
X118621873Y-164269437D01*
X118485609Y-164296981D01*
X118366327Y-164340836D01*
X118258302Y-164404887D01*
X118168670Y-164487955D01*
X118095608Y-164591936D01*
X118055719Y-164677525D01*
X118025722Y-164777235D01*
X118006586Y-164893315D01*
X117999798Y-165028324D01*
X117779706Y-165028324D01*
X117768988Y-164985443D01*
X117725239Y-164890266D01*
X117665332Y-164804008D01*
X117596087Y-164733450D01*
X117516905Y-164677054D01*
X117429287Y-164634982D01*
X117339796Y-164610176D01*
X117247121Y-164601901D01*
X117136763Y-164610917D01*
X117044376Y-164636303D01*
X116966645Y-164676639D01*
X116898627Y-164732224D01*
X116843316Y-164799422D01*
X116799937Y-164879678D01*
X116769962Y-164966724D01*
X116751431Y-165062490D01*
X116750025Y-165085727D01*
X116745025Y-165168355D01*
X116467960Y-165168355D01*
X116498907Y-165130363D01*
X116531318Y-165058238D01*
X116542609Y-164971336D01*
X116534560Y-164890868D01*
X116511335Y-164820720D01*
X116473148Y-164758736D01*
X116418668Y-164703524D01*
X116354411Y-164660425D01*
X116279801Y-164628722D01*
X116192943Y-164608749D01*
X116091480Y-164601693D01*
X115967176Y-164612472D01*
X115856988Y-164643630D01*
X115756776Y-164692402D01*
X115675333Y-164751170D01*
X115824083Y-164947877D01*
X115890184Y-164907267D01*
X115953318Y-164881028D01*
X116017774Y-164865526D01*
X116080477Y-164860475D01*
X116143227Y-164867872D01*
X116182100Y-164886633D01*
X116207104Y-164916712D01*
X116215421Y-164954728D01*
X116209553Y-164985965D01*
X116192065Y-165011923D01*
X116164454Y-165033159D01*
X116119714Y-165055313D01*
X115995877Y-165099533D01*
X115908672Y-165133934D01*
X115831141Y-165176036D01*
X115764024Y-165228769D01*
X115713428Y-165291673D01*
X115681402Y-165365934D01*
X115670039Y-165458692D01*
X115451222Y-165458692D01*
X115451222Y-164630447D01*
X115101509Y-164630447D01*
X115101509Y-165811001D01*
X114750812Y-165811001D01*
X114699998Y-165776019D01*
X114699998Y-165766469D01*
X114741318Y-165730582D01*
X114776397Y-165686229D01*
X114799529Y-165633812D01*
X114807849Y-165566025D01*
X114798497Y-165503314D01*
X114769754Y-165442707D01*
X114727118Y-165388854D01*
X114676227Y-165344820D01*
X114676227Y-165335270D01*
X114733454Y-165284076D01*
X114786570Y-165211433D01*
X114822421Y-165126767D01*
X114834734Y-165028947D01*
X114826517Y-164936695D01*
X114803198Y-164858604D01*
X114765705Y-164791964D01*
X114715077Y-164733811D01*
X114655237Y-164686402D01*
X114585088Y-164649131D01*
X114470297Y-164613690D01*
X114346340Y-164601693D01*
X114249907Y-164609063D01*
X114163439Y-164630239D01*
X113731721Y-164630239D01*
X113731721Y-164885076D01*
X113929363Y-164885076D01*
X113929363Y-164894626D01*
X113893551Y-164962202D01*
X113884655Y-165000161D01*
X113882618Y-165028947D01*
X113881509Y-165044621D01*
X113889014Y-165131972D01*
X113910116Y-165204594D01*
X113943688Y-165265307D01*
X113989559Y-165317823D01*
X114045080Y-165360828D01*
X114111537Y-165394750D01*
X114221269Y-165426493D01*
X114346340Y-165437517D01*
X114414435Y-165432015D01*
X114490523Y-165414576D01*
X114521352Y-165451841D01*
X114528747Y-165472030D01*
X114531629Y-165502394D01*
X114521713Y-165539614D01*
X114491146Y-165567063D01*
X114443277Y-165582304D01*
X114354956Y-165588862D01*
X114163543Y-165588862D01*
X114019117Y-165598134D01*
X113910191Y-165622884D01*
X113829193Y-165659655D01*
X113778791Y-165699870D01*
X113742992Y-165749970D01*
X113720625Y-165811928D01*
X113712622Y-165889061D01*
X102303652Y-165889061D01*
X102288754Y-165850229D01*
X102282825Y-165794884D01*
X102301223Y-165797817D01*
X102354629Y-165792006D01*
X102403242Y-165774879D01*
X102448312Y-165746020D01*
X102483411Y-165707432D01*
X102504842Y-165659230D01*
X102512463Y-165598412D01*
X102505033Y-165541473D01*
X102483668Y-165494041D01*
X102447897Y-165453814D01*
X102402244Y-165423491D01*
X102351281Y-165405270D01*
X102293438Y-165399006D01*
X102219124Y-165409227D01*
X102160360Y-165438157D01*
X102113340Y-165486304D01*
X102080742Y-165547628D01*
X102059357Y-165627499D01*
X102051473Y-165730864D01*
X101026789Y-165730864D01*
X101100494Y-165681385D01*
X101188604Y-165593091D01*
X101263503Y-165482879D01*
X101316923Y-165360572D01*
X101350796Y-165215857D01*
X101362842Y-165044206D01*
X101361990Y-165028324D01*
X102768753Y-165028324D01*
X102779439Y-165195472D01*
X102809693Y-165339259D01*
X102857609Y-165463260D01*
X102925834Y-165576567D01*
X103008085Y-165668749D01*
X103105179Y-165742179D01*
X103214674Y-165795525D01*
X103336667Y-165828230D01*
X103473888Y-165839546D01*
X103610415Y-165828248D01*
X103732078Y-165795561D01*
X103841559Y-165742179D01*
X103938653Y-165668749D01*
X104020905Y-165576567D01*
X104057066Y-165516511D01*
X104287602Y-165516511D01*
X104287602Y-165811001D01*
X105250999Y-165811001D01*
X105250999Y-165358730D01*
X105514140Y-165358730D01*
X105521764Y-165442672D01*
X105544396Y-165521742D01*
X105582443Y-165597270D01*
X105633863Y-165664401D01*
X105699736Y-165722968D01*
X105782056Y-165773320D01*
X105871854Y-165809013D01*
X105976407Y-165831569D01*
X106098449Y-165839546D01*
X106201538Y-165833347D01*
X106303141Y-165814749D01*
X106403941Y-165783493D01*
X106499764Y-165739906D01*
X106589265Y-165683436D01*
X106673103Y-165613359D01*
X106487399Y-165385304D01*
X106398713Y-165449095D01*
X106298166Y-165497100D01*
X106191992Y-165527097D01*
X106090663Y-165536752D01*
X106018030Y-165531451D01*
X105964884Y-165517433D01*
X105926654Y-165496684D01*
X105896549Y-165466613D01*
X105878753Y-165430719D01*
X105872573Y-165387068D01*
X105879874Y-165341227D01*
X105900288Y-165307555D01*
X105931999Y-165280335D01*
X105977829Y-165253992D01*
X106096269Y-165202402D01*
X106297855Y-165118322D01*
X106376130Y-165078372D01*
X106376756Y-165077942D01*
X107372218Y-165077942D01*
X107372218Y-165811001D01*
X107722138Y-165811001D01*
X107722138Y-165122785D01*
X107727188Y-165037210D01*
X107739783Y-164981649D01*
X107757016Y-164947462D01*
X107783630Y-164921770D01*
X107819815Y-164905631D01*
X107868812Y-164899712D01*
X107931105Y-164907455D01*
X107981543Y-164929400D01*
X108028840Y-164963361D01*
X108087318Y-165014415D01*
X108087318Y-165811001D01*
X108437239Y-165811001D01*
X108743770Y-165811001D01*
X109093483Y-165811001D01*
X109093483Y-164962617D01*
X109876055Y-164962617D01*
X109876055Y-165811001D01*
X110161514Y-165811001D01*
X110186738Y-165694014D01*
X110195457Y-165694014D01*
X110261864Y-165750244D01*
X110340471Y-165797610D01*
X110425376Y-165829285D01*
X110509566Y-165839546D01*
X110616136Y-165828780D01*
X110708448Y-165797782D01*
X110789485Y-165746888D01*
X110861147Y-165674292D01*
X110916009Y-165589156D01*
X110956999Y-165487450D01*
X110983200Y-165366008D01*
X110992562Y-165220983D01*
X110989078Y-165168355D01*
X111172868Y-165168355D01*
X111177851Y-165257522D01*
X111188439Y-165327174D01*
X111891615Y-165327174D01*
X111879236Y-165377582D01*
X111854752Y-165430458D01*
X111801231Y-165496427D01*
X111737247Y-165538309D01*
X111664284Y-165562041D01*
X111587562Y-165569969D01*
X111520370Y-165565093D01*
X111455628Y-165550558D01*
X111392814Y-165527084D01*
X111329611Y-165494401D01*
X111215739Y-165707820D01*
X111309473Y-165762812D01*
X111416806Y-165804876D01*
X111528732Y-165831113D01*
X111634170Y-165839546D01*
X111745373Y-165831127D01*
X111846708Y-165806593D01*
X111939870Y-165766365D01*
X112024087Y-165710423D01*
X112095403Y-165640406D01*
X112154847Y-165554918D01*
X112197453Y-165459730D01*
X112224200Y-165349167D01*
X112233633Y-165220153D01*
X112224083Y-165094471D01*
X112219952Y-165077942D01*
X112459405Y-165077942D01*
X112459405Y-165811001D01*
X112809326Y-165811001D01*
X112809326Y-165122785D01*
X112814376Y-165037210D01*
X112826970Y-164981649D01*
X112844204Y-164947462D01*
X112870817Y-164921770D01*
X112907003Y-164905631D01*
X112956000Y-164899712D01*
X113018293Y-164907455D01*
X113068730Y-164929400D01*
X113116028Y-164963361D01*
X113174506Y-165014415D01*
X113174506Y-165811001D01*
X113524426Y-165811001D01*
X113524426Y-164630239D01*
X113238968Y-164630239D01*
X113213743Y-164779716D01*
X113205128Y-164779716D01*
X113126153Y-164712097D01*
X113038316Y-164654321D01*
X112975039Y-164625523D01*
X112904661Y-164607821D01*
X112825727Y-164601693D01*
X112730398Y-164610679D01*
X112654452Y-164635588D01*
X112593776Y-164674880D01*
X112545666Y-164729163D01*
X112500064Y-164818295D01*
X112470310Y-164932436D01*
X112459405Y-165077942D01*
X112219952Y-165077942D01*
X112196832Y-164985443D01*
X112153082Y-164890266D01*
X112093175Y-164804008D01*
X112023930Y-164733450D01*
X111944749Y-164677054D01*
X111857131Y-164634982D01*
X111767640Y-164610176D01*
X111674965Y-164601901D01*
X111564607Y-164610917D01*
X111472219Y-164636303D01*
X111394488Y-164676639D01*
X111326471Y-164732224D01*
X111271160Y-164799422D01*
X111227780Y-164879678D01*
X111197805Y-164966724D01*
X111179275Y-165062490D01*
X111177869Y-165085727D01*
X111172868Y-165168355D01*
X110989078Y-165168355D01*
X110984147Y-165093879D01*
X110960284Y-164984343D01*
X110922391Y-164889643D01*
X110869411Y-164802406D01*
X110808595Y-164732011D01*
X110739698Y-164676431D01*
X110662057Y-164634352D01*
X110583557Y-164609822D01*
X110502819Y-164601693D01*
X110409109Y-164610578D01*
X110337979Y-164634703D01*
X110274613Y-164673122D01*
X110213312Y-164724908D01*
X110225976Y-164545951D01*
X110225976Y-164273779D01*
X115078776Y-164273779D01*
X115085182Y-164326799D01*
X115103447Y-164370584D01*
X115133584Y-164407270D01*
X115172711Y-164434634D01*
X115219645Y-164451534D01*
X115276521Y-164457510D01*
X115333124Y-164451550D01*
X115380043Y-164434664D01*
X115419354Y-164407270D01*
X115449552Y-164370576D01*
X115467849Y-164326791D01*
X115474266Y-164273779D01*
X115467853Y-164221053D01*
X115449563Y-164177509D01*
X115419354Y-164141014D01*
X115380050Y-164113681D01*
X115333132Y-164096827D01*
X115276521Y-164090878D01*
X115219637Y-164096844D01*
X115172704Y-164113711D01*
X115133584Y-164141014D01*
X115103437Y-164177501D01*
X115085178Y-164221045D01*
X115078776Y-164273779D01*
X110225976Y-164273779D01*
X110225976Y-164143610D01*
X109876055Y-164143610D01*
X109876055Y-164962617D01*
X109093483Y-164962617D01*
X109093483Y-164630447D01*
X108743770Y-164630447D01*
X108743770Y-165811001D01*
X108437239Y-165811001D01*
X108437239Y-164630239D01*
X108151780Y-164630239D01*
X108126556Y-164779716D01*
X108117940Y-164779716D01*
X108038966Y-164712097D01*
X107951128Y-164654321D01*
X107887851Y-164625523D01*
X107817473Y-164607821D01*
X107738539Y-164601693D01*
X107643210Y-164610679D01*
X107567264Y-164635588D01*
X107506588Y-164674880D01*
X107458478Y-164729163D01*
X107412876Y-164818295D01*
X107383122Y-164932436D01*
X107372218Y-165077942D01*
X106376756Y-165077942D01*
X106450549Y-165027286D01*
X106515234Y-164964689D01*
X106566601Y-164888501D01*
X106599336Y-164800657D01*
X106610925Y-164693559D01*
X106602935Y-164609446D01*
X106579418Y-164532124D01*
X106540131Y-164460002D01*
X106487747Y-164396087D01*
X106423130Y-164340732D01*
X106344774Y-164293605D01*
X106295211Y-164273779D01*
X108721037Y-164273779D01*
X108727443Y-164326799D01*
X108745708Y-164370584D01*
X108775845Y-164407270D01*
X108814972Y-164434634D01*
X108861906Y-164451534D01*
X108918782Y-164457510D01*
X108975385Y-164451550D01*
X109022304Y-164434664D01*
X109061615Y-164407270D01*
X109091813Y-164370576D01*
X109110110Y-164326791D01*
X109116527Y-164273779D01*
X109110114Y-164221053D01*
X109091824Y-164177509D01*
X109061615Y-164141014D01*
X109022311Y-164113681D01*
X108975393Y-164096827D01*
X108918782Y-164090878D01*
X108861898Y-164096844D01*
X108814965Y-164113711D01*
X108775845Y-164141014D01*
X108745698Y-164177501D01*
X108727439Y-164221045D01*
X108721037Y-164273779D01*
X106295211Y-164273779D01*
X106259740Y-164259590D01*
X106164867Y-164238532D01*
X106058381Y-164231219D01*
X105920137Y-164243783D01*
X105787558Y-164281356D01*
X105703919Y-164319781D01*
X105628109Y-164367478D01*
X105559398Y-164424709D01*
X105743442Y-164652764D01*
X105822537Y-164601166D01*
X105900288Y-164564532D01*
X105980344Y-164541494D01*
X106058381Y-164534013D01*
X106142246Y-164543790D01*
X106202252Y-164570033D01*
X106232385Y-164597608D01*
X106250143Y-164631289D01*
X106256333Y-164673110D01*
X106248579Y-164716220D01*
X106225815Y-164751066D01*
X106190959Y-164779202D01*
X106140696Y-164805459D01*
X106019454Y-164856738D01*
X105821813Y-164936770D01*
X105730900Y-164980799D01*
X105657181Y-165032165D01*
X105596571Y-165094889D01*
X105551509Y-165169081D01*
X105524000Y-165253922D01*
X105514140Y-165358730D01*
X105250999Y-165358730D01*
X105250999Y-164259765D01*
X104900352Y-164259765D01*
X104900352Y-165516511D01*
X104287602Y-165516511D01*
X104057066Y-165516511D01*
X104089130Y-165463260D01*
X104137045Y-165339259D01*
X104167300Y-165195472D01*
X104177985Y-165028324D01*
X104167235Y-164861019D01*
X104136926Y-164718477D01*
X104089130Y-164596814D01*
X104020973Y-164486060D01*
X103938752Y-164396283D01*
X103841559Y-164325161D01*
X103732280Y-164273730D01*
X103610597Y-164242150D01*
X103473888Y-164231219D01*
X103336484Y-164242168D01*
X103214472Y-164273765D01*
X103105179Y-164325161D01*
X103007986Y-164396283D01*
X102925765Y-164486060D01*
X102857609Y-164596814D01*
X102809813Y-164718477D01*
X102779503Y-164861019D01*
X102768753Y-165028324D01*
X101361990Y-165028324D01*
X101355990Y-164916411D01*
X101336316Y-164802247D01*
X101304816Y-164699995D01*
X101260244Y-164602798D01*
X101206616Y-164517932D01*
X101143921Y-164444120D01*
X101071716Y-164379560D01*
X100993717Y-164326829D01*
X100909326Y-164285301D01*
X100820030Y-164255319D01*
X100727597Y-164237293D01*
X100631237Y-164231219D01*
X100531598Y-164238099D01*
X100441975Y-164257997D01*
X100360830Y-164290283D01*
X100250306Y-164356732D01*
X100164019Y-164432805D01*
X100348893Y-164645706D01*
X100409911Y-164596677D01*
X100473041Y-164562352D01*
X100541967Y-164541530D01*
X100622725Y-164534221D01*
X100690022Y-164541000D01*
X100753129Y-164561157D01*
X100813308Y-164595257D01*
X100866172Y-164640416D01*
X100912320Y-164697358D01*
X100951885Y-164767778D01*
X100979827Y-164843791D01*
X100997463Y-164931520D01*
X101003683Y-165032995D01*
X100997672Y-165138778D01*
X100980768Y-165228867D01*
X100954273Y-165305583D01*
X100915748Y-165376377D01*
X100869563Y-165433022D01*
X100815488Y-165477377D01*
X100753647Y-165509932D01*
X100685316Y-165529728D01*
X100608920Y-165536545D01*
X100521848Y-165527016D01*
X100446468Y-165499487D01*
X100378700Y-165457629D01*
X100320969Y-165407621D01*
X100144504Y-165615850D01*
X100041815Y-165615850D01*
X99616042Y-164259765D01*
X99196469Y-164259765D01*
X98910997Y-165169185D01*
X98709528Y-165811001D01*
X98520639Y-165811001D01*
X98520639Y-163901989D01*
X119405987Y-163901989D01*
X119405987Y-166501882D01*
G37*
D14*
X109842857Y-77159580D02*
X109890476Y-77207200D01*
X109890476Y-77207200D02*
X110033333Y-77254819D01*
X110033333Y-77254819D02*
X110128571Y-77254819D01*
X110128571Y-77254819D02*
X110271428Y-77207200D01*
X110271428Y-77207200D02*
X110366666Y-77111961D01*
X110366666Y-77111961D02*
X110414285Y-77016723D01*
X110414285Y-77016723D02*
X110461904Y-76826247D01*
X110461904Y-76826247D02*
X110461904Y-76683390D01*
X110461904Y-76683390D02*
X110414285Y-76492914D01*
X110414285Y-76492914D02*
X110366666Y-76397676D01*
X110366666Y-76397676D02*
X110271428Y-76302438D01*
X110271428Y-76302438D02*
X110128571Y-76254819D01*
X110128571Y-76254819D02*
X110033333Y-76254819D01*
X110033333Y-76254819D02*
X109890476Y-76302438D01*
X109890476Y-76302438D02*
X109842857Y-76350057D01*
X109461904Y-76350057D02*
X109414285Y-76302438D01*
X109414285Y-76302438D02*
X109319047Y-76254819D01*
X109319047Y-76254819D02*
X109080952Y-76254819D01*
X109080952Y-76254819D02*
X108985714Y-76302438D01*
X108985714Y-76302438D02*
X108938095Y-76350057D01*
X108938095Y-76350057D02*
X108890476Y-76445295D01*
X108890476Y-76445295D02*
X108890476Y-76540533D01*
X108890476Y-76540533D02*
X108938095Y-76683390D01*
X108938095Y-76683390D02*
X109509523Y-77254819D01*
X109509523Y-77254819D02*
X108890476Y-77254819D01*
X108557142Y-76254819D02*
X107890476Y-76254819D01*
X107890476Y-76254819D02*
X108319047Y-77254819D01*
X109742857Y-75259580D02*
X109790476Y-75307200D01*
X109790476Y-75307200D02*
X109933333Y-75354819D01*
X109933333Y-75354819D02*
X110028571Y-75354819D01*
X110028571Y-75354819D02*
X110171428Y-75307200D01*
X110171428Y-75307200D02*
X110266666Y-75211961D01*
X110266666Y-75211961D02*
X110314285Y-75116723D01*
X110314285Y-75116723D02*
X110361904Y-74926247D01*
X110361904Y-74926247D02*
X110361904Y-74783390D01*
X110361904Y-74783390D02*
X110314285Y-74592914D01*
X110314285Y-74592914D02*
X110266666Y-74497676D01*
X110266666Y-74497676D02*
X110171428Y-74402438D01*
X110171428Y-74402438D02*
X110028571Y-74354819D01*
X110028571Y-74354819D02*
X109933333Y-74354819D01*
X109933333Y-74354819D02*
X109790476Y-74402438D01*
X109790476Y-74402438D02*
X109742857Y-74450057D01*
X109361904Y-74450057D02*
X109314285Y-74402438D01*
X109314285Y-74402438D02*
X109219047Y-74354819D01*
X109219047Y-74354819D02*
X108980952Y-74354819D01*
X108980952Y-74354819D02*
X108885714Y-74402438D01*
X108885714Y-74402438D02*
X108838095Y-74450057D01*
X108838095Y-74450057D02*
X108790476Y-74545295D01*
X108790476Y-74545295D02*
X108790476Y-74640533D01*
X108790476Y-74640533D02*
X108838095Y-74783390D01*
X108838095Y-74783390D02*
X109409523Y-75354819D01*
X109409523Y-75354819D02*
X108790476Y-75354819D01*
X108219047Y-74783390D02*
X108314285Y-74735771D01*
X108314285Y-74735771D02*
X108361904Y-74688152D01*
X108361904Y-74688152D02*
X108409523Y-74592914D01*
X108409523Y-74592914D02*
X108409523Y-74545295D01*
X108409523Y-74545295D02*
X108361904Y-74450057D01*
X108361904Y-74450057D02*
X108314285Y-74402438D01*
X108314285Y-74402438D02*
X108219047Y-74354819D01*
X108219047Y-74354819D02*
X108028571Y-74354819D01*
X108028571Y-74354819D02*
X107933333Y-74402438D01*
X107933333Y-74402438D02*
X107885714Y-74450057D01*
X107885714Y-74450057D02*
X107838095Y-74545295D01*
X107838095Y-74545295D02*
X107838095Y-74592914D01*
X107838095Y-74592914D02*
X107885714Y-74688152D01*
X107885714Y-74688152D02*
X107933333Y-74735771D01*
X107933333Y-74735771D02*
X108028571Y-74783390D01*
X108028571Y-74783390D02*
X108219047Y-74783390D01*
X108219047Y-74783390D02*
X108314285Y-74831009D01*
X108314285Y-74831009D02*
X108361904Y-74878628D01*
X108361904Y-74878628D02*
X108409523Y-74973866D01*
X108409523Y-74973866D02*
X108409523Y-75164342D01*
X108409523Y-75164342D02*
X108361904Y-75259580D01*
X108361904Y-75259580D02*
X108314285Y-75307200D01*
X108314285Y-75307200D02*
X108219047Y-75354819D01*
X108219047Y-75354819D02*
X108028571Y-75354819D01*
X108028571Y-75354819D02*
X107933333Y-75307200D01*
X107933333Y-75307200D02*
X107885714Y-75259580D01*
X107885714Y-75259580D02*
X107838095Y-75164342D01*
X107838095Y-75164342D02*
X107838095Y-74973866D01*
X107838095Y-74973866D02*
X107885714Y-74878628D01*
X107885714Y-74878628D02*
X107933333Y-74831009D01*
X107933333Y-74831009D02*
X108028571Y-74783390D01*
%TO.C,J4*%
D15*
X135820000Y-86840000D02*
X138580000Y-86840000D01*
X135820000Y-94570000D02*
X135820000Y-86840000D01*
X135820000Y-94570000D02*
X138580000Y-94570000D01*
X135820000Y-95840000D02*
X135820000Y-97220000D01*
X135820000Y-97220000D02*
X137200000Y-97220000D01*
X138580000Y-94570000D02*
X138580000Y-86840000D01*
%TO.C,AE1*%
X96250000Y-77120000D02*
X95750000Y-77120000D01*
X96000000Y-76620000D01*
X96250000Y-77120000D01*
G36*
X96250000Y-77120000D02*
G01*
X95750000Y-77120000D01*
X96000000Y-76620000D01*
X96250000Y-77120000D01*
G37*
%TO.C,U9*%
X94900000Y-79325000D02*
X95300000Y-79325000D01*
X94900000Y-95525000D02*
X94900000Y-79325000D01*
X95300000Y-95525000D02*
X94900000Y-95525000D01*
X111100000Y-79325000D02*
X110700000Y-79325000D01*
X111100000Y-95525000D02*
X111100000Y-79325000D01*
X111236000Y-96265000D02*
X110900000Y-96025000D01*
X111236000Y-95785000D01*
X111236000Y-96265000D01*
G36*
X111236000Y-96265000D02*
G01*
X110900000Y-96025000D01*
X111236000Y-95785000D01*
X111236000Y-96265000D01*
G37*
%TO.C,C27*%
X105639420Y-76290000D02*
X105920580Y-76290000D01*
X105639420Y-77310000D02*
X105920580Y-77310000D01*
%TO.C,J2*%
X88550000Y-165900000D02*
X89300000Y-165900000D01*
X89300000Y-165900000D02*
X89300000Y-168850000D01*
X89300000Y-168850000D02*
X92350000Y-168850000D01*
X92350000Y-168850000D02*
X94340000Y-168850000D01*
X95200000Y-163350000D02*
X96450000Y-163350000D01*
X95400000Y-165900000D02*
X95400000Y-167240000D01*
X96150000Y-165900000D02*
X95400000Y-165900000D01*
X96450000Y-163350000D02*
X96450000Y-164600000D01*
X88550000Y-163650000D02*
X90350000Y-163650000D01*
X90350000Y-164400000D01*
X88550000Y-164400000D01*
X88550000Y-163650000D01*
X91850000Y-163650000D02*
X92850000Y-163650000D01*
X92850000Y-164400000D01*
X91850000Y-164400000D01*
X91850000Y-163650000D01*
X94350000Y-163650000D02*
X96150000Y-163650000D01*
X96150000Y-164400000D01*
X94350000Y-164400000D01*
X94350000Y-163650000D01*
X88540000Y-163640000D02*
X96160000Y-163640000D01*
X96160000Y-169610000D01*
X88540000Y-169610000D01*
X88540000Y-163640000D01*
%TO.C,J5*%
X98840000Y-167120000D02*
X98840000Y-168500000D01*
X100220000Y-167120000D02*
X98840000Y-167120000D01*
X101490000Y-167120000D02*
X101490000Y-169880000D01*
X101490000Y-167120000D02*
X119380000Y-167120000D01*
X101490000Y-169880000D02*
X119380000Y-169880000D01*
X119380000Y-167120000D02*
X119380000Y-169880000D01*
%TO.C,C28*%
X105538748Y-74065000D02*
X106061252Y-74065000D01*
X105538748Y-75535000D02*
X106061252Y-75535000D01*
%TD*%
M02*
