%TF.GenerationSoftware,KiCad,Pcbnew,10.0.1*%
%TF.CreationDate,2026-05-06T14:52:27-07:00*%
%TF.ProjectId,senseboard,73656e73-6562-46f6-9172-642e6b696361,rev?*%
%TF.SameCoordinates,Original*%
%TF.FileFunction,Copper,L5,Inr*%
%TF.FilePolarity,Positive*%
%FSLAX46Y46*%
G04 Gerber Fmt 4.6, Leading zero omitted, Abs format (unit mm)*
G04 Created by KiCad (PCBNEW 10.0.1) date 2026-05-06 14:52:27*
%MOMM*%
%LPD*%
G01*
G04 APERTURE LIST*
G04 Aperture macros list*
%AMRoundRect*
0 Rectangle with rounded corners*
0 $1 Rounding radius*
0 $2 $3 $4 $5 $6 $7 $8 $9 X,Y pos of 4 corners*
0 Add a 4 corners polygon primitive as box body*
4,1,4,$2,$3,$4,$5,$6,$7,$8,$9,$2,$3,0*
0 Add four circle primitives for the rounded corners*
1,1,$1+$1,$2,$3*
1,1,$1+$1,$4,$5*
1,1,$1+$1,$6,$7*
1,1,$1+$1,$8,$9*
0 Add four rect primitives between the rounded corners*
20,1,$1+$1,$2,$3,$4,$5,0*
20,1,$1+$1,$4,$5,$6,$7,0*
20,1,$1+$1,$6,$7,$8,$9,0*
20,1,$1+$1,$8,$9,$2,$3,0*%
G04 Aperture macros list end*
%TA.AperFunction,ComponentPad*%
%ADD10O,1.000000X2.100000*%
%TD*%
%TA.AperFunction,ComponentPad*%
%ADD11O,1.000000X1.800000*%
%TD*%
%TA.AperFunction,ComponentPad*%
%ADD12R,1.700000X1.700000*%
%TD*%
%TA.AperFunction,ComponentPad*%
%ADD13C,1.700000*%
%TD*%
%TA.AperFunction,ComponentPad*%
%ADD14C,0.970000*%
%TD*%
%TA.AperFunction,ComponentPad*%
%ADD15RoundRect,0.250000X0.600000X0.750000X-0.600000X0.750000X-0.600000X-0.750000X0.600000X-0.750000X0*%
%TD*%
%TA.AperFunction,ComponentPad*%
%ADD16O,1.700000X2.000000*%
%TD*%
%TA.AperFunction,ViaPad*%
%ADD17C,0.600000*%
%TD*%
G04 APERTURE END LIST*
D10*
%TO.N,GND*%
%TO.C,J1*%
X121180000Y-162850000D03*
D11*
X121180000Y-167050000D03*
D10*
X129820000Y-162850000D03*
D11*
X129820000Y-167050000D03*
%TD*%
D12*
%TO.N,GND*%
%TO.C,J4*%
X137200000Y-95840000D03*
D13*
%TO.N,+3V3_1*%
X137200000Y-93300000D03*
%TO.N,/SWDIO*%
X137200000Y-90760000D03*
%TO.N,/SWCLK*%
X137200000Y-88220000D03*
%TD*%
D14*
%TO.N,GND*%
%TO.C,AE1*%
X100380000Y-76340000D03*
X91620000Y-76340000D03*
%TD*%
D15*
%TO.N,+BATT*%
%TO.C,J2*%
X93600000Y-166100000D03*
D16*
%TO.N,GND*%
X91100000Y-166100000D03*
%TD*%
D12*
%TO.N,GND*%
%TO.C,J5*%
X100220000Y-168500000D03*
D13*
%TO.N,/I2C2_SDA*%
X102760000Y-168500000D03*
%TO.N,/I2C2_SCL*%
X105300000Y-168500000D03*
%TO.N,/I2C1_SDA*%
X107840000Y-168500000D03*
%TO.N,/I2C1_SCL*%
X110380000Y-168500000D03*
%TO.N,/GPIO_EX{slash}BOOT0*%
X112920000Y-168500000D03*
%TO.N,/RESET*%
X115460000Y-168500000D03*
%TO.N,GND*%
X118000000Y-168500000D03*
%TD*%
D17*
%TO.N,GND*%
X89295277Y-77011111D03*
X102501249Y-90028281D03*
X139172970Y-80235946D03*
X96200000Y-155100000D03*
X89300000Y-78000000D03*
X89294731Y-73994315D03*
X125700000Y-74700000D03*
X89300000Y-88999999D03*
X89322187Y-90020156D03*
X89279687Y-72956250D03*
X89300546Y-83016796D03*
X109900000Y-150600000D03*
X112300000Y-135800000D03*
X114200000Y-105700000D03*
X123108995Y-95691005D03*
X89300000Y-85000000D03*
X125700000Y-105200000D03*
X110000000Y-98000000D03*
X102479062Y-89008124D03*
X89300000Y-79000000D03*
X89294731Y-74994315D03*
X107600000Y-76800000D03*
X119700000Y-125000000D03*
X110100000Y-119500000D03*
X102677812Y-71983905D03*
X102677812Y-72983905D03*
X106700000Y-121700000D03*
X89279141Y-70939454D03*
X133000000Y-84900000D03*
X83700000Y-131300000D03*
X130000000Y-76700000D03*
X89294731Y-75994315D03*
X85300000Y-108950000D03*
X102479062Y-86008125D03*
X121600000Y-156900000D03*
X104500000Y-132350000D03*
X81500000Y-81800000D03*
X139172970Y-82235946D03*
X115500000Y-120000000D03*
X102479062Y-88008124D03*
X110100000Y-118100000D03*
X106750000Y-73450000D03*
X89300546Y-81016796D03*
X134172970Y-83635946D03*
X89300000Y-86000000D03*
X117100000Y-166200000D03*
X85950000Y-109600000D03*
X101200000Y-150000000D03*
X122333995Y-92007076D03*
X89140000Y-121400000D03*
X89300000Y-86999999D03*
X102479062Y-87008124D03*
X123200000Y-157500000D03*
X88600000Y-117800000D03*
X87800000Y-106700000D03*
X102677812Y-73983905D03*
X117200000Y-127000000D03*
X122300000Y-160900000D03*
X131500000Y-162100000D03*
X121100000Y-92000000D03*
X100900000Y-142700000D03*
X102699999Y-75004062D03*
X89300546Y-82016796D03*
X82700000Y-144100000D03*
X88390000Y-121400000D03*
X90040000Y-122400000D03*
X108700000Y-122600000D03*
X97700000Y-135400000D03*
X96200000Y-154200000D03*
X116500000Y-119000000D03*
X107400000Y-121600000D03*
X103500000Y-154200000D03*
X101100000Y-144100000D03*
X109250000Y-146000000D03*
X97500000Y-131900000D03*
X89300000Y-87999999D03*
X104300000Y-154200000D03*
X95500000Y-154200000D03*
X133072970Y-83235946D03*
X87639762Y-117811834D03*
X86650000Y-110300000D03*
X102677812Y-70983906D03*
X89300000Y-80000000D03*
X89279141Y-71939454D03*
X104100000Y-155100000D03*
X88700000Y-107500000D03*
X109400000Y-125100000D03*
X102698749Y-77021719D03*
X110200000Y-147900000D03*
X122400000Y-156900000D03*
X92100000Y-131900000D03*
X87350000Y-111000000D03*
X131500000Y-167100000D03*
X102676562Y-76001562D03*
X89600000Y-108400000D03*
X128700000Y-160900000D03*
X100100000Y-148800000D03*
X87640000Y-115900000D03*
X89300000Y-84000000D03*
%TO.N,+3V3_2*%
X94500000Y-146100000D03*
X95200000Y-150300000D03*
X98000000Y-145400000D03*
X94500000Y-146800000D03*
X104000000Y-76800000D03*
X97300000Y-146100000D03*
X96600000Y-147500000D03*
X96600000Y-146100000D03*
X97300000Y-146800000D03*
X95200000Y-146800000D03*
X114500000Y-110100000D03*
X95900000Y-147500000D03*
X96600000Y-150300000D03*
X125700000Y-103900000D03*
X114500000Y-108700000D03*
X97300000Y-147500000D03*
X95900000Y-150300000D03*
X104850000Y-73450000D03*
X114200000Y-103200000D03*
X98000000Y-147500000D03*
X95900000Y-146800000D03*
X94500000Y-147500000D03*
X96600000Y-149600000D03*
X95200000Y-147500000D03*
X94500000Y-145400000D03*
X95900000Y-145400000D03*
X96600000Y-145400000D03*
X97300000Y-145400000D03*
X114500000Y-109400000D03*
X95200000Y-146100000D03*
X96600000Y-146800000D03*
X95900000Y-146100000D03*
X86825000Y-121385000D03*
X95200000Y-145400000D03*
%TO.N,+3V3_1*%
X104500000Y-150200000D03*
X103100000Y-150200000D03*
X105500000Y-142800000D03*
X115000000Y-126200000D03*
X108200000Y-124200000D03*
X116900000Y-94800000D03*
X104100000Y-142100000D03*
X92800000Y-122100000D03*
X103400000Y-142800000D03*
X123800000Y-109000000D03*
X104100000Y-142800000D03*
X139172970Y-81235946D03*
X104800000Y-142100000D03*
X102700000Y-142800000D03*
X97400000Y-141300000D03*
X102700000Y-142100000D03*
X103800000Y-150200000D03*
X106200000Y-142800000D03*
X130000000Y-75100000D03*
X104500000Y-149500000D03*
X89420000Y-124720000D03*
X137500000Y-84900000D03*
X121600000Y-95700000D03*
X106200000Y-142100000D03*
X100800000Y-140800000D03*
X98100000Y-140000000D03*
X130172970Y-83235946D03*
X104800000Y-142800000D03*
X125700000Y-92500000D03*
X105300000Y-133900000D03*
X103400000Y-142100000D03*
X105500000Y-142100000D03*
X125200000Y-110100000D03*
X139172970Y-83135946D03*
X113800000Y-133900000D03*
%TO.N,/VSENSE_3V3_2*%
X100230000Y-144365000D03*
X102200000Y-129400000D03*
%TO.N,/VSENSE_3V3_1*%
X108000000Y-125200000D03*
X108600000Y-148800000D03*
%TO.N,VBUS*%
X110050000Y-160700000D03*
X104300000Y-160700000D03*
%TO.N,/3V3_MODE1*%
X118400000Y-128000000D03*
X108000000Y-154900000D03*
%TO.N,/I2C1_SDA*%
X126400000Y-93150000D03*
X126400000Y-102700000D03*
X120150000Y-128450000D03*
X126400000Y-100200000D03*
X126400000Y-90000000D03*
%TO.N,/I2C1_SCL*%
X127000000Y-82200000D03*
X127000000Y-80500000D03*
X120850000Y-129350000D03*
%TO.N,/3V3_MODE2*%
X118800000Y-126700000D03*
X100100000Y-154800000D03*
%TO.N,/3V3_EN2*%
X112600000Y-125300000D03*
X106500000Y-136700000D03*
%TO.N,/GPIO_EX{slash}BOOT0*%
X121475000Y-126075000D03*
%TO.N,/I2C2_SCL*%
X91220000Y-122900000D03*
%TO.N,/VSENSE_BATT*%
X96100000Y-159700000D03*
X100900000Y-129800000D03*
%TO.N,/I2C2_SDA*%
X88140000Y-123700000D03*
%TO.N,/RESET*%
X109627127Y-124332916D03*
%TO.N,/SDMMC_CMD*%
X103300000Y-136800000D03*
X106900000Y-125600000D03*
%TO.N,/LORA_NSS*%
X102000000Y-98000000D03*
%TO.N,/LORA_RESET*%
X100000000Y-98000000D03*
%TO.N,/LORA_DIO5*%
X98000000Y-98000000D03*
%TO.N,/SPI1_SCK*%
X102800000Y-126700000D03*
%TO.N,/SPI1_MISO*%
X103200000Y-128300000D03*
%TO.N,/SPI1_MOSI*%
X102200000Y-128400000D03*
%TO.N,/SDMMC_DET*%
X100875000Y-139075000D03*
X95200000Y-130200000D03*
%TO.N,/SDMMC_D0*%
X106969668Y-135530332D03*
X102330332Y-135530332D03*
%TO.N,/SDMMC_D1*%
X101800000Y-134900000D03*
X108500000Y-134900000D03*
%TO.N,/LORA_DIO3*%
X108357488Y-135894266D03*
%TO.N,/LORA_DIO4*%
X109249997Y-135900000D03*
%TO.N,/LORA_DIO0*%
X110100000Y-135900000D03*
%TO.N,/LORA_DIO1*%
X114800000Y-132500000D03*
%TO.N,/SDMMC_D2*%
X116200000Y-132200000D03*
X102000000Y-137600000D03*
%TO.N,/SDMMC_D3*%
X102800000Y-137500000D03*
X115600000Y-131500000D03*
%TO.N,/LORA_DIO2*%
X116500000Y-130900000D03*
%TD*%
%TA.AperFunction,Conductor*%
%TO.N,GND*%
G36*
X124442926Y-70220185D02*
G01*
X124488681Y-70272989D01*
X124499887Y-70324497D01*
X124499890Y-70460209D01*
X124480207Y-70527249D01*
X124472838Y-70537523D01*
X124403116Y-70624953D01*
X124403114Y-70624956D01*
X124334626Y-70767173D01*
X124299500Y-70921068D01*
X124299500Y-73768994D01*
X124299501Y-73768998D01*
X124326419Y-73904322D01*
X124326422Y-73904332D01*
X124379222Y-74031804D01*
X124379229Y-74031817D01*
X124455886Y-74146541D01*
X124455889Y-74146545D01*
X124553454Y-74244110D01*
X124553458Y-74244113D01*
X124668182Y-74320770D01*
X124668195Y-74320777D01*
X124743609Y-74352014D01*
X124795672Y-74373579D01*
X124795676Y-74373579D01*
X124795677Y-74373580D01*
X124931003Y-74400499D01*
X124931006Y-74400499D01*
X124945676Y-74400499D01*
X124945684Y-74400500D01*
X124960118Y-74400500D01*
X125584136Y-74400500D01*
X125748731Y-74365514D01*
X125902455Y-74297072D01*
X126038589Y-74198164D01*
X126090036Y-74141025D01*
X126149522Y-74104379D01*
X126182185Y-74100000D01*
X127217815Y-74100000D01*
X127284854Y-74119685D01*
X127309961Y-74141024D01*
X127361411Y-74198164D01*
X127497543Y-74297070D01*
X127497546Y-74297072D01*
X127651264Y-74365512D01*
X127651269Y-74365514D01*
X127815864Y-74400500D01*
X128464545Y-74400500D01*
X128464549Y-74400499D01*
X128468996Y-74400499D01*
X128560040Y-74382388D01*
X128604328Y-74373579D01*
X128731811Y-74320774D01*
X128846542Y-74244113D01*
X128944113Y-74146542D01*
X128975211Y-74100000D01*
X129000000Y-74100000D01*
X129000000Y-74062901D01*
X129020774Y-74031811D01*
X129073579Y-73904328D01*
X129078021Y-73881995D01*
X134199500Y-73881995D01*
X134199500Y-74118004D01*
X134199501Y-74118020D01*
X134230306Y-74352010D01*
X134291394Y-74579993D01*
X134381714Y-74798045D01*
X134381719Y-74798056D01*
X134421242Y-74866510D01*
X134499727Y-75002450D01*
X134499728Y-75002451D01*
X134499730Y-75002454D01*
X134643406Y-75189697D01*
X134643412Y-75189704D01*
X134810295Y-75356587D01*
X134810301Y-75356592D01*
X134997550Y-75500273D01*
X135128918Y-75576118D01*
X135201943Y-75618280D01*
X135201948Y-75618282D01*
X135201951Y-75618284D01*
X135420007Y-75708606D01*
X135647986Y-75769693D01*
X135881989Y-75800500D01*
X135881996Y-75800500D01*
X136118004Y-75800500D01*
X136118011Y-75800500D01*
X136352014Y-75769693D01*
X136579993Y-75708606D01*
X136798049Y-75618284D01*
X137002450Y-75500273D01*
X137189699Y-75356592D01*
X137356592Y-75189699D01*
X137500273Y-75002450D01*
X137618284Y-74798049D01*
X137708606Y-74579993D01*
X137769693Y-74352014D01*
X137800500Y-74118011D01*
X137800500Y-73881989D01*
X137769693Y-73647986D01*
X137708606Y-73420007D01*
X137618284Y-73201951D01*
X137618282Y-73201948D01*
X137618280Y-73201943D01*
X137576118Y-73128918D01*
X137500273Y-72997550D01*
X137373449Y-72832269D01*
X137356593Y-72810302D01*
X137356587Y-72810295D01*
X137189704Y-72643412D01*
X137189697Y-72643406D01*
X137002454Y-72499730D01*
X137002453Y-72499729D01*
X137002450Y-72499727D01*
X136920957Y-72452677D01*
X136798056Y-72381719D01*
X136798045Y-72381714D01*
X136579993Y-72291394D01*
X136352010Y-72230306D01*
X136118020Y-72199501D01*
X136118017Y-72199500D01*
X136118011Y-72199500D01*
X135881989Y-72199500D01*
X135881983Y-72199500D01*
X135881979Y-72199501D01*
X135647989Y-72230306D01*
X135420006Y-72291394D01*
X135201954Y-72381714D01*
X135201943Y-72381719D01*
X134997545Y-72499730D01*
X134810302Y-72643406D01*
X134810295Y-72643412D01*
X134643412Y-72810295D01*
X134643406Y-72810302D01*
X134499730Y-72997545D01*
X134499727Y-72997549D01*
X134499727Y-72997550D01*
X134496303Y-73003480D01*
X134381719Y-73201943D01*
X134381714Y-73201954D01*
X134291394Y-73420006D01*
X134230306Y-73647989D01*
X134199501Y-73881979D01*
X134199500Y-73881995D01*
X129078021Y-73881995D01*
X129100499Y-73768994D01*
X129100499Y-73754105D01*
X129100500Y-73754100D01*
X129100500Y-70921073D01*
X129100499Y-70921068D01*
X129076494Y-70815897D01*
X129065374Y-70767176D01*
X129012280Y-70656925D01*
X129000000Y-70603123D01*
X129000000Y-70324500D01*
X129019685Y-70257461D01*
X129072489Y-70211706D01*
X129124000Y-70200500D01*
X136960118Y-70200500D01*
X136996519Y-70200500D01*
X137003472Y-70200695D01*
X137306500Y-70217713D01*
X137320301Y-70219268D01*
X137616088Y-70269524D01*
X137629627Y-70272614D01*
X137917930Y-70355673D01*
X137931049Y-70360263D01*
X138208229Y-70475075D01*
X138220743Y-70481101D01*
X138483344Y-70626236D01*
X138495099Y-70633623D01*
X138739779Y-70807233D01*
X138750639Y-70815892D01*
X138974352Y-71015814D01*
X138984185Y-71025647D01*
X139184102Y-71249354D01*
X139192771Y-71260226D01*
X139366370Y-71504890D01*
X139373769Y-71516664D01*
X139518894Y-71779249D01*
X139524927Y-71791777D01*
X139639735Y-72068949D01*
X139644328Y-72082074D01*
X139727382Y-72370361D01*
X139730476Y-72383918D01*
X139780730Y-72679690D01*
X139782287Y-72693508D01*
X139799305Y-72996527D01*
X139799500Y-73003480D01*
X139799500Y-80459838D01*
X139779815Y-80526877D01*
X139727011Y-80572632D01*
X139657853Y-80582576D01*
X139606610Y-80562940D01*
X139552160Y-80526558D01*
X139552142Y-80526548D01*
X139406471Y-80466210D01*
X139406459Y-80466207D01*
X139251815Y-80435446D01*
X139251812Y-80435446D01*
X139094128Y-80435446D01*
X139094125Y-80435446D01*
X138939480Y-80466207D01*
X138939468Y-80466210D01*
X138793797Y-80526548D01*
X138793784Y-80526555D01*
X138662681Y-80614156D01*
X138662677Y-80614159D01*
X138551183Y-80725653D01*
X138551180Y-80725657D01*
X138463579Y-80856760D01*
X138463572Y-80856773D01*
X138403234Y-81002444D01*
X138403231Y-81002456D01*
X138372470Y-81157099D01*
X138372470Y-81314792D01*
X138403231Y-81469435D01*
X138403234Y-81469447D01*
X138463572Y-81615118D01*
X138463579Y-81615131D01*
X138551180Y-81746234D01*
X138551183Y-81746238D01*
X138662677Y-81857732D01*
X138662681Y-81857735D01*
X138793784Y-81945336D01*
X138793797Y-81945343D01*
X138939468Y-82005681D01*
X138939473Y-82005683D01*
X139094123Y-82036445D01*
X139094126Y-82036446D01*
X139094128Y-82036446D01*
X139251814Y-82036446D01*
X139251815Y-82036445D01*
X139406467Y-82005683D01*
X139552149Y-81945340D01*
X139606609Y-81908950D01*
X139673286Y-81888073D01*
X139740666Y-81906557D01*
X139787357Y-81958536D01*
X139799500Y-82012053D01*
X139799500Y-82359838D01*
X139779815Y-82426877D01*
X139727011Y-82472632D01*
X139657853Y-82482576D01*
X139606610Y-82462940D01*
X139552160Y-82426558D01*
X139552142Y-82426548D01*
X139406471Y-82366210D01*
X139406459Y-82366207D01*
X139251815Y-82335446D01*
X139251812Y-82335446D01*
X139094128Y-82335446D01*
X139094125Y-82335446D01*
X138939480Y-82366207D01*
X138939468Y-82366210D01*
X138793797Y-82426548D01*
X138793784Y-82426555D01*
X138662681Y-82514156D01*
X138662677Y-82514159D01*
X138551183Y-82625653D01*
X138551180Y-82625657D01*
X138463579Y-82756760D01*
X138463572Y-82756773D01*
X138403234Y-82902444D01*
X138403231Y-82902456D01*
X138372470Y-83057099D01*
X138372470Y-83214792D01*
X138403231Y-83369435D01*
X138403234Y-83369447D01*
X138463572Y-83515118D01*
X138463579Y-83515131D01*
X138551180Y-83646234D01*
X138551183Y-83646238D01*
X138662677Y-83757732D01*
X138662681Y-83757735D01*
X138793784Y-83845336D01*
X138793797Y-83845343D01*
X138939468Y-83905681D01*
X138939473Y-83905683D01*
X139094123Y-83936445D01*
X139094126Y-83936446D01*
X139094128Y-83936446D01*
X139251814Y-83936446D01*
X139251815Y-83936445D01*
X139406467Y-83905683D01*
X139552149Y-83845340D01*
X139606609Y-83808950D01*
X139673286Y-83788073D01*
X139740666Y-83806557D01*
X139787357Y-83858536D01*
X139799500Y-83912053D01*
X139799500Y-166996519D01*
X139799305Y-167003472D01*
X139782287Y-167306491D01*
X139780730Y-167320309D01*
X139730476Y-167616081D01*
X139727382Y-167629638D01*
X139644328Y-167917925D01*
X139639735Y-167931050D01*
X139524927Y-168208222D01*
X139518894Y-168220750D01*
X139373769Y-168483335D01*
X139366370Y-168495109D01*
X139192771Y-168739773D01*
X139184102Y-168750645D01*
X138984185Y-168974352D01*
X138974352Y-168984185D01*
X138750645Y-169184102D01*
X138739773Y-169192771D01*
X138495109Y-169366370D01*
X138483335Y-169373769D01*
X138220750Y-169518894D01*
X138208222Y-169524927D01*
X137931050Y-169639735D01*
X137917925Y-169644328D01*
X137629638Y-169727382D01*
X137616081Y-169730476D01*
X137320309Y-169780730D01*
X137306491Y-169782287D01*
X137003472Y-169799305D01*
X136996519Y-169799500D01*
X116350633Y-169799500D01*
X116283594Y-169779815D01*
X116237839Y-169727011D01*
X116227895Y-169657853D01*
X116256920Y-169594297D01*
X116277748Y-169575181D01*
X116339792Y-169530104D01*
X116490104Y-169379792D01*
X116490106Y-169379788D01*
X116490109Y-169379786D01*
X116615048Y-169207820D01*
X116615047Y-169207820D01*
X116615051Y-169207816D01*
X116711557Y-169018412D01*
X116777246Y-168816243D01*
X116810500Y-168606287D01*
X116810500Y-168393713D01*
X116777246Y-168183757D01*
X116711557Y-167981588D01*
X116615051Y-167792184D01*
X116615049Y-167792181D01*
X116615048Y-167792179D01*
X116490109Y-167620213D01*
X116339786Y-167469890D01*
X116167820Y-167344951D01*
X115978414Y-167248444D01*
X115978413Y-167248443D01*
X115978412Y-167248443D01*
X115776243Y-167182754D01*
X115776241Y-167182753D01*
X115776240Y-167182753D01*
X115612636Y-167156841D01*
X115566287Y-167149500D01*
X115353713Y-167149500D01*
X115307364Y-167156841D01*
X115143760Y-167182753D01*
X114941585Y-167248444D01*
X114752179Y-167344951D01*
X114580213Y-167469890D01*
X114429890Y-167620213D01*
X114304949Y-167792182D01*
X114300484Y-167800946D01*
X114252509Y-167851742D01*
X114184688Y-167868536D01*
X114118553Y-167845998D01*
X114079516Y-167800946D01*
X114075050Y-167792182D01*
X113950109Y-167620213D01*
X113799786Y-167469890D01*
X113627820Y-167344951D01*
X113438414Y-167248444D01*
X113438413Y-167248443D01*
X113438412Y-167248443D01*
X113236243Y-167182754D01*
X113236241Y-167182753D01*
X113236240Y-167182753D01*
X113072636Y-167156841D01*
X113026287Y-167149500D01*
X112813713Y-167149500D01*
X112767364Y-167156841D01*
X112603760Y-167182753D01*
X112401585Y-167248444D01*
X112212179Y-167344951D01*
X112040213Y-167469890D01*
X111889890Y-167620213D01*
X111764949Y-167792182D01*
X111760484Y-167800946D01*
X111712509Y-167851742D01*
X111644688Y-167868536D01*
X111578553Y-167845998D01*
X111539516Y-167800946D01*
X111535050Y-167792182D01*
X111410109Y-167620213D01*
X111259786Y-167469890D01*
X111087820Y-167344951D01*
X110898414Y-167248444D01*
X110898413Y-167248443D01*
X110898412Y-167248443D01*
X110696243Y-167182754D01*
X110696241Y-167182753D01*
X110696240Y-167182753D01*
X110532636Y-167156841D01*
X110486287Y-167149500D01*
X110273713Y-167149500D01*
X110227364Y-167156841D01*
X110063760Y-167182753D01*
X109861585Y-167248444D01*
X109672179Y-167344951D01*
X109500213Y-167469890D01*
X109349890Y-167620213D01*
X109224949Y-167792182D01*
X109220484Y-167800946D01*
X109172509Y-167851742D01*
X109104688Y-167868536D01*
X109038553Y-167845998D01*
X108999516Y-167800946D01*
X108995050Y-167792182D01*
X108870109Y-167620213D01*
X108719786Y-167469890D01*
X108547820Y-167344951D01*
X108358414Y-167248444D01*
X108358413Y-167248443D01*
X108358412Y-167248443D01*
X108156243Y-167182754D01*
X108156241Y-167182753D01*
X108156240Y-167182753D01*
X107992636Y-167156841D01*
X107946287Y-167149500D01*
X107733713Y-167149500D01*
X107687364Y-167156841D01*
X107523760Y-167182753D01*
X107321585Y-167248444D01*
X107132179Y-167344951D01*
X106960213Y-167469890D01*
X106809890Y-167620213D01*
X106684949Y-167792182D01*
X106680484Y-167800946D01*
X106632509Y-167851742D01*
X106564688Y-167868536D01*
X106498553Y-167845998D01*
X106459516Y-167800946D01*
X106455050Y-167792182D01*
X106330109Y-167620213D01*
X106179786Y-167469890D01*
X106007820Y-167344951D01*
X105818414Y-167248444D01*
X105818413Y-167248443D01*
X105818412Y-167248443D01*
X105616243Y-167182754D01*
X105616241Y-167182753D01*
X105616240Y-167182753D01*
X105452636Y-167156841D01*
X105406287Y-167149500D01*
X105193713Y-167149500D01*
X105147364Y-167156841D01*
X104983760Y-167182753D01*
X104781585Y-167248444D01*
X104592179Y-167344951D01*
X104420213Y-167469890D01*
X104269890Y-167620213D01*
X104144949Y-167792182D01*
X104140484Y-167800946D01*
X104092509Y-167851742D01*
X104024688Y-167868536D01*
X103958553Y-167845998D01*
X103919516Y-167800946D01*
X103915050Y-167792182D01*
X103790109Y-167620213D01*
X103639786Y-167469890D01*
X103467820Y-167344951D01*
X103278414Y-167248444D01*
X103278413Y-167248443D01*
X103278412Y-167248443D01*
X103076243Y-167182754D01*
X103076241Y-167182753D01*
X103076240Y-167182753D01*
X102912636Y-167156841D01*
X102866287Y-167149500D01*
X102653713Y-167149500D01*
X102607364Y-167156841D01*
X102443760Y-167182753D01*
X102241585Y-167248444D01*
X102052179Y-167344951D01*
X101880213Y-167469890D01*
X101729890Y-167620213D01*
X101604951Y-167792179D01*
X101508444Y-167981585D01*
X101508443Y-167981587D01*
X101508443Y-167981588D01*
X101495587Y-168021155D01*
X101442753Y-168183760D01*
X101409500Y-168393713D01*
X101409500Y-168606286D01*
X101441669Y-168809397D01*
X101442754Y-168816243D01*
X101495814Y-168979545D01*
X101508444Y-169018414D01*
X101604951Y-169207820D01*
X101729890Y-169379786D01*
X101880207Y-169530103D01*
X101942252Y-169575181D01*
X101984918Y-169630511D01*
X101990897Y-169700124D01*
X101958292Y-169761920D01*
X101897453Y-169796277D01*
X101869367Y-169799500D01*
X83003481Y-169799500D01*
X82996528Y-169799305D01*
X82693508Y-169782287D01*
X82679690Y-169780730D01*
X82383918Y-169730476D01*
X82370361Y-169727382D01*
X82082074Y-169644328D01*
X82068949Y-169639735D01*
X81791777Y-169524927D01*
X81779249Y-169518894D01*
X81516660Y-169373766D01*
X81504895Y-169366373D01*
X81260222Y-169192768D01*
X81249354Y-169184102D01*
X81025647Y-168984185D01*
X81015814Y-168974352D01*
X80922325Y-168869738D01*
X80815892Y-168750639D01*
X80807233Y-168739779D01*
X80633623Y-168495099D01*
X80626236Y-168483344D01*
X80481101Y-168220743D01*
X80475075Y-168208229D01*
X80360263Y-167931049D01*
X80355671Y-167917925D01*
X80272614Y-167629627D01*
X80269523Y-167616081D01*
X80219268Y-167320301D01*
X80217713Y-167306500D01*
X80200695Y-167003472D01*
X80200500Y-166996519D01*
X80200500Y-165881995D01*
X82199500Y-165881995D01*
X82199500Y-166118004D01*
X82199501Y-166118020D01*
X82230306Y-166352010D01*
X82291394Y-166579993D01*
X82381714Y-166798045D01*
X82381719Y-166798056D01*
X82440587Y-166900016D01*
X82499727Y-167002450D01*
X82499729Y-167002453D01*
X82499730Y-167002454D01*
X82643406Y-167189697D01*
X82643412Y-167189704D01*
X82810295Y-167356587D01*
X82810301Y-167356592D01*
X82997550Y-167500273D01*
X83128918Y-167576118D01*
X83201943Y-167618280D01*
X83201948Y-167618282D01*
X83201951Y-167618284D01*
X83420007Y-167708606D01*
X83647986Y-167769693D01*
X83881989Y-167800500D01*
X83881996Y-167800500D01*
X84118004Y-167800500D01*
X84118011Y-167800500D01*
X84352014Y-167769693D01*
X84579993Y-167708606D01*
X84798049Y-167618284D01*
X85002450Y-167500273D01*
X85189699Y-167356592D01*
X85356592Y-167189699D01*
X85500273Y-167002450D01*
X85618284Y-166798049D01*
X85708606Y-166579993D01*
X85769693Y-166352014D01*
X85800500Y-166118011D01*
X85800500Y-165881989D01*
X85769693Y-165647986D01*
X85708606Y-165420007D01*
X85698769Y-165396258D01*
X85677242Y-165344286D01*
X85658891Y-165299983D01*
X92249500Y-165299983D01*
X92249500Y-166900001D01*
X92249501Y-166900018D01*
X92260000Y-167002796D01*
X92260001Y-167002799D01*
X92308614Y-167149500D01*
X92315186Y-167169334D01*
X92407288Y-167318656D01*
X92531344Y-167442712D01*
X92680666Y-167534814D01*
X92847203Y-167589999D01*
X92949991Y-167600500D01*
X94250008Y-167600499D01*
X94346618Y-167590630D01*
X94415310Y-167603400D01*
X94466194Y-167651280D01*
X94483115Y-167719070D01*
X94473780Y-167761440D01*
X94430263Y-167866503D01*
X94430262Y-167866506D01*
X94430262Y-167866507D01*
X94430261Y-167866510D01*
X94399500Y-168021153D01*
X94399500Y-168178846D01*
X94430261Y-168333489D01*
X94430264Y-168333501D01*
X94490602Y-168479172D01*
X94490609Y-168479185D01*
X94578210Y-168610288D01*
X94578213Y-168610292D01*
X94689707Y-168721786D01*
X94689711Y-168721789D01*
X94820814Y-168809390D01*
X94820827Y-168809397D01*
X94966498Y-168869735D01*
X94966503Y-168869737D01*
X95121153Y-168900499D01*
X95121156Y-168900500D01*
X95121158Y-168900500D01*
X95278844Y-168900500D01*
X95278845Y-168900499D01*
X95433497Y-168869737D01*
X95579179Y-168809394D01*
X95710289Y-168721789D01*
X95821789Y-168610289D01*
X95909394Y-168479179D01*
X95969737Y-168333497D01*
X96000500Y-168178842D01*
X96000500Y-168021158D01*
X96000500Y-168021155D01*
X96000499Y-168021153D01*
X95981296Y-167924616D01*
X95969737Y-167866503D01*
X95942397Y-167800498D01*
X95909397Y-167720827D01*
X95909390Y-167720814D01*
X95821789Y-167589711D01*
X95821786Y-167589707D01*
X95710292Y-167478213D01*
X95710288Y-167478210D01*
X95579185Y-167390609D01*
X95579172Y-167390602D01*
X95433501Y-167330264D01*
X95433489Y-167330261D01*
X95278845Y-167299500D01*
X95278842Y-167299500D01*
X95121158Y-167299500D01*
X95030849Y-167317463D01*
X94961258Y-167311234D01*
X94906081Y-167268371D01*
X94882837Y-167202481D01*
X94888952Y-167156844D01*
X94939999Y-167002797D01*
X94950500Y-166900009D01*
X94950499Y-165881995D01*
X134199500Y-165881995D01*
X134199500Y-166118004D01*
X134199501Y-166118020D01*
X134230306Y-166352010D01*
X134291394Y-166579993D01*
X134381714Y-166798045D01*
X134381719Y-166798056D01*
X134440587Y-166900016D01*
X134499727Y-167002450D01*
X134499729Y-167002453D01*
X134499730Y-167002454D01*
X134643406Y-167189697D01*
X134643412Y-167189704D01*
X134810295Y-167356587D01*
X134810301Y-167356592D01*
X134997550Y-167500273D01*
X135128918Y-167576118D01*
X135201943Y-167618280D01*
X135201948Y-167618282D01*
X135201951Y-167618284D01*
X135420007Y-167708606D01*
X135647986Y-167769693D01*
X135881989Y-167800500D01*
X135881996Y-167800500D01*
X136118004Y-167800500D01*
X136118011Y-167800500D01*
X136352014Y-167769693D01*
X136579993Y-167708606D01*
X136798049Y-167618284D01*
X137002450Y-167500273D01*
X137189699Y-167356592D01*
X137356592Y-167189699D01*
X137500273Y-167002450D01*
X137618284Y-166798049D01*
X137708606Y-166579993D01*
X137769693Y-166352014D01*
X137800500Y-166118011D01*
X137800500Y-165881989D01*
X137769693Y-165647986D01*
X137708606Y-165420007D01*
X137618284Y-165201951D01*
X137618282Y-165201948D01*
X137618280Y-165201943D01*
X137576118Y-165128918D01*
X137500273Y-164997550D01*
X137356592Y-164810301D01*
X137356587Y-164810295D01*
X137189704Y-164643412D01*
X137189697Y-164643406D01*
X137002454Y-164499730D01*
X137002453Y-164499729D01*
X137002450Y-164499727D01*
X136920957Y-164452677D01*
X136798056Y-164381719D01*
X136798045Y-164381714D01*
X136579993Y-164291394D01*
X136352010Y-164230306D01*
X136118020Y-164199501D01*
X136118017Y-164199500D01*
X136118011Y-164199500D01*
X135881989Y-164199500D01*
X135881983Y-164199500D01*
X135881979Y-164199501D01*
X135647989Y-164230306D01*
X135420006Y-164291394D01*
X135201954Y-164381714D01*
X135201943Y-164381719D01*
X134997545Y-164499730D01*
X134810302Y-164643406D01*
X134810295Y-164643412D01*
X134643412Y-164810295D01*
X134643406Y-164810302D01*
X134499730Y-164997545D01*
X134381719Y-165201943D01*
X134381714Y-165201954D01*
X134291394Y-165420006D01*
X134230306Y-165647989D01*
X134199501Y-165881979D01*
X134199500Y-165881995D01*
X94950499Y-165881995D01*
X94950499Y-165299992D01*
X94939999Y-165197203D01*
X94884814Y-165030666D01*
X94792712Y-164881344D01*
X94668656Y-164757288D01*
X94519334Y-164665186D01*
X94352797Y-164610001D01*
X94352795Y-164610000D01*
X94250010Y-164599500D01*
X92949998Y-164599500D01*
X92949981Y-164599501D01*
X92847203Y-164610000D01*
X92847200Y-164610001D01*
X92680668Y-164665185D01*
X92680663Y-164665187D01*
X92531342Y-164757289D01*
X92407289Y-164881342D01*
X92315187Y-165030663D01*
X92315186Y-165030666D01*
X92260001Y-165197203D01*
X92260001Y-165197204D01*
X92260000Y-165197204D01*
X92249500Y-165299983D01*
X85658891Y-165299983D01*
X85618285Y-165201954D01*
X85618280Y-165201943D01*
X85576118Y-165128918D01*
X85500273Y-164997550D01*
X85356592Y-164810301D01*
X85356587Y-164810295D01*
X85189704Y-164643412D01*
X85189697Y-164643406D01*
X85002454Y-164499730D01*
X85002453Y-164499729D01*
X85002450Y-164499727D01*
X84920957Y-164452677D01*
X84798056Y-164381719D01*
X84798045Y-164381714D01*
X84579993Y-164291394D01*
X84352010Y-164230306D01*
X84118020Y-164199501D01*
X84118017Y-164199500D01*
X84118011Y-164199500D01*
X83881989Y-164199500D01*
X83881983Y-164199500D01*
X83881979Y-164199501D01*
X83647989Y-164230306D01*
X83420006Y-164291394D01*
X83201954Y-164381714D01*
X83201943Y-164381719D01*
X82997545Y-164499730D01*
X82810302Y-164643406D01*
X82810295Y-164643412D01*
X82643412Y-164810295D01*
X82643406Y-164810302D01*
X82499730Y-164997545D01*
X82381719Y-165201943D01*
X82381714Y-165201954D01*
X82291394Y-165420006D01*
X82230306Y-165647989D01*
X82199501Y-165881979D01*
X82199500Y-165881995D01*
X80200500Y-165881995D01*
X80200500Y-163300817D01*
X122084500Y-163300817D01*
X122084500Y-163439182D01*
X122120312Y-163572835D01*
X122120313Y-163572838D01*
X122189492Y-163692661D01*
X122189494Y-163692664D01*
X122189495Y-163692665D01*
X122287335Y-163790505D01*
X122407164Y-163859688D01*
X122540817Y-163895500D01*
X122540819Y-163895500D01*
X122679181Y-163895500D01*
X122679183Y-163895500D01*
X122812836Y-163859688D01*
X122932665Y-163790505D01*
X123030505Y-163692665D01*
X123099688Y-163572836D01*
X123135500Y-163439183D01*
X123135500Y-163300817D01*
X127864500Y-163300817D01*
X127864500Y-163439182D01*
X127900312Y-163572835D01*
X127900313Y-163572838D01*
X127969492Y-163692661D01*
X127969494Y-163692664D01*
X127969495Y-163692665D01*
X128067335Y-163790505D01*
X128187164Y-163859688D01*
X128320817Y-163895500D01*
X128320819Y-163895500D01*
X128459181Y-163895500D01*
X128459183Y-163895500D01*
X128592836Y-163859688D01*
X128712665Y-163790505D01*
X128810505Y-163692665D01*
X128879688Y-163572836D01*
X128915500Y-163439183D01*
X128915500Y-163300817D01*
X128879688Y-163167164D01*
X128810505Y-163047335D01*
X128712665Y-162949495D01*
X128712664Y-162949494D01*
X128712661Y-162949492D01*
X128592838Y-162880313D01*
X128592837Y-162880312D01*
X128592836Y-162880312D01*
X128459183Y-162844500D01*
X128320817Y-162844500D01*
X128187164Y-162880312D01*
X128187161Y-162880313D01*
X128067338Y-162949492D01*
X128067333Y-162949496D01*
X127969496Y-163047333D01*
X127969492Y-163047338D01*
X127900313Y-163167161D01*
X127900312Y-163167164D01*
X127864500Y-163300817D01*
X123135500Y-163300817D01*
X123099688Y-163167164D01*
X123030505Y-163047335D01*
X122932665Y-162949495D01*
X122932664Y-162949494D01*
X122932661Y-162949492D01*
X122812838Y-162880313D01*
X122812837Y-162880312D01*
X122812836Y-162880312D01*
X122679183Y-162844500D01*
X122540817Y-162844500D01*
X122407164Y-162880312D01*
X122407161Y-162880313D01*
X122287338Y-162949492D01*
X122287333Y-162949496D01*
X122189496Y-163047333D01*
X122189492Y-163047338D01*
X122120313Y-163167161D01*
X122120312Y-163167164D01*
X122084500Y-163300817D01*
X80200500Y-163300817D01*
X80200500Y-160621153D01*
X103499500Y-160621153D01*
X103499500Y-160778846D01*
X103530261Y-160933489D01*
X103530264Y-160933501D01*
X103590602Y-161079172D01*
X103590609Y-161079185D01*
X103678210Y-161210288D01*
X103678213Y-161210292D01*
X103789707Y-161321786D01*
X103789711Y-161321789D01*
X103920814Y-161409390D01*
X103920827Y-161409397D01*
X104066498Y-161469735D01*
X104066503Y-161469737D01*
X104221153Y-161500499D01*
X104221156Y-161500500D01*
X104221158Y-161500500D01*
X104378844Y-161500500D01*
X104378845Y-161500499D01*
X104533497Y-161469737D01*
X104679179Y-161409394D01*
X104810289Y-161321789D01*
X104921789Y-161210289D01*
X105009394Y-161079179D01*
X105069737Y-160933497D01*
X105100500Y-160778842D01*
X105100500Y-160621158D01*
X105100500Y-160621155D01*
X105100499Y-160621153D01*
X109249500Y-160621153D01*
X109249500Y-160778846D01*
X109280261Y-160933489D01*
X109280264Y-160933501D01*
X109340602Y-161079172D01*
X109340609Y-161079185D01*
X109428210Y-161210288D01*
X109428213Y-161210292D01*
X109539707Y-161321786D01*
X109539711Y-161321789D01*
X109670814Y-161409390D01*
X109670827Y-161409397D01*
X109816498Y-161469735D01*
X109816503Y-161469737D01*
X109971153Y-161500499D01*
X109971156Y-161500500D01*
X109971158Y-161500500D01*
X110128844Y-161500500D01*
X110128845Y-161500499D01*
X110283497Y-161469737D01*
X110429179Y-161409394D01*
X110560289Y-161321789D01*
X110671789Y-161210289D01*
X110759394Y-161079179D01*
X110819737Y-160933497D01*
X110850500Y-160778842D01*
X110850500Y-160621158D01*
X110850500Y-160621155D01*
X110850499Y-160621153D01*
X110819738Y-160466510D01*
X110819737Y-160466503D01*
X110759794Y-160321786D01*
X110759397Y-160320827D01*
X110759390Y-160320814D01*
X110671789Y-160189711D01*
X110671786Y-160189707D01*
X110560292Y-160078213D01*
X110560288Y-160078210D01*
X110429185Y-159990609D01*
X110429172Y-159990602D01*
X110283501Y-159930264D01*
X110283489Y-159930261D01*
X110128845Y-159899500D01*
X110128842Y-159899500D01*
X109971158Y-159899500D01*
X109971155Y-159899500D01*
X109816510Y-159930261D01*
X109816498Y-159930264D01*
X109670827Y-159990602D01*
X109670814Y-159990609D01*
X109539711Y-160078210D01*
X109539707Y-160078213D01*
X109428213Y-160189707D01*
X109428210Y-160189711D01*
X109340609Y-160320814D01*
X109340602Y-160320827D01*
X109280264Y-160466498D01*
X109280261Y-160466510D01*
X109249500Y-160621153D01*
X105100499Y-160621153D01*
X105069738Y-160466510D01*
X105069737Y-160466503D01*
X105009794Y-160321786D01*
X105009397Y-160320827D01*
X105009390Y-160320814D01*
X104921789Y-160189711D01*
X104921786Y-160189707D01*
X104810292Y-160078213D01*
X104810288Y-160078210D01*
X104679185Y-159990609D01*
X104679172Y-159990602D01*
X104533501Y-159930264D01*
X104533489Y-159930261D01*
X104378845Y-159899500D01*
X104378842Y-159899500D01*
X104221158Y-159899500D01*
X104221155Y-159899500D01*
X104066510Y-159930261D01*
X104066498Y-159930264D01*
X103920827Y-159990602D01*
X103920814Y-159990609D01*
X103789711Y-160078210D01*
X103789707Y-160078213D01*
X103678213Y-160189707D01*
X103678210Y-160189711D01*
X103590609Y-160320814D01*
X103590602Y-160320827D01*
X103530264Y-160466498D01*
X103530261Y-160466510D01*
X103499500Y-160621153D01*
X80200500Y-160621153D01*
X80200500Y-159621153D01*
X95299500Y-159621153D01*
X95299500Y-159778846D01*
X95330261Y-159933489D01*
X95330264Y-159933501D01*
X95390602Y-160079172D01*
X95390609Y-160079185D01*
X95478210Y-160210288D01*
X95478213Y-160210292D01*
X95589707Y-160321786D01*
X95589711Y-160321789D01*
X95720814Y-160409390D01*
X95720827Y-160409397D01*
X95858683Y-160466498D01*
X95866503Y-160469737D01*
X96021153Y-160500499D01*
X96021156Y-160500500D01*
X96021158Y-160500500D01*
X96178844Y-160500500D01*
X96178845Y-160500499D01*
X96189179Y-160498443D01*
X96214287Y-160493450D01*
X96214292Y-160493449D01*
X96299800Y-160476439D01*
X96333497Y-160469737D01*
X96479179Y-160409394D01*
X96610289Y-160321789D01*
X96721789Y-160210289D01*
X96809394Y-160079179D01*
X96869737Y-159933497D01*
X96900500Y-159778842D01*
X96900500Y-159621158D01*
X96900500Y-159621155D01*
X96900499Y-159621153D01*
X96869738Y-159466510D01*
X96869737Y-159466503D01*
X96869735Y-159466498D01*
X96809397Y-159320827D01*
X96809390Y-159320814D01*
X96721789Y-159189711D01*
X96721786Y-159189707D01*
X96610292Y-159078213D01*
X96610288Y-159078210D01*
X96479185Y-158990609D01*
X96479172Y-158990602D01*
X96333501Y-158930264D01*
X96333489Y-158930261D01*
X96178845Y-158899500D01*
X96178842Y-158899500D01*
X96021158Y-158899500D01*
X96021155Y-158899500D01*
X95866510Y-158930261D01*
X95866498Y-158930264D01*
X95720827Y-158990602D01*
X95720814Y-158990609D01*
X95589711Y-159078210D01*
X95589707Y-159078213D01*
X95478213Y-159189707D01*
X95478210Y-159189711D01*
X95390609Y-159320814D01*
X95390602Y-159320827D01*
X95330264Y-159466498D01*
X95330261Y-159466510D01*
X95299500Y-159621153D01*
X80200500Y-159621153D01*
X80200500Y-154721153D01*
X99299500Y-154721153D01*
X99299500Y-154878846D01*
X99330261Y-155033489D01*
X99330264Y-155033501D01*
X99390602Y-155179172D01*
X99390609Y-155179185D01*
X99478210Y-155310288D01*
X99478213Y-155310292D01*
X99589707Y-155421786D01*
X99589711Y-155421789D01*
X99720814Y-155509390D01*
X99720827Y-155509397D01*
X99866498Y-155569735D01*
X99866503Y-155569737D01*
X100021153Y-155600499D01*
X100021156Y-155600500D01*
X100021158Y-155600500D01*
X100178844Y-155600500D01*
X100178845Y-155600499D01*
X100333497Y-155569737D01*
X100479179Y-155509394D01*
X100610289Y-155421789D01*
X100721789Y-155310289D01*
X100809394Y-155179179D01*
X100869737Y-155033497D01*
X100900500Y-154878842D01*
X100900500Y-154821153D01*
X107199500Y-154821153D01*
X107199500Y-154978846D01*
X107230261Y-155133489D01*
X107230264Y-155133501D01*
X107290602Y-155279172D01*
X107290609Y-155279185D01*
X107378210Y-155410288D01*
X107378213Y-155410292D01*
X107489707Y-155521786D01*
X107489711Y-155521789D01*
X107620814Y-155609390D01*
X107620827Y-155609397D01*
X107766498Y-155669735D01*
X107766503Y-155669737D01*
X107921153Y-155700499D01*
X107921156Y-155700500D01*
X107921158Y-155700500D01*
X108078844Y-155700500D01*
X108078845Y-155700499D01*
X108233497Y-155669737D01*
X108379179Y-155609394D01*
X108510289Y-155521789D01*
X108621789Y-155410289D01*
X108709394Y-155279179D01*
X108769737Y-155133497D01*
X108800500Y-154978842D01*
X108800500Y-154821158D01*
X108800500Y-154821155D01*
X108800499Y-154821153D01*
X108769737Y-154666503D01*
X108728314Y-154566498D01*
X108709397Y-154520827D01*
X108709390Y-154520814D01*
X108621789Y-154389711D01*
X108621786Y-154389707D01*
X108510292Y-154278213D01*
X108510288Y-154278210D01*
X108379185Y-154190609D01*
X108379172Y-154190602D01*
X108233501Y-154130264D01*
X108233489Y-154130261D01*
X108078845Y-154099500D01*
X108078842Y-154099500D01*
X107921158Y-154099500D01*
X107921155Y-154099500D01*
X107766510Y-154130261D01*
X107766498Y-154130264D01*
X107620827Y-154190602D01*
X107620814Y-154190609D01*
X107489711Y-154278210D01*
X107489707Y-154278213D01*
X107378213Y-154389707D01*
X107378210Y-154389711D01*
X107290609Y-154520814D01*
X107290602Y-154520827D01*
X107230264Y-154666498D01*
X107230261Y-154666510D01*
X107199500Y-154821153D01*
X100900500Y-154821153D01*
X100900500Y-154721158D01*
X100900500Y-154721155D01*
X100900499Y-154721153D01*
X100869738Y-154566510D01*
X100869737Y-154566503D01*
X100850812Y-154520814D01*
X100809397Y-154420827D01*
X100809390Y-154420814D01*
X100721789Y-154289711D01*
X100721786Y-154289707D01*
X100610292Y-154178213D01*
X100610288Y-154178210D01*
X100479185Y-154090609D01*
X100479172Y-154090602D01*
X100333501Y-154030264D01*
X100333489Y-154030261D01*
X100178845Y-153999500D01*
X100178842Y-153999500D01*
X100021158Y-153999500D01*
X100021155Y-153999500D01*
X99866510Y-154030261D01*
X99866498Y-154030264D01*
X99720827Y-154090602D01*
X99720814Y-154090609D01*
X99589711Y-154178210D01*
X99589707Y-154178213D01*
X99478213Y-154289707D01*
X99478210Y-154289711D01*
X99390609Y-154420814D01*
X99390602Y-154420827D01*
X99330264Y-154566498D01*
X99330261Y-154566510D01*
X99299500Y-154721153D01*
X80200500Y-154721153D01*
X80200500Y-150221153D01*
X94399500Y-150221153D01*
X94399500Y-150378846D01*
X94430261Y-150533489D01*
X94430264Y-150533501D01*
X94490602Y-150679172D01*
X94490609Y-150679185D01*
X94578210Y-150810288D01*
X94578213Y-150810292D01*
X94689707Y-150921786D01*
X94689711Y-150921789D01*
X94820814Y-151009390D01*
X94820827Y-151009397D01*
X94966498Y-151069735D01*
X94966503Y-151069737D01*
X95121153Y-151100499D01*
X95121156Y-151100500D01*
X95121158Y-151100500D01*
X95278844Y-151100500D01*
X95278845Y-151100499D01*
X95433497Y-151069737D01*
X95502549Y-151041134D01*
X95572016Y-151033666D01*
X95597447Y-151041133D01*
X95666503Y-151069737D01*
X95821153Y-151100499D01*
X95821156Y-151100500D01*
X95821158Y-151100500D01*
X95978844Y-151100500D01*
X95978845Y-151100499D01*
X96133497Y-151069737D01*
X96202549Y-151041134D01*
X96272016Y-151033666D01*
X96297447Y-151041133D01*
X96366503Y-151069737D01*
X96521153Y-151100499D01*
X96521156Y-151100500D01*
X96521158Y-151100500D01*
X96678844Y-151100500D01*
X96678845Y-151100499D01*
X96833497Y-151069737D01*
X96979179Y-151009394D01*
X97110289Y-150921789D01*
X97221789Y-150810289D01*
X97309394Y-150679179D01*
X97369737Y-150533497D01*
X97400500Y-150378842D01*
X97400500Y-150221158D01*
X97400500Y-150221155D01*
X97385401Y-150145252D01*
X97380607Y-150121153D01*
X102299500Y-150121153D01*
X102299500Y-150278846D01*
X102330261Y-150433489D01*
X102330264Y-150433501D01*
X102390602Y-150579172D01*
X102390609Y-150579185D01*
X102478210Y-150710288D01*
X102478213Y-150710292D01*
X102589707Y-150821786D01*
X102589711Y-150821789D01*
X102720814Y-150909390D01*
X102720827Y-150909397D01*
X102866498Y-150969735D01*
X102866503Y-150969737D01*
X103021153Y-151000499D01*
X103021156Y-151000500D01*
X103021158Y-151000500D01*
X103178844Y-151000500D01*
X103178845Y-151000499D01*
X103333497Y-150969737D01*
X103402549Y-150941134D01*
X103472016Y-150933666D01*
X103497447Y-150941133D01*
X103566503Y-150969737D01*
X103721153Y-151000499D01*
X103721156Y-151000500D01*
X103721158Y-151000500D01*
X103878844Y-151000500D01*
X103878845Y-151000499D01*
X104033497Y-150969737D01*
X104102549Y-150941134D01*
X104172016Y-150933666D01*
X104197447Y-150941133D01*
X104266503Y-150969737D01*
X104421153Y-151000499D01*
X104421156Y-151000500D01*
X104421158Y-151000500D01*
X104578844Y-151000500D01*
X104578845Y-151000499D01*
X104733497Y-150969737D01*
X104879179Y-150909394D01*
X105010289Y-150821789D01*
X105121789Y-150710289D01*
X105209394Y-150579179D01*
X105269737Y-150433497D01*
X105300500Y-150278842D01*
X105300500Y-150121158D01*
X105300500Y-150121155D01*
X105300499Y-150121153D01*
X105289627Y-150066498D01*
X105269737Y-149966503D01*
X105241134Y-149897450D01*
X105233666Y-149827984D01*
X105241133Y-149802552D01*
X105269737Y-149733497D01*
X105300500Y-149578842D01*
X105300500Y-149421158D01*
X105300500Y-149421155D01*
X105300499Y-149421153D01*
X105285714Y-149346824D01*
X105269737Y-149266503D01*
X105233569Y-149179185D01*
X105209397Y-149120827D01*
X105209390Y-149120814D01*
X105121789Y-148989711D01*
X105121786Y-148989707D01*
X105010292Y-148878213D01*
X105010288Y-148878210D01*
X104920429Y-148818168D01*
X104879185Y-148790609D01*
X104879172Y-148790602D01*
X104733501Y-148730264D01*
X104733489Y-148730261D01*
X104687701Y-148721153D01*
X107799500Y-148721153D01*
X107799500Y-148878846D01*
X107830261Y-149033489D01*
X107830264Y-149033501D01*
X107890602Y-149179172D01*
X107890609Y-149179185D01*
X107978210Y-149310288D01*
X107978213Y-149310292D01*
X108089707Y-149421786D01*
X108089711Y-149421789D01*
X108220814Y-149509390D01*
X108220827Y-149509397D01*
X108340255Y-149558865D01*
X108366503Y-149569737D01*
X108521153Y-149600499D01*
X108521156Y-149600500D01*
X108521158Y-149600500D01*
X108678844Y-149600500D01*
X108678845Y-149600499D01*
X108833497Y-149569737D01*
X108979179Y-149509394D01*
X109110289Y-149421789D01*
X109221789Y-149310289D01*
X109309394Y-149179179D01*
X109369737Y-149033497D01*
X109400500Y-148878842D01*
X109400500Y-148721158D01*
X109400500Y-148721155D01*
X109400499Y-148721153D01*
X109369738Y-148566510D01*
X109369737Y-148566503D01*
X109369735Y-148566498D01*
X109309397Y-148420827D01*
X109309390Y-148420814D01*
X109221789Y-148289711D01*
X109221786Y-148289707D01*
X109110292Y-148178213D01*
X109110288Y-148178210D01*
X108979185Y-148090609D01*
X108979172Y-148090602D01*
X108833501Y-148030264D01*
X108833489Y-148030261D01*
X108678845Y-147999500D01*
X108678842Y-147999500D01*
X108521158Y-147999500D01*
X108521155Y-147999500D01*
X108366510Y-148030261D01*
X108366498Y-148030264D01*
X108220827Y-148090602D01*
X108220814Y-148090609D01*
X108089711Y-148178210D01*
X108089707Y-148178213D01*
X107978213Y-148289707D01*
X107978210Y-148289711D01*
X107890609Y-148420814D01*
X107890602Y-148420827D01*
X107830264Y-148566498D01*
X107830261Y-148566510D01*
X107799500Y-148721153D01*
X104687701Y-148721153D01*
X104578845Y-148699500D01*
X104578842Y-148699500D01*
X104421158Y-148699500D01*
X104421155Y-148699500D01*
X104266510Y-148730261D01*
X104266498Y-148730264D01*
X104120827Y-148790602D01*
X104120814Y-148790609D01*
X103989711Y-148878210D01*
X103989707Y-148878213D01*
X103878213Y-148989707D01*
X103878210Y-148989711D01*
X103790609Y-149120814D01*
X103790602Y-149120827D01*
X103730264Y-149266498D01*
X103730262Y-149266505D01*
X103719256Y-149321833D01*
X103713089Y-149333621D01*
X103711467Y-149346824D01*
X103697210Y-149363976D01*
X103686870Y-149383743D01*
X103674315Y-149391521D01*
X103666806Y-149400556D01*
X103645299Y-149409498D01*
X103635009Y-149415874D01*
X103628504Y-149417929D01*
X103566503Y-149430263D01*
X103492487Y-149460920D01*
X103487370Y-149462538D01*
X103457598Y-149463149D01*
X103427982Y-149466333D01*
X103419782Y-149463925D01*
X103417515Y-149463972D01*
X103415291Y-149462606D01*
X103402552Y-149458865D01*
X103333497Y-149430263D01*
X103333493Y-149430262D01*
X103333488Y-149430260D01*
X103178845Y-149399500D01*
X103178842Y-149399500D01*
X103021158Y-149399500D01*
X103021155Y-149399500D01*
X102866510Y-149430261D01*
X102866498Y-149430264D01*
X102720827Y-149490602D01*
X102720814Y-149490609D01*
X102589711Y-149578210D01*
X102589707Y-149578213D01*
X102478213Y-149689707D01*
X102478210Y-149689711D01*
X102390609Y-149820814D01*
X102390602Y-149820827D01*
X102330264Y-149966498D01*
X102330261Y-149966510D01*
X102299500Y-150121153D01*
X97380607Y-150121153D01*
X97369737Y-150066503D01*
X97338810Y-149991839D01*
X97337047Y-149986033D01*
X97336777Y-149956927D01*
X97333666Y-149927984D01*
X97336423Y-149918593D01*
X97336401Y-149916167D01*
X97337777Y-149913980D01*
X97341133Y-149902552D01*
X97369737Y-149833497D01*
X97400500Y-149678842D01*
X97400500Y-149521158D01*
X97400500Y-149521155D01*
X97400499Y-149521153D01*
X97393058Y-149483743D01*
X97369737Y-149366503D01*
X97328314Y-149266498D01*
X97309397Y-149220827D01*
X97309390Y-149220814D01*
X97221789Y-149089711D01*
X97221786Y-149089707D01*
X97110292Y-148978213D01*
X97110288Y-148978210D01*
X96979185Y-148890609D01*
X96979172Y-148890602D01*
X96833501Y-148830264D01*
X96833489Y-148830261D01*
X96678845Y-148799500D01*
X96678842Y-148799500D01*
X96521158Y-148799500D01*
X96521155Y-148799500D01*
X96366510Y-148830261D01*
X96366498Y-148830264D01*
X96220827Y-148890602D01*
X96220814Y-148890609D01*
X96089711Y-148978210D01*
X96089707Y-148978213D01*
X95978213Y-149089707D01*
X95978210Y-149089711D01*
X95890609Y-149220814D01*
X95890602Y-149220827D01*
X95830264Y-149366498D01*
X95830262Y-149366505D01*
X95819256Y-149421833D01*
X95813089Y-149433621D01*
X95811467Y-149446824D01*
X95797210Y-149463976D01*
X95786870Y-149483743D01*
X95774315Y-149491521D01*
X95766806Y-149500556D01*
X95745299Y-149509498D01*
X95735009Y-149515874D01*
X95728504Y-149517929D01*
X95666503Y-149530263D01*
X95592487Y-149560920D01*
X95587370Y-149562538D01*
X95557598Y-149563149D01*
X95527982Y-149566333D01*
X95519782Y-149563925D01*
X95517515Y-149563972D01*
X95515291Y-149562606D01*
X95502552Y-149558865D01*
X95433497Y-149530263D01*
X95433493Y-149530262D01*
X95433488Y-149530260D01*
X95278845Y-149499500D01*
X95278842Y-149499500D01*
X95121158Y-149499500D01*
X95121155Y-149499500D01*
X94966510Y-149530261D01*
X94966498Y-149530264D01*
X94820827Y-149590602D01*
X94820814Y-149590609D01*
X94689711Y-149678210D01*
X94689707Y-149678213D01*
X94578213Y-149789707D01*
X94578210Y-149789711D01*
X94490609Y-149920814D01*
X94490602Y-149920827D01*
X94430264Y-150066498D01*
X94430261Y-150066510D01*
X94399500Y-150221153D01*
X80200500Y-150221153D01*
X80200500Y-145321153D01*
X93699500Y-145321153D01*
X93699500Y-145478846D01*
X93730260Y-145633488D01*
X93730262Y-145633493D01*
X93730263Y-145633497D01*
X93730265Y-145633501D01*
X93758865Y-145702549D01*
X93766333Y-145772018D01*
X93758865Y-145797451D01*
X93730262Y-145866506D01*
X93730260Y-145866511D01*
X93699500Y-146021153D01*
X93699500Y-146178846D01*
X93730260Y-146333488D01*
X93730262Y-146333493D01*
X93730263Y-146333497D01*
X93730264Y-146333499D01*
X93758865Y-146402549D01*
X93766333Y-146472018D01*
X93758865Y-146497451D01*
X93730262Y-146566506D01*
X93730260Y-146566511D01*
X93699500Y-146721153D01*
X93699500Y-146878846D01*
X93730260Y-147033488D01*
X93730262Y-147033493D01*
X93730263Y-147033497D01*
X93758865Y-147102549D01*
X93766333Y-147172018D01*
X93758865Y-147197451D01*
X93730262Y-147266506D01*
X93730260Y-147266511D01*
X93699500Y-147421153D01*
X93699500Y-147578846D01*
X93730261Y-147733489D01*
X93730264Y-147733501D01*
X93790602Y-147879172D01*
X93790609Y-147879185D01*
X93878210Y-148010288D01*
X93878213Y-148010292D01*
X93989707Y-148121786D01*
X93989711Y-148121789D01*
X94120814Y-148209390D01*
X94120827Y-148209397D01*
X94266498Y-148269735D01*
X94266503Y-148269737D01*
X94421153Y-148300499D01*
X94421156Y-148300500D01*
X94421158Y-148300500D01*
X94578844Y-148300500D01*
X94578845Y-148300499D01*
X94733497Y-148269737D01*
X94802549Y-148241134D01*
X94872016Y-148233666D01*
X94897447Y-148241133D01*
X94966503Y-148269737D01*
X95121153Y-148300499D01*
X95121156Y-148300500D01*
X95121158Y-148300500D01*
X95278844Y-148300500D01*
X95278845Y-148300499D01*
X95433497Y-148269737D01*
X95502549Y-148241134D01*
X95572016Y-148233666D01*
X95597447Y-148241133D01*
X95666503Y-148269737D01*
X95821153Y-148300499D01*
X95821156Y-148300500D01*
X95821158Y-148300500D01*
X95978844Y-148300500D01*
X95978845Y-148300499D01*
X96133497Y-148269737D01*
X96202549Y-148241134D01*
X96272016Y-148233666D01*
X96297447Y-148241133D01*
X96366503Y-148269737D01*
X96521153Y-148300499D01*
X96521156Y-148300500D01*
X96521158Y-148300500D01*
X96678844Y-148300500D01*
X96678845Y-148300499D01*
X96833497Y-148269737D01*
X96902549Y-148241134D01*
X96972016Y-148233666D01*
X96997447Y-148241133D01*
X97066503Y-148269737D01*
X97221153Y-148300499D01*
X97221156Y-148300500D01*
X97221158Y-148300500D01*
X97378844Y-148300500D01*
X97378845Y-148300499D01*
X97533497Y-148269737D01*
X97602549Y-148241134D01*
X97672016Y-148233666D01*
X97697447Y-148241133D01*
X97766503Y-148269737D01*
X97921153Y-148300499D01*
X97921156Y-148300500D01*
X97921158Y-148300500D01*
X98078844Y-148300500D01*
X98078845Y-148300499D01*
X98233497Y-148269737D01*
X98379179Y-148209394D01*
X98510289Y-148121789D01*
X98621789Y-148010289D01*
X98709394Y-147879179D01*
X98769737Y-147733497D01*
X98800500Y-147578842D01*
X98800500Y-147421158D01*
X98800500Y-147421155D01*
X98800499Y-147421153D01*
X98769737Y-147266503D01*
X98741135Y-147197451D01*
X98709397Y-147120827D01*
X98709390Y-147120814D01*
X98621789Y-146989711D01*
X98621786Y-146989707D01*
X98510292Y-146878213D01*
X98510288Y-146878210D01*
X98379185Y-146790609D01*
X98379172Y-146790602D01*
X98233501Y-146730264D01*
X98233492Y-146730261D01*
X98178166Y-146719256D01*
X98166378Y-146713089D01*
X98153174Y-146711467D01*
X98136020Y-146697209D01*
X98116256Y-146686870D01*
X98108477Y-146674315D01*
X98099442Y-146666805D01*
X98090500Y-146645300D01*
X98084124Y-146635009D01*
X98082072Y-146628517D01*
X98069737Y-146566503D01*
X98039077Y-146492483D01*
X98037461Y-146487370D01*
X98036849Y-146457596D01*
X98033666Y-146427984D01*
X98036073Y-146419784D01*
X98036027Y-146417515D01*
X98037393Y-146415289D01*
X98041133Y-146402552D01*
X98069737Y-146333497D01*
X98080742Y-146278167D01*
X98113125Y-146216258D01*
X98173841Y-146181683D01*
X98178118Y-146180752D01*
X98233497Y-146169737D01*
X98379179Y-146109394D01*
X98510289Y-146021789D01*
X98621789Y-145910289D01*
X98709394Y-145779179D01*
X98769737Y-145633497D01*
X98800500Y-145478842D01*
X98800500Y-145321158D01*
X98800500Y-145321155D01*
X98800499Y-145321153D01*
X98769738Y-145166510D01*
X98769737Y-145166503D01*
X98756579Y-145134737D01*
X98709397Y-145020827D01*
X98709390Y-145020814D01*
X98621789Y-144889711D01*
X98621786Y-144889707D01*
X98510292Y-144778213D01*
X98510288Y-144778210D01*
X98379185Y-144690609D01*
X98379172Y-144690602D01*
X98233501Y-144630264D01*
X98233489Y-144630261D01*
X98078845Y-144599500D01*
X98078842Y-144599500D01*
X97921158Y-144599500D01*
X97921155Y-144599500D01*
X97766511Y-144630260D01*
X97766506Y-144630262D01*
X97766504Y-144630262D01*
X97766503Y-144630263D01*
X97697449Y-144658865D01*
X97627982Y-144666333D01*
X97602552Y-144658865D01*
X97533497Y-144630263D01*
X97533493Y-144630262D01*
X97533488Y-144630260D01*
X97378845Y-144599500D01*
X97378842Y-144599500D01*
X97221158Y-144599500D01*
X97221155Y-144599500D01*
X97066511Y-144630260D01*
X97066506Y-144630262D01*
X97066504Y-144630262D01*
X97066503Y-144630263D01*
X96997449Y-144658865D01*
X96927982Y-144666333D01*
X96902552Y-144658865D01*
X96833497Y-144630263D01*
X96833493Y-144630262D01*
X96833488Y-144630260D01*
X96678845Y-144599500D01*
X96678842Y-144599500D01*
X96521158Y-144599500D01*
X96521155Y-144599500D01*
X96366511Y-144630260D01*
X96366506Y-144630262D01*
X96366504Y-144630262D01*
X96366503Y-144630263D01*
X96297449Y-144658865D01*
X96227982Y-144666333D01*
X96202552Y-144658865D01*
X96133497Y-144630263D01*
X96133493Y-144630262D01*
X96133488Y-144630260D01*
X95978845Y-144599500D01*
X95978842Y-144599500D01*
X95821158Y-144599500D01*
X95821155Y-144599500D01*
X95666511Y-144630260D01*
X95666506Y-144630262D01*
X95666504Y-144630262D01*
X95666503Y-144630263D01*
X95597449Y-144658865D01*
X95527982Y-144666333D01*
X95502552Y-144658865D01*
X95433497Y-144630263D01*
X95433493Y-144630262D01*
X95433488Y-144630260D01*
X95278845Y-144599500D01*
X95278842Y-144599500D01*
X95121158Y-144599500D01*
X95121155Y-144599500D01*
X94966511Y-144630260D01*
X94966506Y-144630262D01*
X94966504Y-144630262D01*
X94966503Y-144630263D01*
X94897449Y-144658865D01*
X94827982Y-144666333D01*
X94802552Y-144658865D01*
X94733497Y-144630263D01*
X94733493Y-144630262D01*
X94733488Y-144630260D01*
X94578845Y-144599500D01*
X94578842Y-144599500D01*
X94421158Y-144599500D01*
X94421155Y-144599500D01*
X94266510Y-144630261D01*
X94266498Y-144630264D01*
X94120827Y-144690602D01*
X94120814Y-144690609D01*
X93989711Y-144778210D01*
X93989707Y-144778213D01*
X93878213Y-144889707D01*
X93878210Y-144889711D01*
X93790609Y-145020814D01*
X93790602Y-145020827D01*
X93730264Y-145166498D01*
X93730261Y-145166510D01*
X93699500Y-145321153D01*
X80200500Y-145321153D01*
X80200500Y-144286153D01*
X99429500Y-144286153D01*
X99429500Y-144443846D01*
X99460261Y-144598489D01*
X99460264Y-144598501D01*
X99520602Y-144744172D01*
X99520609Y-144744185D01*
X99608210Y-144875288D01*
X99608213Y-144875292D01*
X99719707Y-144986786D01*
X99719711Y-144986789D01*
X99850814Y-145074390D01*
X99850827Y-145074397D01*
X99996498Y-145134735D01*
X99996503Y-145134737D01*
X100151153Y-145165499D01*
X100151156Y-145165500D01*
X100151158Y-145165500D01*
X100308844Y-145165500D01*
X100308845Y-145165499D01*
X100463497Y-145134737D01*
X100609179Y-145074394D01*
X100740289Y-144986789D01*
X100851789Y-144875289D01*
X100939394Y-144744179D01*
X100999737Y-144598497D01*
X101030500Y-144443842D01*
X101030500Y-144286158D01*
X101030500Y-144286155D01*
X101030499Y-144286153D01*
X100999738Y-144131510D01*
X100999737Y-144131503D01*
X100999735Y-144131498D01*
X100939397Y-143985827D01*
X100939390Y-143985814D01*
X100851789Y-143854711D01*
X100851786Y-143854707D01*
X100740292Y-143743213D01*
X100740288Y-143743210D01*
X100609185Y-143655609D01*
X100609172Y-143655602D01*
X100463501Y-143595264D01*
X100463489Y-143595261D01*
X100308845Y-143564500D01*
X100308842Y-143564500D01*
X100151158Y-143564500D01*
X100151155Y-143564500D01*
X99996510Y-143595261D01*
X99996498Y-143595264D01*
X99850827Y-143655602D01*
X99850814Y-143655609D01*
X99719711Y-143743210D01*
X99719707Y-143743213D01*
X99608213Y-143854707D01*
X99608210Y-143854711D01*
X99520609Y-143985814D01*
X99520602Y-143985827D01*
X99460264Y-144131498D01*
X99460261Y-144131510D01*
X99429500Y-144286153D01*
X80200500Y-144286153D01*
X80200500Y-141221153D01*
X96599500Y-141221153D01*
X96599500Y-141378846D01*
X96630261Y-141533489D01*
X96630264Y-141533501D01*
X96690602Y-141679172D01*
X96690609Y-141679185D01*
X96778210Y-141810288D01*
X96778213Y-141810292D01*
X96889707Y-141921786D01*
X96889711Y-141921789D01*
X97020814Y-142009390D01*
X97020827Y-142009397D01*
X97166498Y-142069735D01*
X97166503Y-142069737D01*
X97321153Y-142100499D01*
X97321156Y-142100500D01*
X97321158Y-142100500D01*
X97478844Y-142100500D01*
X97478845Y-142100499D01*
X97633497Y-142069737D01*
X97750790Y-142021153D01*
X101899500Y-142021153D01*
X101899500Y-142178846D01*
X101930260Y-142333488D01*
X101930262Y-142333493D01*
X101930263Y-142333497D01*
X101958864Y-142402547D01*
X101958865Y-142402549D01*
X101966333Y-142472018D01*
X101958865Y-142497447D01*
X101930263Y-142566503D01*
X101930262Y-142566506D01*
X101930260Y-142566511D01*
X101899500Y-142721153D01*
X101899500Y-142878846D01*
X101930261Y-143033489D01*
X101930264Y-143033501D01*
X101990602Y-143179172D01*
X101990609Y-143179185D01*
X102078210Y-143310288D01*
X102078213Y-143310292D01*
X102189707Y-143421786D01*
X102189711Y-143421789D01*
X102320814Y-143509390D01*
X102320827Y-143509397D01*
X102466498Y-143569735D01*
X102466503Y-143569737D01*
X102594820Y-143595261D01*
X102621153Y-143600499D01*
X102621156Y-143600500D01*
X102621158Y-143600500D01*
X102778844Y-143600500D01*
X102778845Y-143600499D01*
X102933497Y-143569737D01*
X103002549Y-143541134D01*
X103072016Y-143533666D01*
X103097447Y-143541133D01*
X103166503Y-143569737D01*
X103294820Y-143595261D01*
X103321153Y-143600499D01*
X103321156Y-143600500D01*
X103321158Y-143600500D01*
X103478844Y-143600500D01*
X103478845Y-143600499D01*
X103633497Y-143569737D01*
X103702549Y-143541134D01*
X103772016Y-143533666D01*
X103797447Y-143541133D01*
X103866503Y-143569737D01*
X103994820Y-143595261D01*
X104021153Y-143600499D01*
X104021156Y-143600500D01*
X104021158Y-143600500D01*
X104178844Y-143600500D01*
X104178845Y-143600499D01*
X104333497Y-143569737D01*
X104402549Y-143541134D01*
X104472016Y-143533666D01*
X104497447Y-143541133D01*
X104566503Y-143569737D01*
X104694820Y-143595261D01*
X104721153Y-143600499D01*
X104721156Y-143600500D01*
X104721158Y-143600500D01*
X104878844Y-143600500D01*
X104878845Y-143600499D01*
X105033497Y-143569737D01*
X105102549Y-143541134D01*
X105172016Y-143533666D01*
X105197447Y-143541133D01*
X105266503Y-143569737D01*
X105394820Y-143595261D01*
X105421153Y-143600499D01*
X105421156Y-143600500D01*
X105421158Y-143600500D01*
X105578844Y-143600500D01*
X105578845Y-143600499D01*
X105733497Y-143569737D01*
X105802549Y-143541134D01*
X105872016Y-143533666D01*
X105897447Y-143541133D01*
X105966503Y-143569737D01*
X106094820Y-143595261D01*
X106121153Y-143600499D01*
X106121156Y-143600500D01*
X106121158Y-143600500D01*
X106278844Y-143600500D01*
X106278845Y-143600499D01*
X106433497Y-143569737D01*
X106579179Y-143509394D01*
X106710289Y-143421789D01*
X106821789Y-143310289D01*
X106909394Y-143179179D01*
X106969737Y-143033497D01*
X107000500Y-142878842D01*
X107000500Y-142721158D01*
X107000500Y-142721155D01*
X107000499Y-142721153D01*
X106969737Y-142566503D01*
X106941134Y-142497450D01*
X106933666Y-142427984D01*
X106941133Y-142402552D01*
X106969737Y-142333497D01*
X107000500Y-142178842D01*
X107000500Y-142021158D01*
X107000500Y-142021155D01*
X107000499Y-142021153D01*
X106980734Y-141921788D01*
X106969737Y-141866503D01*
X106946452Y-141810288D01*
X106909397Y-141720827D01*
X106909390Y-141720814D01*
X106821789Y-141589711D01*
X106821786Y-141589707D01*
X106710292Y-141478213D01*
X106710288Y-141478210D01*
X106579185Y-141390609D01*
X106579172Y-141390602D01*
X106433501Y-141330264D01*
X106433489Y-141330261D01*
X106278845Y-141299500D01*
X106278842Y-141299500D01*
X106121158Y-141299500D01*
X106121155Y-141299500D01*
X105966511Y-141330260D01*
X105966506Y-141330262D01*
X105966504Y-141330262D01*
X105966503Y-141330263D01*
X105897449Y-141358865D01*
X105827982Y-141366333D01*
X105802552Y-141358865D01*
X105733497Y-141330263D01*
X105733493Y-141330262D01*
X105733488Y-141330260D01*
X105578845Y-141299500D01*
X105578842Y-141299500D01*
X105421158Y-141299500D01*
X105421155Y-141299500D01*
X105266511Y-141330260D01*
X105266506Y-141330262D01*
X105266504Y-141330262D01*
X105266503Y-141330263D01*
X105197449Y-141358865D01*
X105127982Y-141366333D01*
X105102552Y-141358865D01*
X105033497Y-141330263D01*
X105033493Y-141330262D01*
X105033488Y-141330260D01*
X104878845Y-141299500D01*
X104878842Y-141299500D01*
X104721158Y-141299500D01*
X104721155Y-141299500D01*
X104566511Y-141330260D01*
X104566506Y-141330262D01*
X104566504Y-141330262D01*
X104566503Y-141330263D01*
X104497449Y-141358865D01*
X104427982Y-141366333D01*
X104402552Y-141358865D01*
X104333497Y-141330263D01*
X104333493Y-141330262D01*
X104333488Y-141330260D01*
X104178845Y-141299500D01*
X104178842Y-141299500D01*
X104021158Y-141299500D01*
X104021155Y-141299500D01*
X103866511Y-141330260D01*
X103866506Y-141330262D01*
X103866504Y-141330262D01*
X103866503Y-141330263D01*
X103797449Y-141358865D01*
X103727982Y-141366333D01*
X103702552Y-141358865D01*
X103633497Y-141330263D01*
X103633493Y-141330262D01*
X103633488Y-141330260D01*
X103478845Y-141299500D01*
X103478842Y-141299500D01*
X103321158Y-141299500D01*
X103321155Y-141299500D01*
X103166511Y-141330260D01*
X103166506Y-141330262D01*
X103166504Y-141330262D01*
X103166503Y-141330263D01*
X103097449Y-141358865D01*
X103027982Y-141366333D01*
X103002552Y-141358865D01*
X102933497Y-141330263D01*
X102933493Y-141330262D01*
X102933488Y-141330260D01*
X102778845Y-141299500D01*
X102778842Y-141299500D01*
X102621158Y-141299500D01*
X102621155Y-141299500D01*
X102466510Y-141330261D01*
X102466498Y-141330264D01*
X102320827Y-141390602D01*
X102320814Y-141390609D01*
X102189711Y-141478210D01*
X102189707Y-141478213D01*
X102078213Y-141589707D01*
X102078210Y-141589711D01*
X101990609Y-141720814D01*
X101990602Y-141720827D01*
X101930264Y-141866498D01*
X101930261Y-141866510D01*
X101899500Y-142021153D01*
X97750790Y-142021153D01*
X97779179Y-142009394D01*
X97910289Y-141921789D01*
X98021789Y-141810289D01*
X98109394Y-141679179D01*
X98169737Y-141533497D01*
X98200500Y-141378842D01*
X98200500Y-141221158D01*
X98200500Y-141221155D01*
X98200499Y-141221153D01*
X98169738Y-141066510D01*
X98169737Y-141066503D01*
X98169735Y-141066498D01*
X98126457Y-140962013D01*
X98118988Y-140892544D01*
X98150264Y-140830065D01*
X98210353Y-140794413D01*
X98216817Y-140792946D01*
X98333497Y-140769737D01*
X98450790Y-140721153D01*
X99999500Y-140721153D01*
X99999500Y-140878846D01*
X100030261Y-141033489D01*
X100030264Y-141033501D01*
X100090602Y-141179172D01*
X100090609Y-141179185D01*
X100178210Y-141310288D01*
X100178213Y-141310292D01*
X100289707Y-141421786D01*
X100289711Y-141421789D01*
X100420814Y-141509390D01*
X100420827Y-141509397D01*
X100566498Y-141569735D01*
X100566503Y-141569737D01*
X100721153Y-141600499D01*
X100721156Y-141600500D01*
X100721158Y-141600500D01*
X100878844Y-141600500D01*
X100878845Y-141600499D01*
X101033497Y-141569737D01*
X101179179Y-141509394D01*
X101310289Y-141421789D01*
X101421789Y-141310289D01*
X101509394Y-141179179D01*
X101569737Y-141033497D01*
X101600500Y-140878842D01*
X101600500Y-140721158D01*
X101600500Y-140721155D01*
X101600499Y-140721153D01*
X101574531Y-140590606D01*
X101569737Y-140566503D01*
X101569735Y-140566498D01*
X101509397Y-140420827D01*
X101509390Y-140420814D01*
X101421789Y-140289711D01*
X101421786Y-140289707D01*
X101310292Y-140178213D01*
X101310288Y-140178210D01*
X101179185Y-140090609D01*
X101179175Y-140090604D01*
X101123622Y-140067593D01*
X101069218Y-140023752D01*
X101047154Y-139957457D01*
X101064434Y-139889758D01*
X101115571Y-139842148D01*
X101123584Y-139838487D01*
X101254179Y-139784394D01*
X101385289Y-139696789D01*
X101496789Y-139585289D01*
X101584394Y-139454179D01*
X101644737Y-139308497D01*
X101675500Y-139153842D01*
X101675500Y-138996158D01*
X101675500Y-138996155D01*
X101675499Y-138996153D01*
X101644738Y-138841510D01*
X101644737Y-138841503D01*
X101644735Y-138841498D01*
X101584397Y-138695827D01*
X101584390Y-138695814D01*
X101496789Y-138564711D01*
X101496786Y-138564707D01*
X101385292Y-138453213D01*
X101385288Y-138453210D01*
X101254185Y-138365609D01*
X101254172Y-138365602D01*
X101108501Y-138305264D01*
X101108489Y-138305261D01*
X100953845Y-138274500D01*
X100953842Y-138274500D01*
X100796158Y-138274500D01*
X100796155Y-138274500D01*
X100641510Y-138305261D01*
X100641498Y-138305264D01*
X100495827Y-138365602D01*
X100495814Y-138365609D01*
X100364711Y-138453210D01*
X100364707Y-138453213D01*
X100253213Y-138564707D01*
X100253210Y-138564711D01*
X100165609Y-138695814D01*
X100165602Y-138695827D01*
X100105264Y-138841498D01*
X100105261Y-138841510D01*
X100074500Y-138996153D01*
X100074500Y-139153846D01*
X100105261Y-139308489D01*
X100105264Y-139308501D01*
X100165602Y-139454172D01*
X100165609Y-139454185D01*
X100253210Y-139585288D01*
X100253213Y-139585292D01*
X100364707Y-139696786D01*
X100364711Y-139696789D01*
X100495814Y-139784390D01*
X100495827Y-139784397D01*
X100551376Y-139807406D01*
X100605780Y-139851247D01*
X100627845Y-139917541D01*
X100610566Y-139985240D01*
X100559429Y-140032851D01*
X100551377Y-140036528D01*
X100420823Y-140090604D01*
X100420814Y-140090609D01*
X100289711Y-140178210D01*
X100289707Y-140178213D01*
X100178213Y-140289707D01*
X100178210Y-140289711D01*
X100090609Y-140420814D01*
X100090602Y-140420827D01*
X100030264Y-140566498D01*
X100030261Y-140566510D01*
X99999500Y-140721153D01*
X98450790Y-140721153D01*
X98479179Y-140709394D01*
X98610289Y-140621789D01*
X98721789Y-140510289D01*
X98809394Y-140379179D01*
X98869737Y-140233497D01*
X98900500Y-140078842D01*
X98900500Y-139921158D01*
X98900500Y-139921155D01*
X98900499Y-139921153D01*
X98873296Y-139784397D01*
X98869737Y-139766503D01*
X98840861Y-139696789D01*
X98809397Y-139620827D01*
X98809390Y-139620814D01*
X98721789Y-139489711D01*
X98721786Y-139489707D01*
X98610292Y-139378213D01*
X98610288Y-139378210D01*
X98479185Y-139290609D01*
X98479172Y-139290602D01*
X98333501Y-139230264D01*
X98333489Y-139230261D01*
X98178845Y-139199500D01*
X98178842Y-139199500D01*
X98021158Y-139199500D01*
X98021155Y-139199500D01*
X97866510Y-139230261D01*
X97866498Y-139230264D01*
X97720827Y-139290602D01*
X97720814Y-139290609D01*
X97589711Y-139378210D01*
X97589707Y-139378213D01*
X97478213Y-139489707D01*
X97478210Y-139489711D01*
X97390609Y-139620814D01*
X97390602Y-139620827D01*
X97330264Y-139766498D01*
X97330261Y-139766510D01*
X97299500Y-139921153D01*
X97299500Y-140078846D01*
X97330261Y-140233489D01*
X97330263Y-140233496D01*
X97373543Y-140337987D01*
X97381011Y-140407456D01*
X97349735Y-140469935D01*
X97289646Y-140505587D01*
X97283173Y-140507055D01*
X97166508Y-140530261D01*
X97166498Y-140530264D01*
X97020827Y-140590602D01*
X97020814Y-140590609D01*
X96889711Y-140678210D01*
X96889707Y-140678213D01*
X96778213Y-140789707D01*
X96778210Y-140789711D01*
X96690609Y-140920814D01*
X96690602Y-140920827D01*
X96630264Y-141066498D01*
X96630261Y-141066510D01*
X96599500Y-141221153D01*
X80200500Y-141221153D01*
X80200500Y-134821153D01*
X100999500Y-134821153D01*
X100999500Y-134978846D01*
X101030261Y-135133489D01*
X101030264Y-135133501D01*
X101090602Y-135279172D01*
X101090609Y-135279185D01*
X101178210Y-135410288D01*
X101178213Y-135410292D01*
X101289707Y-135521786D01*
X101289711Y-135521789D01*
X101420817Y-135609392D01*
X101420819Y-135609392D01*
X101420821Y-135609394D01*
X101474284Y-135631538D01*
X101478432Y-135633257D01*
X101532836Y-135677097D01*
X101552597Y-135723625D01*
X101560593Y-135763824D01*
X101560596Y-135763833D01*
X101620934Y-135909504D01*
X101620941Y-135909517D01*
X101708542Y-136040620D01*
X101708545Y-136040624D01*
X101820039Y-136152118D01*
X101820043Y-136152121D01*
X101951146Y-136239722D01*
X101951159Y-136239729D01*
X102071828Y-136289711D01*
X102096835Y-136300069D01*
X102201162Y-136320821D01*
X102251485Y-136330831D01*
X102251488Y-136330832D01*
X102251490Y-136330832D01*
X102409176Y-136330832D01*
X102419983Y-136328682D01*
X102422403Y-136328898D01*
X102424600Y-136327853D01*
X102457025Y-136331994D01*
X102489575Y-136334906D01*
X102491495Y-136336398D01*
X102493907Y-136336706D01*
X102518936Y-136357712D01*
X102544754Y-136377767D01*
X102545563Y-136380060D01*
X102547425Y-136381623D01*
X102557126Y-136412834D01*
X102568001Y-136443656D01*
X102567666Y-136446741D01*
X102568164Y-136448344D01*
X102566604Y-136456518D01*
X102563692Y-136483354D01*
X102561657Y-136490708D01*
X102530263Y-136566503D01*
X102503551Y-136700788D01*
X102502336Y-136705184D01*
X102486220Y-136731150D01*
X102472055Y-136758231D01*
X102467479Y-136761347D01*
X102465492Y-136764550D01*
X102456487Y-136768835D01*
X102430278Y-136786688D01*
X102420821Y-136790605D01*
X102420820Y-136790605D01*
X102367604Y-136826163D01*
X102300927Y-136847040D01*
X102251263Y-136837621D01*
X102233502Y-136830264D01*
X102233494Y-136830261D01*
X102078845Y-136799500D01*
X102078842Y-136799500D01*
X101921158Y-136799500D01*
X101921155Y-136799500D01*
X101766510Y-136830261D01*
X101766498Y-136830264D01*
X101620827Y-136890602D01*
X101620814Y-136890609D01*
X101489711Y-136978210D01*
X101489707Y-136978213D01*
X101378213Y-137089707D01*
X101378210Y-137089711D01*
X101290609Y-137220814D01*
X101290602Y-137220827D01*
X101230264Y-137366498D01*
X101230261Y-137366510D01*
X101199500Y-137521153D01*
X101199500Y-137678846D01*
X101230261Y-137833489D01*
X101230264Y-137833501D01*
X101290602Y-137979172D01*
X101290609Y-137979185D01*
X101378210Y-138110288D01*
X101378213Y-138110292D01*
X101489707Y-138221786D01*
X101489711Y-138221789D01*
X101620814Y-138309390D01*
X101620827Y-138309397D01*
X101756520Y-138365602D01*
X101766503Y-138369737D01*
X101921153Y-138400499D01*
X101921156Y-138400500D01*
X101921158Y-138400500D01*
X102078844Y-138400500D01*
X102078845Y-138400499D01*
X102233497Y-138369737D01*
X102379179Y-138309394D01*
X102432394Y-138273836D01*
X102499069Y-138252958D01*
X102548734Y-138262377D01*
X102566503Y-138269737D01*
X102566507Y-138269737D01*
X102566511Y-138269739D01*
X102721153Y-138300499D01*
X102721156Y-138300500D01*
X102721158Y-138300500D01*
X102878844Y-138300500D01*
X102878845Y-138300499D01*
X103033497Y-138269737D01*
X103179179Y-138209394D01*
X103310289Y-138121789D01*
X103421789Y-138010289D01*
X103509394Y-137879179D01*
X103569737Y-137733497D01*
X103582356Y-137670056D01*
X103595560Y-137603680D01*
X103627945Y-137541769D01*
X103669721Y-137513311D01*
X103679179Y-137509394D01*
X103810289Y-137421789D01*
X103921789Y-137310289D01*
X104009394Y-137179179D01*
X104069737Y-137033497D01*
X104100500Y-136878842D01*
X104100500Y-136721158D01*
X104100500Y-136721155D01*
X104084209Y-136639258D01*
X104084209Y-136639257D01*
X104080608Y-136621153D01*
X105699500Y-136621153D01*
X105699500Y-136778846D01*
X105730261Y-136933489D01*
X105730264Y-136933501D01*
X105790602Y-137079172D01*
X105790609Y-137079185D01*
X105878210Y-137210288D01*
X105878213Y-137210292D01*
X105989707Y-137321786D01*
X105989711Y-137321789D01*
X106120814Y-137409390D01*
X106120827Y-137409397D01*
X106266498Y-137469735D01*
X106266503Y-137469737D01*
X106421153Y-137500499D01*
X106421156Y-137500500D01*
X106421158Y-137500500D01*
X106578844Y-137500500D01*
X106578845Y-137500499D01*
X106733497Y-137469737D01*
X106879179Y-137409394D01*
X107010289Y-137321789D01*
X107121789Y-137210289D01*
X107209394Y-137079179D01*
X107269737Y-136933497D01*
X107300500Y-136778842D01*
X107300500Y-136621158D01*
X107300500Y-136621155D01*
X107300499Y-136621153D01*
X107297687Y-136607017D01*
X107269737Y-136466503D01*
X107248596Y-136415465D01*
X107241128Y-136345997D01*
X107272403Y-136283518D01*
X107299820Y-136261410D01*
X107307470Y-136256864D01*
X107348847Y-136239726D01*
X107449402Y-136172536D01*
X107452208Y-136170870D01*
X107483006Y-136162989D01*
X107513332Y-136153494D01*
X107516605Y-136154392D01*
X107519897Y-136153550D01*
X107550066Y-136163571D01*
X107580712Y-136171978D01*
X107582981Y-136174504D01*
X107586205Y-136175575D01*
X107606164Y-136200313D01*
X107627402Y-136223956D01*
X107630074Y-136229947D01*
X107630078Y-136229952D01*
X107630078Y-136229957D01*
X107630107Y-136230021D01*
X107648092Y-136273442D01*
X107648097Y-136273451D01*
X107735698Y-136404554D01*
X107735701Y-136404558D01*
X107847195Y-136516052D01*
X107847199Y-136516055D01*
X107978302Y-136603656D01*
X107978315Y-136603663D01*
X108123986Y-136664001D01*
X108123991Y-136664003D01*
X108278641Y-136694765D01*
X108278644Y-136694766D01*
X108278646Y-136694766D01*
X108436332Y-136694766D01*
X108436333Y-136694765D01*
X108590985Y-136664003D01*
X108736667Y-136603660D01*
X108736672Y-136603656D01*
X108740876Y-136601410D01*
X108809278Y-136587164D01*
X108865364Y-136606667D01*
X108865443Y-136606521D01*
X108866371Y-136607017D01*
X108868223Y-136607661D01*
X108870810Y-136609389D01*
X108870812Y-136609390D01*
X108870818Y-136609394D01*
X108870820Y-136609395D01*
X108870824Y-136609397D01*
X109002652Y-136664001D01*
X109016500Y-136669737D01*
X109171150Y-136700499D01*
X109171153Y-136700500D01*
X109171155Y-136700500D01*
X109328841Y-136700500D01*
X109328842Y-136700499D01*
X109483494Y-136669737D01*
X109627546Y-136610068D01*
X109697015Y-136602600D01*
X109722450Y-136610069D01*
X109852655Y-136664001D01*
X109866503Y-136669737D01*
X110021153Y-136700499D01*
X110021156Y-136700500D01*
X110021158Y-136700500D01*
X110178844Y-136700500D01*
X110178845Y-136700499D01*
X110333497Y-136669737D01*
X110450790Y-136621153D01*
X110479172Y-136609397D01*
X110479172Y-136609396D01*
X110479179Y-136609394D01*
X110610289Y-136521789D01*
X110721789Y-136410289D01*
X110809394Y-136279179D01*
X110869737Y-136133497D01*
X110900500Y-135978842D01*
X110900500Y-135821158D01*
X110900500Y-135821155D01*
X110900499Y-135821153D01*
X110869738Y-135666510D01*
X110869737Y-135666503D01*
X110846082Y-135609394D01*
X110809397Y-135520827D01*
X110809390Y-135520814D01*
X110721789Y-135389711D01*
X110721786Y-135389707D01*
X110610292Y-135278213D01*
X110610288Y-135278210D01*
X110479185Y-135190609D01*
X110479172Y-135190602D01*
X110333501Y-135130264D01*
X110333489Y-135130261D01*
X110178845Y-135099500D01*
X110178842Y-135099500D01*
X110021158Y-135099500D01*
X110021155Y-135099500D01*
X109866510Y-135130261D01*
X109866498Y-135130264D01*
X109722450Y-135189930D01*
X109652980Y-135197399D01*
X109627546Y-135189930D01*
X109483498Y-135130264D01*
X109483488Y-135130261D01*
X109399616Y-135113578D01*
X109337705Y-135081193D01*
X109303131Y-135020477D01*
X109300749Y-134984934D01*
X109300500Y-134984934D01*
X109300500Y-134981226D01*
X109300405Y-134979809D01*
X109300500Y-134978844D01*
X109300500Y-134821155D01*
X109300499Y-134821153D01*
X109288453Y-134760593D01*
X109269737Y-134666503D01*
X109209794Y-134521786D01*
X109209397Y-134520827D01*
X109209390Y-134520814D01*
X109121789Y-134389711D01*
X109121786Y-134389707D01*
X109010292Y-134278213D01*
X109010288Y-134278210D01*
X108879185Y-134190609D01*
X108879172Y-134190602D01*
X108733501Y-134130264D01*
X108733489Y-134130261D01*
X108578845Y-134099500D01*
X108578842Y-134099500D01*
X108421158Y-134099500D01*
X108421155Y-134099500D01*
X108266510Y-134130261D01*
X108266498Y-134130264D01*
X108120827Y-134190602D01*
X108120814Y-134190609D01*
X107989711Y-134278210D01*
X107989707Y-134278213D01*
X107878213Y-134389707D01*
X107878210Y-134389711D01*
X107790609Y-134520814D01*
X107790602Y-134520827D01*
X107730264Y-134666498D01*
X107730261Y-134666510D01*
X107699500Y-134821153D01*
X107699500Y-134828723D01*
X107679815Y-134895762D01*
X107627011Y-134941517D01*
X107557853Y-134951461D01*
X107494297Y-134922436D01*
X107487819Y-134916404D01*
X107479960Y-134908545D01*
X107479956Y-134908542D01*
X107348853Y-134820941D01*
X107348840Y-134820934D01*
X107203169Y-134760596D01*
X107203157Y-134760593D01*
X107048513Y-134729832D01*
X107048510Y-134729832D01*
X106890826Y-134729832D01*
X106890823Y-134729832D01*
X106736178Y-134760593D01*
X106736166Y-134760596D01*
X106590495Y-134820934D01*
X106590482Y-134820941D01*
X106459379Y-134908542D01*
X106459375Y-134908545D01*
X106347881Y-135020039D01*
X106347878Y-135020043D01*
X106260277Y-135151146D01*
X106260270Y-135151159D01*
X106199932Y-135296830D01*
X106199929Y-135296842D01*
X106169168Y-135451485D01*
X106169168Y-135609178D01*
X106199929Y-135763821D01*
X106199932Y-135763833D01*
X106221070Y-135814865D01*
X106228539Y-135884335D01*
X106197263Y-135946814D01*
X106153963Y-135976878D01*
X106120820Y-135990606D01*
X106120814Y-135990609D01*
X105989711Y-136078210D01*
X105989707Y-136078213D01*
X105878213Y-136189707D01*
X105878210Y-136189711D01*
X105790609Y-136320814D01*
X105790602Y-136320827D01*
X105730264Y-136466498D01*
X105730261Y-136466510D01*
X105699500Y-136621153D01*
X104080608Y-136621153D01*
X104069738Y-136566510D01*
X104069737Y-136566503D01*
X104024180Y-136456518D01*
X104009397Y-136420827D01*
X104009390Y-136420814D01*
X103921789Y-136289711D01*
X103921786Y-136289707D01*
X103810292Y-136178213D01*
X103810288Y-136178210D01*
X103679185Y-136090609D01*
X103679172Y-136090602D01*
X103533501Y-136030264D01*
X103533489Y-136030261D01*
X103378845Y-135999500D01*
X103378842Y-135999500D01*
X103221158Y-135999500D01*
X103221155Y-135999500D01*
X103210339Y-136001651D01*
X103140748Y-135995421D01*
X103085572Y-135952557D01*
X103062330Y-135886666D01*
X103071590Y-135832582D01*
X103100069Y-135763829D01*
X103130832Y-135609174D01*
X103130832Y-135451490D01*
X103130832Y-135451487D01*
X103130831Y-135451485D01*
X103122637Y-135410292D01*
X103100069Y-135296835D01*
X103056068Y-135190606D01*
X103039729Y-135151159D01*
X103039722Y-135151146D01*
X102952121Y-135020043D01*
X102952118Y-135020039D01*
X102840624Y-134908545D01*
X102840620Y-134908542D01*
X102709517Y-134820941D01*
X102709507Y-134820936D01*
X102651897Y-134797073D01*
X102597494Y-134753232D01*
X102577733Y-134706704D01*
X102569737Y-134666503D01*
X102509794Y-134521786D01*
X102509397Y-134520827D01*
X102509390Y-134520814D01*
X102421789Y-134389711D01*
X102421786Y-134389707D01*
X102310292Y-134278213D01*
X102310288Y-134278210D01*
X102179185Y-134190609D01*
X102179172Y-134190602D01*
X102033501Y-134130264D01*
X102033489Y-134130261D01*
X101878845Y-134099500D01*
X101878842Y-134099500D01*
X101721158Y-134099500D01*
X101721155Y-134099500D01*
X101566510Y-134130261D01*
X101566498Y-134130264D01*
X101420827Y-134190602D01*
X101420814Y-134190609D01*
X101289711Y-134278210D01*
X101289707Y-134278213D01*
X101178213Y-134389707D01*
X101178210Y-134389711D01*
X101090609Y-134520814D01*
X101090602Y-134520827D01*
X101030264Y-134666498D01*
X101030261Y-134666510D01*
X100999500Y-134821153D01*
X80200500Y-134821153D01*
X80200500Y-133821153D01*
X104499500Y-133821153D01*
X104499500Y-133978846D01*
X104530261Y-134133489D01*
X104530264Y-134133501D01*
X104590602Y-134279172D01*
X104590609Y-134279185D01*
X104678210Y-134410288D01*
X104678213Y-134410292D01*
X104789707Y-134521786D01*
X104789711Y-134521789D01*
X104920814Y-134609390D01*
X104920827Y-134609397D01*
X105058695Y-134666503D01*
X105066503Y-134669737D01*
X105221153Y-134700499D01*
X105221156Y-134700500D01*
X105221158Y-134700500D01*
X105378844Y-134700500D01*
X105378845Y-134700499D01*
X105533497Y-134669737D01*
X105679179Y-134609394D01*
X105810289Y-134521789D01*
X105921789Y-134410289D01*
X106009394Y-134279179D01*
X106069737Y-134133497D01*
X106100500Y-133978842D01*
X106100500Y-133821158D01*
X106100500Y-133821155D01*
X106100499Y-133821153D01*
X112999500Y-133821153D01*
X112999500Y-133978846D01*
X113030261Y-134133489D01*
X113030264Y-134133501D01*
X113090602Y-134279172D01*
X113090609Y-134279185D01*
X113178210Y-134410288D01*
X113178213Y-134410292D01*
X113289707Y-134521786D01*
X113289711Y-134521789D01*
X113420814Y-134609390D01*
X113420827Y-134609397D01*
X113558695Y-134666503D01*
X113566503Y-134669737D01*
X113721153Y-134700499D01*
X113721156Y-134700500D01*
X113721158Y-134700500D01*
X113878844Y-134700500D01*
X113878845Y-134700499D01*
X114033497Y-134669737D01*
X114179179Y-134609394D01*
X114310289Y-134521789D01*
X114421789Y-134410289D01*
X114509394Y-134279179D01*
X114569737Y-134133497D01*
X114600500Y-133978842D01*
X114600500Y-133821158D01*
X114600500Y-133821155D01*
X114600499Y-133821153D01*
X114569738Y-133666510D01*
X114569737Y-133666503D01*
X114569735Y-133666498D01*
X114509397Y-133520827D01*
X114509387Y-133520809D01*
X114473473Y-133467059D01*
X114452595Y-133400382D01*
X114471080Y-133333002D01*
X114523059Y-133286312D01*
X114592029Y-133275136D01*
X114600751Y-133276549D01*
X114649831Y-133286312D01*
X114721156Y-133300500D01*
X114721158Y-133300500D01*
X114878844Y-133300500D01*
X114878845Y-133300499D01*
X115033497Y-133269737D01*
X115179179Y-133209394D01*
X115310289Y-133121789D01*
X115421789Y-133010289D01*
X115509394Y-132879179D01*
X115509396Y-132879172D01*
X115512264Y-132873809D01*
X115513360Y-132874394D01*
X115553113Y-132825058D01*
X115619405Y-132802988D01*
X115687106Y-132820263D01*
X115692731Y-132823807D01*
X115820814Y-132909390D01*
X115820827Y-132909397D01*
X115966498Y-132969735D01*
X115966503Y-132969737D01*
X116116724Y-132999618D01*
X116121153Y-133000499D01*
X116121156Y-133000500D01*
X116121158Y-133000500D01*
X116278844Y-133000500D01*
X116278845Y-133000499D01*
X116433497Y-132969737D01*
X116579179Y-132909394D01*
X116710289Y-132821789D01*
X116821789Y-132710289D01*
X116909394Y-132579179D01*
X116969737Y-132433497D01*
X117000500Y-132278842D01*
X117000500Y-132121158D01*
X117000500Y-132121155D01*
X117000499Y-132121153D01*
X116974353Y-131989711D01*
X116969737Y-131966503D01*
X116969735Y-131966498D01*
X116909397Y-131820827D01*
X116909395Y-131820823D01*
X116909394Y-131820821D01*
X116871292Y-131763797D01*
X116850414Y-131697120D01*
X116868898Y-131629740D01*
X116905500Y-131591806D01*
X117010289Y-131521789D01*
X117121789Y-131410289D01*
X117209394Y-131279179D01*
X117269737Y-131133497D01*
X117300500Y-130978842D01*
X117300500Y-130821158D01*
X117300500Y-130821155D01*
X117300499Y-130821153D01*
X117278447Y-130710292D01*
X117269737Y-130666503D01*
X117242398Y-130600500D01*
X117209397Y-130520827D01*
X117209390Y-130520814D01*
X117121789Y-130389711D01*
X117121786Y-130389707D01*
X117010292Y-130278213D01*
X117010288Y-130278210D01*
X116879185Y-130190609D01*
X116879172Y-130190602D01*
X116733501Y-130130264D01*
X116733489Y-130130261D01*
X116578845Y-130099500D01*
X116578842Y-130099500D01*
X116421158Y-130099500D01*
X116421155Y-130099500D01*
X116266510Y-130130261D01*
X116266498Y-130130264D01*
X116120827Y-130190602D01*
X116120814Y-130190609D01*
X115989711Y-130278210D01*
X115989707Y-130278213D01*
X115878213Y-130389707D01*
X115878210Y-130389711D01*
X115790609Y-130520814D01*
X115790602Y-130520827D01*
X115748302Y-130622952D01*
X115704462Y-130677356D01*
X115638167Y-130699421D01*
X115633741Y-130699500D01*
X115521155Y-130699500D01*
X115366510Y-130730261D01*
X115366498Y-130730264D01*
X115220827Y-130790602D01*
X115220814Y-130790609D01*
X115089711Y-130878210D01*
X115089707Y-130878213D01*
X114978213Y-130989707D01*
X114978210Y-130989711D01*
X114890609Y-131120814D01*
X114890602Y-131120827D01*
X114830264Y-131266498D01*
X114830261Y-131266510D01*
X114799500Y-131421153D01*
X114799500Y-131582152D01*
X114779815Y-131649191D01*
X114727011Y-131694946D01*
X114699692Y-131703769D01*
X114566508Y-131730261D01*
X114566498Y-131730264D01*
X114420827Y-131790602D01*
X114420814Y-131790609D01*
X114289711Y-131878210D01*
X114289707Y-131878213D01*
X114178213Y-131989707D01*
X114178210Y-131989711D01*
X114090609Y-132120814D01*
X114090602Y-132120827D01*
X114030264Y-132266498D01*
X114030261Y-132266510D01*
X113999500Y-132421153D01*
X113999500Y-132578846D01*
X114030261Y-132733489D01*
X114030264Y-132733501D01*
X114090602Y-132879172D01*
X114090608Y-132879183D01*
X114126527Y-132932940D01*
X114147404Y-132999618D01*
X114128919Y-133066998D01*
X114076940Y-133113687D01*
X114007970Y-133124863D01*
X113999232Y-133123447D01*
X113878844Y-133099500D01*
X113878842Y-133099500D01*
X113721158Y-133099500D01*
X113721155Y-133099500D01*
X113566510Y-133130261D01*
X113566498Y-133130264D01*
X113420827Y-133190602D01*
X113420814Y-133190609D01*
X113289711Y-133278210D01*
X113289707Y-133278213D01*
X113178213Y-133389707D01*
X113178210Y-133389711D01*
X113090609Y-133520814D01*
X113090602Y-133520827D01*
X113030264Y-133666498D01*
X113030261Y-133666510D01*
X112999500Y-133821153D01*
X106100499Y-133821153D01*
X106069738Y-133666510D01*
X106069737Y-133666503D01*
X106069735Y-133666498D01*
X106009397Y-133520827D01*
X106009390Y-133520814D01*
X105921789Y-133389711D01*
X105921786Y-133389707D01*
X105810292Y-133278213D01*
X105810288Y-133278210D01*
X105679185Y-133190609D01*
X105679172Y-133190602D01*
X105533501Y-133130264D01*
X105533489Y-133130261D01*
X105378845Y-133099500D01*
X105378842Y-133099500D01*
X105221158Y-133099500D01*
X105221155Y-133099500D01*
X105066510Y-133130261D01*
X105066498Y-133130264D01*
X104920827Y-133190602D01*
X104920814Y-133190609D01*
X104789711Y-133278210D01*
X104789707Y-133278213D01*
X104678213Y-133389707D01*
X104678210Y-133389711D01*
X104590609Y-133520814D01*
X104590602Y-133520827D01*
X104530264Y-133666498D01*
X104530261Y-133666510D01*
X104499500Y-133821153D01*
X80200500Y-133821153D01*
X80200500Y-130121153D01*
X94399500Y-130121153D01*
X94399500Y-130278846D01*
X94430261Y-130433489D01*
X94430264Y-130433501D01*
X94490602Y-130579172D01*
X94490609Y-130579185D01*
X94578210Y-130710288D01*
X94578213Y-130710292D01*
X94689707Y-130821786D01*
X94689711Y-130821789D01*
X94820814Y-130909390D01*
X94820827Y-130909397D01*
X94966498Y-130969735D01*
X94966503Y-130969737D01*
X95121153Y-131000499D01*
X95121156Y-131000500D01*
X95121158Y-131000500D01*
X95278844Y-131000500D01*
X95278845Y-131000499D01*
X95433497Y-130969737D01*
X95579179Y-130909394D01*
X95710289Y-130821789D01*
X95821789Y-130710289D01*
X95909394Y-130579179D01*
X95969737Y-130433497D01*
X96000500Y-130278842D01*
X96000500Y-130121158D01*
X96000500Y-130121155D01*
X96000499Y-130121153D01*
X95996105Y-130099065D01*
X95969737Y-129966503D01*
X95933427Y-129878842D01*
X95909397Y-129820827D01*
X95909390Y-129820814D01*
X95884763Y-129783957D01*
X95842798Y-129721153D01*
X100099500Y-129721153D01*
X100099500Y-129878846D01*
X100130261Y-130033489D01*
X100130264Y-130033501D01*
X100190602Y-130179172D01*
X100190609Y-130179185D01*
X100278210Y-130310288D01*
X100278213Y-130310292D01*
X100389707Y-130421786D01*
X100389711Y-130421789D01*
X100520814Y-130509390D01*
X100520827Y-130509397D01*
X100666498Y-130569735D01*
X100666503Y-130569737D01*
X100821153Y-130600499D01*
X100821156Y-130600500D01*
X100821158Y-130600500D01*
X100978844Y-130600500D01*
X100978845Y-130600499D01*
X101133497Y-130569737D01*
X101251592Y-130520821D01*
X101279172Y-130509397D01*
X101279172Y-130509396D01*
X101279179Y-130509394D01*
X101410289Y-130421789D01*
X101521789Y-130310289D01*
X101609394Y-130179179D01*
X101620043Y-130153468D01*
X101663884Y-130099065D01*
X101730178Y-130076999D01*
X101797877Y-130094277D01*
X101803497Y-130097819D01*
X101820813Y-130109389D01*
X101820815Y-130109390D01*
X101820821Y-130109394D01*
X101820823Y-130109395D01*
X101820827Y-130109397D01*
X101920060Y-130150500D01*
X101966503Y-130169737D01*
X102121153Y-130200499D01*
X102121156Y-130200500D01*
X102121158Y-130200500D01*
X102278844Y-130200500D01*
X102278845Y-130200499D01*
X102433497Y-130169737D01*
X102579179Y-130109394D01*
X102710289Y-130021789D01*
X102821789Y-129910289D01*
X102909394Y-129779179D01*
X102969737Y-129633497D01*
X103000500Y-129478842D01*
X103000500Y-129321158D01*
X103000157Y-129319435D01*
X102990554Y-129271158D01*
X102985938Y-129247951D01*
X102992165Y-129178361D01*
X103035027Y-129123183D01*
X103100917Y-129099938D01*
X103119713Y-129100357D01*
X103121152Y-129100498D01*
X103121158Y-129100500D01*
X103121164Y-129100500D01*
X103278844Y-129100500D01*
X103278845Y-129100499D01*
X103433497Y-129069737D01*
X103579179Y-129009394D01*
X103710289Y-128921789D01*
X103821789Y-128810289D01*
X103909394Y-128679179D01*
X103969737Y-128533497D01*
X104000500Y-128378842D01*
X104000500Y-128221158D01*
X104000500Y-128221155D01*
X104000499Y-128221153D01*
X103982159Y-128128954D01*
X103969737Y-128066503D01*
X103950812Y-128020814D01*
X103926666Y-127962518D01*
X103909532Y-127921153D01*
X117599500Y-127921153D01*
X117599500Y-128078846D01*
X117630261Y-128233489D01*
X117630264Y-128233501D01*
X117690602Y-128379172D01*
X117690609Y-128379185D01*
X117778210Y-128510288D01*
X117778213Y-128510292D01*
X117889707Y-128621786D01*
X117889711Y-128621789D01*
X118020814Y-128709390D01*
X118020827Y-128709397D01*
X118066254Y-128728213D01*
X118166503Y-128769737D01*
X118321153Y-128800499D01*
X118321156Y-128800500D01*
X118321158Y-128800500D01*
X118478844Y-128800500D01*
X118478845Y-128800499D01*
X118633497Y-128769737D01*
X118779179Y-128709394D01*
X118910289Y-128621789D01*
X119021789Y-128510289D01*
X119109394Y-128379179D01*
X119110938Y-128375450D01*
X119154778Y-128321047D01*
X119221072Y-128298981D01*
X119288771Y-128316259D01*
X119336383Y-128367395D01*
X119349500Y-128422902D01*
X119349500Y-128528846D01*
X119380261Y-128683489D01*
X119380264Y-128683501D01*
X119440602Y-128829172D01*
X119440609Y-128829185D01*
X119528210Y-128960288D01*
X119528213Y-128960292D01*
X119639707Y-129071786D01*
X119639711Y-129071789D01*
X119770814Y-129159390D01*
X119770827Y-129159397D01*
X119851780Y-129192928D01*
X119916503Y-129219737D01*
X119949690Y-129226338D01*
X120011600Y-129258721D01*
X120046176Y-129319435D01*
X120049500Y-129347955D01*
X120049500Y-129428846D01*
X120080261Y-129583489D01*
X120080264Y-129583501D01*
X120140602Y-129729172D01*
X120140609Y-129729185D01*
X120228210Y-129860288D01*
X120228213Y-129860292D01*
X120339707Y-129971786D01*
X120339711Y-129971789D01*
X120470814Y-130059390D01*
X120470827Y-130059397D01*
X120616498Y-130119735D01*
X120616503Y-130119737D01*
X120771153Y-130150499D01*
X120771156Y-130150500D01*
X120771158Y-130150500D01*
X120928844Y-130150500D01*
X120928845Y-130150499D01*
X121083497Y-130119737D01*
X121229179Y-130059394D01*
X121360289Y-129971789D01*
X121471789Y-129860289D01*
X121559394Y-129729179D01*
X121562719Y-129721153D01*
X121619735Y-129583501D01*
X121619737Y-129583497D01*
X121650500Y-129428842D01*
X121650500Y-129271158D01*
X121650500Y-129271155D01*
X121650499Y-129271153D01*
X121632012Y-129178213D01*
X121619737Y-129116503D01*
X121615270Y-129105719D01*
X121559397Y-128970827D01*
X121559390Y-128970814D01*
X121471789Y-128839711D01*
X121471786Y-128839707D01*
X121360292Y-128728213D01*
X121360288Y-128728210D01*
X121229185Y-128640609D01*
X121229172Y-128640602D01*
X121083501Y-128580264D01*
X121083493Y-128580262D01*
X121050306Y-128573660D01*
X120988396Y-128541273D01*
X120953823Y-128480557D01*
X120950500Y-128452043D01*
X120950500Y-128371155D01*
X120950499Y-128371153D01*
X120923117Y-128233497D01*
X120919737Y-128216503D01*
X120919735Y-128216498D01*
X120859397Y-128070827D01*
X120859390Y-128070814D01*
X120771789Y-127939711D01*
X120771786Y-127939707D01*
X120660292Y-127828213D01*
X120660288Y-127828210D01*
X120529185Y-127740609D01*
X120529172Y-127740602D01*
X120383501Y-127680264D01*
X120383489Y-127680261D01*
X120228845Y-127649500D01*
X120228842Y-127649500D01*
X120071158Y-127649500D01*
X120071155Y-127649500D01*
X119916510Y-127680261D01*
X119916498Y-127680264D01*
X119770827Y-127740602D01*
X119770814Y-127740609D01*
X119639711Y-127828210D01*
X119639707Y-127828213D01*
X119528213Y-127939707D01*
X119528210Y-127939711D01*
X119440609Y-128070814D01*
X119440603Y-128070826D01*
X119439060Y-128074552D01*
X119395218Y-128128954D01*
X119328924Y-128151018D01*
X119261225Y-128133738D01*
X119213615Y-128082599D01*
X119200500Y-128027097D01*
X119200500Y-127921155D01*
X119200499Y-127921153D01*
X119182012Y-127828213D01*
X119169737Y-127766503D01*
X119169735Y-127766498D01*
X119109397Y-127620827D01*
X119109389Y-127620813D01*
X119097819Y-127603497D01*
X119076940Y-127536820D01*
X119095424Y-127469440D01*
X119147402Y-127422749D01*
X119153458Y-127420047D01*
X119179179Y-127409394D01*
X119310289Y-127321789D01*
X119421789Y-127210289D01*
X119509394Y-127079179D01*
X119569737Y-126933497D01*
X119600500Y-126778842D01*
X119600500Y-126621158D01*
X119600500Y-126621155D01*
X119600499Y-126621153D01*
X119569738Y-126466510D01*
X119569737Y-126466503D01*
X119542398Y-126400500D01*
X119509397Y-126320827D01*
X119509390Y-126320814D01*
X119421789Y-126189711D01*
X119421786Y-126189707D01*
X119310292Y-126078213D01*
X119310288Y-126078210D01*
X119187482Y-125996153D01*
X120674500Y-125996153D01*
X120674500Y-126153846D01*
X120705261Y-126308489D01*
X120705264Y-126308501D01*
X120765602Y-126454172D01*
X120765609Y-126454185D01*
X120853210Y-126585288D01*
X120853213Y-126585292D01*
X120964707Y-126696786D01*
X120964711Y-126696789D01*
X121095814Y-126784390D01*
X121095827Y-126784397D01*
X121186101Y-126821789D01*
X121241503Y-126844737D01*
X121396153Y-126875499D01*
X121396156Y-126875500D01*
X121396158Y-126875500D01*
X121553844Y-126875500D01*
X121553845Y-126875499D01*
X121708497Y-126844737D01*
X121854179Y-126784394D01*
X121985289Y-126696789D01*
X122096789Y-126585289D01*
X122184394Y-126454179D01*
X122244737Y-126308497D01*
X122275500Y-126153842D01*
X122275500Y-125996158D01*
X122275500Y-125996155D01*
X122275499Y-125996153D01*
X122270245Y-125969738D01*
X122244737Y-125841503D01*
X122244735Y-125841498D01*
X122184397Y-125695827D01*
X122184390Y-125695814D01*
X122096789Y-125564711D01*
X122096786Y-125564707D01*
X121985292Y-125453213D01*
X121985288Y-125453210D01*
X121854185Y-125365609D01*
X121854172Y-125365602D01*
X121708501Y-125305264D01*
X121708489Y-125305261D01*
X121553845Y-125274500D01*
X121553842Y-125274500D01*
X121396158Y-125274500D01*
X121396155Y-125274500D01*
X121241510Y-125305261D01*
X121241498Y-125305264D01*
X121095827Y-125365602D01*
X121095814Y-125365609D01*
X120964711Y-125453210D01*
X120964707Y-125453213D01*
X120853213Y-125564707D01*
X120853210Y-125564711D01*
X120765609Y-125695814D01*
X120765602Y-125695827D01*
X120705264Y-125841498D01*
X120705261Y-125841510D01*
X120674500Y-125996153D01*
X119187482Y-125996153D01*
X119179185Y-125990609D01*
X119179172Y-125990602D01*
X119033501Y-125930264D01*
X119033489Y-125930261D01*
X118878845Y-125899500D01*
X118878842Y-125899500D01*
X118721158Y-125899500D01*
X118721155Y-125899500D01*
X118566510Y-125930261D01*
X118566498Y-125930264D01*
X118420827Y-125990602D01*
X118420814Y-125990609D01*
X118289711Y-126078210D01*
X118289707Y-126078213D01*
X118178213Y-126189707D01*
X118178210Y-126189711D01*
X118090609Y-126320814D01*
X118090602Y-126320827D01*
X118030264Y-126466498D01*
X118030261Y-126466510D01*
X117999500Y-126621153D01*
X117999500Y-126778846D01*
X118030261Y-126933489D01*
X118030264Y-126933501D01*
X118090602Y-127079172D01*
X118090609Y-127079185D01*
X118102181Y-127096503D01*
X118123059Y-127163180D01*
X118104575Y-127230560D01*
X118052596Y-127277251D01*
X118046535Y-127279954D01*
X118020823Y-127290604D01*
X118020814Y-127290609D01*
X117889711Y-127378210D01*
X117889707Y-127378213D01*
X117778213Y-127489707D01*
X117778210Y-127489711D01*
X117690609Y-127620814D01*
X117690602Y-127620827D01*
X117630264Y-127766498D01*
X117630261Y-127766510D01*
X117599500Y-127921153D01*
X103909532Y-127921153D01*
X103909395Y-127920823D01*
X103909390Y-127920814D01*
X103821789Y-127789711D01*
X103821786Y-127789707D01*
X103710292Y-127678213D01*
X103710288Y-127678210D01*
X103579185Y-127590609D01*
X103579172Y-127590602D01*
X103433501Y-127530264D01*
X103433491Y-127530261D01*
X103384374Y-127520491D01*
X103322463Y-127488106D01*
X103287889Y-127427389D01*
X103291630Y-127357620D01*
X103320883Y-127311194D01*
X103421789Y-127210289D01*
X103509394Y-127079179D01*
X103569737Y-126933497D01*
X103600500Y-126778842D01*
X103600500Y-126621158D01*
X103600500Y-126621155D01*
X103600499Y-126621153D01*
X103569738Y-126466510D01*
X103569737Y-126466503D01*
X103542398Y-126400500D01*
X103509397Y-126320827D01*
X103509390Y-126320814D01*
X103421789Y-126189711D01*
X103421786Y-126189707D01*
X103310292Y-126078213D01*
X103310288Y-126078210D01*
X103179185Y-125990609D01*
X103179172Y-125990602D01*
X103033501Y-125930264D01*
X103033489Y-125930261D01*
X102878845Y-125899500D01*
X102878842Y-125899500D01*
X102721158Y-125899500D01*
X102721155Y-125899500D01*
X102566510Y-125930261D01*
X102566498Y-125930264D01*
X102420827Y-125990602D01*
X102420814Y-125990609D01*
X102289711Y-126078210D01*
X102289707Y-126078213D01*
X102178213Y-126189707D01*
X102178210Y-126189711D01*
X102090609Y-126320814D01*
X102090602Y-126320827D01*
X102030264Y-126466498D01*
X102030261Y-126466510D01*
X101999500Y-126621153D01*
X101999500Y-126778846D01*
X102030261Y-126933489D01*
X102030264Y-126933501D01*
X102090602Y-127079172D01*
X102090609Y-127079185D01*
X102178210Y-127210288D01*
X102178213Y-127210292D01*
X102289707Y-127321786D01*
X102289711Y-127321789D01*
X102367785Y-127373957D01*
X102412590Y-127427569D01*
X102421297Y-127496894D01*
X102391142Y-127559922D01*
X102331699Y-127596641D01*
X102285083Y-127598305D01*
X102284907Y-127600097D01*
X102278845Y-127599500D01*
X102278842Y-127599500D01*
X102121158Y-127599500D01*
X102121155Y-127599500D01*
X101966510Y-127630261D01*
X101966498Y-127630264D01*
X101820827Y-127690602D01*
X101820814Y-127690609D01*
X101689711Y-127778210D01*
X101689707Y-127778213D01*
X101578213Y-127889707D01*
X101578210Y-127889711D01*
X101490609Y-128020814D01*
X101490602Y-128020827D01*
X101430264Y-128166498D01*
X101430261Y-128166510D01*
X101399500Y-128321153D01*
X101399500Y-128478846D01*
X101430261Y-128633489D01*
X101430264Y-128633501D01*
X101490602Y-128779172D01*
X101490609Y-128779185D01*
X101525304Y-128831109D01*
X101530036Y-128846221D01*
X101539260Y-128859093D01*
X101540262Y-128878879D01*
X101546182Y-128897786D01*
X101542037Y-128913927D01*
X101542794Y-128928873D01*
X101531653Y-128954363D01*
X101529775Y-128961678D01*
X101527664Y-128965359D01*
X101490606Y-129020821D01*
X101476919Y-129053863D01*
X101472967Y-129060757D01*
X101453250Y-129079669D01*
X101436111Y-129100937D01*
X101428405Y-129103501D01*
X101422544Y-129109124D01*
X101395736Y-129114374D01*
X101369817Y-129123000D01*
X101361947Y-129120991D01*
X101353977Y-129122552D01*
X101328585Y-129112475D01*
X101302118Y-129105719D01*
X101296503Y-129102181D01*
X101279185Y-129090609D01*
X101279172Y-129090602D01*
X101133501Y-129030264D01*
X101133489Y-129030261D01*
X100978845Y-128999500D01*
X100978842Y-128999500D01*
X100821158Y-128999500D01*
X100821155Y-128999500D01*
X100666510Y-129030261D01*
X100666498Y-129030264D01*
X100520827Y-129090602D01*
X100520814Y-129090609D01*
X100389711Y-129178210D01*
X100389707Y-129178213D01*
X100278213Y-129289707D01*
X100278210Y-129289711D01*
X100190609Y-129420814D01*
X100190602Y-129420827D01*
X100130264Y-129566498D01*
X100130261Y-129566510D01*
X100099500Y-129721153D01*
X95842798Y-129721153D01*
X95821789Y-129689711D01*
X95821786Y-129689707D01*
X95710292Y-129578213D01*
X95710288Y-129578210D01*
X95579185Y-129490609D01*
X95579172Y-129490602D01*
X95433501Y-129430264D01*
X95433489Y-129430261D01*
X95278845Y-129399500D01*
X95278842Y-129399500D01*
X95121158Y-129399500D01*
X95121155Y-129399500D01*
X94966510Y-129430261D01*
X94966498Y-129430264D01*
X94820827Y-129490602D01*
X94820814Y-129490609D01*
X94689711Y-129578210D01*
X94689707Y-129578213D01*
X94578213Y-129689707D01*
X94578210Y-129689711D01*
X94490609Y-129820814D01*
X94490602Y-129820827D01*
X94430264Y-129966498D01*
X94430261Y-129966510D01*
X94399500Y-130121153D01*
X80200500Y-130121153D01*
X80200500Y-125521153D01*
X106099500Y-125521153D01*
X106099500Y-125678846D01*
X106130261Y-125833489D01*
X106130264Y-125833501D01*
X106190602Y-125979172D01*
X106190609Y-125979185D01*
X106278210Y-126110288D01*
X106278213Y-126110292D01*
X106389707Y-126221786D01*
X106389711Y-126221789D01*
X106520814Y-126309390D01*
X106520827Y-126309397D01*
X106666498Y-126369735D01*
X106666503Y-126369737D01*
X106821153Y-126400499D01*
X106821156Y-126400500D01*
X106821158Y-126400500D01*
X106978844Y-126400500D01*
X106978845Y-126400499D01*
X107133497Y-126369737D01*
X107251592Y-126320821D01*
X107279172Y-126309397D01*
X107279172Y-126309396D01*
X107279179Y-126309394D01*
X107410289Y-126221789D01*
X107510925Y-126121153D01*
X114199500Y-126121153D01*
X114199500Y-126278846D01*
X114230261Y-126433489D01*
X114230264Y-126433501D01*
X114290602Y-126579172D01*
X114290609Y-126579185D01*
X114378210Y-126710288D01*
X114378213Y-126710292D01*
X114489707Y-126821786D01*
X114489711Y-126821789D01*
X114620814Y-126909390D01*
X114620827Y-126909397D01*
X114766498Y-126969735D01*
X114766503Y-126969737D01*
X114921153Y-127000499D01*
X114921156Y-127000500D01*
X114921158Y-127000500D01*
X115078844Y-127000500D01*
X115078845Y-127000499D01*
X115233497Y-126969737D01*
X115379179Y-126909394D01*
X115510289Y-126821789D01*
X115621789Y-126710289D01*
X115709394Y-126579179D01*
X115769737Y-126433497D01*
X115800500Y-126278842D01*
X115800500Y-126121158D01*
X115800500Y-126121155D01*
X115800499Y-126121153D01*
X115778269Y-126009397D01*
X115769737Y-125966503D01*
X115766943Y-125959757D01*
X115709397Y-125820827D01*
X115709390Y-125820814D01*
X115621789Y-125689711D01*
X115621786Y-125689707D01*
X115510292Y-125578213D01*
X115510288Y-125578210D01*
X115379185Y-125490609D01*
X115379172Y-125490602D01*
X115233501Y-125430264D01*
X115233489Y-125430261D01*
X115078845Y-125399500D01*
X115078842Y-125399500D01*
X114921158Y-125399500D01*
X114921155Y-125399500D01*
X114766510Y-125430261D01*
X114766498Y-125430264D01*
X114620827Y-125490602D01*
X114620814Y-125490609D01*
X114489711Y-125578210D01*
X114489707Y-125578213D01*
X114378213Y-125689707D01*
X114378210Y-125689711D01*
X114290609Y-125820814D01*
X114290602Y-125820827D01*
X114230264Y-125966498D01*
X114230261Y-125966510D01*
X114199500Y-126121153D01*
X107510925Y-126121153D01*
X107521789Y-126110289D01*
X107591856Y-126005426D01*
X107645466Y-125960622D01*
X107714791Y-125951915D01*
X107742407Y-125959756D01*
X107766503Y-125969737D01*
X107921153Y-126000499D01*
X107921156Y-126000500D01*
X107921158Y-126000500D01*
X108078844Y-126000500D01*
X108078845Y-126000499D01*
X108233497Y-125969737D01*
X108349262Y-125921786D01*
X108379172Y-125909397D01*
X108379172Y-125909396D01*
X108379179Y-125909394D01*
X108510289Y-125821789D01*
X108621789Y-125710289D01*
X108709394Y-125579179D01*
X108715389Y-125564707D01*
X108733700Y-125520499D01*
X108769737Y-125433497D01*
X108800500Y-125278842D01*
X108800500Y-125221153D01*
X111799500Y-125221153D01*
X111799500Y-125378846D01*
X111830261Y-125533489D01*
X111830264Y-125533501D01*
X111890602Y-125679172D01*
X111890609Y-125679185D01*
X111978210Y-125810288D01*
X111978213Y-125810292D01*
X112089707Y-125921786D01*
X112089711Y-125921789D01*
X112220814Y-126009390D01*
X112220827Y-126009397D01*
X112366498Y-126069735D01*
X112366503Y-126069737D01*
X112521153Y-126100499D01*
X112521156Y-126100500D01*
X112521158Y-126100500D01*
X112678844Y-126100500D01*
X112678845Y-126100499D01*
X112833497Y-126069737D01*
X112979179Y-126009394D01*
X113110289Y-125921789D01*
X113221789Y-125810289D01*
X113309394Y-125679179D01*
X113369737Y-125533497D01*
X113400500Y-125378842D01*
X113400500Y-125221158D01*
X113400500Y-125221155D01*
X113400499Y-125221153D01*
X113383047Y-125133416D01*
X113369737Y-125066503D01*
X113359714Y-125042306D01*
X113309397Y-124920827D01*
X113309390Y-124920814D01*
X113221789Y-124789711D01*
X113221786Y-124789707D01*
X113110292Y-124678213D01*
X113110288Y-124678210D01*
X112979185Y-124590609D01*
X112979172Y-124590602D01*
X112833501Y-124530264D01*
X112833489Y-124530261D01*
X112678845Y-124499500D01*
X112678842Y-124499500D01*
X112521158Y-124499500D01*
X112521155Y-124499500D01*
X112366510Y-124530261D01*
X112366498Y-124530264D01*
X112220827Y-124590602D01*
X112220814Y-124590609D01*
X112089711Y-124678210D01*
X112089707Y-124678213D01*
X111978213Y-124789707D01*
X111978210Y-124789711D01*
X111890609Y-124920814D01*
X111890602Y-124920827D01*
X111830264Y-125066498D01*
X111830261Y-125066510D01*
X111799500Y-125221153D01*
X108800500Y-125221153D01*
X108800500Y-125121158D01*
X108800500Y-125121155D01*
X108800499Y-125121153D01*
X108769739Y-124966511D01*
X108769736Y-124966501D01*
X108750817Y-124920827D01*
X108741645Y-124898684D01*
X108739509Y-124878809D01*
X108732523Y-124860079D01*
X108735850Y-124844782D01*
X108734177Y-124829216D01*
X108743125Y-124811338D01*
X108747375Y-124791806D01*
X108764060Y-124769517D01*
X108765452Y-124766737D01*
X108768526Y-124763552D01*
X108771740Y-124760338D01*
X108833063Y-124726853D01*
X108902755Y-124731837D01*
X108958688Y-124773709D01*
X108962523Y-124779129D01*
X109005334Y-124843200D01*
X109005340Y-124843208D01*
X109116834Y-124954702D01*
X109116838Y-124954705D01*
X109247941Y-125042306D01*
X109247954Y-125042313D01*
X109306372Y-125066510D01*
X109393630Y-125102653D01*
X109548280Y-125133415D01*
X109548283Y-125133416D01*
X109548285Y-125133416D01*
X109705971Y-125133416D01*
X109705972Y-125133415D01*
X109860624Y-125102653D01*
X110006306Y-125042310D01*
X110137416Y-124954705D01*
X110248916Y-124843205D01*
X110336521Y-124712095D01*
X110396864Y-124566413D01*
X110427627Y-124411758D01*
X110427627Y-124254074D01*
X110427627Y-124254071D01*
X110427626Y-124254069D01*
X110418918Y-124210292D01*
X110396864Y-124099419D01*
X110396862Y-124099414D01*
X110336524Y-123953743D01*
X110336517Y-123953730D01*
X110248916Y-123822627D01*
X110248913Y-123822623D01*
X110137419Y-123711129D01*
X110137415Y-123711126D01*
X110006312Y-123623525D01*
X110006299Y-123623518D01*
X109860628Y-123563180D01*
X109860616Y-123563177D01*
X109705972Y-123532416D01*
X109705969Y-123532416D01*
X109548285Y-123532416D01*
X109548282Y-123532416D01*
X109393637Y-123563177D01*
X109393625Y-123563180D01*
X109247954Y-123623518D01*
X109247941Y-123623525D01*
X109116838Y-123711126D01*
X109055386Y-123772578D01*
X108994062Y-123806062D01*
X108924371Y-123801077D01*
X108868437Y-123759206D01*
X108864612Y-123753801D01*
X108821789Y-123689711D01*
X108821787Y-123689708D01*
X108710292Y-123578213D01*
X108710288Y-123578210D01*
X108579185Y-123490609D01*
X108579172Y-123490602D01*
X108433501Y-123430264D01*
X108433489Y-123430261D01*
X108278845Y-123399500D01*
X108278842Y-123399500D01*
X108121158Y-123399500D01*
X108121155Y-123399500D01*
X107966510Y-123430261D01*
X107966498Y-123430264D01*
X107820827Y-123490602D01*
X107820814Y-123490609D01*
X107689711Y-123578210D01*
X107689707Y-123578213D01*
X107578213Y-123689707D01*
X107578210Y-123689711D01*
X107490609Y-123820814D01*
X107490602Y-123820827D01*
X107430264Y-123966498D01*
X107430261Y-123966510D01*
X107399500Y-124121153D01*
X107399500Y-124278846D01*
X107430260Y-124433488D01*
X107430261Y-124433489D01*
X107430263Y-124433497D01*
X107458354Y-124501316D01*
X107459706Y-124513898D01*
X107465520Y-124525138D01*
X107463369Y-124547973D01*
X107465822Y-124570784D01*
X107460000Y-124583757D01*
X107458970Y-124594700D01*
X107446796Y-124613182D01*
X107441364Y-124625289D01*
X107436750Y-124631171D01*
X107378211Y-124689711D01*
X107305528Y-124798487D01*
X107302614Y-124802204D01*
X107277863Y-124819877D01*
X107254531Y-124839377D01*
X107249708Y-124839982D01*
X107245753Y-124842807D01*
X107215380Y-124844294D01*
X107185206Y-124848084D01*
X107178259Y-124846111D01*
X107175967Y-124846224D01*
X107173349Y-124844717D01*
X107157591Y-124840243D01*
X107155500Y-124839377D01*
X107133497Y-124830263D01*
X107133493Y-124830262D01*
X107133489Y-124830261D01*
X106978845Y-124799500D01*
X106978842Y-124799500D01*
X106821158Y-124799500D01*
X106821155Y-124799500D01*
X106666510Y-124830261D01*
X106666498Y-124830264D01*
X106520827Y-124890602D01*
X106520814Y-124890609D01*
X106389711Y-124978210D01*
X106389707Y-124978213D01*
X106278213Y-125089707D01*
X106278210Y-125089711D01*
X106190609Y-125220814D01*
X106190602Y-125220827D01*
X106130264Y-125366498D01*
X106130261Y-125366510D01*
X106099500Y-125521153D01*
X80200500Y-125521153D01*
X80200500Y-123621153D01*
X87339500Y-123621153D01*
X87339500Y-123778846D01*
X87370261Y-123933489D01*
X87370264Y-123933501D01*
X87430602Y-124079172D01*
X87430609Y-124079185D01*
X87518210Y-124210288D01*
X87518213Y-124210292D01*
X87629707Y-124321786D01*
X87629711Y-124321789D01*
X87760814Y-124409390D01*
X87760827Y-124409397D01*
X87906498Y-124469735D01*
X87906503Y-124469737D01*
X88056131Y-124499500D01*
X88061153Y-124500499D01*
X88061156Y-124500500D01*
X88061158Y-124500500D01*
X88218844Y-124500500D01*
X88218845Y-124500499D01*
X88373497Y-124469737D01*
X88464419Y-124432075D01*
X88533887Y-124424607D01*
X88596367Y-124455882D01*
X88632019Y-124515971D01*
X88633489Y-124570827D01*
X88619500Y-124641158D01*
X88619500Y-124798846D01*
X88650261Y-124953489D01*
X88650264Y-124953501D01*
X88710602Y-125099172D01*
X88710609Y-125099185D01*
X88798210Y-125230288D01*
X88798213Y-125230292D01*
X88909707Y-125341786D01*
X88909711Y-125341789D01*
X89040814Y-125429390D01*
X89040827Y-125429397D01*
X89186498Y-125489735D01*
X89186503Y-125489737D01*
X89341153Y-125520499D01*
X89341156Y-125520500D01*
X89341158Y-125520500D01*
X89498844Y-125520500D01*
X89498845Y-125520499D01*
X89653497Y-125489737D01*
X89789264Y-125433501D01*
X89799172Y-125429397D01*
X89799172Y-125429396D01*
X89799179Y-125429394D01*
X89799186Y-125429388D01*
X89799190Y-125429387D01*
X89825262Y-125411966D01*
X89825266Y-125411964D01*
X89894650Y-125365602D01*
X89930289Y-125341789D01*
X90041789Y-125230289D01*
X90129394Y-125099179D01*
X90189737Y-124953497D01*
X90220500Y-124798842D01*
X90220500Y-124641158D01*
X90220500Y-124641155D01*
X90220499Y-124641153D01*
X90210445Y-124590609D01*
X90189737Y-124486503D01*
X90182792Y-124469735D01*
X90129397Y-124340827D01*
X90129390Y-124340814D01*
X90041789Y-124209711D01*
X90041786Y-124209707D01*
X89930292Y-124098213D01*
X89930288Y-124098210D01*
X89799185Y-124010609D01*
X89799172Y-124010602D01*
X89653501Y-123950264D01*
X89653489Y-123950261D01*
X89498845Y-123919500D01*
X89498842Y-123919500D01*
X89341158Y-123919500D01*
X89341155Y-123919500D01*
X89186510Y-123950261D01*
X89186503Y-123950263D01*
X89095579Y-123987924D01*
X89026110Y-123995392D01*
X88963631Y-123964116D01*
X88927979Y-123904027D01*
X88926511Y-123849170D01*
X88940500Y-123778844D01*
X88940500Y-123621155D01*
X88940499Y-123621153D01*
X88920734Y-123521789D01*
X88909737Y-123466503D01*
X88909735Y-123466498D01*
X88849397Y-123320827D01*
X88849390Y-123320814D01*
X88761789Y-123189711D01*
X88761786Y-123189707D01*
X88650292Y-123078213D01*
X88650288Y-123078210D01*
X88519185Y-122990609D01*
X88519172Y-122990602D01*
X88373501Y-122930264D01*
X88373489Y-122930261D01*
X88218845Y-122899500D01*
X88218842Y-122899500D01*
X88061158Y-122899500D01*
X88061155Y-122899500D01*
X87906510Y-122930261D01*
X87906498Y-122930264D01*
X87760827Y-122990602D01*
X87760814Y-122990609D01*
X87629711Y-123078210D01*
X87629707Y-123078213D01*
X87518213Y-123189707D01*
X87518210Y-123189711D01*
X87430609Y-123320814D01*
X87430602Y-123320827D01*
X87370264Y-123466498D01*
X87370261Y-123466510D01*
X87339500Y-123621153D01*
X80200500Y-123621153D01*
X80200500Y-122821153D01*
X90419500Y-122821153D01*
X90419500Y-122978846D01*
X90450261Y-123133489D01*
X90450264Y-123133501D01*
X90510602Y-123279172D01*
X90510609Y-123279185D01*
X90598210Y-123410288D01*
X90598213Y-123410292D01*
X90709707Y-123521786D01*
X90709711Y-123521789D01*
X90840814Y-123609390D01*
X90840827Y-123609397D01*
X90986498Y-123669735D01*
X90986503Y-123669737D01*
X91141153Y-123700499D01*
X91141156Y-123700500D01*
X91141158Y-123700500D01*
X91298844Y-123700500D01*
X91298845Y-123700499D01*
X91453497Y-123669737D01*
X91599179Y-123609394D01*
X91730289Y-123521789D01*
X91841789Y-123410289D01*
X91929394Y-123279179D01*
X91989737Y-123133497D01*
X92020500Y-122978842D01*
X92020500Y-122821158D01*
X92008728Y-122761977D01*
X92014955Y-122692387D01*
X92057817Y-122637209D01*
X92123706Y-122613964D01*
X92191704Y-122630031D01*
X92218026Y-122650105D01*
X92289707Y-122721786D01*
X92289711Y-122721789D01*
X92420814Y-122809390D01*
X92420827Y-122809397D01*
X92566498Y-122869735D01*
X92566503Y-122869737D01*
X92716131Y-122899500D01*
X92721153Y-122900499D01*
X92721156Y-122900500D01*
X92721158Y-122900500D01*
X92878844Y-122900500D01*
X92878845Y-122900499D01*
X93033497Y-122869737D01*
X93179179Y-122809394D01*
X93310289Y-122721789D01*
X93421789Y-122610289D01*
X93509394Y-122479179D01*
X93569737Y-122333497D01*
X93600500Y-122178842D01*
X93600500Y-122021158D01*
X93600500Y-122021155D01*
X93600499Y-122021153D01*
X93597641Y-122006786D01*
X93569737Y-121866503D01*
X93527356Y-121764185D01*
X93509397Y-121720827D01*
X93509390Y-121720814D01*
X93421789Y-121589711D01*
X93421786Y-121589707D01*
X93310292Y-121478213D01*
X93310288Y-121478210D01*
X93179185Y-121390609D01*
X93179172Y-121390602D01*
X93033501Y-121330264D01*
X93033489Y-121330261D01*
X92878845Y-121299500D01*
X92878842Y-121299500D01*
X92721158Y-121299500D01*
X92721155Y-121299500D01*
X92566510Y-121330261D01*
X92566498Y-121330264D01*
X92420827Y-121390602D01*
X92420814Y-121390609D01*
X92289711Y-121478210D01*
X92289707Y-121478213D01*
X92178213Y-121589707D01*
X92178210Y-121589711D01*
X92090609Y-121720814D01*
X92090602Y-121720827D01*
X92030264Y-121866498D01*
X92030261Y-121866510D01*
X91999500Y-122021153D01*
X91999500Y-122178846D01*
X92011271Y-122238022D01*
X92005044Y-122307613D01*
X91962181Y-122362791D01*
X91896291Y-122386035D01*
X91828294Y-122369967D01*
X91801973Y-122349894D01*
X91730292Y-122278213D01*
X91730288Y-122278210D01*
X91599185Y-122190609D01*
X91599172Y-122190602D01*
X91453501Y-122130264D01*
X91453489Y-122130261D01*
X91298845Y-122099500D01*
X91298842Y-122099500D01*
X91141158Y-122099500D01*
X91141155Y-122099500D01*
X90986510Y-122130261D01*
X90986498Y-122130264D01*
X90840827Y-122190602D01*
X90840814Y-122190609D01*
X90709711Y-122278210D01*
X90709707Y-122278213D01*
X90598213Y-122389707D01*
X90598210Y-122389711D01*
X90510609Y-122520814D01*
X90510602Y-122520827D01*
X90450264Y-122666498D01*
X90450261Y-122666510D01*
X90419500Y-122821153D01*
X80200500Y-122821153D01*
X80200500Y-121306153D01*
X86024500Y-121306153D01*
X86024500Y-121463846D01*
X86055261Y-121618489D01*
X86055264Y-121618501D01*
X86115602Y-121764172D01*
X86115609Y-121764185D01*
X86203210Y-121895288D01*
X86203213Y-121895292D01*
X86314707Y-122006786D01*
X86314711Y-122006789D01*
X86445814Y-122094390D01*
X86445827Y-122094397D01*
X86591498Y-122154735D01*
X86591503Y-122154737D01*
X86746153Y-122185499D01*
X86746156Y-122185500D01*
X86746158Y-122185500D01*
X86903844Y-122185500D01*
X86903845Y-122185499D01*
X87058497Y-122154737D01*
X87204179Y-122094394D01*
X87335289Y-122006789D01*
X87446789Y-121895289D01*
X87534394Y-121764179D01*
X87594737Y-121618497D01*
X87625500Y-121463842D01*
X87625500Y-121306158D01*
X87625500Y-121306155D01*
X87625499Y-121306153D01*
X87594738Y-121151510D01*
X87594737Y-121151503D01*
X87594735Y-121151498D01*
X87534397Y-121005827D01*
X87534390Y-121005814D01*
X87446789Y-120874711D01*
X87446786Y-120874707D01*
X87335292Y-120763213D01*
X87335288Y-120763210D01*
X87204185Y-120675609D01*
X87204172Y-120675602D01*
X87058501Y-120615264D01*
X87058489Y-120615261D01*
X86903845Y-120584500D01*
X86903842Y-120584500D01*
X86746158Y-120584500D01*
X86746155Y-120584500D01*
X86591510Y-120615261D01*
X86591498Y-120615264D01*
X86445827Y-120675602D01*
X86445814Y-120675609D01*
X86314711Y-120763210D01*
X86314707Y-120763213D01*
X86203213Y-120874707D01*
X86203210Y-120874711D01*
X86115609Y-121005814D01*
X86115602Y-121005827D01*
X86055264Y-121151498D01*
X86055261Y-121151510D01*
X86024500Y-121306153D01*
X80200500Y-121306153D01*
X80200500Y-108621153D01*
X113699500Y-108621153D01*
X113699500Y-108778846D01*
X113730260Y-108933488D01*
X113730262Y-108933493D01*
X113730263Y-108933497D01*
X113758865Y-109002549D01*
X113766333Y-109072018D01*
X113758865Y-109097447D01*
X113730263Y-109166503D01*
X113730262Y-109166506D01*
X113730260Y-109166511D01*
X113699500Y-109321153D01*
X113699500Y-109478846D01*
X113730260Y-109633488D01*
X113730262Y-109633493D01*
X113730263Y-109633497D01*
X113755318Y-109693986D01*
X113758865Y-109702549D01*
X113766333Y-109772018D01*
X113758865Y-109797447D01*
X113730263Y-109866503D01*
X113730262Y-109866506D01*
X113730260Y-109866511D01*
X113699500Y-110021153D01*
X113699500Y-110178846D01*
X113730261Y-110333489D01*
X113730264Y-110333501D01*
X113790602Y-110479172D01*
X113790609Y-110479185D01*
X113878210Y-110610288D01*
X113878213Y-110610292D01*
X113989707Y-110721786D01*
X113989711Y-110721789D01*
X114120814Y-110809390D01*
X114120827Y-110809397D01*
X114266498Y-110869735D01*
X114266503Y-110869737D01*
X114421153Y-110900499D01*
X114421156Y-110900500D01*
X114421158Y-110900500D01*
X114578844Y-110900500D01*
X114578845Y-110900499D01*
X114733497Y-110869737D01*
X114879179Y-110809394D01*
X115010289Y-110721789D01*
X115121789Y-110610289D01*
X115209394Y-110479179D01*
X115269737Y-110333497D01*
X115300500Y-110178842D01*
X115300500Y-110021158D01*
X115300500Y-110021155D01*
X115300499Y-110021153D01*
X115269737Y-109866503D01*
X115241134Y-109797450D01*
X115233666Y-109727984D01*
X115241133Y-109702552D01*
X115269737Y-109633497D01*
X115300500Y-109478842D01*
X115300500Y-109321158D01*
X115300500Y-109321155D01*
X115300499Y-109321153D01*
X115283061Y-109233489D01*
X115269737Y-109166503D01*
X115241134Y-109097450D01*
X115238342Y-109071484D01*
X115231754Y-109046215D01*
X115234334Y-109034202D01*
X115233666Y-109027984D01*
X115237841Y-109011449D01*
X115239315Y-109006941D01*
X115269737Y-108933497D01*
X115272192Y-108921153D01*
X122999500Y-108921153D01*
X122999500Y-109078846D01*
X123030261Y-109233489D01*
X123030264Y-109233501D01*
X123090602Y-109379172D01*
X123090609Y-109379185D01*
X123178210Y-109510288D01*
X123178213Y-109510292D01*
X123289707Y-109621786D01*
X123289711Y-109621789D01*
X123420814Y-109709390D01*
X123420827Y-109709397D01*
X123518853Y-109750000D01*
X123566503Y-109769737D01*
X123693282Y-109794955D01*
X123721153Y-109800499D01*
X123721156Y-109800500D01*
X123721158Y-109800500D01*
X123878844Y-109800500D01*
X123878845Y-109800499D01*
X124033497Y-109769737D01*
X124151592Y-109720821D01*
X124179172Y-109709397D01*
X124179172Y-109709396D01*
X124179179Y-109709394D01*
X124179184Y-109709390D01*
X124179187Y-109709389D01*
X124217497Y-109683790D01*
X124276445Y-109644402D01*
X124343121Y-109623524D01*
X124410502Y-109642008D01*
X124457192Y-109693986D01*
X124468369Y-109762956D01*
X124459898Y-109794955D01*
X124430263Y-109866502D01*
X124430261Y-109866510D01*
X124399500Y-110021153D01*
X124399500Y-110178846D01*
X124430261Y-110333489D01*
X124430264Y-110333501D01*
X124490602Y-110479172D01*
X124490609Y-110479185D01*
X124578210Y-110610288D01*
X124578213Y-110610292D01*
X124689707Y-110721786D01*
X124689711Y-110721789D01*
X124820814Y-110809390D01*
X124820827Y-110809397D01*
X124966498Y-110869735D01*
X124966503Y-110869737D01*
X125121153Y-110900499D01*
X125121156Y-110900500D01*
X125121158Y-110900500D01*
X125278844Y-110900500D01*
X125278845Y-110900499D01*
X125433497Y-110869737D01*
X125579179Y-110809394D01*
X125710289Y-110721789D01*
X125821789Y-110610289D01*
X125909394Y-110479179D01*
X125969737Y-110333497D01*
X126000500Y-110178842D01*
X126000500Y-110021158D01*
X126000500Y-110021155D01*
X126000499Y-110021153D01*
X125969737Y-109866503D01*
X125942398Y-109800500D01*
X125909397Y-109720827D01*
X125909390Y-109720814D01*
X125821789Y-109589711D01*
X125821786Y-109589707D01*
X125710292Y-109478213D01*
X125710288Y-109478210D01*
X125579185Y-109390609D01*
X125579172Y-109390602D01*
X125433501Y-109330264D01*
X125433489Y-109330261D01*
X125278845Y-109299500D01*
X125278842Y-109299500D01*
X125121158Y-109299500D01*
X125121155Y-109299500D01*
X124966510Y-109330261D01*
X124966498Y-109330264D01*
X124820827Y-109390602D01*
X124820814Y-109390609D01*
X124723554Y-109455597D01*
X124656876Y-109476475D01*
X124589496Y-109457990D01*
X124542806Y-109406011D01*
X124531630Y-109337041D01*
X124540102Y-109305042D01*
X124542398Y-109299500D01*
X124569737Y-109233497D01*
X124600500Y-109078842D01*
X124600500Y-108921158D01*
X124600500Y-108921155D01*
X124600499Y-108921153D01*
X124572192Y-108778846D01*
X124569737Y-108766503D01*
X124509534Y-108621158D01*
X124509397Y-108620827D01*
X124509390Y-108620814D01*
X124421789Y-108489711D01*
X124421786Y-108489707D01*
X124310292Y-108378213D01*
X124310288Y-108378210D01*
X124179185Y-108290609D01*
X124179172Y-108290602D01*
X124033501Y-108230264D01*
X124033489Y-108230261D01*
X123878845Y-108199500D01*
X123878842Y-108199500D01*
X123721158Y-108199500D01*
X123721155Y-108199500D01*
X123566510Y-108230261D01*
X123566498Y-108230264D01*
X123420827Y-108290602D01*
X123420814Y-108290609D01*
X123289711Y-108378210D01*
X123289707Y-108378213D01*
X123178213Y-108489707D01*
X123178210Y-108489711D01*
X123090609Y-108620814D01*
X123090602Y-108620827D01*
X123030264Y-108766498D01*
X123030261Y-108766510D01*
X122999500Y-108921153D01*
X115272192Y-108921153D01*
X115279665Y-108883583D01*
X115279667Y-108883579D01*
X115300499Y-108778846D01*
X115300500Y-108778844D01*
X115300500Y-108621155D01*
X115300499Y-108621153D01*
X115274353Y-108489711D01*
X115269737Y-108466503D01*
X115269735Y-108466498D01*
X115209397Y-108320827D01*
X115209390Y-108320814D01*
X115121789Y-108189711D01*
X115121786Y-108189707D01*
X115010292Y-108078213D01*
X115010288Y-108078210D01*
X114879185Y-107990609D01*
X114879172Y-107990602D01*
X114733501Y-107930264D01*
X114733489Y-107930261D01*
X114578845Y-107899500D01*
X114578842Y-107899500D01*
X114421158Y-107899500D01*
X114421155Y-107899500D01*
X114266510Y-107930261D01*
X114266498Y-107930264D01*
X114120827Y-107990602D01*
X114120814Y-107990609D01*
X113989711Y-108078210D01*
X113989707Y-108078213D01*
X113878213Y-108189707D01*
X113878210Y-108189711D01*
X113790609Y-108320814D01*
X113790602Y-108320827D01*
X113730264Y-108466498D01*
X113730261Y-108466510D01*
X113699500Y-108621153D01*
X80200500Y-108621153D01*
X80200500Y-103121153D01*
X113399500Y-103121153D01*
X113399500Y-103278846D01*
X113430261Y-103433489D01*
X113430264Y-103433501D01*
X113490602Y-103579172D01*
X113490609Y-103579185D01*
X113578210Y-103710288D01*
X113578213Y-103710292D01*
X113689707Y-103821786D01*
X113689711Y-103821789D01*
X113820814Y-103909390D01*
X113820827Y-103909397D01*
X113966498Y-103969735D01*
X113966503Y-103969737D01*
X114121153Y-104000499D01*
X114121156Y-104000500D01*
X114121158Y-104000500D01*
X114278844Y-104000500D01*
X114278845Y-104000499D01*
X114433497Y-103969737D01*
X114579179Y-103909394D01*
X114710289Y-103821789D01*
X114710925Y-103821153D01*
X124899500Y-103821153D01*
X124899500Y-103978846D01*
X124930261Y-104133489D01*
X124930264Y-104133501D01*
X124990602Y-104279172D01*
X124990609Y-104279185D01*
X125078210Y-104410288D01*
X125078213Y-104410292D01*
X125189707Y-104521786D01*
X125189711Y-104521789D01*
X125320814Y-104609390D01*
X125320827Y-104609397D01*
X125466498Y-104669735D01*
X125466503Y-104669737D01*
X125621153Y-104700499D01*
X125621156Y-104700500D01*
X125621158Y-104700500D01*
X125778844Y-104700500D01*
X125778845Y-104700499D01*
X125933497Y-104669737D01*
X126079179Y-104609394D01*
X126210289Y-104521789D01*
X126321789Y-104410289D01*
X126409394Y-104279179D01*
X126469737Y-104133497D01*
X126500500Y-103978842D01*
X126500500Y-103821158D01*
X126500500Y-103821155D01*
X126500499Y-103821153D01*
X126478447Y-103710292D01*
X126469737Y-103666503D01*
X126464724Y-103654402D01*
X126457255Y-103584935D01*
X126488528Y-103522455D01*
X126548617Y-103486801D01*
X126555050Y-103485340D01*
X126633497Y-103469737D01*
X126779179Y-103409394D01*
X126910289Y-103321789D01*
X127021789Y-103210289D01*
X127109394Y-103079179D01*
X127169737Y-102933497D01*
X127200500Y-102778842D01*
X127200500Y-102621158D01*
X127200500Y-102621155D01*
X127200499Y-102621153D01*
X127174531Y-102490606D01*
X127169737Y-102466503D01*
X127169735Y-102466498D01*
X127109397Y-102320827D01*
X127109390Y-102320814D01*
X127021789Y-102189711D01*
X127021786Y-102189707D01*
X126910292Y-102078213D01*
X126910288Y-102078210D01*
X126779185Y-101990609D01*
X126779172Y-101990602D01*
X126633501Y-101930264D01*
X126633489Y-101930261D01*
X126478845Y-101899500D01*
X126478842Y-101899500D01*
X126321158Y-101899500D01*
X126321155Y-101899500D01*
X126166510Y-101930261D01*
X126166498Y-101930264D01*
X126020827Y-101990602D01*
X126020814Y-101990609D01*
X125889711Y-102078210D01*
X125889707Y-102078213D01*
X125778213Y-102189707D01*
X125778210Y-102189711D01*
X125690609Y-102320814D01*
X125690602Y-102320827D01*
X125630264Y-102466498D01*
X125630261Y-102466510D01*
X125599500Y-102621153D01*
X125599500Y-102778846D01*
X125630261Y-102933489D01*
X125630264Y-102933501D01*
X125635275Y-102945598D01*
X125642744Y-103015068D01*
X125611468Y-103077547D01*
X125551379Y-103113198D01*
X125544906Y-103114667D01*
X125466508Y-103130261D01*
X125466498Y-103130264D01*
X125320827Y-103190602D01*
X125320814Y-103190609D01*
X125189711Y-103278210D01*
X125189707Y-103278213D01*
X125078213Y-103389707D01*
X125078210Y-103389711D01*
X124990609Y-103520814D01*
X124990602Y-103520827D01*
X124930264Y-103666498D01*
X124930261Y-103666510D01*
X124899500Y-103821153D01*
X114710925Y-103821153D01*
X114804694Y-103727385D01*
X114821786Y-103710292D01*
X114821789Y-103710289D01*
X114909394Y-103579179D01*
X114969737Y-103433497D01*
X115000500Y-103278842D01*
X115000500Y-103121158D01*
X115000500Y-103121155D01*
X115000499Y-103121153D01*
X114969738Y-102966510D01*
X114969737Y-102966503D01*
X114956062Y-102933489D01*
X114909397Y-102820827D01*
X114909390Y-102820814D01*
X114821789Y-102689711D01*
X114821786Y-102689707D01*
X114710292Y-102578213D01*
X114710288Y-102578210D01*
X114579185Y-102490609D01*
X114579172Y-102490602D01*
X114433501Y-102430264D01*
X114433489Y-102430261D01*
X114278845Y-102399500D01*
X114278842Y-102399500D01*
X114121158Y-102399500D01*
X114121155Y-102399500D01*
X113966510Y-102430261D01*
X113966498Y-102430264D01*
X113820827Y-102490602D01*
X113820814Y-102490609D01*
X113689711Y-102578210D01*
X113689707Y-102578213D01*
X113578213Y-102689707D01*
X113578210Y-102689711D01*
X113490609Y-102820814D01*
X113490602Y-102820827D01*
X113430264Y-102966498D01*
X113430261Y-102966510D01*
X113399500Y-103121153D01*
X80200500Y-103121153D01*
X80200500Y-100121153D01*
X125599500Y-100121153D01*
X125599500Y-100278846D01*
X125630261Y-100433489D01*
X125630264Y-100433501D01*
X125690602Y-100579172D01*
X125690609Y-100579185D01*
X125778210Y-100710288D01*
X125778213Y-100710292D01*
X125889707Y-100821786D01*
X125889711Y-100821789D01*
X126020814Y-100909390D01*
X126020827Y-100909397D01*
X126166498Y-100969735D01*
X126166503Y-100969737D01*
X126321153Y-101000499D01*
X126321156Y-101000500D01*
X126321158Y-101000500D01*
X126478844Y-101000500D01*
X126478845Y-101000499D01*
X126633497Y-100969737D01*
X126779179Y-100909394D01*
X126910289Y-100821789D01*
X127021789Y-100710289D01*
X127109394Y-100579179D01*
X127169737Y-100433497D01*
X127200500Y-100278842D01*
X127200500Y-100121158D01*
X127200500Y-100121155D01*
X127200499Y-100121153D01*
X127169738Y-99966510D01*
X127169737Y-99966503D01*
X127169735Y-99966498D01*
X127109397Y-99820827D01*
X127109390Y-99820814D01*
X127021789Y-99689711D01*
X127021786Y-99689707D01*
X126910292Y-99578213D01*
X126910288Y-99578210D01*
X126779185Y-99490609D01*
X126779172Y-99490602D01*
X126633501Y-99430264D01*
X126633489Y-99430261D01*
X126478845Y-99399500D01*
X126478842Y-99399500D01*
X126321158Y-99399500D01*
X126321155Y-99399500D01*
X126166510Y-99430261D01*
X126166498Y-99430264D01*
X126020827Y-99490602D01*
X126020814Y-99490609D01*
X125889711Y-99578210D01*
X125889707Y-99578213D01*
X125778213Y-99689707D01*
X125778210Y-99689711D01*
X125690609Y-99820814D01*
X125690602Y-99820827D01*
X125630264Y-99966498D01*
X125630261Y-99966510D01*
X125599500Y-100121153D01*
X80200500Y-100121153D01*
X80200500Y-97921153D01*
X97199500Y-97921153D01*
X97199500Y-98078846D01*
X97230261Y-98233489D01*
X97230264Y-98233501D01*
X97290602Y-98379172D01*
X97290609Y-98379185D01*
X97378210Y-98510288D01*
X97378213Y-98510292D01*
X97489707Y-98621786D01*
X97489711Y-98621789D01*
X97620814Y-98709390D01*
X97620827Y-98709397D01*
X97766498Y-98769735D01*
X97766503Y-98769737D01*
X97921153Y-98800499D01*
X97921156Y-98800500D01*
X97921158Y-98800500D01*
X98078844Y-98800500D01*
X98078845Y-98800499D01*
X98233497Y-98769737D01*
X98379179Y-98709394D01*
X98510289Y-98621789D01*
X98621789Y-98510289D01*
X98709394Y-98379179D01*
X98769737Y-98233497D01*
X98800500Y-98078842D01*
X98800500Y-97921158D01*
X98800500Y-97921155D01*
X98800499Y-97921153D01*
X99199500Y-97921153D01*
X99199500Y-98078846D01*
X99230261Y-98233489D01*
X99230264Y-98233501D01*
X99290602Y-98379172D01*
X99290609Y-98379185D01*
X99378210Y-98510288D01*
X99378213Y-98510292D01*
X99489707Y-98621786D01*
X99489711Y-98621789D01*
X99620814Y-98709390D01*
X99620827Y-98709397D01*
X99766498Y-98769735D01*
X99766503Y-98769737D01*
X99921153Y-98800499D01*
X99921156Y-98800500D01*
X99921158Y-98800500D01*
X100078844Y-98800500D01*
X100078845Y-98800499D01*
X100233497Y-98769737D01*
X100379179Y-98709394D01*
X100510289Y-98621789D01*
X100621789Y-98510289D01*
X100709394Y-98379179D01*
X100769737Y-98233497D01*
X100800500Y-98078842D01*
X100800500Y-97921158D01*
X100800500Y-97921155D01*
X100800499Y-97921153D01*
X101199500Y-97921153D01*
X101199500Y-98078846D01*
X101230261Y-98233489D01*
X101230264Y-98233501D01*
X101290602Y-98379172D01*
X101290609Y-98379185D01*
X101378210Y-98510288D01*
X101378213Y-98510292D01*
X101489707Y-98621786D01*
X101489711Y-98621789D01*
X101620814Y-98709390D01*
X101620827Y-98709397D01*
X101766498Y-98769735D01*
X101766503Y-98769737D01*
X101921153Y-98800499D01*
X101921156Y-98800500D01*
X101921158Y-98800500D01*
X102078844Y-98800500D01*
X102078845Y-98800499D01*
X102233497Y-98769737D01*
X102379179Y-98709394D01*
X102510289Y-98621789D01*
X102621789Y-98510289D01*
X102709394Y-98379179D01*
X102769737Y-98233497D01*
X102800500Y-98078842D01*
X102800500Y-97921158D01*
X102800500Y-97921155D01*
X102800499Y-97921153D01*
X102769738Y-97766510D01*
X102769737Y-97766503D01*
X102769735Y-97766498D01*
X102709397Y-97620827D01*
X102709390Y-97620814D01*
X102621789Y-97489711D01*
X102621786Y-97489707D01*
X102510292Y-97378213D01*
X102510288Y-97378210D01*
X102379185Y-97290609D01*
X102379172Y-97290602D01*
X102233501Y-97230264D01*
X102233489Y-97230261D01*
X102078845Y-97199500D01*
X102078842Y-97199500D01*
X101921158Y-97199500D01*
X101921155Y-97199500D01*
X101766510Y-97230261D01*
X101766498Y-97230264D01*
X101620827Y-97290602D01*
X101620814Y-97290609D01*
X101489711Y-97378210D01*
X101489707Y-97378213D01*
X101378213Y-97489707D01*
X101378210Y-97489711D01*
X101290609Y-97620814D01*
X101290602Y-97620827D01*
X101230264Y-97766498D01*
X101230261Y-97766510D01*
X101199500Y-97921153D01*
X100800499Y-97921153D01*
X100769738Y-97766510D01*
X100769737Y-97766503D01*
X100769735Y-97766498D01*
X100709397Y-97620827D01*
X100709390Y-97620814D01*
X100621789Y-97489711D01*
X100621786Y-97489707D01*
X100510292Y-97378213D01*
X100510288Y-97378210D01*
X100379185Y-97290609D01*
X100379172Y-97290602D01*
X100233501Y-97230264D01*
X100233489Y-97230261D01*
X100078845Y-97199500D01*
X100078842Y-97199500D01*
X99921158Y-97199500D01*
X99921155Y-97199500D01*
X99766510Y-97230261D01*
X99766498Y-97230264D01*
X99620827Y-97290602D01*
X99620814Y-97290609D01*
X99489711Y-97378210D01*
X99489707Y-97378213D01*
X99378213Y-97489707D01*
X99378210Y-97489711D01*
X99290609Y-97620814D01*
X99290602Y-97620827D01*
X99230264Y-97766498D01*
X99230261Y-97766510D01*
X99199500Y-97921153D01*
X98800499Y-97921153D01*
X98769738Y-97766510D01*
X98769737Y-97766503D01*
X98769735Y-97766498D01*
X98709397Y-97620827D01*
X98709390Y-97620814D01*
X98621789Y-97489711D01*
X98621786Y-97489707D01*
X98510292Y-97378213D01*
X98510288Y-97378210D01*
X98379185Y-97290609D01*
X98379172Y-97290602D01*
X98233501Y-97230264D01*
X98233489Y-97230261D01*
X98078845Y-97199500D01*
X98078842Y-97199500D01*
X97921158Y-97199500D01*
X97921155Y-97199500D01*
X97766510Y-97230261D01*
X97766498Y-97230264D01*
X97620827Y-97290602D01*
X97620814Y-97290609D01*
X97489711Y-97378210D01*
X97489707Y-97378213D01*
X97378213Y-97489707D01*
X97378210Y-97489711D01*
X97290609Y-97620814D01*
X97290602Y-97620827D01*
X97230264Y-97766498D01*
X97230261Y-97766510D01*
X97199500Y-97921153D01*
X80200500Y-97921153D01*
X80200500Y-95621153D01*
X120799500Y-95621153D01*
X120799500Y-95778846D01*
X120830261Y-95933489D01*
X120830264Y-95933501D01*
X120890602Y-96079172D01*
X120890609Y-96079185D01*
X120978210Y-96210288D01*
X120978213Y-96210292D01*
X121089707Y-96321786D01*
X121089711Y-96321789D01*
X121220814Y-96409390D01*
X121220827Y-96409397D01*
X121366498Y-96469735D01*
X121366503Y-96469737D01*
X121521153Y-96500499D01*
X121521156Y-96500500D01*
X121521158Y-96500500D01*
X121678844Y-96500500D01*
X121678845Y-96500499D01*
X121833497Y-96469737D01*
X121979179Y-96409394D01*
X122110289Y-96321789D01*
X122221789Y-96210289D01*
X122309394Y-96079179D01*
X122369737Y-95933497D01*
X122400500Y-95778842D01*
X122400500Y-95621158D01*
X122400500Y-95621155D01*
X122400499Y-95621153D01*
X122378269Y-95509397D01*
X122369737Y-95466503D01*
X122351215Y-95421786D01*
X122309397Y-95320827D01*
X122309390Y-95320814D01*
X122221789Y-95189711D01*
X122221786Y-95189707D01*
X122110292Y-95078213D01*
X122110288Y-95078210D01*
X121979185Y-94990609D01*
X121979172Y-94990602D01*
X121833501Y-94930264D01*
X121833489Y-94930261D01*
X121678845Y-94899500D01*
X121678842Y-94899500D01*
X121521158Y-94899500D01*
X121521155Y-94899500D01*
X121366510Y-94930261D01*
X121366498Y-94930264D01*
X121220827Y-94990602D01*
X121220814Y-94990609D01*
X121089711Y-95078210D01*
X121089707Y-95078213D01*
X120978213Y-95189707D01*
X120978210Y-95189711D01*
X120890609Y-95320814D01*
X120890602Y-95320827D01*
X120830264Y-95466498D01*
X120830261Y-95466510D01*
X120799500Y-95621153D01*
X80200500Y-95621153D01*
X80200500Y-94721153D01*
X116099500Y-94721153D01*
X116099500Y-94878846D01*
X116130261Y-95033489D01*
X116130264Y-95033501D01*
X116190602Y-95179172D01*
X116190609Y-95179185D01*
X116278210Y-95310288D01*
X116278213Y-95310292D01*
X116389707Y-95421786D01*
X116389711Y-95421789D01*
X116520814Y-95509390D01*
X116520827Y-95509397D01*
X116666498Y-95569735D01*
X116666503Y-95569737D01*
X116821153Y-95600499D01*
X116821156Y-95600500D01*
X116821158Y-95600500D01*
X116978844Y-95600500D01*
X116978845Y-95600499D01*
X117133497Y-95569737D01*
X117279179Y-95509394D01*
X117410289Y-95421789D01*
X117521789Y-95310289D01*
X117609394Y-95179179D01*
X117669737Y-95033497D01*
X117700500Y-94878842D01*
X117700500Y-94721158D01*
X117700500Y-94721155D01*
X117700499Y-94721153D01*
X117669738Y-94566510D01*
X117669737Y-94566503D01*
X117663545Y-94551555D01*
X117609397Y-94420827D01*
X117609390Y-94420814D01*
X117521789Y-94289711D01*
X117521786Y-94289707D01*
X117410292Y-94178213D01*
X117410288Y-94178210D01*
X117279185Y-94090609D01*
X117279172Y-94090602D01*
X117133501Y-94030264D01*
X117133489Y-94030261D01*
X116978845Y-93999500D01*
X116978842Y-93999500D01*
X116821158Y-93999500D01*
X116821155Y-93999500D01*
X116666510Y-94030261D01*
X116666498Y-94030264D01*
X116520827Y-94090602D01*
X116520814Y-94090609D01*
X116389711Y-94178210D01*
X116389707Y-94178213D01*
X116278213Y-94289707D01*
X116278210Y-94289711D01*
X116190609Y-94420814D01*
X116190602Y-94420827D01*
X116130264Y-94566498D01*
X116130261Y-94566510D01*
X116099500Y-94721153D01*
X80200500Y-94721153D01*
X80200500Y-92421153D01*
X124899500Y-92421153D01*
X124899500Y-92578846D01*
X124930261Y-92733489D01*
X124930264Y-92733501D01*
X124990602Y-92879172D01*
X124990609Y-92879185D01*
X125078210Y-93010288D01*
X125078213Y-93010292D01*
X125189707Y-93121786D01*
X125189711Y-93121789D01*
X125320814Y-93209390D01*
X125320827Y-93209397D01*
X125388961Y-93237618D01*
X125466503Y-93269737D01*
X125532187Y-93282802D01*
X125594096Y-93315186D01*
X125628671Y-93375901D01*
X125629612Y-93380227D01*
X125630261Y-93383491D01*
X125630263Y-93383499D01*
X125690602Y-93529172D01*
X125690609Y-93529185D01*
X125778210Y-93660288D01*
X125778213Y-93660292D01*
X125889707Y-93771786D01*
X125889711Y-93771789D01*
X126020814Y-93859390D01*
X126020827Y-93859397D01*
X126166498Y-93919735D01*
X126166503Y-93919737D01*
X126321153Y-93950499D01*
X126321156Y-93950500D01*
X126321158Y-93950500D01*
X126478844Y-93950500D01*
X126478845Y-93950499D01*
X126633497Y-93919737D01*
X126779179Y-93859394D01*
X126910289Y-93771789D01*
X127021789Y-93660289D01*
X127109394Y-93529179D01*
X127169737Y-93383497D01*
X127200500Y-93228842D01*
X127200500Y-93071158D01*
X127200500Y-93071155D01*
X127200499Y-93071153D01*
X127169738Y-92916510D01*
X127169737Y-92916503D01*
X127169735Y-92916498D01*
X127109397Y-92770827D01*
X127109390Y-92770814D01*
X127021789Y-92639711D01*
X127021786Y-92639707D01*
X126910292Y-92528213D01*
X126910288Y-92528210D01*
X126779185Y-92440609D01*
X126779172Y-92440602D01*
X126633501Y-92380264D01*
X126633489Y-92380261D01*
X126567813Y-92367197D01*
X126505902Y-92334812D01*
X126471328Y-92274096D01*
X126470392Y-92269798D01*
X126469737Y-92266503D01*
X126419388Y-92144949D01*
X126409397Y-92120827D01*
X126409390Y-92120814D01*
X126321789Y-91989711D01*
X126321786Y-91989707D01*
X126210292Y-91878213D01*
X126210288Y-91878210D01*
X126079185Y-91790609D01*
X126079172Y-91790602D01*
X125933501Y-91730264D01*
X125933489Y-91730261D01*
X125778845Y-91699500D01*
X125778842Y-91699500D01*
X125621158Y-91699500D01*
X125621155Y-91699500D01*
X125466510Y-91730261D01*
X125466498Y-91730264D01*
X125320827Y-91790602D01*
X125320814Y-91790609D01*
X125189711Y-91878210D01*
X125189707Y-91878213D01*
X125078213Y-91989707D01*
X125078210Y-91989711D01*
X124990609Y-92120814D01*
X124990602Y-92120827D01*
X124930264Y-92266498D01*
X124930261Y-92266510D01*
X124899500Y-92421153D01*
X80200500Y-92421153D01*
X80200500Y-89921153D01*
X125599500Y-89921153D01*
X125599500Y-90078846D01*
X125630261Y-90233489D01*
X125630264Y-90233501D01*
X125690602Y-90379172D01*
X125690609Y-90379185D01*
X125778210Y-90510288D01*
X125778213Y-90510292D01*
X125889707Y-90621786D01*
X125889711Y-90621789D01*
X126020814Y-90709390D01*
X126020827Y-90709397D01*
X126166498Y-90769735D01*
X126166503Y-90769737D01*
X126321153Y-90800499D01*
X126321156Y-90800500D01*
X126321158Y-90800500D01*
X126478844Y-90800500D01*
X126478845Y-90800499D01*
X126633497Y-90769737D01*
X126779179Y-90709394D01*
X126910289Y-90621789D01*
X127021789Y-90510289D01*
X127109394Y-90379179D01*
X127169737Y-90233497D01*
X127200500Y-90078842D01*
X127200500Y-89921158D01*
X127200500Y-89921155D01*
X127200499Y-89921153D01*
X127169738Y-89766510D01*
X127169737Y-89766503D01*
X127154572Y-89729890D01*
X127109397Y-89620827D01*
X127109390Y-89620814D01*
X127021789Y-89489711D01*
X127021786Y-89489707D01*
X126910292Y-89378213D01*
X126910288Y-89378210D01*
X126779185Y-89290609D01*
X126779172Y-89290602D01*
X126633501Y-89230264D01*
X126633489Y-89230261D01*
X126478845Y-89199500D01*
X126478842Y-89199500D01*
X126321158Y-89199500D01*
X126321155Y-89199500D01*
X126166510Y-89230261D01*
X126166498Y-89230264D01*
X126020827Y-89290602D01*
X126020814Y-89290609D01*
X125889711Y-89378210D01*
X125889707Y-89378213D01*
X125778213Y-89489707D01*
X125778210Y-89489711D01*
X125690609Y-89620814D01*
X125690602Y-89620827D01*
X125630264Y-89766498D01*
X125630261Y-89766510D01*
X125599500Y-89921153D01*
X80200500Y-89921153D01*
X80200500Y-88113713D01*
X135849500Y-88113713D01*
X135849500Y-88326286D01*
X135882753Y-88536239D01*
X135948444Y-88738414D01*
X136044951Y-88927820D01*
X136169890Y-89099786D01*
X136320213Y-89250109D01*
X136492182Y-89375050D01*
X136500946Y-89379516D01*
X136551742Y-89427491D01*
X136568536Y-89495312D01*
X136545998Y-89561447D01*
X136500946Y-89600484D01*
X136492182Y-89604949D01*
X136320213Y-89729890D01*
X136169890Y-89880213D01*
X136044951Y-90052179D01*
X135948444Y-90241585D01*
X135882753Y-90443760D01*
X135849500Y-90653713D01*
X135849500Y-90866286D01*
X135882753Y-91076239D01*
X135948444Y-91278414D01*
X136044951Y-91467820D01*
X136169890Y-91639786D01*
X136320213Y-91790109D01*
X136492182Y-91915050D01*
X136500946Y-91919516D01*
X136551742Y-91967491D01*
X136568536Y-92035312D01*
X136545998Y-92101447D01*
X136500946Y-92140484D01*
X136492182Y-92144949D01*
X136320213Y-92269890D01*
X136169890Y-92420213D01*
X136044951Y-92592179D01*
X135948444Y-92781585D01*
X135882753Y-92983760D01*
X135868911Y-93071155D01*
X135849500Y-93193713D01*
X135849500Y-93406287D01*
X135882754Y-93616243D01*
X135933294Y-93771789D01*
X135948444Y-93818414D01*
X136044951Y-94007820D01*
X136169890Y-94179786D01*
X136320213Y-94330109D01*
X136492179Y-94455048D01*
X136492181Y-94455049D01*
X136492184Y-94455051D01*
X136681588Y-94551557D01*
X136883757Y-94617246D01*
X137093713Y-94650500D01*
X137093714Y-94650500D01*
X137306286Y-94650500D01*
X137306287Y-94650500D01*
X137516243Y-94617246D01*
X137718412Y-94551557D01*
X137907816Y-94455051D01*
X137954940Y-94420814D01*
X138079786Y-94330109D01*
X138079788Y-94330106D01*
X138079792Y-94330104D01*
X138230104Y-94179792D01*
X138230106Y-94179788D01*
X138230109Y-94179786D01*
X138355048Y-94007820D01*
X138355047Y-94007820D01*
X138355051Y-94007816D01*
X138451557Y-93818412D01*
X138517246Y-93616243D01*
X138550500Y-93406287D01*
X138550500Y-93193713D01*
X138517246Y-92983757D01*
X138451557Y-92781588D01*
X138355051Y-92592184D01*
X138355049Y-92592181D01*
X138355048Y-92592179D01*
X138230109Y-92420213D01*
X138079786Y-92269890D01*
X137907820Y-92144951D01*
X137907115Y-92144591D01*
X137899054Y-92140485D01*
X137848259Y-92092512D01*
X137831463Y-92024692D01*
X137853999Y-91958556D01*
X137899054Y-91919515D01*
X137907816Y-91915051D01*
X137958524Y-91878210D01*
X138079786Y-91790109D01*
X138079788Y-91790106D01*
X138079792Y-91790104D01*
X138230104Y-91639792D01*
X138230106Y-91639788D01*
X138230109Y-91639786D01*
X138355048Y-91467820D01*
X138355047Y-91467820D01*
X138355051Y-91467816D01*
X138451557Y-91278412D01*
X138517246Y-91076243D01*
X138550500Y-90866287D01*
X138550500Y-90653713D01*
X138517246Y-90443757D01*
X138451557Y-90241588D01*
X138355051Y-90052184D01*
X138355049Y-90052181D01*
X138355048Y-90052179D01*
X138230109Y-89880213D01*
X138079786Y-89729890D01*
X137907820Y-89604951D01*
X137907115Y-89604591D01*
X137899054Y-89600485D01*
X137848259Y-89552512D01*
X137831463Y-89484692D01*
X137853999Y-89418556D01*
X137899054Y-89379515D01*
X137907816Y-89375051D01*
X137929789Y-89359086D01*
X138079786Y-89250109D01*
X138079788Y-89250106D01*
X138079792Y-89250104D01*
X138230104Y-89099792D01*
X138230106Y-89099788D01*
X138230109Y-89099786D01*
X138355048Y-88927820D01*
X138355047Y-88927820D01*
X138355051Y-88927816D01*
X138451557Y-88738412D01*
X138517246Y-88536243D01*
X138550500Y-88326287D01*
X138550500Y-88113713D01*
X138517246Y-87903757D01*
X138451557Y-87701588D01*
X138355051Y-87512184D01*
X138355049Y-87512181D01*
X138355048Y-87512179D01*
X138230109Y-87340213D01*
X138079786Y-87189890D01*
X137907820Y-87064951D01*
X137718414Y-86968444D01*
X137718413Y-86968443D01*
X137718412Y-86968443D01*
X137516243Y-86902754D01*
X137516241Y-86902753D01*
X137516240Y-86902753D01*
X137354957Y-86877208D01*
X137306287Y-86869500D01*
X137093713Y-86869500D01*
X137045042Y-86877208D01*
X136883760Y-86902753D01*
X136681585Y-86968444D01*
X136492179Y-87064951D01*
X136320213Y-87189890D01*
X136169890Y-87340213D01*
X136044951Y-87512179D01*
X135948444Y-87701585D01*
X135882753Y-87903760D01*
X135849500Y-88113713D01*
X80200500Y-88113713D01*
X80200500Y-84821153D01*
X136699500Y-84821153D01*
X136699500Y-84978846D01*
X136730261Y-85133489D01*
X136730264Y-85133501D01*
X136790602Y-85279172D01*
X136790609Y-85279185D01*
X136878210Y-85410288D01*
X136878213Y-85410292D01*
X136989707Y-85521786D01*
X136989711Y-85521789D01*
X137120814Y-85609390D01*
X137120827Y-85609397D01*
X137266498Y-85669735D01*
X137266503Y-85669737D01*
X137421153Y-85700499D01*
X137421156Y-85700500D01*
X137421158Y-85700500D01*
X137578844Y-85700500D01*
X137578845Y-85700499D01*
X137733497Y-85669737D01*
X137879179Y-85609394D01*
X138010289Y-85521789D01*
X138121789Y-85410289D01*
X138209394Y-85279179D01*
X138269737Y-85133497D01*
X138300500Y-84978842D01*
X138300500Y-84821158D01*
X138300500Y-84821155D01*
X138300499Y-84821153D01*
X138269738Y-84666510D01*
X138269737Y-84666503D01*
X138269735Y-84666498D01*
X138209397Y-84520827D01*
X138209390Y-84520814D01*
X138121789Y-84389711D01*
X138121786Y-84389707D01*
X138010292Y-84278213D01*
X138010288Y-84278210D01*
X137879185Y-84190609D01*
X137879172Y-84190602D01*
X137733501Y-84130264D01*
X137733489Y-84130261D01*
X137578845Y-84099500D01*
X137578842Y-84099500D01*
X137421158Y-84099500D01*
X137421155Y-84099500D01*
X137266510Y-84130261D01*
X137266498Y-84130264D01*
X137120827Y-84190602D01*
X137120814Y-84190609D01*
X136989711Y-84278210D01*
X136989707Y-84278213D01*
X136878213Y-84389707D01*
X136878210Y-84389711D01*
X136790609Y-84520814D01*
X136790602Y-84520827D01*
X136730264Y-84666498D01*
X136730261Y-84666510D01*
X136699500Y-84821153D01*
X80200500Y-84821153D01*
X80200500Y-83157099D01*
X129372470Y-83157099D01*
X129372470Y-83314792D01*
X129403231Y-83469435D01*
X129403234Y-83469447D01*
X129463572Y-83615118D01*
X129463579Y-83615131D01*
X129551180Y-83746234D01*
X129551183Y-83746238D01*
X129662677Y-83857732D01*
X129662681Y-83857735D01*
X129793784Y-83945336D01*
X129793797Y-83945343D01*
X129939468Y-84005681D01*
X129939473Y-84005683D01*
X130094123Y-84036445D01*
X130094126Y-84036446D01*
X130094128Y-84036446D01*
X130251814Y-84036446D01*
X130251815Y-84036445D01*
X130406467Y-84005683D01*
X130552149Y-83945340D01*
X130683259Y-83857735D01*
X130794759Y-83746235D01*
X130882364Y-83615125D01*
X130942707Y-83469443D01*
X130973470Y-83314788D01*
X130973470Y-83157104D01*
X130973470Y-83157101D01*
X130973469Y-83157099D01*
X130942707Y-83002449D01*
X130929158Y-82969738D01*
X130882367Y-82856773D01*
X130882360Y-82856760D01*
X130794759Y-82725657D01*
X130794756Y-82725653D01*
X130683262Y-82614159D01*
X130683258Y-82614156D01*
X130552155Y-82526555D01*
X130552142Y-82526548D01*
X130406471Y-82466210D01*
X130406459Y-82466207D01*
X130251815Y-82435446D01*
X130251812Y-82435446D01*
X130094128Y-82435446D01*
X130094125Y-82435446D01*
X129939480Y-82466207D01*
X129939468Y-82466210D01*
X129793797Y-82526548D01*
X129793784Y-82526555D01*
X129662681Y-82614156D01*
X129662677Y-82614159D01*
X129551183Y-82725653D01*
X129551180Y-82725657D01*
X129463579Y-82856760D01*
X129463572Y-82856773D01*
X129403234Y-83002444D01*
X129403231Y-83002456D01*
X129372470Y-83157099D01*
X80200500Y-83157099D01*
X80200500Y-80421153D01*
X126199500Y-80421153D01*
X126199500Y-80578846D01*
X126230261Y-80733489D01*
X126230264Y-80733501D01*
X126290602Y-80879172D01*
X126290609Y-80879185D01*
X126378210Y-81010288D01*
X126378213Y-81010292D01*
X126489707Y-81121786D01*
X126489711Y-81121789D01*
X126620814Y-81209390D01*
X126620823Y-81209395D01*
X126683699Y-81235439D01*
X126738102Y-81279280D01*
X126760167Y-81345574D01*
X126742888Y-81413273D01*
X126691751Y-81460884D01*
X126683699Y-81464561D01*
X126620823Y-81490604D01*
X126620814Y-81490609D01*
X126489711Y-81578210D01*
X126489707Y-81578213D01*
X126378213Y-81689707D01*
X126378210Y-81689711D01*
X126290609Y-81820814D01*
X126290602Y-81820827D01*
X126230264Y-81966498D01*
X126230261Y-81966510D01*
X126199500Y-82121153D01*
X126199500Y-82278846D01*
X126230261Y-82433489D01*
X126230264Y-82433501D01*
X126290602Y-82579172D01*
X126290609Y-82579185D01*
X126378210Y-82710288D01*
X126378213Y-82710292D01*
X126489707Y-82821786D01*
X126489711Y-82821789D01*
X126620814Y-82909390D01*
X126620827Y-82909397D01*
X126766498Y-82969735D01*
X126766503Y-82969737D01*
X126921153Y-83000499D01*
X126921156Y-83000500D01*
X126921158Y-83000500D01*
X127078844Y-83000500D01*
X127078845Y-83000499D01*
X127233497Y-82969737D01*
X127379179Y-82909394D01*
X127510289Y-82821789D01*
X127621789Y-82710289D01*
X127709394Y-82579179D01*
X127769737Y-82433497D01*
X127800500Y-82278842D01*
X127800500Y-82121158D01*
X127800500Y-82121155D01*
X127800499Y-82121153D01*
X127769737Y-81966503D01*
X127760971Y-81945339D01*
X127709397Y-81820827D01*
X127709390Y-81820814D01*
X127621789Y-81689711D01*
X127621786Y-81689707D01*
X127510292Y-81578213D01*
X127510288Y-81578210D01*
X127379185Y-81490609D01*
X127379172Y-81490602D01*
X127316301Y-81464561D01*
X127261897Y-81420721D01*
X127239832Y-81354427D01*
X127257111Y-81286727D01*
X127308248Y-81239116D01*
X127316301Y-81235439D01*
X127379172Y-81209397D01*
X127379172Y-81209396D01*
X127379179Y-81209394D01*
X127510289Y-81121789D01*
X127621789Y-81010289D01*
X127709394Y-80879179D01*
X127769737Y-80733497D01*
X127800500Y-80578842D01*
X127800500Y-80421158D01*
X127800500Y-80421155D01*
X127800499Y-80421153D01*
X127769738Y-80266510D01*
X127769737Y-80266503D01*
X127769735Y-80266498D01*
X127709397Y-80120827D01*
X127709390Y-80120814D01*
X127621789Y-79989711D01*
X127621786Y-79989707D01*
X127510292Y-79878213D01*
X127510288Y-79878210D01*
X127379185Y-79790609D01*
X127379172Y-79790602D01*
X127233501Y-79730264D01*
X127233489Y-79730261D01*
X127078845Y-79699500D01*
X127078842Y-79699500D01*
X126921158Y-79699500D01*
X126921155Y-79699500D01*
X126766510Y-79730261D01*
X126766498Y-79730264D01*
X126620827Y-79790602D01*
X126620814Y-79790609D01*
X126489711Y-79878210D01*
X126489707Y-79878213D01*
X126378213Y-79989707D01*
X126378210Y-79989711D01*
X126290609Y-80120814D01*
X126290602Y-80120827D01*
X126230264Y-80266498D01*
X126230261Y-80266510D01*
X126199500Y-80421153D01*
X80200500Y-80421153D01*
X80200500Y-76721153D01*
X103199500Y-76721153D01*
X103199500Y-76878846D01*
X103230261Y-77033489D01*
X103230264Y-77033501D01*
X103290602Y-77179172D01*
X103290609Y-77179185D01*
X103378210Y-77310288D01*
X103378213Y-77310292D01*
X103489707Y-77421786D01*
X103489711Y-77421789D01*
X103620814Y-77509390D01*
X103620827Y-77509397D01*
X103766498Y-77569735D01*
X103766503Y-77569737D01*
X103921153Y-77600499D01*
X103921156Y-77600500D01*
X103921158Y-77600500D01*
X104078844Y-77600500D01*
X104078845Y-77600499D01*
X104233497Y-77569737D01*
X104379179Y-77509394D01*
X104510289Y-77421789D01*
X104621789Y-77310289D01*
X104709394Y-77179179D01*
X104769737Y-77033497D01*
X104800500Y-76878842D01*
X104800500Y-76721158D01*
X104800500Y-76721155D01*
X104800499Y-76721153D01*
X104769738Y-76566510D01*
X104769737Y-76566503D01*
X104769735Y-76566498D01*
X104709397Y-76420827D01*
X104709390Y-76420814D01*
X104621789Y-76289711D01*
X104621786Y-76289707D01*
X104510292Y-76178213D01*
X104510288Y-76178210D01*
X104379185Y-76090609D01*
X104379172Y-76090602D01*
X104233501Y-76030264D01*
X104233489Y-76030261D01*
X104078845Y-75999500D01*
X104078842Y-75999500D01*
X103921158Y-75999500D01*
X103921155Y-75999500D01*
X103766510Y-76030261D01*
X103766498Y-76030264D01*
X103620827Y-76090602D01*
X103620814Y-76090609D01*
X103489711Y-76178210D01*
X103489707Y-76178213D01*
X103378213Y-76289707D01*
X103378210Y-76289711D01*
X103290609Y-76420814D01*
X103290602Y-76420827D01*
X103230264Y-76566498D01*
X103230261Y-76566510D01*
X103199500Y-76721153D01*
X80200500Y-76721153D01*
X80200500Y-73881995D01*
X82199500Y-73881995D01*
X82199500Y-74118004D01*
X82199501Y-74118020D01*
X82230306Y-74352010D01*
X82291394Y-74579993D01*
X82381714Y-74798045D01*
X82381719Y-74798056D01*
X82421242Y-74866510D01*
X82499727Y-75002450D01*
X82499728Y-75002451D01*
X82499730Y-75002454D01*
X82643406Y-75189697D01*
X82643412Y-75189704D01*
X82810295Y-75356587D01*
X82810301Y-75356592D01*
X82997550Y-75500273D01*
X83128918Y-75576118D01*
X83201943Y-75618280D01*
X83201948Y-75618282D01*
X83201951Y-75618284D01*
X83420007Y-75708606D01*
X83647986Y-75769693D01*
X83881989Y-75800500D01*
X83881996Y-75800500D01*
X84118004Y-75800500D01*
X84118011Y-75800500D01*
X84352014Y-75769693D01*
X84579993Y-75708606D01*
X84798049Y-75618284D01*
X85002450Y-75500273D01*
X85189699Y-75356592D01*
X85356592Y-75189699D01*
X85485922Y-75021153D01*
X129199500Y-75021153D01*
X129199500Y-75178846D01*
X129230261Y-75333489D01*
X129230264Y-75333501D01*
X129290602Y-75479172D01*
X129290609Y-75479185D01*
X129378210Y-75610288D01*
X129378213Y-75610292D01*
X129489707Y-75721786D01*
X129489711Y-75721789D01*
X129620814Y-75809390D01*
X129620827Y-75809397D01*
X129766498Y-75869735D01*
X129766503Y-75869737D01*
X129921153Y-75900499D01*
X129921156Y-75900500D01*
X129921158Y-75900500D01*
X130078844Y-75900500D01*
X130078845Y-75900499D01*
X130233497Y-75869737D01*
X130379179Y-75809394D01*
X130510289Y-75721789D01*
X130621789Y-75610289D01*
X130709394Y-75479179D01*
X130769737Y-75333497D01*
X130800500Y-75178842D01*
X130800500Y-75021158D01*
X130800500Y-75021155D01*
X130800499Y-75021153D01*
X130769737Y-74866503D01*
X130741381Y-74798045D01*
X130709397Y-74720827D01*
X130709390Y-74720814D01*
X130621789Y-74589711D01*
X130621786Y-74589707D01*
X130510292Y-74478213D01*
X130510288Y-74478210D01*
X130379185Y-74390609D01*
X130379172Y-74390602D01*
X130233501Y-74330264D01*
X130233489Y-74330261D01*
X130078845Y-74299500D01*
X130078842Y-74299500D01*
X129921158Y-74299500D01*
X129921155Y-74299500D01*
X129766510Y-74330261D01*
X129766498Y-74330264D01*
X129620827Y-74390602D01*
X129620814Y-74390609D01*
X129489711Y-74478210D01*
X129489707Y-74478213D01*
X129378213Y-74589707D01*
X129378210Y-74589711D01*
X129290609Y-74720814D01*
X129290602Y-74720827D01*
X129230264Y-74866498D01*
X129230261Y-74866510D01*
X129199500Y-75021153D01*
X85485922Y-75021153D01*
X85500273Y-75002450D01*
X85520832Y-74966839D01*
X85528786Y-74953065D01*
X85618280Y-74798056D01*
X85618280Y-74798055D01*
X85618284Y-74798049D01*
X85708606Y-74579993D01*
X85769693Y-74352014D01*
X85800500Y-74118011D01*
X85800500Y-73881989D01*
X85769693Y-73647986D01*
X85708606Y-73420007D01*
X85688370Y-73371153D01*
X104049500Y-73371153D01*
X104049500Y-73528846D01*
X104080261Y-73683489D01*
X104080264Y-73683501D01*
X104140602Y-73829172D01*
X104140609Y-73829185D01*
X104228210Y-73960288D01*
X104228213Y-73960292D01*
X104339707Y-74071786D01*
X104339711Y-74071789D01*
X104470814Y-74159390D01*
X104470827Y-74159397D01*
X104616498Y-74219735D01*
X104616503Y-74219737D01*
X104739034Y-74244110D01*
X104771153Y-74250499D01*
X104771156Y-74250500D01*
X104771158Y-74250500D01*
X104928844Y-74250500D01*
X104928845Y-74250499D01*
X105083497Y-74219737D01*
X105229179Y-74159394D01*
X105360289Y-74071789D01*
X105471789Y-73960289D01*
X105559394Y-73829179D01*
X105619737Y-73683497D01*
X105650500Y-73528842D01*
X105650500Y-73371158D01*
X105650500Y-73371155D01*
X105650499Y-73371153D01*
X105619738Y-73216510D01*
X105619737Y-73216503D01*
X105613711Y-73201954D01*
X105559397Y-73070827D01*
X105559390Y-73070814D01*
X105471789Y-72939711D01*
X105471786Y-72939707D01*
X105360292Y-72828213D01*
X105360288Y-72828210D01*
X105229185Y-72740609D01*
X105229172Y-72740602D01*
X105083501Y-72680264D01*
X105083489Y-72680261D01*
X104928845Y-72649500D01*
X104928842Y-72649500D01*
X104771158Y-72649500D01*
X104771155Y-72649500D01*
X104616510Y-72680261D01*
X104616498Y-72680264D01*
X104470827Y-72740602D01*
X104470814Y-72740609D01*
X104339711Y-72828210D01*
X104339707Y-72828213D01*
X104228213Y-72939707D01*
X104228210Y-72939711D01*
X104140609Y-73070814D01*
X104140602Y-73070827D01*
X104080264Y-73216498D01*
X104080261Y-73216510D01*
X104049500Y-73371153D01*
X85688370Y-73371153D01*
X85618284Y-73201951D01*
X85618282Y-73201948D01*
X85618280Y-73201943D01*
X85576118Y-73128918D01*
X85500273Y-72997550D01*
X85373449Y-72832269D01*
X85356593Y-72810302D01*
X85356587Y-72810295D01*
X85189704Y-72643412D01*
X85189697Y-72643406D01*
X85002454Y-72499730D01*
X85002453Y-72499729D01*
X85002450Y-72499727D01*
X84920957Y-72452677D01*
X84798056Y-72381719D01*
X84798045Y-72381714D01*
X84579993Y-72291394D01*
X84352010Y-72230306D01*
X84118020Y-72199501D01*
X84118017Y-72199500D01*
X84118011Y-72199500D01*
X83881989Y-72199500D01*
X83881983Y-72199500D01*
X83881979Y-72199501D01*
X83647989Y-72230306D01*
X83420006Y-72291394D01*
X83201954Y-72381714D01*
X83201943Y-72381719D01*
X82997545Y-72499730D01*
X82810302Y-72643406D01*
X82810295Y-72643412D01*
X82643412Y-72810295D01*
X82643406Y-72810302D01*
X82499730Y-72997545D01*
X82499727Y-72997549D01*
X82499727Y-72997550D01*
X82496303Y-73003480D01*
X82381719Y-73201943D01*
X82381714Y-73201954D01*
X82291394Y-73420006D01*
X82230306Y-73647989D01*
X82199501Y-73881979D01*
X82199500Y-73881995D01*
X80200500Y-73881995D01*
X80200500Y-73003480D01*
X80200695Y-72996527D01*
X80203886Y-72939707D01*
X80217713Y-72693497D01*
X80219267Y-72679700D01*
X80269525Y-72383908D01*
X80272613Y-72370376D01*
X80355674Y-72082063D01*
X80360264Y-72068949D01*
X80475078Y-71791762D01*
X80481098Y-71779263D01*
X80626240Y-71516646D01*
X80633617Y-71504907D01*
X80807239Y-71260211D01*
X80815885Y-71249368D01*
X81015824Y-71025636D01*
X81025636Y-71015824D01*
X81249368Y-70815885D01*
X81260211Y-70807239D01*
X81504907Y-70633617D01*
X81516646Y-70626240D01*
X81779263Y-70481098D01*
X81791762Y-70475078D01*
X82068956Y-70360261D01*
X82082063Y-70355674D01*
X82370376Y-70272613D01*
X82383908Y-70269525D01*
X82679700Y-70219267D01*
X82693497Y-70217713D01*
X82996528Y-70200695D01*
X83003481Y-70200500D01*
X83039882Y-70200500D01*
X124375887Y-70200500D01*
X124442926Y-70220185D01*
G37*
%TD.AperFunction*%
%TD*%
M02*
